G04 #@! TF.GenerationSoftware,KiCad,Pcbnew,7.0.7*
G04 #@! TF.CreationDate,2023-12-06T21:13:40-05:00*
G04 #@! TF.ProjectId,SARD_Motherboard,53415244-5f4d-46f7-9468-6572626f6172,rev?*
G04 #@! TF.SameCoordinates,Original*
G04 #@! TF.FileFunction,AssemblyDrawing,Bot*
%FSLAX46Y46*%
G04 Gerber Fmt 4.6, Leading zero omitted, Abs format (unit mm)*
G04 Created by KiCad (PCBNEW 7.0.7) date 2023-12-06 21:13:40*
%MOMM*%
%LPD*%
G01*
G04 APERTURE LIST*
%ADD10C,0.150000*%
%ADD11C,0.060000*%
%ADD12C,0.100000*%
G04 APERTURE END LIST*
D10*
X121504580Y-114492857D02*
X121552200Y-114540476D01*
X121552200Y-114540476D02*
X121599819Y-114492857D01*
X121599819Y-114492857D02*
X121552200Y-114445238D01*
X121552200Y-114445238D02*
X121504580Y-114492857D01*
X121504580Y-114492857D02*
X121599819Y-114492857D01*
X121599819Y-115492856D02*
X121599819Y-114921428D01*
X121599819Y-115207142D02*
X120599819Y-115207142D01*
X120599819Y-115207142D02*
X120742676Y-115111904D01*
X120742676Y-115111904D02*
X120837914Y-115016666D01*
X120837914Y-115016666D02*
X120885533Y-114921428D01*
X120933152Y-116349999D02*
X121599819Y-116349999D01*
X120933152Y-115921428D02*
X121456961Y-115921428D01*
X121456961Y-115921428D02*
X121552200Y-115969047D01*
X121552200Y-115969047D02*
X121599819Y-116064285D01*
X121599819Y-116064285D02*
X121599819Y-116207142D01*
X121599819Y-116207142D02*
X121552200Y-116302380D01*
X121552200Y-116302380D02*
X121504580Y-116349999D01*
X121076009Y-117159523D02*
X121076009Y-116826190D01*
X121599819Y-116826190D02*
X120599819Y-116826190D01*
X120599819Y-116826190D02*
X120599819Y-117302380D01*
X181535714Y-91704819D02*
X181535714Y-90704819D01*
X181535714Y-90704819D02*
X181202381Y-91419104D01*
X181202381Y-91419104D02*
X180869048Y-90704819D01*
X180869048Y-90704819D02*
X180869048Y-91704819D01*
X180250000Y-91704819D02*
X180345238Y-91657200D01*
X180345238Y-91657200D02*
X180392857Y-91609580D01*
X180392857Y-91609580D02*
X180440476Y-91514342D01*
X180440476Y-91514342D02*
X180440476Y-91228628D01*
X180440476Y-91228628D02*
X180392857Y-91133390D01*
X180392857Y-91133390D02*
X180345238Y-91085771D01*
X180345238Y-91085771D02*
X180250000Y-91038152D01*
X180250000Y-91038152D02*
X180107143Y-91038152D01*
X180107143Y-91038152D02*
X180011905Y-91085771D01*
X180011905Y-91085771D02*
X179964286Y-91133390D01*
X179964286Y-91133390D02*
X179916667Y-91228628D01*
X179916667Y-91228628D02*
X179916667Y-91514342D01*
X179916667Y-91514342D02*
X179964286Y-91609580D01*
X179964286Y-91609580D02*
X180011905Y-91657200D01*
X180011905Y-91657200D02*
X180107143Y-91704819D01*
X180107143Y-91704819D02*
X180250000Y-91704819D01*
X179059524Y-91038152D02*
X179059524Y-91704819D01*
X179488095Y-91038152D02*
X179488095Y-91561961D01*
X179488095Y-91561961D02*
X179440476Y-91657200D01*
X179440476Y-91657200D02*
X179345238Y-91704819D01*
X179345238Y-91704819D02*
X179202381Y-91704819D01*
X179202381Y-91704819D02*
X179107143Y-91657200D01*
X179107143Y-91657200D02*
X179059524Y-91609580D01*
X178583333Y-91038152D02*
X178583333Y-91704819D01*
X178583333Y-91133390D02*
X178535714Y-91085771D01*
X178535714Y-91085771D02*
X178440476Y-91038152D01*
X178440476Y-91038152D02*
X178297619Y-91038152D01*
X178297619Y-91038152D02*
X178202381Y-91085771D01*
X178202381Y-91085771D02*
X178154762Y-91181009D01*
X178154762Y-91181009D02*
X178154762Y-91704819D01*
X177821428Y-91038152D02*
X177440476Y-91038152D01*
X177678571Y-90704819D02*
X177678571Y-91561961D01*
X177678571Y-91561961D02*
X177630952Y-91657200D01*
X177630952Y-91657200D02*
X177535714Y-91704819D01*
X177535714Y-91704819D02*
X177440476Y-91704819D01*
X177107142Y-91704819D02*
X177107142Y-91038152D01*
X177107142Y-90704819D02*
X177154761Y-90752438D01*
X177154761Y-90752438D02*
X177107142Y-90800057D01*
X177107142Y-90800057D02*
X177059523Y-90752438D01*
X177059523Y-90752438D02*
X177107142Y-90704819D01*
X177107142Y-90704819D02*
X177107142Y-90800057D01*
X176630952Y-91038152D02*
X176630952Y-91704819D01*
X176630952Y-91133390D02*
X176583333Y-91085771D01*
X176583333Y-91085771D02*
X176488095Y-91038152D01*
X176488095Y-91038152D02*
X176345238Y-91038152D01*
X176345238Y-91038152D02*
X176250000Y-91085771D01*
X176250000Y-91085771D02*
X176202381Y-91181009D01*
X176202381Y-91181009D02*
X176202381Y-91704819D01*
X175297619Y-91038152D02*
X175297619Y-91847676D01*
X175297619Y-91847676D02*
X175345238Y-91942914D01*
X175345238Y-91942914D02*
X175392857Y-91990533D01*
X175392857Y-91990533D02*
X175488095Y-92038152D01*
X175488095Y-92038152D02*
X175630952Y-92038152D01*
X175630952Y-92038152D02*
X175726190Y-91990533D01*
X175297619Y-91657200D02*
X175392857Y-91704819D01*
X175392857Y-91704819D02*
X175583333Y-91704819D01*
X175583333Y-91704819D02*
X175678571Y-91657200D01*
X175678571Y-91657200D02*
X175726190Y-91609580D01*
X175726190Y-91609580D02*
X175773809Y-91514342D01*
X175773809Y-91514342D02*
X175773809Y-91228628D01*
X175773809Y-91228628D02*
X175726190Y-91133390D01*
X175726190Y-91133390D02*
X175678571Y-91085771D01*
X175678571Y-91085771D02*
X175583333Y-91038152D01*
X175583333Y-91038152D02*
X175392857Y-91038152D01*
X175392857Y-91038152D02*
X175297619Y-91085771D01*
X174821428Y-91704819D02*
X174821428Y-90704819D01*
X174821428Y-91181009D02*
X174250000Y-91181009D01*
X174250000Y-91704819D02*
X174250000Y-90704819D01*
X173630952Y-91704819D02*
X173726190Y-91657200D01*
X173726190Y-91657200D02*
X173773809Y-91609580D01*
X173773809Y-91609580D02*
X173821428Y-91514342D01*
X173821428Y-91514342D02*
X173821428Y-91228628D01*
X173821428Y-91228628D02*
X173773809Y-91133390D01*
X173773809Y-91133390D02*
X173726190Y-91085771D01*
X173726190Y-91085771D02*
X173630952Y-91038152D01*
X173630952Y-91038152D02*
X173488095Y-91038152D01*
X173488095Y-91038152D02*
X173392857Y-91085771D01*
X173392857Y-91085771D02*
X173345238Y-91133390D01*
X173345238Y-91133390D02*
X173297619Y-91228628D01*
X173297619Y-91228628D02*
X173297619Y-91514342D01*
X173297619Y-91514342D02*
X173345238Y-91609580D01*
X173345238Y-91609580D02*
X173392857Y-91657200D01*
X173392857Y-91657200D02*
X173488095Y-91704819D01*
X173488095Y-91704819D02*
X173630952Y-91704819D01*
X172726190Y-91704819D02*
X172821428Y-91657200D01*
X172821428Y-91657200D02*
X172869047Y-91561961D01*
X172869047Y-91561961D02*
X172869047Y-90704819D01*
X171964285Y-91657200D02*
X172059523Y-91704819D01*
X172059523Y-91704819D02*
X172249999Y-91704819D01*
X172249999Y-91704819D02*
X172345237Y-91657200D01*
X172345237Y-91657200D02*
X172392856Y-91561961D01*
X172392856Y-91561961D02*
X172392856Y-91181009D01*
X172392856Y-91181009D02*
X172345237Y-91085771D01*
X172345237Y-91085771D02*
X172249999Y-91038152D01*
X172249999Y-91038152D02*
X172059523Y-91038152D01*
X172059523Y-91038152D02*
X171964285Y-91085771D01*
X171964285Y-91085771D02*
X171916666Y-91181009D01*
X171916666Y-91181009D02*
X171916666Y-91276247D01*
X171916666Y-91276247D02*
X172392856Y-91371485D01*
X169035714Y-82204819D02*
X169035714Y-81204819D01*
X169035714Y-81204819D02*
X168702381Y-81919104D01*
X168702381Y-81919104D02*
X168369048Y-81204819D01*
X168369048Y-81204819D02*
X168369048Y-82204819D01*
X167750000Y-82204819D02*
X167845238Y-82157200D01*
X167845238Y-82157200D02*
X167892857Y-82109580D01*
X167892857Y-82109580D02*
X167940476Y-82014342D01*
X167940476Y-82014342D02*
X167940476Y-81728628D01*
X167940476Y-81728628D02*
X167892857Y-81633390D01*
X167892857Y-81633390D02*
X167845238Y-81585771D01*
X167845238Y-81585771D02*
X167750000Y-81538152D01*
X167750000Y-81538152D02*
X167607143Y-81538152D01*
X167607143Y-81538152D02*
X167511905Y-81585771D01*
X167511905Y-81585771D02*
X167464286Y-81633390D01*
X167464286Y-81633390D02*
X167416667Y-81728628D01*
X167416667Y-81728628D02*
X167416667Y-82014342D01*
X167416667Y-82014342D02*
X167464286Y-82109580D01*
X167464286Y-82109580D02*
X167511905Y-82157200D01*
X167511905Y-82157200D02*
X167607143Y-82204819D01*
X167607143Y-82204819D02*
X167750000Y-82204819D01*
X166559524Y-81538152D02*
X166559524Y-82204819D01*
X166988095Y-81538152D02*
X166988095Y-82061961D01*
X166988095Y-82061961D02*
X166940476Y-82157200D01*
X166940476Y-82157200D02*
X166845238Y-82204819D01*
X166845238Y-82204819D02*
X166702381Y-82204819D01*
X166702381Y-82204819D02*
X166607143Y-82157200D01*
X166607143Y-82157200D02*
X166559524Y-82109580D01*
X166083333Y-81538152D02*
X166083333Y-82204819D01*
X166083333Y-81633390D02*
X166035714Y-81585771D01*
X166035714Y-81585771D02*
X165940476Y-81538152D01*
X165940476Y-81538152D02*
X165797619Y-81538152D01*
X165797619Y-81538152D02*
X165702381Y-81585771D01*
X165702381Y-81585771D02*
X165654762Y-81681009D01*
X165654762Y-81681009D02*
X165654762Y-82204819D01*
X165321428Y-81538152D02*
X164940476Y-81538152D01*
X165178571Y-81204819D02*
X165178571Y-82061961D01*
X165178571Y-82061961D02*
X165130952Y-82157200D01*
X165130952Y-82157200D02*
X165035714Y-82204819D01*
X165035714Y-82204819D02*
X164940476Y-82204819D01*
X164607142Y-82204819D02*
X164607142Y-81538152D01*
X164607142Y-81204819D02*
X164654761Y-81252438D01*
X164654761Y-81252438D02*
X164607142Y-81300057D01*
X164607142Y-81300057D02*
X164559523Y-81252438D01*
X164559523Y-81252438D02*
X164607142Y-81204819D01*
X164607142Y-81204819D02*
X164607142Y-81300057D01*
X164130952Y-81538152D02*
X164130952Y-82204819D01*
X164130952Y-81633390D02*
X164083333Y-81585771D01*
X164083333Y-81585771D02*
X163988095Y-81538152D01*
X163988095Y-81538152D02*
X163845238Y-81538152D01*
X163845238Y-81538152D02*
X163750000Y-81585771D01*
X163750000Y-81585771D02*
X163702381Y-81681009D01*
X163702381Y-81681009D02*
X163702381Y-82204819D01*
X162797619Y-81538152D02*
X162797619Y-82347676D01*
X162797619Y-82347676D02*
X162845238Y-82442914D01*
X162845238Y-82442914D02*
X162892857Y-82490533D01*
X162892857Y-82490533D02*
X162988095Y-82538152D01*
X162988095Y-82538152D02*
X163130952Y-82538152D01*
X163130952Y-82538152D02*
X163226190Y-82490533D01*
X162797619Y-82157200D02*
X162892857Y-82204819D01*
X162892857Y-82204819D02*
X163083333Y-82204819D01*
X163083333Y-82204819D02*
X163178571Y-82157200D01*
X163178571Y-82157200D02*
X163226190Y-82109580D01*
X163226190Y-82109580D02*
X163273809Y-82014342D01*
X163273809Y-82014342D02*
X163273809Y-81728628D01*
X163273809Y-81728628D02*
X163226190Y-81633390D01*
X163226190Y-81633390D02*
X163178571Y-81585771D01*
X163178571Y-81585771D02*
X163083333Y-81538152D01*
X163083333Y-81538152D02*
X162892857Y-81538152D01*
X162892857Y-81538152D02*
X162797619Y-81585771D01*
X162321428Y-82204819D02*
X162321428Y-81204819D01*
X162321428Y-81681009D02*
X161750000Y-81681009D01*
X161750000Y-82204819D02*
X161750000Y-81204819D01*
X161130952Y-82204819D02*
X161226190Y-82157200D01*
X161226190Y-82157200D02*
X161273809Y-82109580D01*
X161273809Y-82109580D02*
X161321428Y-82014342D01*
X161321428Y-82014342D02*
X161321428Y-81728628D01*
X161321428Y-81728628D02*
X161273809Y-81633390D01*
X161273809Y-81633390D02*
X161226190Y-81585771D01*
X161226190Y-81585771D02*
X161130952Y-81538152D01*
X161130952Y-81538152D02*
X160988095Y-81538152D01*
X160988095Y-81538152D02*
X160892857Y-81585771D01*
X160892857Y-81585771D02*
X160845238Y-81633390D01*
X160845238Y-81633390D02*
X160797619Y-81728628D01*
X160797619Y-81728628D02*
X160797619Y-82014342D01*
X160797619Y-82014342D02*
X160845238Y-82109580D01*
X160845238Y-82109580D02*
X160892857Y-82157200D01*
X160892857Y-82157200D02*
X160988095Y-82204819D01*
X160988095Y-82204819D02*
X161130952Y-82204819D01*
X160226190Y-82204819D02*
X160321428Y-82157200D01*
X160321428Y-82157200D02*
X160369047Y-82061961D01*
X160369047Y-82061961D02*
X160369047Y-81204819D01*
X159464285Y-82157200D02*
X159559523Y-82204819D01*
X159559523Y-82204819D02*
X159749999Y-82204819D01*
X159749999Y-82204819D02*
X159845237Y-82157200D01*
X159845237Y-82157200D02*
X159892856Y-82061961D01*
X159892856Y-82061961D02*
X159892856Y-81681009D01*
X159892856Y-81681009D02*
X159845237Y-81585771D01*
X159845237Y-81585771D02*
X159749999Y-81538152D01*
X159749999Y-81538152D02*
X159559523Y-81538152D01*
X159559523Y-81538152D02*
X159464285Y-81585771D01*
X159464285Y-81585771D02*
X159416666Y-81681009D01*
X159416666Y-81681009D02*
X159416666Y-81776247D01*
X159416666Y-81776247D02*
X159892856Y-81871485D01*
X146035714Y-109704819D02*
X146035714Y-108704819D01*
X146035714Y-108704819D02*
X145702381Y-109419104D01*
X145702381Y-109419104D02*
X145369048Y-108704819D01*
X145369048Y-108704819D02*
X145369048Y-109704819D01*
X144750000Y-109704819D02*
X144845238Y-109657200D01*
X144845238Y-109657200D02*
X144892857Y-109609580D01*
X144892857Y-109609580D02*
X144940476Y-109514342D01*
X144940476Y-109514342D02*
X144940476Y-109228628D01*
X144940476Y-109228628D02*
X144892857Y-109133390D01*
X144892857Y-109133390D02*
X144845238Y-109085771D01*
X144845238Y-109085771D02*
X144750000Y-109038152D01*
X144750000Y-109038152D02*
X144607143Y-109038152D01*
X144607143Y-109038152D02*
X144511905Y-109085771D01*
X144511905Y-109085771D02*
X144464286Y-109133390D01*
X144464286Y-109133390D02*
X144416667Y-109228628D01*
X144416667Y-109228628D02*
X144416667Y-109514342D01*
X144416667Y-109514342D02*
X144464286Y-109609580D01*
X144464286Y-109609580D02*
X144511905Y-109657200D01*
X144511905Y-109657200D02*
X144607143Y-109704819D01*
X144607143Y-109704819D02*
X144750000Y-109704819D01*
X143559524Y-109038152D02*
X143559524Y-109704819D01*
X143988095Y-109038152D02*
X143988095Y-109561961D01*
X143988095Y-109561961D02*
X143940476Y-109657200D01*
X143940476Y-109657200D02*
X143845238Y-109704819D01*
X143845238Y-109704819D02*
X143702381Y-109704819D01*
X143702381Y-109704819D02*
X143607143Y-109657200D01*
X143607143Y-109657200D02*
X143559524Y-109609580D01*
X143083333Y-109038152D02*
X143083333Y-109704819D01*
X143083333Y-109133390D02*
X143035714Y-109085771D01*
X143035714Y-109085771D02*
X142940476Y-109038152D01*
X142940476Y-109038152D02*
X142797619Y-109038152D01*
X142797619Y-109038152D02*
X142702381Y-109085771D01*
X142702381Y-109085771D02*
X142654762Y-109181009D01*
X142654762Y-109181009D02*
X142654762Y-109704819D01*
X142321428Y-109038152D02*
X141940476Y-109038152D01*
X142178571Y-108704819D02*
X142178571Y-109561961D01*
X142178571Y-109561961D02*
X142130952Y-109657200D01*
X142130952Y-109657200D02*
X142035714Y-109704819D01*
X142035714Y-109704819D02*
X141940476Y-109704819D01*
X141607142Y-109704819D02*
X141607142Y-109038152D01*
X141607142Y-108704819D02*
X141654761Y-108752438D01*
X141654761Y-108752438D02*
X141607142Y-108800057D01*
X141607142Y-108800057D02*
X141559523Y-108752438D01*
X141559523Y-108752438D02*
X141607142Y-108704819D01*
X141607142Y-108704819D02*
X141607142Y-108800057D01*
X141130952Y-109038152D02*
X141130952Y-109704819D01*
X141130952Y-109133390D02*
X141083333Y-109085771D01*
X141083333Y-109085771D02*
X140988095Y-109038152D01*
X140988095Y-109038152D02*
X140845238Y-109038152D01*
X140845238Y-109038152D02*
X140750000Y-109085771D01*
X140750000Y-109085771D02*
X140702381Y-109181009D01*
X140702381Y-109181009D02*
X140702381Y-109704819D01*
X139797619Y-109038152D02*
X139797619Y-109847676D01*
X139797619Y-109847676D02*
X139845238Y-109942914D01*
X139845238Y-109942914D02*
X139892857Y-109990533D01*
X139892857Y-109990533D02*
X139988095Y-110038152D01*
X139988095Y-110038152D02*
X140130952Y-110038152D01*
X140130952Y-110038152D02*
X140226190Y-109990533D01*
X139797619Y-109657200D02*
X139892857Y-109704819D01*
X139892857Y-109704819D02*
X140083333Y-109704819D01*
X140083333Y-109704819D02*
X140178571Y-109657200D01*
X140178571Y-109657200D02*
X140226190Y-109609580D01*
X140226190Y-109609580D02*
X140273809Y-109514342D01*
X140273809Y-109514342D02*
X140273809Y-109228628D01*
X140273809Y-109228628D02*
X140226190Y-109133390D01*
X140226190Y-109133390D02*
X140178571Y-109085771D01*
X140178571Y-109085771D02*
X140083333Y-109038152D01*
X140083333Y-109038152D02*
X139892857Y-109038152D01*
X139892857Y-109038152D02*
X139797619Y-109085771D01*
X139321428Y-109704819D02*
X139321428Y-108704819D01*
X139321428Y-109181009D02*
X138750000Y-109181009D01*
X138750000Y-109704819D02*
X138750000Y-108704819D01*
X138130952Y-109704819D02*
X138226190Y-109657200D01*
X138226190Y-109657200D02*
X138273809Y-109609580D01*
X138273809Y-109609580D02*
X138321428Y-109514342D01*
X138321428Y-109514342D02*
X138321428Y-109228628D01*
X138321428Y-109228628D02*
X138273809Y-109133390D01*
X138273809Y-109133390D02*
X138226190Y-109085771D01*
X138226190Y-109085771D02*
X138130952Y-109038152D01*
X138130952Y-109038152D02*
X137988095Y-109038152D01*
X137988095Y-109038152D02*
X137892857Y-109085771D01*
X137892857Y-109085771D02*
X137845238Y-109133390D01*
X137845238Y-109133390D02*
X137797619Y-109228628D01*
X137797619Y-109228628D02*
X137797619Y-109514342D01*
X137797619Y-109514342D02*
X137845238Y-109609580D01*
X137845238Y-109609580D02*
X137892857Y-109657200D01*
X137892857Y-109657200D02*
X137988095Y-109704819D01*
X137988095Y-109704819D02*
X138130952Y-109704819D01*
X137226190Y-109704819D02*
X137321428Y-109657200D01*
X137321428Y-109657200D02*
X137369047Y-109561961D01*
X137369047Y-109561961D02*
X137369047Y-108704819D01*
X136464285Y-109657200D02*
X136559523Y-109704819D01*
X136559523Y-109704819D02*
X136749999Y-109704819D01*
X136749999Y-109704819D02*
X136845237Y-109657200D01*
X136845237Y-109657200D02*
X136892856Y-109561961D01*
X136892856Y-109561961D02*
X136892856Y-109181009D01*
X136892856Y-109181009D02*
X136845237Y-109085771D01*
X136845237Y-109085771D02*
X136749999Y-109038152D01*
X136749999Y-109038152D02*
X136559523Y-109038152D01*
X136559523Y-109038152D02*
X136464285Y-109085771D01*
X136464285Y-109085771D02*
X136416666Y-109181009D01*
X136416666Y-109181009D02*
X136416666Y-109276247D01*
X136416666Y-109276247D02*
X136892856Y-109371485D01*
X143035714Y-82204819D02*
X143035714Y-81204819D01*
X143035714Y-81204819D02*
X142702381Y-81919104D01*
X142702381Y-81919104D02*
X142369048Y-81204819D01*
X142369048Y-81204819D02*
X142369048Y-82204819D01*
X141750000Y-82204819D02*
X141845238Y-82157200D01*
X141845238Y-82157200D02*
X141892857Y-82109580D01*
X141892857Y-82109580D02*
X141940476Y-82014342D01*
X141940476Y-82014342D02*
X141940476Y-81728628D01*
X141940476Y-81728628D02*
X141892857Y-81633390D01*
X141892857Y-81633390D02*
X141845238Y-81585771D01*
X141845238Y-81585771D02*
X141750000Y-81538152D01*
X141750000Y-81538152D02*
X141607143Y-81538152D01*
X141607143Y-81538152D02*
X141511905Y-81585771D01*
X141511905Y-81585771D02*
X141464286Y-81633390D01*
X141464286Y-81633390D02*
X141416667Y-81728628D01*
X141416667Y-81728628D02*
X141416667Y-82014342D01*
X141416667Y-82014342D02*
X141464286Y-82109580D01*
X141464286Y-82109580D02*
X141511905Y-82157200D01*
X141511905Y-82157200D02*
X141607143Y-82204819D01*
X141607143Y-82204819D02*
X141750000Y-82204819D01*
X140559524Y-81538152D02*
X140559524Y-82204819D01*
X140988095Y-81538152D02*
X140988095Y-82061961D01*
X140988095Y-82061961D02*
X140940476Y-82157200D01*
X140940476Y-82157200D02*
X140845238Y-82204819D01*
X140845238Y-82204819D02*
X140702381Y-82204819D01*
X140702381Y-82204819D02*
X140607143Y-82157200D01*
X140607143Y-82157200D02*
X140559524Y-82109580D01*
X140083333Y-81538152D02*
X140083333Y-82204819D01*
X140083333Y-81633390D02*
X140035714Y-81585771D01*
X140035714Y-81585771D02*
X139940476Y-81538152D01*
X139940476Y-81538152D02*
X139797619Y-81538152D01*
X139797619Y-81538152D02*
X139702381Y-81585771D01*
X139702381Y-81585771D02*
X139654762Y-81681009D01*
X139654762Y-81681009D02*
X139654762Y-82204819D01*
X139321428Y-81538152D02*
X138940476Y-81538152D01*
X139178571Y-81204819D02*
X139178571Y-82061961D01*
X139178571Y-82061961D02*
X139130952Y-82157200D01*
X139130952Y-82157200D02*
X139035714Y-82204819D01*
X139035714Y-82204819D02*
X138940476Y-82204819D01*
X138607142Y-82204819D02*
X138607142Y-81538152D01*
X138607142Y-81204819D02*
X138654761Y-81252438D01*
X138654761Y-81252438D02*
X138607142Y-81300057D01*
X138607142Y-81300057D02*
X138559523Y-81252438D01*
X138559523Y-81252438D02*
X138607142Y-81204819D01*
X138607142Y-81204819D02*
X138607142Y-81300057D01*
X138130952Y-81538152D02*
X138130952Y-82204819D01*
X138130952Y-81633390D02*
X138083333Y-81585771D01*
X138083333Y-81585771D02*
X137988095Y-81538152D01*
X137988095Y-81538152D02*
X137845238Y-81538152D01*
X137845238Y-81538152D02*
X137750000Y-81585771D01*
X137750000Y-81585771D02*
X137702381Y-81681009D01*
X137702381Y-81681009D02*
X137702381Y-82204819D01*
X136797619Y-81538152D02*
X136797619Y-82347676D01*
X136797619Y-82347676D02*
X136845238Y-82442914D01*
X136845238Y-82442914D02*
X136892857Y-82490533D01*
X136892857Y-82490533D02*
X136988095Y-82538152D01*
X136988095Y-82538152D02*
X137130952Y-82538152D01*
X137130952Y-82538152D02*
X137226190Y-82490533D01*
X136797619Y-82157200D02*
X136892857Y-82204819D01*
X136892857Y-82204819D02*
X137083333Y-82204819D01*
X137083333Y-82204819D02*
X137178571Y-82157200D01*
X137178571Y-82157200D02*
X137226190Y-82109580D01*
X137226190Y-82109580D02*
X137273809Y-82014342D01*
X137273809Y-82014342D02*
X137273809Y-81728628D01*
X137273809Y-81728628D02*
X137226190Y-81633390D01*
X137226190Y-81633390D02*
X137178571Y-81585771D01*
X137178571Y-81585771D02*
X137083333Y-81538152D01*
X137083333Y-81538152D02*
X136892857Y-81538152D01*
X136892857Y-81538152D02*
X136797619Y-81585771D01*
X136321428Y-82204819D02*
X136321428Y-81204819D01*
X136321428Y-81681009D02*
X135750000Y-81681009D01*
X135750000Y-82204819D02*
X135750000Y-81204819D01*
X135130952Y-82204819D02*
X135226190Y-82157200D01*
X135226190Y-82157200D02*
X135273809Y-82109580D01*
X135273809Y-82109580D02*
X135321428Y-82014342D01*
X135321428Y-82014342D02*
X135321428Y-81728628D01*
X135321428Y-81728628D02*
X135273809Y-81633390D01*
X135273809Y-81633390D02*
X135226190Y-81585771D01*
X135226190Y-81585771D02*
X135130952Y-81538152D01*
X135130952Y-81538152D02*
X134988095Y-81538152D01*
X134988095Y-81538152D02*
X134892857Y-81585771D01*
X134892857Y-81585771D02*
X134845238Y-81633390D01*
X134845238Y-81633390D02*
X134797619Y-81728628D01*
X134797619Y-81728628D02*
X134797619Y-82014342D01*
X134797619Y-82014342D02*
X134845238Y-82109580D01*
X134845238Y-82109580D02*
X134892857Y-82157200D01*
X134892857Y-82157200D02*
X134988095Y-82204819D01*
X134988095Y-82204819D02*
X135130952Y-82204819D01*
X134226190Y-82204819D02*
X134321428Y-82157200D01*
X134321428Y-82157200D02*
X134369047Y-82061961D01*
X134369047Y-82061961D02*
X134369047Y-81204819D01*
X133464285Y-82157200D02*
X133559523Y-82204819D01*
X133559523Y-82204819D02*
X133749999Y-82204819D01*
X133749999Y-82204819D02*
X133845237Y-82157200D01*
X133845237Y-82157200D02*
X133892856Y-82061961D01*
X133892856Y-82061961D02*
X133892856Y-81681009D01*
X133892856Y-81681009D02*
X133845237Y-81585771D01*
X133845237Y-81585771D02*
X133749999Y-81538152D01*
X133749999Y-81538152D02*
X133559523Y-81538152D01*
X133559523Y-81538152D02*
X133464285Y-81585771D01*
X133464285Y-81585771D02*
X133416666Y-81681009D01*
X133416666Y-81681009D02*
X133416666Y-81776247D01*
X133416666Y-81776247D02*
X133892856Y-81871485D01*
X144769642Y-124989580D02*
X144722023Y-125037200D01*
X144722023Y-125037200D02*
X144769642Y-125084819D01*
X144769642Y-125084819D02*
X144817261Y-125037200D01*
X144817261Y-125037200D02*
X144769642Y-124989580D01*
X144769642Y-124989580D02*
X144769642Y-125084819D01*
X143769643Y-125084819D02*
X144341071Y-125084819D01*
X144055357Y-125084819D02*
X144055357Y-124084819D01*
X144055357Y-124084819D02*
X144150595Y-124227676D01*
X144150595Y-124227676D02*
X144245833Y-124322914D01*
X144245833Y-124322914D02*
X144341071Y-124370533D01*
X142912500Y-124418152D02*
X142912500Y-125084819D01*
X143341071Y-124418152D02*
X143341071Y-124941961D01*
X143341071Y-124941961D02*
X143293452Y-125037200D01*
X143293452Y-125037200D02*
X143198214Y-125084819D01*
X143198214Y-125084819D02*
X143055357Y-125084819D01*
X143055357Y-125084819D02*
X142960119Y-125037200D01*
X142960119Y-125037200D02*
X142912500Y-124989580D01*
X142102976Y-124561009D02*
X142436309Y-124561009D01*
X142436309Y-125084819D02*
X142436309Y-124084819D01*
X142436309Y-124084819D02*
X141960119Y-124084819D01*
X117320057Y-127857143D02*
X117272438Y-127904762D01*
X117272438Y-127904762D02*
X117224819Y-128000000D01*
X117224819Y-128000000D02*
X117224819Y-128238095D01*
X117224819Y-128238095D02*
X117272438Y-128333333D01*
X117272438Y-128333333D02*
X117320057Y-128380952D01*
X117320057Y-128380952D02*
X117415295Y-128428571D01*
X117415295Y-128428571D02*
X117510533Y-128428571D01*
X117510533Y-128428571D02*
X117653390Y-128380952D01*
X117653390Y-128380952D02*
X118224819Y-127809524D01*
X118224819Y-127809524D02*
X118224819Y-128428571D01*
X117224819Y-128761905D02*
X117224819Y-129428571D01*
X117224819Y-129428571D02*
X118224819Y-129000000D01*
X117558152Y-129809524D02*
X118558152Y-129809524D01*
X117605771Y-129809524D02*
X117558152Y-129904762D01*
X117558152Y-129904762D02*
X117558152Y-130095238D01*
X117558152Y-130095238D02*
X117605771Y-130190476D01*
X117605771Y-130190476D02*
X117653390Y-130238095D01*
X117653390Y-130238095D02*
X117748628Y-130285714D01*
X117748628Y-130285714D02*
X118034342Y-130285714D01*
X118034342Y-130285714D02*
X118129580Y-130238095D01*
X118129580Y-130238095D02*
X118177200Y-130190476D01*
X118177200Y-130190476D02*
X118224819Y-130095238D01*
X118224819Y-130095238D02*
X118224819Y-129904762D01*
X118224819Y-129904762D02*
X118177200Y-129809524D01*
X117701009Y-131047619D02*
X117701009Y-130714286D01*
X118224819Y-130714286D02*
X117224819Y-130714286D01*
X117224819Y-130714286D02*
X117224819Y-131190476D01*
X175784819Y-137228571D02*
X175784819Y-136657143D01*
X175784819Y-136942857D02*
X174784819Y-136942857D01*
X174784819Y-136942857D02*
X174927676Y-136847619D01*
X174927676Y-136847619D02*
X175022914Y-136752381D01*
X175022914Y-136752381D02*
X175070533Y-136657143D01*
X174784819Y-137847619D02*
X174784819Y-137942857D01*
X174784819Y-137942857D02*
X174832438Y-138038095D01*
X174832438Y-138038095D02*
X174880057Y-138085714D01*
X174880057Y-138085714D02*
X174975295Y-138133333D01*
X174975295Y-138133333D02*
X175165771Y-138180952D01*
X175165771Y-138180952D02*
X175403866Y-138180952D01*
X175403866Y-138180952D02*
X175594342Y-138133333D01*
X175594342Y-138133333D02*
X175689580Y-138085714D01*
X175689580Y-138085714D02*
X175737200Y-138038095D01*
X175737200Y-138038095D02*
X175784819Y-137942857D01*
X175784819Y-137942857D02*
X175784819Y-137847619D01*
X175784819Y-137847619D02*
X175737200Y-137752381D01*
X175737200Y-137752381D02*
X175689580Y-137704762D01*
X175689580Y-137704762D02*
X175594342Y-137657143D01*
X175594342Y-137657143D02*
X175403866Y-137609524D01*
X175403866Y-137609524D02*
X175165771Y-137609524D01*
X175165771Y-137609524D02*
X174975295Y-137657143D01*
X174975295Y-137657143D02*
X174880057Y-137704762D01*
X174880057Y-137704762D02*
X174832438Y-137752381D01*
X174832438Y-137752381D02*
X174784819Y-137847619D01*
X175118152Y-138609524D02*
X175784819Y-138609524D01*
X175213390Y-138609524D02*
X175165771Y-138657143D01*
X175165771Y-138657143D02*
X175118152Y-138752381D01*
X175118152Y-138752381D02*
X175118152Y-138895238D01*
X175118152Y-138895238D02*
X175165771Y-138990476D01*
X175165771Y-138990476D02*
X175261009Y-139038095D01*
X175261009Y-139038095D02*
X175784819Y-139038095D01*
X175261009Y-139847619D02*
X175261009Y-139514286D01*
X175784819Y-139514286D02*
X174784819Y-139514286D01*
X174784819Y-139514286D02*
X174784819Y-139990476D01*
X143189580Y-129442857D02*
X143237200Y-129490476D01*
X143237200Y-129490476D02*
X143284819Y-129442857D01*
X143284819Y-129442857D02*
X143237200Y-129395238D01*
X143237200Y-129395238D02*
X143189580Y-129442857D01*
X143189580Y-129442857D02*
X143284819Y-129442857D01*
X143284819Y-130442856D02*
X143284819Y-129871428D01*
X143284819Y-130157142D02*
X142284819Y-130157142D01*
X142284819Y-130157142D02*
X142427676Y-130061904D01*
X142427676Y-130061904D02*
X142522914Y-129966666D01*
X142522914Y-129966666D02*
X142570533Y-129871428D01*
X142618152Y-131299999D02*
X143284819Y-131299999D01*
X142618152Y-130871428D02*
X143141961Y-130871428D01*
X143141961Y-130871428D02*
X143237200Y-130919047D01*
X143237200Y-130919047D02*
X143284819Y-131014285D01*
X143284819Y-131014285D02*
X143284819Y-131157142D01*
X143284819Y-131157142D02*
X143237200Y-131252380D01*
X143237200Y-131252380D02*
X143189580Y-131299999D01*
X142761009Y-132109523D02*
X142761009Y-131776190D01*
X143284819Y-131776190D02*
X142284819Y-131776190D01*
X142284819Y-131776190D02*
X142284819Y-132252380D01*
X137976190Y-112674819D02*
X138547618Y-112674819D01*
X138261904Y-112674819D02*
X138261904Y-111674819D01*
X138261904Y-111674819D02*
X138357142Y-111817676D01*
X138357142Y-111817676D02*
X138452380Y-111912914D01*
X138452380Y-111912914D02*
X138547618Y-111960533D01*
X137357142Y-111674819D02*
X137261904Y-111674819D01*
X137261904Y-111674819D02*
X137166666Y-111722438D01*
X137166666Y-111722438D02*
X137119047Y-111770057D01*
X137119047Y-111770057D02*
X137071428Y-111865295D01*
X137071428Y-111865295D02*
X137023809Y-112055771D01*
X137023809Y-112055771D02*
X137023809Y-112293866D01*
X137023809Y-112293866D02*
X137071428Y-112484342D01*
X137071428Y-112484342D02*
X137119047Y-112579580D01*
X137119047Y-112579580D02*
X137166666Y-112627200D01*
X137166666Y-112627200D02*
X137261904Y-112674819D01*
X137261904Y-112674819D02*
X137357142Y-112674819D01*
X137357142Y-112674819D02*
X137452380Y-112627200D01*
X137452380Y-112627200D02*
X137499999Y-112579580D01*
X137499999Y-112579580D02*
X137547618Y-112484342D01*
X137547618Y-112484342D02*
X137595237Y-112293866D01*
X137595237Y-112293866D02*
X137595237Y-112055771D01*
X137595237Y-112055771D02*
X137547618Y-111865295D01*
X137547618Y-111865295D02*
X137499999Y-111770057D01*
X137499999Y-111770057D02*
X137452380Y-111722438D01*
X137452380Y-111722438D02*
X137357142Y-111674819D01*
X136166666Y-112008152D02*
X136166666Y-112674819D01*
X136595237Y-112008152D02*
X136595237Y-112531961D01*
X136595237Y-112531961D02*
X136547618Y-112627200D01*
X136547618Y-112627200D02*
X136452380Y-112674819D01*
X136452380Y-112674819D02*
X136309523Y-112674819D01*
X136309523Y-112674819D02*
X136214285Y-112627200D01*
X136214285Y-112627200D02*
X136166666Y-112579580D01*
X135357142Y-112151009D02*
X135690475Y-112151009D01*
X135690475Y-112674819D02*
X135690475Y-111674819D01*
X135690475Y-111674819D02*
X135214285Y-111674819D01*
X134119047Y-111627200D02*
X134976189Y-112912914D01*
X133880951Y-111674819D02*
X133261904Y-111674819D01*
X133261904Y-111674819D02*
X133595237Y-112055771D01*
X133595237Y-112055771D02*
X133452380Y-112055771D01*
X133452380Y-112055771D02*
X133357142Y-112103390D01*
X133357142Y-112103390D02*
X133309523Y-112151009D01*
X133309523Y-112151009D02*
X133261904Y-112246247D01*
X133261904Y-112246247D02*
X133261904Y-112484342D01*
X133261904Y-112484342D02*
X133309523Y-112579580D01*
X133309523Y-112579580D02*
X133357142Y-112627200D01*
X133357142Y-112627200D02*
X133452380Y-112674819D01*
X133452380Y-112674819D02*
X133738094Y-112674819D01*
X133738094Y-112674819D02*
X133833332Y-112627200D01*
X133833332Y-112627200D02*
X133880951Y-112579580D01*
X132357142Y-111674819D02*
X132833332Y-111674819D01*
X132833332Y-111674819D02*
X132880951Y-112151009D01*
X132880951Y-112151009D02*
X132833332Y-112103390D01*
X132833332Y-112103390D02*
X132738094Y-112055771D01*
X132738094Y-112055771D02*
X132499999Y-112055771D01*
X132499999Y-112055771D02*
X132404761Y-112103390D01*
X132404761Y-112103390D02*
X132357142Y-112151009D01*
X132357142Y-112151009D02*
X132309523Y-112246247D01*
X132309523Y-112246247D02*
X132309523Y-112484342D01*
X132309523Y-112484342D02*
X132357142Y-112579580D01*
X132357142Y-112579580D02*
X132404761Y-112627200D01*
X132404761Y-112627200D02*
X132499999Y-112674819D01*
X132499999Y-112674819D02*
X132738094Y-112674819D01*
X132738094Y-112674819D02*
X132833332Y-112627200D01*
X132833332Y-112627200D02*
X132880951Y-112579580D01*
X132023808Y-111674819D02*
X131690475Y-112674819D01*
X131690475Y-112674819D02*
X131357142Y-111674819D01*
X119674819Y-118980952D02*
X119674819Y-118409524D01*
X119674819Y-118695238D02*
X118674819Y-118695238D01*
X118674819Y-118695238D02*
X118817676Y-118600000D01*
X118817676Y-118600000D02*
X118912914Y-118504762D01*
X118912914Y-118504762D02*
X118960533Y-118409524D01*
X119674819Y-119409524D02*
X118674819Y-119409524D01*
X119293866Y-119504762D02*
X119674819Y-119790476D01*
X119008152Y-119790476D02*
X119389104Y-119409524D01*
X136046428Y-118409819D02*
X136617856Y-118409819D01*
X136332142Y-118409819D02*
X136332142Y-117409819D01*
X136332142Y-117409819D02*
X136427380Y-117552676D01*
X136427380Y-117552676D02*
X136522618Y-117647914D01*
X136522618Y-117647914D02*
X136617856Y-117695533D01*
X135665475Y-117505057D02*
X135617856Y-117457438D01*
X135617856Y-117457438D02*
X135522618Y-117409819D01*
X135522618Y-117409819D02*
X135284523Y-117409819D01*
X135284523Y-117409819D02*
X135189285Y-117457438D01*
X135189285Y-117457438D02*
X135141666Y-117505057D01*
X135141666Y-117505057D02*
X135094047Y-117600295D01*
X135094047Y-117600295D02*
X135094047Y-117695533D01*
X135094047Y-117695533D02*
X135141666Y-117838390D01*
X135141666Y-117838390D02*
X135713094Y-118409819D01*
X135713094Y-118409819D02*
X135094047Y-118409819D01*
X134474999Y-117409819D02*
X134379761Y-117409819D01*
X134379761Y-117409819D02*
X134284523Y-117457438D01*
X134284523Y-117457438D02*
X134236904Y-117505057D01*
X134236904Y-117505057D02*
X134189285Y-117600295D01*
X134189285Y-117600295D02*
X134141666Y-117790771D01*
X134141666Y-117790771D02*
X134141666Y-118028866D01*
X134141666Y-118028866D02*
X134189285Y-118219342D01*
X134189285Y-118219342D02*
X134236904Y-118314580D01*
X134236904Y-118314580D02*
X134284523Y-118362200D01*
X134284523Y-118362200D02*
X134379761Y-118409819D01*
X134379761Y-118409819D02*
X134474999Y-118409819D01*
X134474999Y-118409819D02*
X134570237Y-118362200D01*
X134570237Y-118362200D02*
X134617856Y-118314580D01*
X134617856Y-118314580D02*
X134665475Y-118219342D01*
X134665475Y-118219342D02*
X134713094Y-118028866D01*
X134713094Y-118028866D02*
X134713094Y-117790771D01*
X134713094Y-117790771D02*
X134665475Y-117600295D01*
X134665475Y-117600295D02*
X134617856Y-117505057D01*
X134617856Y-117505057D02*
X134570237Y-117457438D01*
X134570237Y-117457438D02*
X134474999Y-117409819D01*
X133713094Y-118409819D02*
X133713094Y-117409819D01*
X133617856Y-118028866D02*
X133332142Y-118409819D01*
X133332142Y-117743152D02*
X133713094Y-118124104D01*
X134619047Y-138184819D02*
X135190475Y-138184819D01*
X134904761Y-138184819D02*
X134904761Y-137184819D01*
X134904761Y-137184819D02*
X134999999Y-137327676D01*
X134999999Y-137327676D02*
X135095237Y-137422914D01*
X135095237Y-137422914D02*
X135190475Y-137470533D01*
X134190475Y-138184819D02*
X134190475Y-137184819D01*
X134095237Y-137803866D02*
X133809523Y-138184819D01*
X133809523Y-137518152D02*
X134190475Y-137899104D01*
X135824819Y-137030952D02*
X135824819Y-136459524D01*
X135824819Y-136745238D02*
X134824819Y-136745238D01*
X134824819Y-136745238D02*
X134967676Y-136650000D01*
X134967676Y-136650000D02*
X135062914Y-136554762D01*
X135062914Y-136554762D02*
X135110533Y-136459524D01*
X135824819Y-137459524D02*
X134824819Y-137459524D01*
X135443866Y-137554762D02*
X135824819Y-137840476D01*
X135158152Y-137840476D02*
X135539104Y-137459524D01*
X160720057Y-140088095D02*
X160672438Y-140135714D01*
X160672438Y-140135714D02*
X160624819Y-140230952D01*
X160624819Y-140230952D02*
X160624819Y-140469047D01*
X160624819Y-140469047D02*
X160672438Y-140564285D01*
X160672438Y-140564285D02*
X160720057Y-140611904D01*
X160720057Y-140611904D02*
X160815295Y-140659523D01*
X160815295Y-140659523D02*
X160910533Y-140659523D01*
X160910533Y-140659523D02*
X161053390Y-140611904D01*
X161053390Y-140611904D02*
X161624819Y-140040476D01*
X161624819Y-140040476D02*
X161624819Y-140659523D01*
X160624819Y-140992857D02*
X160624819Y-141659523D01*
X160624819Y-141659523D02*
X161624819Y-141230952D01*
X161624819Y-142611904D02*
X161148628Y-142278571D01*
X161624819Y-142040476D02*
X160624819Y-142040476D01*
X160624819Y-142040476D02*
X160624819Y-142421428D01*
X160624819Y-142421428D02*
X160672438Y-142516666D01*
X160672438Y-142516666D02*
X160720057Y-142564285D01*
X160720057Y-142564285D02*
X160815295Y-142611904D01*
X160815295Y-142611904D02*
X160958152Y-142611904D01*
X160958152Y-142611904D02*
X161053390Y-142564285D01*
X161053390Y-142564285D02*
X161101009Y-142516666D01*
X161101009Y-142516666D02*
X161148628Y-142421428D01*
X161148628Y-142421428D02*
X161148628Y-142040476D01*
X162320057Y-140073095D02*
X162272438Y-140120714D01*
X162272438Y-140120714D02*
X162224819Y-140215952D01*
X162224819Y-140215952D02*
X162224819Y-140454047D01*
X162224819Y-140454047D02*
X162272438Y-140549285D01*
X162272438Y-140549285D02*
X162320057Y-140596904D01*
X162320057Y-140596904D02*
X162415295Y-140644523D01*
X162415295Y-140644523D02*
X162510533Y-140644523D01*
X162510533Y-140644523D02*
X162653390Y-140596904D01*
X162653390Y-140596904D02*
X163224819Y-140025476D01*
X163224819Y-140025476D02*
X163224819Y-140644523D01*
X162224819Y-140977857D02*
X162224819Y-141644523D01*
X162224819Y-141644523D02*
X163224819Y-141215952D01*
X163224819Y-142596904D02*
X162748628Y-142263571D01*
X163224819Y-142025476D02*
X162224819Y-142025476D01*
X162224819Y-142025476D02*
X162224819Y-142406428D01*
X162224819Y-142406428D02*
X162272438Y-142501666D01*
X162272438Y-142501666D02*
X162320057Y-142549285D01*
X162320057Y-142549285D02*
X162415295Y-142596904D01*
X162415295Y-142596904D02*
X162558152Y-142596904D01*
X162558152Y-142596904D02*
X162653390Y-142549285D01*
X162653390Y-142549285D02*
X162701009Y-142501666D01*
X162701009Y-142501666D02*
X162748628Y-142406428D01*
X162748628Y-142406428D02*
X162748628Y-142025476D01*
X162792857Y-137324819D02*
X163269047Y-137324819D01*
X163269047Y-137324819D02*
X163316666Y-137801009D01*
X163316666Y-137801009D02*
X163269047Y-137753390D01*
X163269047Y-137753390D02*
X163173809Y-137705771D01*
X163173809Y-137705771D02*
X162935714Y-137705771D01*
X162935714Y-137705771D02*
X162840476Y-137753390D01*
X162840476Y-137753390D02*
X162792857Y-137801009D01*
X162792857Y-137801009D02*
X162745238Y-137896247D01*
X162745238Y-137896247D02*
X162745238Y-138134342D01*
X162745238Y-138134342D02*
X162792857Y-138229580D01*
X162792857Y-138229580D02*
X162840476Y-138277200D01*
X162840476Y-138277200D02*
X162935714Y-138324819D01*
X162935714Y-138324819D02*
X163173809Y-138324819D01*
X163173809Y-138324819D02*
X163269047Y-138277200D01*
X163269047Y-138277200D02*
X163316666Y-138229580D01*
X162316666Y-138324819D02*
X162316666Y-137324819D01*
X162221428Y-137943866D02*
X161935714Y-138324819D01*
X161935714Y-137658152D02*
X162316666Y-138039104D01*
X160983333Y-138324819D02*
X161554761Y-138324819D01*
X161269047Y-138324819D02*
X161269047Y-137324819D01*
X161269047Y-137324819D02*
X161364285Y-137467676D01*
X161364285Y-137467676D02*
X161459523Y-137562914D01*
X161459523Y-137562914D02*
X161554761Y-137610533D01*
X168842857Y-138184819D02*
X169319047Y-138184819D01*
X169319047Y-138184819D02*
X169366666Y-138661009D01*
X169366666Y-138661009D02*
X169319047Y-138613390D01*
X169319047Y-138613390D02*
X169223809Y-138565771D01*
X169223809Y-138565771D02*
X168985714Y-138565771D01*
X168985714Y-138565771D02*
X168890476Y-138613390D01*
X168890476Y-138613390D02*
X168842857Y-138661009D01*
X168842857Y-138661009D02*
X168795238Y-138756247D01*
X168795238Y-138756247D02*
X168795238Y-138994342D01*
X168795238Y-138994342D02*
X168842857Y-139089580D01*
X168842857Y-139089580D02*
X168890476Y-139137200D01*
X168890476Y-139137200D02*
X168985714Y-139184819D01*
X168985714Y-139184819D02*
X169223809Y-139184819D01*
X169223809Y-139184819D02*
X169319047Y-139137200D01*
X169319047Y-139137200D02*
X169366666Y-139089580D01*
X168366666Y-139184819D02*
X168366666Y-138184819D01*
X168271428Y-138803866D02*
X167985714Y-139184819D01*
X167985714Y-138518152D02*
X168366666Y-138899104D01*
X167033333Y-139184819D02*
X167604761Y-139184819D01*
X167319047Y-139184819D02*
X167319047Y-138184819D01*
X167319047Y-138184819D02*
X167414285Y-138327676D01*
X167414285Y-138327676D02*
X167509523Y-138422914D01*
X167509523Y-138422914D02*
X167604761Y-138470533D01*
X119724819Y-129504761D02*
X119724819Y-128933333D01*
X119724819Y-129219047D02*
X118724819Y-129219047D01*
X118724819Y-129219047D02*
X118867676Y-129123809D01*
X118867676Y-129123809D02*
X118962914Y-129028571D01*
X118962914Y-129028571D02*
X119010533Y-128933333D01*
X118724819Y-130123809D02*
X118724819Y-130219047D01*
X118724819Y-130219047D02*
X118772438Y-130314285D01*
X118772438Y-130314285D02*
X118820057Y-130361904D01*
X118820057Y-130361904D02*
X118915295Y-130409523D01*
X118915295Y-130409523D02*
X119105771Y-130457142D01*
X119105771Y-130457142D02*
X119343866Y-130457142D01*
X119343866Y-130457142D02*
X119534342Y-130409523D01*
X119534342Y-130409523D02*
X119629580Y-130361904D01*
X119629580Y-130361904D02*
X119677200Y-130314285D01*
X119677200Y-130314285D02*
X119724819Y-130219047D01*
X119724819Y-130219047D02*
X119724819Y-130123809D01*
X119724819Y-130123809D02*
X119677200Y-130028571D01*
X119677200Y-130028571D02*
X119629580Y-129980952D01*
X119629580Y-129980952D02*
X119534342Y-129933333D01*
X119534342Y-129933333D02*
X119343866Y-129885714D01*
X119343866Y-129885714D02*
X119105771Y-129885714D01*
X119105771Y-129885714D02*
X118915295Y-129933333D01*
X118915295Y-129933333D02*
X118820057Y-129980952D01*
X118820057Y-129980952D02*
X118772438Y-130028571D01*
X118772438Y-130028571D02*
X118724819Y-130123809D01*
X119724819Y-130885714D02*
X118724819Y-130885714D01*
X119343866Y-130980952D02*
X119724819Y-131266666D01*
X119058152Y-131266666D02*
X119439104Y-130885714D01*
X167018152Y-140193333D02*
X167684819Y-140193333D01*
X166637200Y-139955238D02*
X167351485Y-139717143D01*
X167351485Y-139717143D02*
X167351485Y-140336190D01*
X166684819Y-140621905D02*
X166684819Y-141288571D01*
X166684819Y-141288571D02*
X167684819Y-140860000D01*
X167018152Y-141669524D02*
X168018152Y-141669524D01*
X167065771Y-141669524D02*
X167018152Y-141764762D01*
X167018152Y-141764762D02*
X167018152Y-141955238D01*
X167018152Y-141955238D02*
X167065771Y-142050476D01*
X167065771Y-142050476D02*
X167113390Y-142098095D01*
X167113390Y-142098095D02*
X167208628Y-142145714D01*
X167208628Y-142145714D02*
X167494342Y-142145714D01*
X167494342Y-142145714D02*
X167589580Y-142098095D01*
X167589580Y-142098095D02*
X167637200Y-142050476D01*
X167637200Y-142050476D02*
X167684819Y-141955238D01*
X167684819Y-141955238D02*
X167684819Y-141764762D01*
X167684819Y-141764762D02*
X167637200Y-141669524D01*
X167161009Y-142907619D02*
X167161009Y-142574286D01*
X167684819Y-142574286D02*
X166684819Y-142574286D01*
X166684819Y-142574286D02*
X166684819Y-143050476D01*
X127380952Y-137931009D02*
X127714285Y-137931009D01*
X127714285Y-138454819D02*
X127714285Y-137454819D01*
X127714285Y-137454819D02*
X127238095Y-137454819D01*
X126857142Y-138454819D02*
X126857142Y-137788152D01*
X126857142Y-137454819D02*
X126904761Y-137502438D01*
X126904761Y-137502438D02*
X126857142Y-137550057D01*
X126857142Y-137550057D02*
X126809523Y-137502438D01*
X126809523Y-137502438D02*
X126857142Y-137454819D01*
X126857142Y-137454819D02*
X126857142Y-137550057D01*
X125952381Y-138454819D02*
X125952381Y-137454819D01*
X125952381Y-138407200D02*
X126047619Y-138454819D01*
X126047619Y-138454819D02*
X126238095Y-138454819D01*
X126238095Y-138454819D02*
X126333333Y-138407200D01*
X126333333Y-138407200D02*
X126380952Y-138359580D01*
X126380952Y-138359580D02*
X126428571Y-138264342D01*
X126428571Y-138264342D02*
X126428571Y-137978628D01*
X126428571Y-137978628D02*
X126380952Y-137883390D01*
X126380952Y-137883390D02*
X126333333Y-137835771D01*
X126333333Y-137835771D02*
X126238095Y-137788152D01*
X126238095Y-137788152D02*
X126047619Y-137788152D01*
X126047619Y-137788152D02*
X125952381Y-137835771D01*
X125047619Y-137788152D02*
X125047619Y-138454819D01*
X125476190Y-137788152D02*
X125476190Y-138311961D01*
X125476190Y-138311961D02*
X125428571Y-138407200D01*
X125428571Y-138407200D02*
X125333333Y-138454819D01*
X125333333Y-138454819D02*
X125190476Y-138454819D01*
X125190476Y-138454819D02*
X125095238Y-138407200D01*
X125095238Y-138407200D02*
X125047619Y-138359580D01*
X124142857Y-138407200D02*
X124238095Y-138454819D01*
X124238095Y-138454819D02*
X124428571Y-138454819D01*
X124428571Y-138454819D02*
X124523809Y-138407200D01*
X124523809Y-138407200D02*
X124571428Y-138359580D01*
X124571428Y-138359580D02*
X124619047Y-138264342D01*
X124619047Y-138264342D02*
X124619047Y-137978628D01*
X124619047Y-137978628D02*
X124571428Y-137883390D01*
X124571428Y-137883390D02*
X124523809Y-137835771D01*
X124523809Y-137835771D02*
X124428571Y-137788152D01*
X124428571Y-137788152D02*
X124238095Y-137788152D01*
X124238095Y-137788152D02*
X124142857Y-137835771D01*
X123714285Y-138454819D02*
X123714285Y-137788152D01*
X123714285Y-137454819D02*
X123761904Y-137502438D01*
X123761904Y-137502438D02*
X123714285Y-137550057D01*
X123714285Y-137550057D02*
X123666666Y-137502438D01*
X123666666Y-137502438D02*
X123714285Y-137454819D01*
X123714285Y-137454819D02*
X123714285Y-137550057D01*
X122809524Y-138454819D02*
X122809524Y-137931009D01*
X122809524Y-137931009D02*
X122857143Y-137835771D01*
X122857143Y-137835771D02*
X122952381Y-137788152D01*
X122952381Y-137788152D02*
X123142857Y-137788152D01*
X123142857Y-137788152D02*
X123238095Y-137835771D01*
X122809524Y-138407200D02*
X122904762Y-138454819D01*
X122904762Y-138454819D02*
X123142857Y-138454819D01*
X123142857Y-138454819D02*
X123238095Y-138407200D01*
X123238095Y-138407200D02*
X123285714Y-138311961D01*
X123285714Y-138311961D02*
X123285714Y-138216723D01*
X123285714Y-138216723D02*
X123238095Y-138121485D01*
X123238095Y-138121485D02*
X123142857Y-138073866D01*
X123142857Y-138073866D02*
X122904762Y-138073866D01*
X122904762Y-138073866D02*
X122809524Y-138026247D01*
X122190476Y-138454819D02*
X122285714Y-138407200D01*
X122285714Y-138407200D02*
X122333333Y-138311961D01*
X122333333Y-138311961D02*
X122333333Y-137454819D01*
X124380952Y-72931009D02*
X124714285Y-72931009D01*
X124714285Y-73454819D02*
X124714285Y-72454819D01*
X124714285Y-72454819D02*
X124238095Y-72454819D01*
X123857142Y-73454819D02*
X123857142Y-72788152D01*
X123857142Y-72454819D02*
X123904761Y-72502438D01*
X123904761Y-72502438D02*
X123857142Y-72550057D01*
X123857142Y-72550057D02*
X123809523Y-72502438D01*
X123809523Y-72502438D02*
X123857142Y-72454819D01*
X123857142Y-72454819D02*
X123857142Y-72550057D01*
X122952381Y-73454819D02*
X122952381Y-72454819D01*
X122952381Y-73407200D02*
X123047619Y-73454819D01*
X123047619Y-73454819D02*
X123238095Y-73454819D01*
X123238095Y-73454819D02*
X123333333Y-73407200D01*
X123333333Y-73407200D02*
X123380952Y-73359580D01*
X123380952Y-73359580D02*
X123428571Y-73264342D01*
X123428571Y-73264342D02*
X123428571Y-72978628D01*
X123428571Y-72978628D02*
X123380952Y-72883390D01*
X123380952Y-72883390D02*
X123333333Y-72835771D01*
X123333333Y-72835771D02*
X123238095Y-72788152D01*
X123238095Y-72788152D02*
X123047619Y-72788152D01*
X123047619Y-72788152D02*
X122952381Y-72835771D01*
X122047619Y-72788152D02*
X122047619Y-73454819D01*
X122476190Y-72788152D02*
X122476190Y-73311961D01*
X122476190Y-73311961D02*
X122428571Y-73407200D01*
X122428571Y-73407200D02*
X122333333Y-73454819D01*
X122333333Y-73454819D02*
X122190476Y-73454819D01*
X122190476Y-73454819D02*
X122095238Y-73407200D01*
X122095238Y-73407200D02*
X122047619Y-73359580D01*
X121142857Y-73407200D02*
X121238095Y-73454819D01*
X121238095Y-73454819D02*
X121428571Y-73454819D01*
X121428571Y-73454819D02*
X121523809Y-73407200D01*
X121523809Y-73407200D02*
X121571428Y-73359580D01*
X121571428Y-73359580D02*
X121619047Y-73264342D01*
X121619047Y-73264342D02*
X121619047Y-72978628D01*
X121619047Y-72978628D02*
X121571428Y-72883390D01*
X121571428Y-72883390D02*
X121523809Y-72835771D01*
X121523809Y-72835771D02*
X121428571Y-72788152D01*
X121428571Y-72788152D02*
X121238095Y-72788152D01*
X121238095Y-72788152D02*
X121142857Y-72835771D01*
X120714285Y-73454819D02*
X120714285Y-72788152D01*
X120714285Y-72454819D02*
X120761904Y-72502438D01*
X120761904Y-72502438D02*
X120714285Y-72550057D01*
X120714285Y-72550057D02*
X120666666Y-72502438D01*
X120666666Y-72502438D02*
X120714285Y-72454819D01*
X120714285Y-72454819D02*
X120714285Y-72550057D01*
X119809524Y-73454819D02*
X119809524Y-72931009D01*
X119809524Y-72931009D02*
X119857143Y-72835771D01*
X119857143Y-72835771D02*
X119952381Y-72788152D01*
X119952381Y-72788152D02*
X120142857Y-72788152D01*
X120142857Y-72788152D02*
X120238095Y-72835771D01*
X119809524Y-73407200D02*
X119904762Y-73454819D01*
X119904762Y-73454819D02*
X120142857Y-73454819D01*
X120142857Y-73454819D02*
X120238095Y-73407200D01*
X120238095Y-73407200D02*
X120285714Y-73311961D01*
X120285714Y-73311961D02*
X120285714Y-73216723D01*
X120285714Y-73216723D02*
X120238095Y-73121485D01*
X120238095Y-73121485D02*
X120142857Y-73073866D01*
X120142857Y-73073866D02*
X119904762Y-73073866D01*
X119904762Y-73073866D02*
X119809524Y-73026247D01*
X119190476Y-73454819D02*
X119285714Y-73407200D01*
X119285714Y-73407200D02*
X119333333Y-73311961D01*
X119333333Y-73311961D02*
X119333333Y-72454819D01*
X183380952Y-72931009D02*
X183714285Y-72931009D01*
X183714285Y-73454819D02*
X183714285Y-72454819D01*
X183714285Y-72454819D02*
X183238095Y-72454819D01*
X182857142Y-73454819D02*
X182857142Y-72788152D01*
X182857142Y-72454819D02*
X182904761Y-72502438D01*
X182904761Y-72502438D02*
X182857142Y-72550057D01*
X182857142Y-72550057D02*
X182809523Y-72502438D01*
X182809523Y-72502438D02*
X182857142Y-72454819D01*
X182857142Y-72454819D02*
X182857142Y-72550057D01*
X181952381Y-73454819D02*
X181952381Y-72454819D01*
X181952381Y-73407200D02*
X182047619Y-73454819D01*
X182047619Y-73454819D02*
X182238095Y-73454819D01*
X182238095Y-73454819D02*
X182333333Y-73407200D01*
X182333333Y-73407200D02*
X182380952Y-73359580D01*
X182380952Y-73359580D02*
X182428571Y-73264342D01*
X182428571Y-73264342D02*
X182428571Y-72978628D01*
X182428571Y-72978628D02*
X182380952Y-72883390D01*
X182380952Y-72883390D02*
X182333333Y-72835771D01*
X182333333Y-72835771D02*
X182238095Y-72788152D01*
X182238095Y-72788152D02*
X182047619Y-72788152D01*
X182047619Y-72788152D02*
X181952381Y-72835771D01*
X181047619Y-72788152D02*
X181047619Y-73454819D01*
X181476190Y-72788152D02*
X181476190Y-73311961D01*
X181476190Y-73311961D02*
X181428571Y-73407200D01*
X181428571Y-73407200D02*
X181333333Y-73454819D01*
X181333333Y-73454819D02*
X181190476Y-73454819D01*
X181190476Y-73454819D02*
X181095238Y-73407200D01*
X181095238Y-73407200D02*
X181047619Y-73359580D01*
X180142857Y-73407200D02*
X180238095Y-73454819D01*
X180238095Y-73454819D02*
X180428571Y-73454819D01*
X180428571Y-73454819D02*
X180523809Y-73407200D01*
X180523809Y-73407200D02*
X180571428Y-73359580D01*
X180571428Y-73359580D02*
X180619047Y-73264342D01*
X180619047Y-73264342D02*
X180619047Y-72978628D01*
X180619047Y-72978628D02*
X180571428Y-72883390D01*
X180571428Y-72883390D02*
X180523809Y-72835771D01*
X180523809Y-72835771D02*
X180428571Y-72788152D01*
X180428571Y-72788152D02*
X180238095Y-72788152D01*
X180238095Y-72788152D02*
X180142857Y-72835771D01*
X179714285Y-73454819D02*
X179714285Y-72788152D01*
X179714285Y-72454819D02*
X179761904Y-72502438D01*
X179761904Y-72502438D02*
X179714285Y-72550057D01*
X179714285Y-72550057D02*
X179666666Y-72502438D01*
X179666666Y-72502438D02*
X179714285Y-72454819D01*
X179714285Y-72454819D02*
X179714285Y-72550057D01*
X178809524Y-73454819D02*
X178809524Y-72931009D01*
X178809524Y-72931009D02*
X178857143Y-72835771D01*
X178857143Y-72835771D02*
X178952381Y-72788152D01*
X178952381Y-72788152D02*
X179142857Y-72788152D01*
X179142857Y-72788152D02*
X179238095Y-72835771D01*
X178809524Y-73407200D02*
X178904762Y-73454819D01*
X178904762Y-73454819D02*
X179142857Y-73454819D01*
X179142857Y-73454819D02*
X179238095Y-73407200D01*
X179238095Y-73407200D02*
X179285714Y-73311961D01*
X179285714Y-73311961D02*
X179285714Y-73216723D01*
X179285714Y-73216723D02*
X179238095Y-73121485D01*
X179238095Y-73121485D02*
X179142857Y-73073866D01*
X179142857Y-73073866D02*
X178904762Y-73073866D01*
X178904762Y-73073866D02*
X178809524Y-73026247D01*
X178190476Y-73454819D02*
X178285714Y-73407200D01*
X178285714Y-73407200D02*
X178333333Y-73311961D01*
X178333333Y-73311961D02*
X178333333Y-72454819D01*
X173522382Y-134954819D02*
X173189049Y-135954819D01*
X173189049Y-135954819D02*
X172855716Y-134954819D01*
X172189049Y-135431009D02*
X172046192Y-135478628D01*
X172046192Y-135478628D02*
X171998573Y-135526247D01*
X171998573Y-135526247D02*
X171950954Y-135621485D01*
X171950954Y-135621485D02*
X171950954Y-135764342D01*
X171950954Y-135764342D02*
X171998573Y-135859580D01*
X171998573Y-135859580D02*
X172046192Y-135907200D01*
X172046192Y-135907200D02*
X172141430Y-135954819D01*
X172141430Y-135954819D02*
X172522382Y-135954819D01*
X172522382Y-135954819D02*
X172522382Y-134954819D01*
X172522382Y-134954819D02*
X172189049Y-134954819D01*
X172189049Y-134954819D02*
X172093811Y-135002438D01*
X172093811Y-135002438D02*
X172046192Y-135050057D01*
X172046192Y-135050057D02*
X171998573Y-135145295D01*
X171998573Y-135145295D02*
X171998573Y-135240533D01*
X171998573Y-135240533D02*
X172046192Y-135335771D01*
X172046192Y-135335771D02*
X172093811Y-135383390D01*
X172093811Y-135383390D02*
X172189049Y-135431009D01*
X172189049Y-135431009D02*
X172522382Y-135431009D01*
X171093811Y-135288152D02*
X171093811Y-135954819D01*
X171522382Y-135288152D02*
X171522382Y-135811961D01*
X171522382Y-135811961D02*
X171474763Y-135907200D01*
X171474763Y-135907200D02*
X171379525Y-135954819D01*
X171379525Y-135954819D02*
X171236668Y-135954819D01*
X171236668Y-135954819D02*
X171141430Y-135907200D01*
X171141430Y-135907200D02*
X171093811Y-135859580D01*
X170665239Y-135907200D02*
X170570001Y-135954819D01*
X170570001Y-135954819D02*
X170379525Y-135954819D01*
X170379525Y-135954819D02*
X170284287Y-135907200D01*
X170284287Y-135907200D02*
X170236668Y-135811961D01*
X170236668Y-135811961D02*
X170236668Y-135764342D01*
X170236668Y-135764342D02*
X170284287Y-135669104D01*
X170284287Y-135669104D02*
X170379525Y-135621485D01*
X170379525Y-135621485D02*
X170522382Y-135621485D01*
X170522382Y-135621485D02*
X170617620Y-135573866D01*
X170617620Y-135573866D02*
X170665239Y-135478628D01*
X170665239Y-135478628D02*
X170665239Y-135431009D01*
X170665239Y-135431009D02*
X170617620Y-135335771D01*
X170617620Y-135335771D02*
X170522382Y-135288152D01*
X170522382Y-135288152D02*
X170379525Y-135288152D01*
X170379525Y-135288152D02*
X170284287Y-135335771D01*
X169046191Y-135954819D02*
X169046191Y-134954819D01*
X169046191Y-134954819D02*
X168665239Y-134954819D01*
X168665239Y-134954819D02*
X168570001Y-135002438D01*
X168570001Y-135002438D02*
X168522382Y-135050057D01*
X168522382Y-135050057D02*
X168474763Y-135145295D01*
X168474763Y-135145295D02*
X168474763Y-135288152D01*
X168474763Y-135288152D02*
X168522382Y-135383390D01*
X168522382Y-135383390D02*
X168570001Y-135431009D01*
X168570001Y-135431009D02*
X168665239Y-135478628D01*
X168665239Y-135478628D02*
X169046191Y-135478628D01*
X168046191Y-135954819D02*
X168046191Y-135288152D01*
X168046191Y-135478628D02*
X167998572Y-135383390D01*
X167998572Y-135383390D02*
X167950953Y-135335771D01*
X167950953Y-135335771D02*
X167855715Y-135288152D01*
X167855715Y-135288152D02*
X167760477Y-135288152D01*
X167284286Y-135954819D02*
X167379524Y-135907200D01*
X167379524Y-135907200D02*
X167427143Y-135859580D01*
X167427143Y-135859580D02*
X167474762Y-135764342D01*
X167474762Y-135764342D02*
X167474762Y-135478628D01*
X167474762Y-135478628D02*
X167427143Y-135383390D01*
X167427143Y-135383390D02*
X167379524Y-135335771D01*
X167379524Y-135335771D02*
X167284286Y-135288152D01*
X167284286Y-135288152D02*
X167141429Y-135288152D01*
X167141429Y-135288152D02*
X167046191Y-135335771D01*
X167046191Y-135335771D02*
X166998572Y-135383390D01*
X166998572Y-135383390D02*
X166950953Y-135478628D01*
X166950953Y-135478628D02*
X166950953Y-135764342D01*
X166950953Y-135764342D02*
X166998572Y-135859580D01*
X166998572Y-135859580D02*
X167046191Y-135907200D01*
X167046191Y-135907200D02*
X167141429Y-135954819D01*
X167141429Y-135954819D02*
X167284286Y-135954819D01*
X166665238Y-135288152D02*
X166284286Y-135288152D01*
X166522381Y-134954819D02*
X166522381Y-135811961D01*
X166522381Y-135811961D02*
X166474762Y-135907200D01*
X166474762Y-135907200D02*
X166379524Y-135954819D01*
X166379524Y-135954819D02*
X166284286Y-135954819D01*
X165570000Y-135907200D02*
X165665238Y-135954819D01*
X165665238Y-135954819D02*
X165855714Y-135954819D01*
X165855714Y-135954819D02*
X165950952Y-135907200D01*
X165950952Y-135907200D02*
X165998571Y-135811961D01*
X165998571Y-135811961D02*
X165998571Y-135431009D01*
X165998571Y-135431009D02*
X165950952Y-135335771D01*
X165950952Y-135335771D02*
X165855714Y-135288152D01*
X165855714Y-135288152D02*
X165665238Y-135288152D01*
X165665238Y-135288152D02*
X165570000Y-135335771D01*
X165570000Y-135335771D02*
X165522381Y-135431009D01*
X165522381Y-135431009D02*
X165522381Y-135526247D01*
X165522381Y-135526247D02*
X165998571Y-135621485D01*
X164665238Y-135907200D02*
X164760476Y-135954819D01*
X164760476Y-135954819D02*
X164950952Y-135954819D01*
X164950952Y-135954819D02*
X165046190Y-135907200D01*
X165046190Y-135907200D02*
X165093809Y-135859580D01*
X165093809Y-135859580D02*
X165141428Y-135764342D01*
X165141428Y-135764342D02*
X165141428Y-135478628D01*
X165141428Y-135478628D02*
X165093809Y-135383390D01*
X165093809Y-135383390D02*
X165046190Y-135335771D01*
X165046190Y-135335771D02*
X164950952Y-135288152D01*
X164950952Y-135288152D02*
X164760476Y-135288152D01*
X164760476Y-135288152D02*
X164665238Y-135335771D01*
X164379523Y-135288152D02*
X163998571Y-135288152D01*
X164236666Y-134954819D02*
X164236666Y-135811961D01*
X164236666Y-135811961D02*
X164189047Y-135907200D01*
X164189047Y-135907200D02*
X164093809Y-135954819D01*
X164093809Y-135954819D02*
X163998571Y-135954819D01*
X163665237Y-135954819D02*
X163665237Y-135288152D01*
X163665237Y-134954819D02*
X163712856Y-135002438D01*
X163712856Y-135002438D02*
X163665237Y-135050057D01*
X163665237Y-135050057D02*
X163617618Y-135002438D01*
X163617618Y-135002438D02*
X163665237Y-134954819D01*
X163665237Y-134954819D02*
X163665237Y-135050057D01*
X163046190Y-135954819D02*
X163141428Y-135907200D01*
X163141428Y-135907200D02*
X163189047Y-135859580D01*
X163189047Y-135859580D02*
X163236666Y-135764342D01*
X163236666Y-135764342D02*
X163236666Y-135478628D01*
X163236666Y-135478628D02*
X163189047Y-135383390D01*
X163189047Y-135383390D02*
X163141428Y-135335771D01*
X163141428Y-135335771D02*
X163046190Y-135288152D01*
X163046190Y-135288152D02*
X162903333Y-135288152D01*
X162903333Y-135288152D02*
X162808095Y-135335771D01*
X162808095Y-135335771D02*
X162760476Y-135383390D01*
X162760476Y-135383390D02*
X162712857Y-135478628D01*
X162712857Y-135478628D02*
X162712857Y-135764342D01*
X162712857Y-135764342D02*
X162760476Y-135859580D01*
X162760476Y-135859580D02*
X162808095Y-135907200D01*
X162808095Y-135907200D02*
X162903333Y-135954819D01*
X162903333Y-135954819D02*
X163046190Y-135954819D01*
X162284285Y-135288152D02*
X162284285Y-135954819D01*
X162284285Y-135383390D02*
X162236666Y-135335771D01*
X162236666Y-135335771D02*
X162141428Y-135288152D01*
X162141428Y-135288152D02*
X161998571Y-135288152D01*
X161998571Y-135288152D02*
X161903333Y-135335771D01*
X161903333Y-135335771D02*
X161855714Y-135431009D01*
X161855714Y-135431009D02*
X161855714Y-135954819D01*
X160665237Y-135907200D02*
X160522380Y-135954819D01*
X160522380Y-135954819D02*
X160284285Y-135954819D01*
X160284285Y-135954819D02*
X160189047Y-135907200D01*
X160189047Y-135907200D02*
X160141428Y-135859580D01*
X160141428Y-135859580D02*
X160093809Y-135764342D01*
X160093809Y-135764342D02*
X160093809Y-135669104D01*
X160093809Y-135669104D02*
X160141428Y-135573866D01*
X160141428Y-135573866D02*
X160189047Y-135526247D01*
X160189047Y-135526247D02*
X160284285Y-135478628D01*
X160284285Y-135478628D02*
X160474761Y-135431009D01*
X160474761Y-135431009D02*
X160569999Y-135383390D01*
X160569999Y-135383390D02*
X160617618Y-135335771D01*
X160617618Y-135335771D02*
X160665237Y-135240533D01*
X160665237Y-135240533D02*
X160665237Y-135145295D01*
X160665237Y-135145295D02*
X160617618Y-135050057D01*
X160617618Y-135050057D02*
X160569999Y-135002438D01*
X160569999Y-135002438D02*
X160474761Y-134954819D01*
X160474761Y-134954819D02*
X160236666Y-134954819D01*
X160236666Y-134954819D02*
X160093809Y-135002438D01*
X159236666Y-135907200D02*
X159331904Y-135954819D01*
X159331904Y-135954819D02*
X159522380Y-135954819D01*
X159522380Y-135954819D02*
X159617618Y-135907200D01*
X159617618Y-135907200D02*
X159665237Y-135859580D01*
X159665237Y-135859580D02*
X159712856Y-135764342D01*
X159712856Y-135764342D02*
X159712856Y-135478628D01*
X159712856Y-135478628D02*
X159665237Y-135383390D01*
X159665237Y-135383390D02*
X159617618Y-135335771D01*
X159617618Y-135335771D02*
X159522380Y-135288152D01*
X159522380Y-135288152D02*
X159331904Y-135288152D01*
X159331904Y-135288152D02*
X159236666Y-135335771D01*
X158808094Y-135954819D02*
X158808094Y-134954819D01*
X158379523Y-135954819D02*
X158379523Y-135431009D01*
X158379523Y-135431009D02*
X158427142Y-135335771D01*
X158427142Y-135335771D02*
X158522380Y-135288152D01*
X158522380Y-135288152D02*
X158665237Y-135288152D01*
X158665237Y-135288152D02*
X158760475Y-135335771D01*
X158760475Y-135335771D02*
X158808094Y-135383390D01*
X157760475Y-135954819D02*
X157855713Y-135907200D01*
X157855713Y-135907200D02*
X157903332Y-135859580D01*
X157903332Y-135859580D02*
X157950951Y-135764342D01*
X157950951Y-135764342D02*
X157950951Y-135478628D01*
X157950951Y-135478628D02*
X157903332Y-135383390D01*
X157903332Y-135383390D02*
X157855713Y-135335771D01*
X157855713Y-135335771D02*
X157760475Y-135288152D01*
X157760475Y-135288152D02*
X157617618Y-135288152D01*
X157617618Y-135288152D02*
X157522380Y-135335771D01*
X157522380Y-135335771D02*
X157474761Y-135383390D01*
X157474761Y-135383390D02*
X157427142Y-135478628D01*
X157427142Y-135478628D02*
X157427142Y-135764342D01*
X157427142Y-135764342D02*
X157474761Y-135859580D01*
X157474761Y-135859580D02*
X157522380Y-135907200D01*
X157522380Y-135907200D02*
X157617618Y-135954819D01*
X157617618Y-135954819D02*
X157760475Y-135954819D01*
X157141427Y-135288152D02*
X156760475Y-135288152D01*
X156998570Y-134954819D02*
X156998570Y-135811961D01*
X156998570Y-135811961D02*
X156950951Y-135907200D01*
X156950951Y-135907200D02*
X156855713Y-135954819D01*
X156855713Y-135954819D02*
X156760475Y-135954819D01*
X156569998Y-135288152D02*
X156189046Y-135288152D01*
X156427141Y-134954819D02*
X156427141Y-135811961D01*
X156427141Y-135811961D02*
X156379522Y-135907200D01*
X156379522Y-135907200D02*
X156284284Y-135954819D01*
X156284284Y-135954819D02*
X156189046Y-135954819D01*
X155855712Y-135954819D02*
X155855712Y-134954819D01*
X155760474Y-135573866D02*
X155474760Y-135954819D01*
X155474760Y-135288152D02*
X155855712Y-135669104D01*
X155141426Y-135288152D02*
X154903331Y-135954819D01*
X154665236Y-135288152D02*
X154903331Y-135954819D01*
X154903331Y-135954819D02*
X154998569Y-136192914D01*
X154998569Y-136192914D02*
X155046188Y-136240533D01*
X155046188Y-136240533D02*
X155141426Y-136288152D01*
X178766668Y-139431009D02*
X179100001Y-139431009D01*
X179100001Y-139954819D02*
X179100001Y-138954819D01*
X179100001Y-138954819D02*
X178623811Y-138954819D01*
X177861906Y-139907200D02*
X177957144Y-139954819D01*
X177957144Y-139954819D02*
X178147620Y-139954819D01*
X178147620Y-139954819D02*
X178242858Y-139907200D01*
X178242858Y-139907200D02*
X178290477Y-139811961D01*
X178290477Y-139811961D02*
X178290477Y-139431009D01*
X178290477Y-139431009D02*
X178242858Y-139335771D01*
X178242858Y-139335771D02*
X178147620Y-139288152D01*
X178147620Y-139288152D02*
X177957144Y-139288152D01*
X177957144Y-139288152D02*
X177861906Y-139335771D01*
X177861906Y-139335771D02*
X177814287Y-139431009D01*
X177814287Y-139431009D02*
X177814287Y-139526247D01*
X177814287Y-139526247D02*
X178290477Y-139621485D01*
X177385715Y-139954819D02*
X177385715Y-139288152D01*
X177385715Y-139478628D02*
X177338096Y-139383390D01*
X177338096Y-139383390D02*
X177290477Y-139335771D01*
X177290477Y-139335771D02*
X177195239Y-139288152D01*
X177195239Y-139288152D02*
X177100001Y-139288152D01*
X176766667Y-139954819D02*
X176766667Y-139288152D01*
X176766667Y-139478628D02*
X176719048Y-139383390D01*
X176719048Y-139383390D02*
X176671429Y-139335771D01*
X176671429Y-139335771D02*
X176576191Y-139288152D01*
X176576191Y-139288152D02*
X176480953Y-139288152D01*
X176147619Y-139954819D02*
X176147619Y-139288152D01*
X176147619Y-138954819D02*
X176195238Y-139002438D01*
X176195238Y-139002438D02*
X176147619Y-139050057D01*
X176147619Y-139050057D02*
X176100000Y-139002438D01*
X176100000Y-139002438D02*
X176147619Y-138954819D01*
X176147619Y-138954819D02*
X176147619Y-139050057D01*
X175814286Y-139288152D02*
X175433334Y-139288152D01*
X175671429Y-138954819D02*
X175671429Y-139811961D01*
X175671429Y-139811961D02*
X175623810Y-139907200D01*
X175623810Y-139907200D02*
X175528572Y-139954819D01*
X175528572Y-139954819D02*
X175433334Y-139954819D01*
X174719048Y-139907200D02*
X174814286Y-139954819D01*
X174814286Y-139954819D02*
X175004762Y-139954819D01*
X175004762Y-139954819D02*
X175100000Y-139907200D01*
X175100000Y-139907200D02*
X175147619Y-139811961D01*
X175147619Y-139811961D02*
X175147619Y-139431009D01*
X175147619Y-139431009D02*
X175100000Y-139335771D01*
X175100000Y-139335771D02*
X175004762Y-139288152D01*
X175004762Y-139288152D02*
X174814286Y-139288152D01*
X174814286Y-139288152D02*
X174719048Y-139335771D01*
X174719048Y-139335771D02*
X174671429Y-139431009D01*
X174671429Y-139431009D02*
X174671429Y-139526247D01*
X174671429Y-139526247D02*
X175147619Y-139621485D01*
X173147619Y-139431009D02*
X173004762Y-139478628D01*
X173004762Y-139478628D02*
X172957143Y-139526247D01*
X172957143Y-139526247D02*
X172909524Y-139621485D01*
X172909524Y-139621485D02*
X172909524Y-139764342D01*
X172909524Y-139764342D02*
X172957143Y-139859580D01*
X172957143Y-139859580D02*
X173004762Y-139907200D01*
X173004762Y-139907200D02*
X173100000Y-139954819D01*
X173100000Y-139954819D02*
X173480952Y-139954819D01*
X173480952Y-139954819D02*
X173480952Y-138954819D01*
X173480952Y-138954819D02*
X173147619Y-138954819D01*
X173147619Y-138954819D02*
X173052381Y-139002438D01*
X173052381Y-139002438D02*
X173004762Y-139050057D01*
X173004762Y-139050057D02*
X172957143Y-139145295D01*
X172957143Y-139145295D02*
X172957143Y-139240533D01*
X172957143Y-139240533D02*
X173004762Y-139335771D01*
X173004762Y-139335771D02*
X173052381Y-139383390D01*
X173052381Y-139383390D02*
X173147619Y-139431009D01*
X173147619Y-139431009D02*
X173480952Y-139431009D01*
X172100000Y-139907200D02*
X172195238Y-139954819D01*
X172195238Y-139954819D02*
X172385714Y-139954819D01*
X172385714Y-139954819D02*
X172480952Y-139907200D01*
X172480952Y-139907200D02*
X172528571Y-139811961D01*
X172528571Y-139811961D02*
X172528571Y-139431009D01*
X172528571Y-139431009D02*
X172480952Y-139335771D01*
X172480952Y-139335771D02*
X172385714Y-139288152D01*
X172385714Y-139288152D02*
X172195238Y-139288152D01*
X172195238Y-139288152D02*
X172100000Y-139335771D01*
X172100000Y-139335771D02*
X172052381Y-139431009D01*
X172052381Y-139431009D02*
X172052381Y-139526247D01*
X172052381Y-139526247D02*
X172528571Y-139621485D01*
X171195238Y-139954819D02*
X171195238Y-139431009D01*
X171195238Y-139431009D02*
X171242857Y-139335771D01*
X171242857Y-139335771D02*
X171338095Y-139288152D01*
X171338095Y-139288152D02*
X171528571Y-139288152D01*
X171528571Y-139288152D02*
X171623809Y-139335771D01*
X171195238Y-139907200D02*
X171290476Y-139954819D01*
X171290476Y-139954819D02*
X171528571Y-139954819D01*
X171528571Y-139954819D02*
X171623809Y-139907200D01*
X171623809Y-139907200D02*
X171671428Y-139811961D01*
X171671428Y-139811961D02*
X171671428Y-139716723D01*
X171671428Y-139716723D02*
X171623809Y-139621485D01*
X171623809Y-139621485D02*
X171528571Y-139573866D01*
X171528571Y-139573866D02*
X171290476Y-139573866D01*
X171290476Y-139573866D02*
X171195238Y-139526247D01*
X170290476Y-139954819D02*
X170290476Y-138954819D01*
X170290476Y-139907200D02*
X170385714Y-139954819D01*
X170385714Y-139954819D02*
X170576190Y-139954819D01*
X170576190Y-139954819D02*
X170671428Y-139907200D01*
X170671428Y-139907200D02*
X170719047Y-139859580D01*
X170719047Y-139859580D02*
X170766666Y-139764342D01*
X170766666Y-139764342D02*
X170766666Y-139478628D01*
X170766666Y-139478628D02*
X170719047Y-139383390D01*
X170719047Y-139383390D02*
X170671428Y-139335771D01*
X170671428Y-139335771D02*
X170576190Y-139288152D01*
X170576190Y-139288152D02*
X170385714Y-139288152D01*
X170385714Y-139288152D02*
X170290476Y-139335771D01*
X169195237Y-139288152D02*
X168814285Y-139288152D01*
X169052380Y-139954819D02*
X169052380Y-139097676D01*
X169052380Y-139097676D02*
X169004761Y-139002438D01*
X169004761Y-139002438D02*
X168909523Y-138954819D01*
X168909523Y-138954819D02*
X168814285Y-138954819D01*
X168338094Y-139954819D02*
X168433332Y-139907200D01*
X168433332Y-139907200D02*
X168480951Y-139859580D01*
X168480951Y-139859580D02*
X168528570Y-139764342D01*
X168528570Y-139764342D02*
X168528570Y-139478628D01*
X168528570Y-139478628D02*
X168480951Y-139383390D01*
X168480951Y-139383390D02*
X168433332Y-139335771D01*
X168433332Y-139335771D02*
X168338094Y-139288152D01*
X168338094Y-139288152D02*
X168195237Y-139288152D01*
X168195237Y-139288152D02*
X168099999Y-139335771D01*
X168099999Y-139335771D02*
X168052380Y-139383390D01*
X168052380Y-139383390D02*
X168004761Y-139478628D01*
X168004761Y-139478628D02*
X168004761Y-139764342D01*
X168004761Y-139764342D02*
X168052380Y-139859580D01*
X168052380Y-139859580D02*
X168099999Y-139907200D01*
X168099999Y-139907200D02*
X168195237Y-139954819D01*
X168195237Y-139954819D02*
X168338094Y-139954819D01*
X167576189Y-139954819D02*
X167576189Y-139288152D01*
X167576189Y-139478628D02*
X167528570Y-139383390D01*
X167528570Y-139383390D02*
X167480951Y-139335771D01*
X167480951Y-139335771D02*
X167385713Y-139288152D01*
X167385713Y-139288152D02*
X167290475Y-139288152D01*
X166338093Y-138954819D02*
X166004760Y-139954819D01*
X166004760Y-139954819D02*
X165671427Y-138954819D01*
X165004760Y-139431009D02*
X164861903Y-139478628D01*
X164861903Y-139478628D02*
X164814284Y-139526247D01*
X164814284Y-139526247D02*
X164766665Y-139621485D01*
X164766665Y-139621485D02*
X164766665Y-139764342D01*
X164766665Y-139764342D02*
X164814284Y-139859580D01*
X164814284Y-139859580D02*
X164861903Y-139907200D01*
X164861903Y-139907200D02*
X164957141Y-139954819D01*
X164957141Y-139954819D02*
X165338093Y-139954819D01*
X165338093Y-139954819D02*
X165338093Y-138954819D01*
X165338093Y-138954819D02*
X165004760Y-138954819D01*
X165004760Y-138954819D02*
X164909522Y-139002438D01*
X164909522Y-139002438D02*
X164861903Y-139050057D01*
X164861903Y-139050057D02*
X164814284Y-139145295D01*
X164814284Y-139145295D02*
X164814284Y-139240533D01*
X164814284Y-139240533D02*
X164861903Y-139335771D01*
X164861903Y-139335771D02*
X164909522Y-139383390D01*
X164909522Y-139383390D02*
X165004760Y-139431009D01*
X165004760Y-139431009D02*
X165338093Y-139431009D01*
X163909522Y-139288152D02*
X163909522Y-139954819D01*
X164338093Y-139288152D02*
X164338093Y-139811961D01*
X164338093Y-139811961D02*
X164290474Y-139907200D01*
X164290474Y-139907200D02*
X164195236Y-139954819D01*
X164195236Y-139954819D02*
X164052379Y-139954819D01*
X164052379Y-139954819D02*
X163957141Y-139907200D01*
X163957141Y-139907200D02*
X163909522Y-139859580D01*
X163480950Y-139907200D02*
X163385712Y-139954819D01*
X163385712Y-139954819D02*
X163195236Y-139954819D01*
X163195236Y-139954819D02*
X163099998Y-139907200D01*
X163099998Y-139907200D02*
X163052379Y-139811961D01*
X163052379Y-139811961D02*
X163052379Y-139764342D01*
X163052379Y-139764342D02*
X163099998Y-139669104D01*
X163099998Y-139669104D02*
X163195236Y-139621485D01*
X163195236Y-139621485D02*
X163338093Y-139621485D01*
X163338093Y-139621485D02*
X163433331Y-139573866D01*
X163433331Y-139573866D02*
X163480950Y-139478628D01*
X163480950Y-139478628D02*
X163480950Y-139431009D01*
X163480950Y-139431009D02*
X163433331Y-139335771D01*
X163433331Y-139335771D02*
X163338093Y-139288152D01*
X163338093Y-139288152D02*
X163195236Y-139288152D01*
X163195236Y-139288152D02*
X163099998Y-139335771D01*
X118534819Y-131754761D02*
X118534819Y-131183333D01*
X118534819Y-131469047D02*
X117534819Y-131469047D01*
X117534819Y-131469047D02*
X117677676Y-131373809D01*
X117677676Y-131373809D02*
X117772914Y-131278571D01*
X117772914Y-131278571D02*
X117820533Y-131183333D01*
X117868152Y-132611904D02*
X118534819Y-132611904D01*
X117868152Y-132183333D02*
X118391961Y-132183333D01*
X118391961Y-132183333D02*
X118487200Y-132230952D01*
X118487200Y-132230952D02*
X118534819Y-132326190D01*
X118534819Y-132326190D02*
X118534819Y-132469047D01*
X118534819Y-132469047D02*
X118487200Y-132564285D01*
X118487200Y-132564285D02*
X118439580Y-132611904D01*
X118011009Y-133421428D02*
X118011009Y-133088095D01*
X118534819Y-133088095D02*
X117534819Y-133088095D01*
X117534819Y-133088095D02*
X117534819Y-133564285D01*
X118734819Y-126004761D02*
X118734819Y-125433333D01*
X118734819Y-125719047D02*
X117734819Y-125719047D01*
X117734819Y-125719047D02*
X117877676Y-125623809D01*
X117877676Y-125623809D02*
X117972914Y-125528571D01*
X117972914Y-125528571D02*
X118020533Y-125433333D01*
X118068152Y-126861904D02*
X118734819Y-126861904D01*
X118068152Y-126433333D02*
X118591961Y-126433333D01*
X118591961Y-126433333D02*
X118687200Y-126480952D01*
X118687200Y-126480952D02*
X118734819Y-126576190D01*
X118734819Y-126576190D02*
X118734819Y-126719047D01*
X118734819Y-126719047D02*
X118687200Y-126814285D01*
X118687200Y-126814285D02*
X118639580Y-126861904D01*
X118211009Y-127671428D02*
X118211009Y-127338095D01*
X118734819Y-127338095D02*
X117734819Y-127338095D01*
X117734819Y-127338095D02*
X117734819Y-127814285D01*
X145536190Y-118034819D02*
X146107618Y-118034819D01*
X145821904Y-118034819D02*
X145821904Y-117034819D01*
X145821904Y-117034819D02*
X145917142Y-117177676D01*
X145917142Y-117177676D02*
X146012380Y-117272914D01*
X146012380Y-117272914D02*
X146107618Y-117320533D01*
X144917142Y-117034819D02*
X144821904Y-117034819D01*
X144821904Y-117034819D02*
X144726666Y-117082438D01*
X144726666Y-117082438D02*
X144679047Y-117130057D01*
X144679047Y-117130057D02*
X144631428Y-117225295D01*
X144631428Y-117225295D02*
X144583809Y-117415771D01*
X144583809Y-117415771D02*
X144583809Y-117653866D01*
X144583809Y-117653866D02*
X144631428Y-117844342D01*
X144631428Y-117844342D02*
X144679047Y-117939580D01*
X144679047Y-117939580D02*
X144726666Y-117987200D01*
X144726666Y-117987200D02*
X144821904Y-118034819D01*
X144821904Y-118034819D02*
X144917142Y-118034819D01*
X144917142Y-118034819D02*
X145012380Y-117987200D01*
X145012380Y-117987200D02*
X145059999Y-117939580D01*
X145059999Y-117939580D02*
X145107618Y-117844342D01*
X145107618Y-117844342D02*
X145155237Y-117653866D01*
X145155237Y-117653866D02*
X145155237Y-117415771D01*
X145155237Y-117415771D02*
X145107618Y-117225295D01*
X145107618Y-117225295D02*
X145059999Y-117130057D01*
X145059999Y-117130057D02*
X145012380Y-117082438D01*
X145012380Y-117082438D02*
X144917142Y-117034819D01*
X143726666Y-117368152D02*
X143726666Y-118034819D01*
X144155237Y-117368152D02*
X144155237Y-117891961D01*
X144155237Y-117891961D02*
X144107618Y-117987200D01*
X144107618Y-117987200D02*
X144012380Y-118034819D01*
X144012380Y-118034819D02*
X143869523Y-118034819D01*
X143869523Y-118034819D02*
X143774285Y-117987200D01*
X143774285Y-117987200D02*
X143726666Y-117939580D01*
X142917142Y-117511009D02*
X143250475Y-117511009D01*
X143250475Y-118034819D02*
X143250475Y-117034819D01*
X143250475Y-117034819D02*
X142774285Y-117034819D01*
X141679047Y-116987200D02*
X142536189Y-118272914D01*
X141440951Y-117034819D02*
X140821904Y-117034819D01*
X140821904Y-117034819D02*
X141155237Y-117415771D01*
X141155237Y-117415771D02*
X141012380Y-117415771D01*
X141012380Y-117415771D02*
X140917142Y-117463390D01*
X140917142Y-117463390D02*
X140869523Y-117511009D01*
X140869523Y-117511009D02*
X140821904Y-117606247D01*
X140821904Y-117606247D02*
X140821904Y-117844342D01*
X140821904Y-117844342D02*
X140869523Y-117939580D01*
X140869523Y-117939580D02*
X140917142Y-117987200D01*
X140917142Y-117987200D02*
X141012380Y-118034819D01*
X141012380Y-118034819D02*
X141298094Y-118034819D01*
X141298094Y-118034819D02*
X141393332Y-117987200D01*
X141393332Y-117987200D02*
X141440951Y-117939580D01*
X139917142Y-117034819D02*
X140393332Y-117034819D01*
X140393332Y-117034819D02*
X140440951Y-117511009D01*
X140440951Y-117511009D02*
X140393332Y-117463390D01*
X140393332Y-117463390D02*
X140298094Y-117415771D01*
X140298094Y-117415771D02*
X140059999Y-117415771D01*
X140059999Y-117415771D02*
X139964761Y-117463390D01*
X139964761Y-117463390D02*
X139917142Y-117511009D01*
X139917142Y-117511009D02*
X139869523Y-117606247D01*
X139869523Y-117606247D02*
X139869523Y-117844342D01*
X139869523Y-117844342D02*
X139917142Y-117939580D01*
X139917142Y-117939580D02*
X139964761Y-117987200D01*
X139964761Y-117987200D02*
X140059999Y-118034819D01*
X140059999Y-118034819D02*
X140298094Y-118034819D01*
X140298094Y-118034819D02*
X140393332Y-117987200D01*
X140393332Y-117987200D02*
X140440951Y-117939580D01*
X139583808Y-117034819D02*
X139250475Y-118034819D01*
X139250475Y-118034819D02*
X138917142Y-117034819D01*
X162218152Y-140183333D02*
X162884819Y-140183333D01*
X161837200Y-139945238D02*
X162551485Y-139707143D01*
X162551485Y-139707143D02*
X162551485Y-140326190D01*
X161884819Y-140611905D02*
X161884819Y-141278571D01*
X161884819Y-141278571D02*
X162884819Y-140850000D01*
X162218152Y-141659524D02*
X163218152Y-141659524D01*
X162265771Y-141659524D02*
X162218152Y-141754762D01*
X162218152Y-141754762D02*
X162218152Y-141945238D01*
X162218152Y-141945238D02*
X162265771Y-142040476D01*
X162265771Y-142040476D02*
X162313390Y-142088095D01*
X162313390Y-142088095D02*
X162408628Y-142135714D01*
X162408628Y-142135714D02*
X162694342Y-142135714D01*
X162694342Y-142135714D02*
X162789580Y-142088095D01*
X162789580Y-142088095D02*
X162837200Y-142040476D01*
X162837200Y-142040476D02*
X162884819Y-141945238D01*
X162884819Y-141945238D02*
X162884819Y-141754762D01*
X162884819Y-141754762D02*
X162837200Y-141659524D01*
X162361009Y-142897619D02*
X162361009Y-142564286D01*
X162884819Y-142564286D02*
X161884819Y-142564286D01*
X161884819Y-142564286D02*
X161884819Y-143040476D01*
X118124819Y-118504761D02*
X118124819Y-117933333D01*
X118124819Y-118219047D02*
X117124819Y-118219047D01*
X117124819Y-118219047D02*
X117267676Y-118123809D01*
X117267676Y-118123809D02*
X117362914Y-118028571D01*
X117362914Y-118028571D02*
X117410533Y-117933333D01*
X117124819Y-119123809D02*
X117124819Y-119219047D01*
X117124819Y-119219047D02*
X117172438Y-119314285D01*
X117172438Y-119314285D02*
X117220057Y-119361904D01*
X117220057Y-119361904D02*
X117315295Y-119409523D01*
X117315295Y-119409523D02*
X117505771Y-119457142D01*
X117505771Y-119457142D02*
X117743866Y-119457142D01*
X117743866Y-119457142D02*
X117934342Y-119409523D01*
X117934342Y-119409523D02*
X118029580Y-119361904D01*
X118029580Y-119361904D02*
X118077200Y-119314285D01*
X118077200Y-119314285D02*
X118124819Y-119219047D01*
X118124819Y-119219047D02*
X118124819Y-119123809D01*
X118124819Y-119123809D02*
X118077200Y-119028571D01*
X118077200Y-119028571D02*
X118029580Y-118980952D01*
X118029580Y-118980952D02*
X117934342Y-118933333D01*
X117934342Y-118933333D02*
X117743866Y-118885714D01*
X117743866Y-118885714D02*
X117505771Y-118885714D01*
X117505771Y-118885714D02*
X117315295Y-118933333D01*
X117315295Y-118933333D02*
X117220057Y-118980952D01*
X117220057Y-118980952D02*
X117172438Y-119028571D01*
X117172438Y-119028571D02*
X117124819Y-119123809D01*
X118124819Y-119885714D02*
X117124819Y-119885714D01*
X117743866Y-119980952D02*
X118124819Y-120266666D01*
X117458152Y-120266666D02*
X117839104Y-119885714D01*
X121644104Y-118572619D02*
X121644104Y-119048809D01*
X121929819Y-118477381D02*
X120929819Y-118810714D01*
X120929819Y-118810714D02*
X121929819Y-119144047D01*
X120929819Y-119334524D02*
X120929819Y-119905952D01*
X121929819Y-119620238D02*
X120929819Y-119620238D01*
X121929819Y-120239286D02*
X121263152Y-120239286D01*
X121358390Y-120239286D02*
X121310771Y-120286905D01*
X121310771Y-120286905D02*
X121263152Y-120382143D01*
X121263152Y-120382143D02*
X121263152Y-120525000D01*
X121263152Y-120525000D02*
X121310771Y-120620238D01*
X121310771Y-120620238D02*
X121406009Y-120667857D01*
X121406009Y-120667857D02*
X121929819Y-120667857D01*
X121406009Y-120667857D02*
X121310771Y-120715476D01*
X121310771Y-120715476D02*
X121263152Y-120810714D01*
X121263152Y-120810714D02*
X121263152Y-120953571D01*
X121263152Y-120953571D02*
X121310771Y-121048810D01*
X121310771Y-121048810D02*
X121406009Y-121096429D01*
X121406009Y-121096429D02*
X121929819Y-121096429D01*
X121882200Y-121953571D02*
X121929819Y-121858333D01*
X121929819Y-121858333D02*
X121929819Y-121667857D01*
X121929819Y-121667857D02*
X121882200Y-121572619D01*
X121882200Y-121572619D02*
X121786961Y-121525000D01*
X121786961Y-121525000D02*
X121406009Y-121525000D01*
X121406009Y-121525000D02*
X121310771Y-121572619D01*
X121310771Y-121572619D02*
X121263152Y-121667857D01*
X121263152Y-121667857D02*
X121263152Y-121858333D01*
X121263152Y-121858333D02*
X121310771Y-121953571D01*
X121310771Y-121953571D02*
X121406009Y-122001190D01*
X121406009Y-122001190D02*
X121501247Y-122001190D01*
X121501247Y-122001190D02*
X121596485Y-121525000D01*
X121263152Y-122858333D02*
X122072676Y-122858333D01*
X122072676Y-122858333D02*
X122167914Y-122810714D01*
X122167914Y-122810714D02*
X122215533Y-122763095D01*
X122215533Y-122763095D02*
X122263152Y-122667857D01*
X122263152Y-122667857D02*
X122263152Y-122525000D01*
X122263152Y-122525000D02*
X122215533Y-122429762D01*
X121882200Y-122858333D02*
X121929819Y-122763095D01*
X121929819Y-122763095D02*
X121929819Y-122572619D01*
X121929819Y-122572619D02*
X121882200Y-122477381D01*
X121882200Y-122477381D02*
X121834580Y-122429762D01*
X121834580Y-122429762D02*
X121739342Y-122382143D01*
X121739342Y-122382143D02*
X121453628Y-122382143D01*
X121453628Y-122382143D02*
X121358390Y-122429762D01*
X121358390Y-122429762D02*
X121310771Y-122477381D01*
X121310771Y-122477381D02*
X121263152Y-122572619D01*
X121263152Y-122572619D02*
X121263152Y-122763095D01*
X121263152Y-122763095D02*
X121310771Y-122858333D01*
X121929819Y-123763095D02*
X121406009Y-123763095D01*
X121406009Y-123763095D02*
X121310771Y-123715476D01*
X121310771Y-123715476D02*
X121263152Y-123620238D01*
X121263152Y-123620238D02*
X121263152Y-123429762D01*
X121263152Y-123429762D02*
X121310771Y-123334524D01*
X121882200Y-123763095D02*
X121929819Y-123667857D01*
X121929819Y-123667857D02*
X121929819Y-123429762D01*
X121929819Y-123429762D02*
X121882200Y-123334524D01*
X121882200Y-123334524D02*
X121786961Y-123286905D01*
X121786961Y-123286905D02*
X121691723Y-123286905D01*
X121691723Y-123286905D02*
X121596485Y-123334524D01*
X121596485Y-123334524D02*
X121548866Y-123429762D01*
X121548866Y-123429762D02*
X121548866Y-123667857D01*
X121548866Y-123667857D02*
X121501247Y-123763095D01*
X121025057Y-124191667D02*
X120977438Y-124239286D01*
X120977438Y-124239286D02*
X120929819Y-124334524D01*
X120929819Y-124334524D02*
X120929819Y-124572619D01*
X120929819Y-124572619D02*
X120977438Y-124667857D01*
X120977438Y-124667857D02*
X121025057Y-124715476D01*
X121025057Y-124715476D02*
X121120295Y-124763095D01*
X121120295Y-124763095D02*
X121215533Y-124763095D01*
X121215533Y-124763095D02*
X121358390Y-124715476D01*
X121358390Y-124715476D02*
X121929819Y-124144048D01*
X121929819Y-124144048D02*
X121929819Y-124763095D01*
X120929819Y-125667857D02*
X120929819Y-125191667D01*
X120929819Y-125191667D02*
X121406009Y-125144048D01*
X121406009Y-125144048D02*
X121358390Y-125191667D01*
X121358390Y-125191667D02*
X121310771Y-125286905D01*
X121310771Y-125286905D02*
X121310771Y-125525000D01*
X121310771Y-125525000D02*
X121358390Y-125620238D01*
X121358390Y-125620238D02*
X121406009Y-125667857D01*
X121406009Y-125667857D02*
X121501247Y-125715476D01*
X121501247Y-125715476D02*
X121739342Y-125715476D01*
X121739342Y-125715476D02*
X121834580Y-125667857D01*
X121834580Y-125667857D02*
X121882200Y-125620238D01*
X121882200Y-125620238D02*
X121929819Y-125525000D01*
X121929819Y-125525000D02*
X121929819Y-125286905D01*
X121929819Y-125286905D02*
X121882200Y-125191667D01*
X121882200Y-125191667D02*
X121834580Y-125144048D01*
X120929819Y-126572619D02*
X120929819Y-126382143D01*
X120929819Y-126382143D02*
X120977438Y-126286905D01*
X120977438Y-126286905D02*
X121025057Y-126239286D01*
X121025057Y-126239286D02*
X121167914Y-126144048D01*
X121167914Y-126144048D02*
X121358390Y-126096429D01*
X121358390Y-126096429D02*
X121739342Y-126096429D01*
X121739342Y-126096429D02*
X121834580Y-126144048D01*
X121834580Y-126144048D02*
X121882200Y-126191667D01*
X121882200Y-126191667D02*
X121929819Y-126286905D01*
X121929819Y-126286905D02*
X121929819Y-126477381D01*
X121929819Y-126477381D02*
X121882200Y-126572619D01*
X121882200Y-126572619D02*
X121834580Y-126620238D01*
X121834580Y-126620238D02*
X121739342Y-126667857D01*
X121739342Y-126667857D02*
X121501247Y-126667857D01*
X121501247Y-126667857D02*
X121406009Y-126620238D01*
X121406009Y-126620238D02*
X121358390Y-126572619D01*
X121358390Y-126572619D02*
X121310771Y-126477381D01*
X121310771Y-126477381D02*
X121310771Y-126286905D01*
X121310771Y-126286905D02*
X121358390Y-126191667D01*
X121358390Y-126191667D02*
X121406009Y-126144048D01*
X121406009Y-126144048D02*
X121501247Y-126096429D01*
X120929819Y-127286905D02*
X120929819Y-127382143D01*
X120929819Y-127382143D02*
X120977438Y-127477381D01*
X120977438Y-127477381D02*
X121025057Y-127525000D01*
X121025057Y-127525000D02*
X121120295Y-127572619D01*
X121120295Y-127572619D02*
X121310771Y-127620238D01*
X121310771Y-127620238D02*
X121548866Y-127620238D01*
X121548866Y-127620238D02*
X121739342Y-127572619D01*
X121739342Y-127572619D02*
X121834580Y-127525000D01*
X121834580Y-127525000D02*
X121882200Y-127477381D01*
X121882200Y-127477381D02*
X121929819Y-127382143D01*
X121929819Y-127382143D02*
X121929819Y-127286905D01*
X121929819Y-127286905D02*
X121882200Y-127191667D01*
X121882200Y-127191667D02*
X121834580Y-127144048D01*
X121834580Y-127144048D02*
X121739342Y-127096429D01*
X121739342Y-127096429D02*
X121548866Y-127048810D01*
X121548866Y-127048810D02*
X121310771Y-127048810D01*
X121310771Y-127048810D02*
X121120295Y-127096429D01*
X121120295Y-127096429D02*
X121025057Y-127144048D01*
X121025057Y-127144048D02*
X120977438Y-127191667D01*
X120977438Y-127191667D02*
X120929819Y-127286905D01*
X121263152Y-127953572D02*
X121929819Y-128191667D01*
X121929819Y-128191667D02*
X121263152Y-128429762D01*
X121548866Y-128810715D02*
X121548866Y-129572620D01*
X121358390Y-130191667D02*
X121310771Y-130096429D01*
X121310771Y-130096429D02*
X121263152Y-130048810D01*
X121263152Y-130048810D02*
X121167914Y-130001191D01*
X121167914Y-130001191D02*
X121120295Y-130001191D01*
X121120295Y-130001191D02*
X121025057Y-130048810D01*
X121025057Y-130048810D02*
X120977438Y-130096429D01*
X120977438Y-130096429D02*
X120929819Y-130191667D01*
X120929819Y-130191667D02*
X120929819Y-130382143D01*
X120929819Y-130382143D02*
X120977438Y-130477381D01*
X120977438Y-130477381D02*
X121025057Y-130525000D01*
X121025057Y-130525000D02*
X121120295Y-130572619D01*
X121120295Y-130572619D02*
X121167914Y-130572619D01*
X121167914Y-130572619D02*
X121263152Y-130525000D01*
X121263152Y-130525000D02*
X121310771Y-130477381D01*
X121310771Y-130477381D02*
X121358390Y-130382143D01*
X121358390Y-130382143D02*
X121358390Y-130191667D01*
X121358390Y-130191667D02*
X121406009Y-130096429D01*
X121406009Y-130096429D02*
X121453628Y-130048810D01*
X121453628Y-130048810D02*
X121548866Y-130001191D01*
X121548866Y-130001191D02*
X121739342Y-130001191D01*
X121739342Y-130001191D02*
X121834580Y-130048810D01*
X121834580Y-130048810D02*
X121882200Y-130096429D01*
X121882200Y-130096429D02*
X121929819Y-130191667D01*
X121929819Y-130191667D02*
X121929819Y-130382143D01*
X121929819Y-130382143D02*
X121882200Y-130477381D01*
X121882200Y-130477381D02*
X121834580Y-130525000D01*
X121834580Y-130525000D02*
X121739342Y-130572619D01*
X121739342Y-130572619D02*
X121548866Y-130572619D01*
X121548866Y-130572619D02*
X121453628Y-130525000D01*
X121453628Y-130525000D02*
X121406009Y-130477381D01*
X121406009Y-130477381D02*
X121358390Y-130382143D01*
X121644104Y-130953572D02*
X121644104Y-131429762D01*
X121929819Y-130858334D02*
X120929819Y-131191667D01*
X120929819Y-131191667D02*
X121929819Y-131525000D01*
X120929819Y-131858334D02*
X121739342Y-131858334D01*
X121739342Y-131858334D02*
X121834580Y-131905953D01*
X121834580Y-131905953D02*
X121882200Y-131953572D01*
X121882200Y-131953572D02*
X121929819Y-132048810D01*
X121929819Y-132048810D02*
X121929819Y-132239286D01*
X121929819Y-132239286D02*
X121882200Y-132334524D01*
X121882200Y-132334524D02*
X121834580Y-132382143D01*
X121834580Y-132382143D02*
X121739342Y-132429762D01*
X121739342Y-132429762D02*
X120929819Y-132429762D01*
X121929819Y-133477381D02*
X121453628Y-133144048D01*
X121929819Y-132905953D02*
X120929819Y-132905953D01*
X120929819Y-132905953D02*
X120929819Y-133286905D01*
X120929819Y-133286905D02*
X120977438Y-133382143D01*
X120977438Y-133382143D02*
X121025057Y-133429762D01*
X121025057Y-133429762D02*
X121120295Y-133477381D01*
X121120295Y-133477381D02*
X121263152Y-133477381D01*
X121263152Y-133477381D02*
X121358390Y-133429762D01*
X121358390Y-133429762D02*
X121406009Y-133382143D01*
X121406009Y-133382143D02*
X121453628Y-133286905D01*
X121453628Y-133286905D02*
X121453628Y-132905953D01*
X173468665Y-77821423D02*
X173328621Y-77766074D01*
X173328621Y-77766074D02*
X173146230Y-77613030D01*
X173146230Y-77613030D02*
X173103882Y-77515334D01*
X173103882Y-77515334D02*
X173098013Y-77448246D01*
X173098013Y-77448246D02*
X173122752Y-77344681D01*
X173122752Y-77344681D02*
X173183970Y-77271724D01*
X173183970Y-77271724D02*
X173281666Y-77229377D01*
X173281666Y-77229377D02*
X173348754Y-77223507D01*
X173348754Y-77223507D02*
X173452319Y-77248247D01*
X173452319Y-77248247D02*
X173628841Y-77334204D01*
X173628841Y-77334204D02*
X173732407Y-77358944D01*
X173732407Y-77358944D02*
X173799494Y-77353074D01*
X173799494Y-77353074D02*
X173897190Y-77310727D01*
X173897190Y-77310727D02*
X173958408Y-77237770D01*
X173958408Y-77237770D02*
X173983148Y-77134204D01*
X173983148Y-77134204D02*
X173977278Y-77067117D01*
X173977278Y-77067117D02*
X173934931Y-76969421D01*
X173934931Y-76969421D02*
X173752539Y-76816376D01*
X173752539Y-76816376D02*
X173612495Y-76761028D01*
X173209972Y-76796244D02*
X172918145Y-76551373D01*
X173314799Y-76449069D02*
X172763839Y-77105679D01*
X172763839Y-77105679D02*
X172666142Y-77148026D01*
X172666142Y-77148026D02*
X172562577Y-77123287D01*
X172562577Y-77123287D02*
X172489620Y-77062069D01*
X171905967Y-76572326D02*
X172242665Y-76171064D01*
X172242665Y-76171064D02*
X172340361Y-76128717D01*
X172340361Y-76128717D02*
X172443927Y-76153456D01*
X172443927Y-76153456D02*
X172589840Y-76275892D01*
X172589840Y-76275892D02*
X172632188Y-76373588D01*
X171936576Y-76535847D02*
X171978924Y-76633544D01*
X171978924Y-76633544D02*
X172161315Y-76786588D01*
X172161315Y-76786588D02*
X172264881Y-76811328D01*
X172264881Y-76811328D02*
X172362577Y-76768980D01*
X172362577Y-76768980D02*
X172423795Y-76696024D01*
X172423795Y-76696024D02*
X172448534Y-76592458D01*
X172448534Y-76592458D02*
X172406187Y-76494762D01*
X172406187Y-76494762D02*
X172223795Y-76341717D01*
X172223795Y-76341717D02*
X172181447Y-76244021D01*
X172079144Y-75847367D02*
X171787317Y-75602495D01*
X172183972Y-75500192D02*
X171633011Y-76156801D01*
X171633011Y-76156801D02*
X171535315Y-76199149D01*
X171535315Y-76199149D02*
X171431749Y-76174410D01*
X171431749Y-76174410D02*
X171358792Y-76113192D01*
X171203664Y-75112752D02*
X170775139Y-75623448D01*
X171531969Y-75388233D02*
X171195271Y-75789494D01*
X171195271Y-75789494D02*
X171097575Y-75831842D01*
X171097575Y-75831842D02*
X170994009Y-75807102D01*
X170994009Y-75807102D02*
X170884574Y-75715275D01*
X170884574Y-75715275D02*
X170842226Y-75617579D01*
X170842226Y-75617579D02*
X170836357Y-75550492D01*
X170477443Y-75311490D02*
X170373878Y-75286750D01*
X170373878Y-75286750D02*
X170227964Y-75164314D01*
X170227964Y-75164314D02*
X170185617Y-75066618D01*
X170185617Y-75066618D02*
X170210356Y-74963053D01*
X170210356Y-74963053D02*
X170240965Y-74926574D01*
X170240965Y-74926574D02*
X170338661Y-74884227D01*
X170338661Y-74884227D02*
X170442227Y-74908966D01*
X170442227Y-74908966D02*
X170551662Y-75000793D01*
X170551662Y-75000793D02*
X170655227Y-75025533D01*
X170655227Y-75025533D02*
X170752924Y-74983185D01*
X170752924Y-74983185D02*
X170783533Y-74946707D01*
X170783533Y-74946707D02*
X170808272Y-74843141D01*
X170808272Y-74843141D02*
X170765924Y-74745445D01*
X170765924Y-74745445D02*
X170656490Y-74653618D01*
X170656490Y-74653618D02*
X170552924Y-74628879D01*
X168841788Y-74001175D02*
X169206572Y-74307264D01*
X169206572Y-74307264D02*
X169849359Y-73541220D01*
X168923138Y-73385651D02*
X168667790Y-73171388D01*
X168221657Y-73480823D02*
X168586440Y-73786912D01*
X168586440Y-73786912D02*
X169229228Y-73020868D01*
X169229228Y-73020868D02*
X168864445Y-72714778D01*
X167893352Y-73205342D02*
X168536140Y-72439298D01*
X168536140Y-72439298D02*
X168353748Y-72286253D01*
X168353748Y-72286253D02*
X168213705Y-72230905D01*
X168213705Y-72230905D02*
X168079530Y-72242643D01*
X168079530Y-72242643D02*
X167981834Y-72284991D01*
X167981834Y-72284991D02*
X167822920Y-72400295D01*
X167822920Y-72400295D02*
X167731093Y-72509730D01*
X167731093Y-72509730D02*
X167645136Y-72686252D01*
X167645136Y-72686252D02*
X167620396Y-72789818D01*
X167620396Y-72789818D02*
X167632135Y-72923992D01*
X167632135Y-72923992D02*
X167710961Y-73052297D01*
X167710961Y-73052297D02*
X167893352Y-73205342D01*
D11*
X169929224Y-76424139D02*
X170186339Y-76117722D01*
X170186339Y-76117722D02*
X170113382Y-76056504D01*
X170113382Y-76056504D02*
X170057365Y-76034364D01*
X170057365Y-76034364D02*
X170003695Y-76039060D01*
X170003695Y-76039060D02*
X169964617Y-76055999D01*
X169964617Y-76055999D02*
X169901051Y-76102121D01*
X169901051Y-76102121D02*
X169864320Y-76145895D01*
X169864320Y-76145895D02*
X169829937Y-76216503D01*
X169829937Y-76216503D02*
X169820042Y-76257930D01*
X169820042Y-76257930D02*
X169824737Y-76311599D01*
X169824737Y-76311599D02*
X169856267Y-76362922D01*
X169856267Y-76362922D02*
X169929224Y-76424139D01*
X169870025Y-75902033D02*
X169867678Y-75875198D01*
X169867678Y-75875198D02*
X169850739Y-75836119D01*
X169850739Y-75836119D02*
X169777782Y-75774902D01*
X169777782Y-75774902D02*
X169736356Y-75765006D01*
X169736356Y-75765006D02*
X169709521Y-75767353D01*
X169709521Y-75767353D02*
X169670442Y-75784293D01*
X169670442Y-75784293D02*
X169645955Y-75813475D01*
X169645955Y-75813475D02*
X169623816Y-75869493D01*
X169623816Y-75869493D02*
X169651989Y-76191512D01*
X169651989Y-76191512D02*
X169462302Y-76032345D01*
D10*
X175269915Y-79548762D02*
X175264045Y-79481674D01*
X175264045Y-79481674D02*
X175221698Y-79383978D01*
X175221698Y-79383978D02*
X175039306Y-79230934D01*
X175039306Y-79230934D02*
X174935740Y-79206194D01*
X174935740Y-79206194D02*
X174868653Y-79212063D01*
X174868653Y-79212063D02*
X174770957Y-79254411D01*
X174770957Y-79254411D02*
X174709739Y-79327368D01*
X174709739Y-79327368D02*
X174654391Y-79467411D01*
X174654391Y-79467411D02*
X174724823Y-80272458D01*
X174724823Y-80272458D02*
X174250605Y-79874542D01*
X174419175Y-78710582D02*
X174346218Y-78649364D01*
X174346218Y-78649364D02*
X174242653Y-78624624D01*
X174242653Y-78624624D02*
X174175565Y-78630494D01*
X174175565Y-78630494D02*
X174077869Y-78672841D01*
X174077869Y-78672841D02*
X173918955Y-78788146D01*
X173918955Y-78788146D02*
X173765910Y-78970537D01*
X173765910Y-78970537D02*
X173679953Y-79147059D01*
X173679953Y-79147059D02*
X173655213Y-79250625D01*
X173655213Y-79250625D02*
X173661083Y-79317712D01*
X173661083Y-79317712D02*
X173703431Y-79415408D01*
X173703431Y-79415408D02*
X173776387Y-79476626D01*
X173776387Y-79476626D02*
X173879953Y-79501366D01*
X173879953Y-79501366D02*
X173947040Y-79495496D01*
X173947040Y-79495496D02*
X174044736Y-79453149D01*
X174044736Y-79453149D02*
X174203650Y-79337844D01*
X174203650Y-79337844D02*
X174356695Y-79155453D01*
X174356695Y-79155453D02*
X174442652Y-78978931D01*
X174442652Y-78978931D02*
X174467392Y-78875365D01*
X174467392Y-78875365D02*
X174461522Y-78808278D01*
X174461522Y-78808278D02*
X174419175Y-78710582D01*
X173192734Y-78986883D02*
X173621259Y-78476187D01*
X173560041Y-78549143D02*
X173554172Y-78482056D01*
X173554172Y-78482056D02*
X173511824Y-78384360D01*
X173511824Y-78384360D02*
X173402389Y-78292533D01*
X173402389Y-78292533D02*
X173298824Y-78267794D01*
X173298824Y-78267794D02*
X173201128Y-78310141D01*
X173201128Y-78310141D02*
X172864429Y-78711403D01*
X173201128Y-78310141D02*
X173225867Y-78206576D01*
X173225867Y-78206576D02*
X173183520Y-78108880D01*
X173183520Y-78108880D02*
X173074085Y-78017053D01*
X173074085Y-78017053D02*
X172970519Y-77992313D01*
X172970519Y-77992313D02*
X172872823Y-78034661D01*
X172872823Y-78034661D02*
X172536125Y-78435922D01*
X172171342Y-78129833D02*
X172599867Y-77619137D01*
X172538649Y-77692093D02*
X172532780Y-77625006D01*
X172532780Y-77625006D02*
X172490432Y-77527310D01*
X172490432Y-77527310D02*
X172380997Y-77435483D01*
X172380997Y-77435483D02*
X172277432Y-77410744D01*
X172277432Y-77410744D02*
X172179735Y-77453091D01*
X172179735Y-77453091D02*
X171843037Y-77854353D01*
X172179735Y-77453091D02*
X172204475Y-77349526D01*
X172204475Y-77349526D02*
X172162127Y-77251830D01*
X172162127Y-77251830D02*
X172052692Y-77160003D01*
X172052692Y-77160003D02*
X171949127Y-77135263D01*
X171949127Y-77135263D02*
X171851431Y-77177611D01*
X171851431Y-77177611D02*
X171514732Y-77578872D01*
X170647647Y-76167516D02*
X170902995Y-76381779D01*
X170566296Y-76783040D02*
X171209084Y-76016996D01*
X171209084Y-76016996D02*
X170844301Y-75710906D01*
X169909687Y-76232079D02*
X170338212Y-75721383D01*
X170552474Y-75466035D02*
X170558344Y-75533122D01*
X170558344Y-75533122D02*
X170491257Y-75538991D01*
X170491257Y-75538991D02*
X170485387Y-75471904D01*
X170485387Y-75471904D02*
X170552474Y-75466035D01*
X170552474Y-75466035D02*
X170491257Y-75538991D01*
X169435469Y-75834163D02*
X169539035Y-75858903D01*
X169539035Y-75858903D02*
X169636731Y-75816555D01*
X169636731Y-75816555D02*
X170187692Y-75159946D01*
X168815338Y-75313811D02*
X169152036Y-74912550D01*
X169152036Y-74912550D02*
X169249732Y-74870202D01*
X169249732Y-74870202D02*
X169353298Y-74894942D01*
X169353298Y-74894942D02*
X169499211Y-75017377D01*
X169499211Y-75017377D02*
X169541558Y-75115074D01*
X168845947Y-75277333D02*
X168888294Y-75375029D01*
X168888294Y-75375029D02*
X169070686Y-75528074D01*
X169070686Y-75528074D02*
X169174251Y-75552813D01*
X169174251Y-75552813D02*
X169271947Y-75510466D01*
X169271947Y-75510466D02*
X169333165Y-75437509D01*
X169333165Y-75437509D02*
X169357905Y-75333943D01*
X169357905Y-75333943D02*
X169315557Y-75236247D01*
X169315557Y-75236247D02*
X169133166Y-75083203D01*
X169133166Y-75083203D02*
X169090818Y-74985506D01*
X168450554Y-75007722D02*
X168879080Y-74497026D01*
X168817862Y-74569982D02*
X168811992Y-74502895D01*
X168811992Y-74502895D02*
X168769645Y-74405199D01*
X168769645Y-74405199D02*
X168660210Y-74313372D01*
X168660210Y-74313372D02*
X168556644Y-74288632D01*
X168556644Y-74288632D02*
X168458948Y-74330980D01*
X168458948Y-74330980D02*
X168122250Y-74732241D01*
X168458948Y-74330980D02*
X168483688Y-74227415D01*
X168483688Y-74227415D02*
X168441340Y-74129718D01*
X168441340Y-74129718D02*
X168331905Y-74037892D01*
X168331905Y-74037892D02*
X168228339Y-74013152D01*
X168228339Y-74013152D02*
X168130643Y-74055500D01*
X168130643Y-74055500D02*
X167793945Y-74456761D01*
X167167945Y-73869322D02*
X167210292Y-73967018D01*
X167210292Y-73967018D02*
X167356205Y-74089454D01*
X167356205Y-74089454D02*
X167459771Y-74114194D01*
X167459771Y-74114194D02*
X167557467Y-74071846D01*
X167557467Y-74071846D02*
X167802339Y-73780019D01*
X167802339Y-73780019D02*
X167827078Y-73676454D01*
X167827078Y-73676454D02*
X167784731Y-73578758D01*
X167784731Y-73578758D02*
X167638817Y-73456322D01*
X167638817Y-73456322D02*
X167535252Y-73431582D01*
X167535252Y-73431582D02*
X167437556Y-73473930D01*
X167437556Y-73473930D02*
X167376338Y-73546887D01*
X167376338Y-73546887D02*
X167679903Y-73925933D01*
X167201078Y-73089015D02*
X166772552Y-73599711D01*
X167139860Y-73161971D02*
X167133990Y-73094884D01*
X167133990Y-73094884D02*
X167091643Y-72997188D01*
X167091643Y-72997188D02*
X166982208Y-72905361D01*
X166982208Y-72905361D02*
X166878642Y-72880622D01*
X166878642Y-72880622D02*
X166780946Y-72922969D01*
X166780946Y-72922969D02*
X166444248Y-73324231D01*
X166617425Y-72599272D02*
X166325598Y-72354400D01*
X166722252Y-72252097D02*
X166171291Y-72908706D01*
X166171291Y-72908706D02*
X166073595Y-72951054D01*
X166073595Y-72951054D02*
X165970030Y-72926314D01*
X165970030Y-72926314D02*
X165897073Y-72865097D01*
X149690476Y-132204819D02*
X149119048Y-132204819D01*
X149404762Y-133204819D02*
X149404762Y-132204819D01*
X148404762Y-133157200D02*
X148500000Y-133204819D01*
X148500000Y-133204819D02*
X148690476Y-133204819D01*
X148690476Y-133204819D02*
X148785714Y-133157200D01*
X148785714Y-133157200D02*
X148833333Y-133061961D01*
X148833333Y-133061961D02*
X148833333Y-132681009D01*
X148833333Y-132681009D02*
X148785714Y-132585771D01*
X148785714Y-132585771D02*
X148690476Y-132538152D01*
X148690476Y-132538152D02*
X148500000Y-132538152D01*
X148500000Y-132538152D02*
X148404762Y-132585771D01*
X148404762Y-132585771D02*
X148357143Y-132681009D01*
X148357143Y-132681009D02*
X148357143Y-132776247D01*
X148357143Y-132776247D02*
X148833333Y-132871485D01*
X147976190Y-133157200D02*
X147880952Y-133204819D01*
X147880952Y-133204819D02*
X147690476Y-133204819D01*
X147690476Y-133204819D02*
X147595238Y-133157200D01*
X147595238Y-133157200D02*
X147547619Y-133061961D01*
X147547619Y-133061961D02*
X147547619Y-133014342D01*
X147547619Y-133014342D02*
X147595238Y-132919104D01*
X147595238Y-132919104D02*
X147690476Y-132871485D01*
X147690476Y-132871485D02*
X147833333Y-132871485D01*
X147833333Y-132871485D02*
X147928571Y-132823866D01*
X147928571Y-132823866D02*
X147976190Y-132728628D01*
X147976190Y-132728628D02*
X147976190Y-132681009D01*
X147976190Y-132681009D02*
X147928571Y-132585771D01*
X147928571Y-132585771D02*
X147833333Y-132538152D01*
X147833333Y-132538152D02*
X147690476Y-132538152D01*
X147690476Y-132538152D02*
X147595238Y-132585771D01*
X147261904Y-132538152D02*
X146880952Y-132538152D01*
X147119047Y-132204819D02*
X147119047Y-133061961D01*
X147119047Y-133061961D02*
X147071428Y-133157200D01*
X147071428Y-133157200D02*
X146976190Y-133204819D01*
X146976190Y-133204819D02*
X146880952Y-133204819D01*
X146547618Y-133204819D02*
X146547618Y-132204819D01*
X146547618Y-132204819D02*
X146166666Y-132204819D01*
X146166666Y-132204819D02*
X146071428Y-132252438D01*
X146071428Y-132252438D02*
X146023809Y-132300057D01*
X146023809Y-132300057D02*
X145976190Y-132395295D01*
X145976190Y-132395295D02*
X145976190Y-132538152D01*
X145976190Y-132538152D02*
X146023809Y-132633390D01*
X146023809Y-132633390D02*
X146071428Y-132681009D01*
X146071428Y-132681009D02*
X146166666Y-132728628D01*
X146166666Y-132728628D02*
X146547618Y-132728628D01*
X145404761Y-133204819D02*
X145499999Y-133157200D01*
X145499999Y-133157200D02*
X145547618Y-133109580D01*
X145547618Y-133109580D02*
X145595237Y-133014342D01*
X145595237Y-133014342D02*
X145595237Y-132728628D01*
X145595237Y-132728628D02*
X145547618Y-132633390D01*
X145547618Y-132633390D02*
X145499999Y-132585771D01*
X145499999Y-132585771D02*
X145404761Y-132538152D01*
X145404761Y-132538152D02*
X145261904Y-132538152D01*
X145261904Y-132538152D02*
X145166666Y-132585771D01*
X145166666Y-132585771D02*
X145119047Y-132633390D01*
X145119047Y-132633390D02*
X145071428Y-132728628D01*
X145071428Y-132728628D02*
X145071428Y-133014342D01*
X145071428Y-133014342D02*
X145119047Y-133109580D01*
X145119047Y-133109580D02*
X145166666Y-133157200D01*
X145166666Y-133157200D02*
X145261904Y-133204819D01*
X145261904Y-133204819D02*
X145404761Y-133204819D01*
X144642856Y-133204819D02*
X144642856Y-132538152D01*
X144642856Y-132204819D02*
X144690475Y-132252438D01*
X144690475Y-132252438D02*
X144642856Y-132300057D01*
X144642856Y-132300057D02*
X144595237Y-132252438D01*
X144595237Y-132252438D02*
X144642856Y-132204819D01*
X144642856Y-132204819D02*
X144642856Y-132300057D01*
X144166666Y-132538152D02*
X144166666Y-133204819D01*
X144166666Y-132633390D02*
X144119047Y-132585771D01*
X144119047Y-132585771D02*
X144023809Y-132538152D01*
X144023809Y-132538152D02*
X143880952Y-132538152D01*
X143880952Y-132538152D02*
X143785714Y-132585771D01*
X143785714Y-132585771D02*
X143738095Y-132681009D01*
X143738095Y-132681009D02*
X143738095Y-133204819D01*
X143404761Y-132538152D02*
X143023809Y-132538152D01*
X143261904Y-132204819D02*
X143261904Y-133061961D01*
X143261904Y-133061961D02*
X143214285Y-133157200D01*
X143214285Y-133157200D02*
X143119047Y-133204819D01*
X143119047Y-133204819D02*
X143023809Y-133204819D01*
X142928571Y-133300057D02*
X142166666Y-133300057D01*
X141976189Y-132919104D02*
X141499999Y-132919104D01*
X142071427Y-133204819D02*
X141738094Y-132204819D01*
X141738094Y-132204819D02*
X141404761Y-133204819D01*
X140928570Y-133204819D02*
X141023808Y-133157200D01*
X141023808Y-133157200D02*
X141071427Y-133061961D01*
X141071427Y-133061961D02*
X141071427Y-132204819D01*
X140690474Y-132538152D02*
X140309522Y-132538152D01*
X140547617Y-132204819D02*
X140547617Y-133061961D01*
X140547617Y-133061961D02*
X140499998Y-133157200D01*
X140499998Y-133157200D02*
X140404760Y-133204819D01*
X140404760Y-133204819D02*
X140309522Y-133204819D01*
X149690476Y-128704819D02*
X149119048Y-128704819D01*
X149404762Y-129704819D02*
X149404762Y-128704819D01*
X148404762Y-129657200D02*
X148500000Y-129704819D01*
X148500000Y-129704819D02*
X148690476Y-129704819D01*
X148690476Y-129704819D02*
X148785714Y-129657200D01*
X148785714Y-129657200D02*
X148833333Y-129561961D01*
X148833333Y-129561961D02*
X148833333Y-129181009D01*
X148833333Y-129181009D02*
X148785714Y-129085771D01*
X148785714Y-129085771D02*
X148690476Y-129038152D01*
X148690476Y-129038152D02*
X148500000Y-129038152D01*
X148500000Y-129038152D02*
X148404762Y-129085771D01*
X148404762Y-129085771D02*
X148357143Y-129181009D01*
X148357143Y-129181009D02*
X148357143Y-129276247D01*
X148357143Y-129276247D02*
X148833333Y-129371485D01*
X147976190Y-129657200D02*
X147880952Y-129704819D01*
X147880952Y-129704819D02*
X147690476Y-129704819D01*
X147690476Y-129704819D02*
X147595238Y-129657200D01*
X147595238Y-129657200D02*
X147547619Y-129561961D01*
X147547619Y-129561961D02*
X147547619Y-129514342D01*
X147547619Y-129514342D02*
X147595238Y-129419104D01*
X147595238Y-129419104D02*
X147690476Y-129371485D01*
X147690476Y-129371485D02*
X147833333Y-129371485D01*
X147833333Y-129371485D02*
X147928571Y-129323866D01*
X147928571Y-129323866D02*
X147976190Y-129228628D01*
X147976190Y-129228628D02*
X147976190Y-129181009D01*
X147976190Y-129181009D02*
X147928571Y-129085771D01*
X147928571Y-129085771D02*
X147833333Y-129038152D01*
X147833333Y-129038152D02*
X147690476Y-129038152D01*
X147690476Y-129038152D02*
X147595238Y-129085771D01*
X147261904Y-129038152D02*
X146880952Y-129038152D01*
X147119047Y-128704819D02*
X147119047Y-129561961D01*
X147119047Y-129561961D02*
X147071428Y-129657200D01*
X147071428Y-129657200D02*
X146976190Y-129704819D01*
X146976190Y-129704819D02*
X146880952Y-129704819D01*
X146547618Y-129704819D02*
X146547618Y-128704819D01*
X146547618Y-128704819D02*
X146166666Y-128704819D01*
X146166666Y-128704819D02*
X146071428Y-128752438D01*
X146071428Y-128752438D02*
X146023809Y-128800057D01*
X146023809Y-128800057D02*
X145976190Y-128895295D01*
X145976190Y-128895295D02*
X145976190Y-129038152D01*
X145976190Y-129038152D02*
X146023809Y-129133390D01*
X146023809Y-129133390D02*
X146071428Y-129181009D01*
X146071428Y-129181009D02*
X146166666Y-129228628D01*
X146166666Y-129228628D02*
X146547618Y-129228628D01*
X145404761Y-129704819D02*
X145499999Y-129657200D01*
X145499999Y-129657200D02*
X145547618Y-129609580D01*
X145547618Y-129609580D02*
X145595237Y-129514342D01*
X145595237Y-129514342D02*
X145595237Y-129228628D01*
X145595237Y-129228628D02*
X145547618Y-129133390D01*
X145547618Y-129133390D02*
X145499999Y-129085771D01*
X145499999Y-129085771D02*
X145404761Y-129038152D01*
X145404761Y-129038152D02*
X145261904Y-129038152D01*
X145261904Y-129038152D02*
X145166666Y-129085771D01*
X145166666Y-129085771D02*
X145119047Y-129133390D01*
X145119047Y-129133390D02*
X145071428Y-129228628D01*
X145071428Y-129228628D02*
X145071428Y-129514342D01*
X145071428Y-129514342D02*
X145119047Y-129609580D01*
X145119047Y-129609580D02*
X145166666Y-129657200D01*
X145166666Y-129657200D02*
X145261904Y-129704819D01*
X145261904Y-129704819D02*
X145404761Y-129704819D01*
X144642856Y-129704819D02*
X144642856Y-129038152D01*
X144642856Y-128704819D02*
X144690475Y-128752438D01*
X144690475Y-128752438D02*
X144642856Y-128800057D01*
X144642856Y-128800057D02*
X144595237Y-128752438D01*
X144595237Y-128752438D02*
X144642856Y-128704819D01*
X144642856Y-128704819D02*
X144642856Y-128800057D01*
X144166666Y-129038152D02*
X144166666Y-129704819D01*
X144166666Y-129133390D02*
X144119047Y-129085771D01*
X144119047Y-129085771D02*
X144023809Y-129038152D01*
X144023809Y-129038152D02*
X143880952Y-129038152D01*
X143880952Y-129038152D02*
X143785714Y-129085771D01*
X143785714Y-129085771D02*
X143738095Y-129181009D01*
X143738095Y-129181009D02*
X143738095Y-129704819D01*
X143404761Y-129038152D02*
X143023809Y-129038152D01*
X143261904Y-128704819D02*
X143261904Y-129561961D01*
X143261904Y-129561961D02*
X143214285Y-129657200D01*
X143214285Y-129657200D02*
X143119047Y-129704819D01*
X143119047Y-129704819D02*
X143023809Y-129704819D01*
X142928571Y-129800057D02*
X142166666Y-129800057D01*
X141976189Y-129419104D02*
X141499999Y-129419104D01*
X142071427Y-129704819D02*
X141738094Y-128704819D01*
X141738094Y-128704819D02*
X141404761Y-129704819D01*
X140928570Y-129704819D02*
X141023808Y-129657200D01*
X141023808Y-129657200D02*
X141071427Y-129561961D01*
X141071427Y-129561961D02*
X141071427Y-128704819D01*
X140690474Y-129038152D02*
X140309522Y-129038152D01*
X140547617Y-128704819D02*
X140547617Y-129561961D01*
X140547617Y-129561961D02*
X140499998Y-129657200D01*
X140499998Y-129657200D02*
X140404760Y-129704819D01*
X140404760Y-129704819D02*
X140309522Y-129704819D01*
X161176190Y-124704819D02*
X161176190Y-123704819D01*
X161176190Y-123704819D02*
X160842857Y-124419104D01*
X160842857Y-124419104D02*
X160509524Y-123704819D01*
X160509524Y-123704819D02*
X160509524Y-124704819D01*
X159509524Y-124704819D02*
X160080952Y-124704819D01*
X159795238Y-124704819D02*
X159795238Y-123704819D01*
X159795238Y-123704819D02*
X159890476Y-123847676D01*
X159890476Y-123847676D02*
X159985714Y-123942914D01*
X159985714Y-123942914D02*
X160080952Y-123990533D01*
X159080952Y-124609580D02*
X159033333Y-124657200D01*
X159033333Y-124657200D02*
X159080952Y-124704819D01*
X159080952Y-124704819D02*
X159128571Y-124657200D01*
X159128571Y-124657200D02*
X159080952Y-124609580D01*
X159080952Y-124609580D02*
X159080952Y-124704819D01*
X158176191Y-123704819D02*
X158366667Y-123704819D01*
X158366667Y-123704819D02*
X158461905Y-123752438D01*
X158461905Y-123752438D02*
X158509524Y-123800057D01*
X158509524Y-123800057D02*
X158604762Y-123942914D01*
X158604762Y-123942914D02*
X158652381Y-124133390D01*
X158652381Y-124133390D02*
X158652381Y-124514342D01*
X158652381Y-124514342D02*
X158604762Y-124609580D01*
X158604762Y-124609580D02*
X158557143Y-124657200D01*
X158557143Y-124657200D02*
X158461905Y-124704819D01*
X158461905Y-124704819D02*
X158271429Y-124704819D01*
X158271429Y-124704819D02*
X158176191Y-124657200D01*
X158176191Y-124657200D02*
X158128572Y-124609580D01*
X158128572Y-124609580D02*
X158080953Y-124514342D01*
X158080953Y-124514342D02*
X158080953Y-124276247D01*
X158080953Y-124276247D02*
X158128572Y-124181009D01*
X158128572Y-124181009D02*
X158176191Y-124133390D01*
X158176191Y-124133390D02*
X158271429Y-124085771D01*
X158271429Y-124085771D02*
X158461905Y-124085771D01*
X158461905Y-124085771D02*
X158557143Y-124133390D01*
X158557143Y-124133390D02*
X158604762Y-124181009D01*
X158604762Y-124181009D02*
X158652381Y-124276247D01*
X156938095Y-124657200D02*
X156795238Y-124704819D01*
X156795238Y-124704819D02*
X156557143Y-124704819D01*
X156557143Y-124704819D02*
X156461905Y-124657200D01*
X156461905Y-124657200D02*
X156414286Y-124609580D01*
X156414286Y-124609580D02*
X156366667Y-124514342D01*
X156366667Y-124514342D02*
X156366667Y-124419104D01*
X156366667Y-124419104D02*
X156414286Y-124323866D01*
X156414286Y-124323866D02*
X156461905Y-124276247D01*
X156461905Y-124276247D02*
X156557143Y-124228628D01*
X156557143Y-124228628D02*
X156747619Y-124181009D01*
X156747619Y-124181009D02*
X156842857Y-124133390D01*
X156842857Y-124133390D02*
X156890476Y-124085771D01*
X156890476Y-124085771D02*
X156938095Y-123990533D01*
X156938095Y-123990533D02*
X156938095Y-123895295D01*
X156938095Y-123895295D02*
X156890476Y-123800057D01*
X156890476Y-123800057D02*
X156842857Y-123752438D01*
X156842857Y-123752438D02*
X156747619Y-123704819D01*
X156747619Y-123704819D02*
X156509524Y-123704819D01*
X156509524Y-123704819D02*
X156366667Y-123752438D01*
X155938095Y-124704819D02*
X155938095Y-123704819D01*
X155938095Y-123704819D02*
X155604762Y-124419104D01*
X155604762Y-124419104D02*
X155271429Y-123704819D01*
X155271429Y-123704819D02*
X155271429Y-124704819D01*
X154938095Y-123704819D02*
X154366667Y-123704819D01*
X154652381Y-124704819D02*
X154652381Y-123704819D01*
X153271428Y-124704819D02*
X153271428Y-123704819D01*
X153271428Y-123704819D02*
X152700000Y-124704819D01*
X152700000Y-124704819D02*
X152700000Y-123704819D01*
X151795238Y-124038152D02*
X151795238Y-124704819D01*
X152223809Y-124038152D02*
X152223809Y-124561961D01*
X152223809Y-124561961D02*
X152176190Y-124657200D01*
X152176190Y-124657200D02*
X152080952Y-124704819D01*
X152080952Y-124704819D02*
X151938095Y-124704819D01*
X151938095Y-124704819D02*
X151842857Y-124657200D01*
X151842857Y-124657200D02*
X151795238Y-124609580D01*
X151461904Y-124038152D02*
X151080952Y-124038152D01*
X151319047Y-123704819D02*
X151319047Y-124561961D01*
X151319047Y-124561961D02*
X151271428Y-124657200D01*
X151271428Y-124657200D02*
X151176190Y-124704819D01*
X151176190Y-124704819D02*
X151080952Y-124704819D01*
X154690476Y-125204819D02*
X154119048Y-125204819D01*
X154404762Y-126204819D02*
X154404762Y-125204819D01*
X153404762Y-126157200D02*
X153500000Y-126204819D01*
X153500000Y-126204819D02*
X153690476Y-126204819D01*
X153690476Y-126204819D02*
X153785714Y-126157200D01*
X153785714Y-126157200D02*
X153833333Y-126061961D01*
X153833333Y-126061961D02*
X153833333Y-125681009D01*
X153833333Y-125681009D02*
X153785714Y-125585771D01*
X153785714Y-125585771D02*
X153690476Y-125538152D01*
X153690476Y-125538152D02*
X153500000Y-125538152D01*
X153500000Y-125538152D02*
X153404762Y-125585771D01*
X153404762Y-125585771D02*
X153357143Y-125681009D01*
X153357143Y-125681009D02*
X153357143Y-125776247D01*
X153357143Y-125776247D02*
X153833333Y-125871485D01*
X152976190Y-126157200D02*
X152880952Y-126204819D01*
X152880952Y-126204819D02*
X152690476Y-126204819D01*
X152690476Y-126204819D02*
X152595238Y-126157200D01*
X152595238Y-126157200D02*
X152547619Y-126061961D01*
X152547619Y-126061961D02*
X152547619Y-126014342D01*
X152547619Y-126014342D02*
X152595238Y-125919104D01*
X152595238Y-125919104D02*
X152690476Y-125871485D01*
X152690476Y-125871485D02*
X152833333Y-125871485D01*
X152833333Y-125871485D02*
X152928571Y-125823866D01*
X152928571Y-125823866D02*
X152976190Y-125728628D01*
X152976190Y-125728628D02*
X152976190Y-125681009D01*
X152976190Y-125681009D02*
X152928571Y-125585771D01*
X152928571Y-125585771D02*
X152833333Y-125538152D01*
X152833333Y-125538152D02*
X152690476Y-125538152D01*
X152690476Y-125538152D02*
X152595238Y-125585771D01*
X152261904Y-125538152D02*
X151880952Y-125538152D01*
X152119047Y-125204819D02*
X152119047Y-126061961D01*
X152119047Y-126061961D02*
X152071428Y-126157200D01*
X152071428Y-126157200D02*
X151976190Y-126204819D01*
X151976190Y-126204819D02*
X151880952Y-126204819D01*
X151547618Y-126204819D02*
X151547618Y-125204819D01*
X151547618Y-125204819D02*
X151166666Y-125204819D01*
X151166666Y-125204819D02*
X151071428Y-125252438D01*
X151071428Y-125252438D02*
X151023809Y-125300057D01*
X151023809Y-125300057D02*
X150976190Y-125395295D01*
X150976190Y-125395295D02*
X150976190Y-125538152D01*
X150976190Y-125538152D02*
X151023809Y-125633390D01*
X151023809Y-125633390D02*
X151071428Y-125681009D01*
X151071428Y-125681009D02*
X151166666Y-125728628D01*
X151166666Y-125728628D02*
X151547618Y-125728628D01*
X150404761Y-126204819D02*
X150499999Y-126157200D01*
X150499999Y-126157200D02*
X150547618Y-126109580D01*
X150547618Y-126109580D02*
X150595237Y-126014342D01*
X150595237Y-126014342D02*
X150595237Y-125728628D01*
X150595237Y-125728628D02*
X150547618Y-125633390D01*
X150547618Y-125633390D02*
X150499999Y-125585771D01*
X150499999Y-125585771D02*
X150404761Y-125538152D01*
X150404761Y-125538152D02*
X150261904Y-125538152D01*
X150261904Y-125538152D02*
X150166666Y-125585771D01*
X150166666Y-125585771D02*
X150119047Y-125633390D01*
X150119047Y-125633390D02*
X150071428Y-125728628D01*
X150071428Y-125728628D02*
X150071428Y-126014342D01*
X150071428Y-126014342D02*
X150119047Y-126109580D01*
X150119047Y-126109580D02*
X150166666Y-126157200D01*
X150166666Y-126157200D02*
X150261904Y-126204819D01*
X150261904Y-126204819D02*
X150404761Y-126204819D01*
X149642856Y-126204819D02*
X149642856Y-125538152D01*
X149642856Y-125204819D02*
X149690475Y-125252438D01*
X149690475Y-125252438D02*
X149642856Y-125300057D01*
X149642856Y-125300057D02*
X149595237Y-125252438D01*
X149595237Y-125252438D02*
X149642856Y-125204819D01*
X149642856Y-125204819D02*
X149642856Y-125300057D01*
X149166666Y-125538152D02*
X149166666Y-126204819D01*
X149166666Y-125633390D02*
X149119047Y-125585771D01*
X149119047Y-125585771D02*
X149023809Y-125538152D01*
X149023809Y-125538152D02*
X148880952Y-125538152D01*
X148880952Y-125538152D02*
X148785714Y-125585771D01*
X148785714Y-125585771D02*
X148738095Y-125681009D01*
X148738095Y-125681009D02*
X148738095Y-126204819D01*
X148404761Y-125538152D02*
X148023809Y-125538152D01*
X148261904Y-125204819D02*
X148261904Y-126061961D01*
X148261904Y-126061961D02*
X148214285Y-126157200D01*
X148214285Y-126157200D02*
X148119047Y-126204819D01*
X148119047Y-126204819D02*
X148023809Y-126204819D01*
X147928571Y-126300057D02*
X147166666Y-126300057D01*
X146976189Y-125919104D02*
X146499999Y-125919104D01*
X147071427Y-126204819D02*
X146738094Y-125204819D01*
X146738094Y-125204819D02*
X146404761Y-126204819D01*
X145928570Y-126204819D02*
X146023808Y-126157200D01*
X146023808Y-126157200D02*
X146071427Y-126061961D01*
X146071427Y-126061961D02*
X146071427Y-125204819D01*
X145690474Y-125538152D02*
X145309522Y-125538152D01*
X145547617Y-125204819D02*
X145547617Y-126061961D01*
X145547617Y-126061961D02*
X145499998Y-126157200D01*
X145499998Y-126157200D02*
X145404760Y-126204819D01*
X145404760Y-126204819D02*
X145309522Y-126204819D01*
X154690476Y-128704819D02*
X154119048Y-128704819D01*
X154404762Y-129704819D02*
X154404762Y-128704819D01*
X153404762Y-129657200D02*
X153500000Y-129704819D01*
X153500000Y-129704819D02*
X153690476Y-129704819D01*
X153690476Y-129704819D02*
X153785714Y-129657200D01*
X153785714Y-129657200D02*
X153833333Y-129561961D01*
X153833333Y-129561961D02*
X153833333Y-129181009D01*
X153833333Y-129181009D02*
X153785714Y-129085771D01*
X153785714Y-129085771D02*
X153690476Y-129038152D01*
X153690476Y-129038152D02*
X153500000Y-129038152D01*
X153500000Y-129038152D02*
X153404762Y-129085771D01*
X153404762Y-129085771D02*
X153357143Y-129181009D01*
X153357143Y-129181009D02*
X153357143Y-129276247D01*
X153357143Y-129276247D02*
X153833333Y-129371485D01*
X152976190Y-129657200D02*
X152880952Y-129704819D01*
X152880952Y-129704819D02*
X152690476Y-129704819D01*
X152690476Y-129704819D02*
X152595238Y-129657200D01*
X152595238Y-129657200D02*
X152547619Y-129561961D01*
X152547619Y-129561961D02*
X152547619Y-129514342D01*
X152547619Y-129514342D02*
X152595238Y-129419104D01*
X152595238Y-129419104D02*
X152690476Y-129371485D01*
X152690476Y-129371485D02*
X152833333Y-129371485D01*
X152833333Y-129371485D02*
X152928571Y-129323866D01*
X152928571Y-129323866D02*
X152976190Y-129228628D01*
X152976190Y-129228628D02*
X152976190Y-129181009D01*
X152976190Y-129181009D02*
X152928571Y-129085771D01*
X152928571Y-129085771D02*
X152833333Y-129038152D01*
X152833333Y-129038152D02*
X152690476Y-129038152D01*
X152690476Y-129038152D02*
X152595238Y-129085771D01*
X152261904Y-129038152D02*
X151880952Y-129038152D01*
X152119047Y-128704819D02*
X152119047Y-129561961D01*
X152119047Y-129561961D02*
X152071428Y-129657200D01*
X152071428Y-129657200D02*
X151976190Y-129704819D01*
X151976190Y-129704819D02*
X151880952Y-129704819D01*
X151547618Y-129704819D02*
X151547618Y-128704819D01*
X151547618Y-128704819D02*
X151166666Y-128704819D01*
X151166666Y-128704819D02*
X151071428Y-128752438D01*
X151071428Y-128752438D02*
X151023809Y-128800057D01*
X151023809Y-128800057D02*
X150976190Y-128895295D01*
X150976190Y-128895295D02*
X150976190Y-129038152D01*
X150976190Y-129038152D02*
X151023809Y-129133390D01*
X151023809Y-129133390D02*
X151071428Y-129181009D01*
X151071428Y-129181009D02*
X151166666Y-129228628D01*
X151166666Y-129228628D02*
X151547618Y-129228628D01*
X150404761Y-129704819D02*
X150499999Y-129657200D01*
X150499999Y-129657200D02*
X150547618Y-129609580D01*
X150547618Y-129609580D02*
X150595237Y-129514342D01*
X150595237Y-129514342D02*
X150595237Y-129228628D01*
X150595237Y-129228628D02*
X150547618Y-129133390D01*
X150547618Y-129133390D02*
X150499999Y-129085771D01*
X150499999Y-129085771D02*
X150404761Y-129038152D01*
X150404761Y-129038152D02*
X150261904Y-129038152D01*
X150261904Y-129038152D02*
X150166666Y-129085771D01*
X150166666Y-129085771D02*
X150119047Y-129133390D01*
X150119047Y-129133390D02*
X150071428Y-129228628D01*
X150071428Y-129228628D02*
X150071428Y-129514342D01*
X150071428Y-129514342D02*
X150119047Y-129609580D01*
X150119047Y-129609580D02*
X150166666Y-129657200D01*
X150166666Y-129657200D02*
X150261904Y-129704819D01*
X150261904Y-129704819D02*
X150404761Y-129704819D01*
X149642856Y-129704819D02*
X149642856Y-129038152D01*
X149642856Y-128704819D02*
X149690475Y-128752438D01*
X149690475Y-128752438D02*
X149642856Y-128800057D01*
X149642856Y-128800057D02*
X149595237Y-128752438D01*
X149595237Y-128752438D02*
X149642856Y-128704819D01*
X149642856Y-128704819D02*
X149642856Y-128800057D01*
X149166666Y-129038152D02*
X149166666Y-129704819D01*
X149166666Y-129133390D02*
X149119047Y-129085771D01*
X149119047Y-129085771D02*
X149023809Y-129038152D01*
X149023809Y-129038152D02*
X148880952Y-129038152D01*
X148880952Y-129038152D02*
X148785714Y-129085771D01*
X148785714Y-129085771D02*
X148738095Y-129181009D01*
X148738095Y-129181009D02*
X148738095Y-129704819D01*
X148404761Y-129038152D02*
X148023809Y-129038152D01*
X148261904Y-128704819D02*
X148261904Y-129561961D01*
X148261904Y-129561961D02*
X148214285Y-129657200D01*
X148214285Y-129657200D02*
X148119047Y-129704819D01*
X148119047Y-129704819D02*
X148023809Y-129704819D01*
X147928571Y-129800057D02*
X147166666Y-129800057D01*
X146976189Y-129419104D02*
X146499999Y-129419104D01*
X147071427Y-129704819D02*
X146738094Y-128704819D01*
X146738094Y-128704819D02*
X146404761Y-129704819D01*
X145928570Y-129704819D02*
X146023808Y-129657200D01*
X146023808Y-129657200D02*
X146071427Y-129561961D01*
X146071427Y-129561961D02*
X146071427Y-128704819D01*
X145690474Y-129038152D02*
X145309522Y-129038152D01*
X145547617Y-128704819D02*
X145547617Y-129561961D01*
X145547617Y-129561961D02*
X145499998Y-129657200D01*
X145499998Y-129657200D02*
X145404760Y-129704819D01*
X145404760Y-129704819D02*
X145309522Y-129704819D01*
X149876190Y-115704819D02*
X149876190Y-114704819D01*
X149876190Y-114704819D02*
X149542857Y-115419104D01*
X149542857Y-115419104D02*
X149209524Y-114704819D01*
X149209524Y-114704819D02*
X149209524Y-115704819D01*
X148209524Y-115704819D02*
X148780952Y-115704819D01*
X148495238Y-115704819D02*
X148495238Y-114704819D01*
X148495238Y-114704819D02*
X148590476Y-114847676D01*
X148590476Y-114847676D02*
X148685714Y-114942914D01*
X148685714Y-114942914D02*
X148780952Y-114990533D01*
X147780952Y-115609580D02*
X147733333Y-115657200D01*
X147733333Y-115657200D02*
X147780952Y-115704819D01*
X147780952Y-115704819D02*
X147828571Y-115657200D01*
X147828571Y-115657200D02*
X147780952Y-115609580D01*
X147780952Y-115609580D02*
X147780952Y-115704819D01*
X146876191Y-114704819D02*
X147066667Y-114704819D01*
X147066667Y-114704819D02*
X147161905Y-114752438D01*
X147161905Y-114752438D02*
X147209524Y-114800057D01*
X147209524Y-114800057D02*
X147304762Y-114942914D01*
X147304762Y-114942914D02*
X147352381Y-115133390D01*
X147352381Y-115133390D02*
X147352381Y-115514342D01*
X147352381Y-115514342D02*
X147304762Y-115609580D01*
X147304762Y-115609580D02*
X147257143Y-115657200D01*
X147257143Y-115657200D02*
X147161905Y-115704819D01*
X147161905Y-115704819D02*
X146971429Y-115704819D01*
X146971429Y-115704819D02*
X146876191Y-115657200D01*
X146876191Y-115657200D02*
X146828572Y-115609580D01*
X146828572Y-115609580D02*
X146780953Y-115514342D01*
X146780953Y-115514342D02*
X146780953Y-115276247D01*
X146780953Y-115276247D02*
X146828572Y-115181009D01*
X146828572Y-115181009D02*
X146876191Y-115133390D01*
X146876191Y-115133390D02*
X146971429Y-115085771D01*
X146971429Y-115085771D02*
X147161905Y-115085771D01*
X147161905Y-115085771D02*
X147257143Y-115133390D01*
X147257143Y-115133390D02*
X147304762Y-115181009D01*
X147304762Y-115181009D02*
X147352381Y-115276247D01*
X145638095Y-115657200D02*
X145495238Y-115704819D01*
X145495238Y-115704819D02*
X145257143Y-115704819D01*
X145257143Y-115704819D02*
X145161905Y-115657200D01*
X145161905Y-115657200D02*
X145114286Y-115609580D01*
X145114286Y-115609580D02*
X145066667Y-115514342D01*
X145066667Y-115514342D02*
X145066667Y-115419104D01*
X145066667Y-115419104D02*
X145114286Y-115323866D01*
X145114286Y-115323866D02*
X145161905Y-115276247D01*
X145161905Y-115276247D02*
X145257143Y-115228628D01*
X145257143Y-115228628D02*
X145447619Y-115181009D01*
X145447619Y-115181009D02*
X145542857Y-115133390D01*
X145542857Y-115133390D02*
X145590476Y-115085771D01*
X145590476Y-115085771D02*
X145638095Y-114990533D01*
X145638095Y-114990533D02*
X145638095Y-114895295D01*
X145638095Y-114895295D02*
X145590476Y-114800057D01*
X145590476Y-114800057D02*
X145542857Y-114752438D01*
X145542857Y-114752438D02*
X145447619Y-114704819D01*
X145447619Y-114704819D02*
X145209524Y-114704819D01*
X145209524Y-114704819D02*
X145066667Y-114752438D01*
X144638095Y-115704819D02*
X144638095Y-114704819D01*
X144638095Y-114704819D02*
X144304762Y-115419104D01*
X144304762Y-115419104D02*
X143971429Y-114704819D01*
X143971429Y-114704819D02*
X143971429Y-115704819D01*
X143638095Y-114704819D02*
X143066667Y-114704819D01*
X143352381Y-115704819D02*
X143352381Y-114704819D01*
X141971428Y-115704819D02*
X141971428Y-114704819D01*
X141971428Y-114704819D02*
X141400000Y-115704819D01*
X141400000Y-115704819D02*
X141400000Y-114704819D01*
X140495238Y-115038152D02*
X140495238Y-115704819D01*
X140923809Y-115038152D02*
X140923809Y-115561961D01*
X140923809Y-115561961D02*
X140876190Y-115657200D01*
X140876190Y-115657200D02*
X140780952Y-115704819D01*
X140780952Y-115704819D02*
X140638095Y-115704819D01*
X140638095Y-115704819D02*
X140542857Y-115657200D01*
X140542857Y-115657200D02*
X140495238Y-115609580D01*
X140161904Y-115038152D02*
X139780952Y-115038152D01*
X140019047Y-114704819D02*
X140019047Y-115561961D01*
X140019047Y-115561961D02*
X139971428Y-115657200D01*
X139971428Y-115657200D02*
X139876190Y-115704819D01*
X139876190Y-115704819D02*
X139780952Y-115704819D01*
D12*
X122175000Y-116650000D02*
X122975000Y-116650000D01*
X122975000Y-116650000D02*
X122975000Y-115050000D01*
X122175000Y-115050000D02*
X122175000Y-116650000D01*
X122975000Y-115050000D02*
X122175000Y-115050000D01*
X144212500Y-123600000D02*
X144212500Y-122800000D01*
X144212500Y-122800000D02*
X142612500Y-122800000D01*
X142612500Y-123600000D02*
X144212500Y-123600000D01*
X142612500Y-122800000D02*
X142612500Y-123600000D01*
X118800000Y-130300000D02*
X119600000Y-130300000D01*
X119600000Y-130300000D02*
X119600000Y-128700000D01*
X118800000Y-128700000D02*
X118800000Y-130300000D01*
X119600000Y-128700000D02*
X118800000Y-128700000D01*
X174300000Y-137500000D02*
X173500000Y-137500000D01*
X173500000Y-137500000D02*
X173500000Y-139100000D01*
X174300000Y-139100000D02*
X174300000Y-137500000D01*
X173500000Y-139100000D02*
X174300000Y-139100000D01*
X141800000Y-130000000D02*
X141000000Y-130000000D01*
X141000000Y-130000000D02*
X141000000Y-131600000D01*
X141800000Y-131600000D02*
X141800000Y-130000000D01*
X141000000Y-131600000D02*
X141800000Y-131600000D01*
X136600000Y-111200000D02*
X136600000Y-109600000D01*
X136600000Y-109600000D02*
X133400000Y-109600000D01*
X133400000Y-111200000D02*
X136600000Y-111200000D01*
X133400000Y-109600000D02*
X133400000Y-111200000D01*
X120250000Y-119900000D02*
X121050000Y-119900000D01*
X121050000Y-119900000D02*
X121050000Y-118300000D01*
X120250000Y-118300000D02*
X120250000Y-119900000D01*
X121050000Y-118300000D02*
X120250000Y-118300000D01*
X135775000Y-116925000D02*
X135775000Y-116125000D01*
X135775000Y-116125000D02*
X134175000Y-116125000D01*
X134175000Y-116925000D02*
X135775000Y-116925000D01*
X134175000Y-116125000D02*
X134175000Y-116925000D01*
X135300000Y-136700000D02*
X135300000Y-135900000D01*
X135300000Y-135900000D02*
X133700000Y-135900000D01*
X133700000Y-136700000D02*
X135300000Y-136700000D01*
X133700000Y-135900000D02*
X133700000Y-136700000D01*
X136400000Y-137950000D02*
X137200000Y-137950000D01*
X137200000Y-137950000D02*
X137200000Y-136350000D01*
X136400000Y-136350000D02*
X136400000Y-137950000D01*
X137200000Y-136350000D02*
X136400000Y-136350000D01*
X162200000Y-142150000D02*
X163000000Y-142150000D01*
X163000000Y-142150000D02*
X163000000Y-140550000D01*
X162200000Y-140550000D02*
X162200000Y-142150000D01*
X163000000Y-140550000D02*
X162200000Y-140550000D01*
X163800000Y-142135000D02*
X164600000Y-142135000D01*
X164600000Y-142135000D02*
X164600000Y-140535000D01*
X163800000Y-140535000D02*
X163800000Y-142135000D01*
X164600000Y-140535000D02*
X163800000Y-140535000D01*
X162650000Y-136950000D02*
X162650000Y-136450000D01*
X162650000Y-136450000D02*
X161650000Y-136450000D01*
X161650000Y-136950000D02*
X162650000Y-136950000D01*
X161650000Y-136450000D02*
X161650000Y-136950000D01*
X167700000Y-139650000D02*
X167700000Y-140150000D01*
X167700000Y-140150000D02*
X168700000Y-140150000D01*
X168700000Y-139650000D02*
X167700000Y-139650000D01*
X168700000Y-140150000D02*
X168700000Y-139650000D01*
X120300000Y-130900000D02*
X121100000Y-130900000D01*
X121100000Y-130900000D02*
X121100000Y-129300000D01*
X120300000Y-129300000D02*
X120300000Y-130900000D01*
X121100000Y-129300000D02*
X120300000Y-129300000D01*
X166200000Y-140560000D02*
X165400000Y-140560000D01*
X165400000Y-140560000D02*
X165400000Y-142160000D01*
X166200000Y-142160000D02*
X166200000Y-140560000D01*
X165400000Y-142160000D02*
X166200000Y-142160000D01*
X125750000Y-140000000D02*
G75*
G03*
X125750000Y-140000000I-750000J0D01*
G01*
X122750000Y-75000000D02*
G75*
G03*
X122750000Y-75000000I-750000J0D01*
G01*
X181750000Y-75000000D02*
G75*
G03*
X181750000Y-75000000I-750000J0D01*
G01*
X165470000Y-134300000D02*
X165470000Y-132500000D01*
X165470000Y-132500000D02*
X162670000Y-132500000D01*
X164820000Y-133400000D02*
X164420000Y-133400000D01*
X164420000Y-133400000D02*
X164420000Y-133950000D01*
X164420000Y-133400000D02*
X164420000Y-132850000D01*
X164420000Y-133400000D02*
X163820000Y-133000000D01*
X163820000Y-133800000D02*
X164420000Y-133400000D01*
X163820000Y-133400000D02*
X163320000Y-133400000D01*
X163820000Y-133000000D02*
X163820000Y-133800000D01*
X162670000Y-134300000D02*
X165470000Y-134300000D01*
X162670000Y-132500000D02*
X162670000Y-134300000D01*
X172100000Y-138450000D02*
X172100000Y-137250000D01*
X172100000Y-137250000D02*
X170100000Y-137250000D01*
X170100000Y-138450000D02*
X172100000Y-138450000D01*
X170100000Y-137250000D02*
X170100000Y-138450000D01*
X119000000Y-132850000D02*
X119500000Y-132850000D01*
X119500000Y-132850000D02*
X119500000Y-131850000D01*
X119000000Y-131850000D02*
X119000000Y-132850000D01*
X119500000Y-131850000D02*
X119000000Y-131850000D01*
X119200000Y-127100000D02*
X119700000Y-127100000D01*
X119700000Y-127100000D02*
X119700000Y-126100000D01*
X119200000Y-126100000D02*
X119200000Y-127100000D01*
X119700000Y-126100000D02*
X119200000Y-126100000D01*
X140960000Y-118600000D02*
X140960000Y-120200000D01*
X140960000Y-120200000D02*
X144160000Y-120200000D01*
X144160000Y-118600000D02*
X140960000Y-118600000D01*
X144160000Y-120200000D02*
X144160000Y-118600000D01*
X161400000Y-140550000D02*
X160600000Y-140550000D01*
X160600000Y-140550000D02*
X160600000Y-142150000D01*
X161400000Y-142150000D02*
X161400000Y-140550000D01*
X160600000Y-142150000D02*
X161400000Y-142150000D01*
X118700000Y-119900000D02*
X119500000Y-119900000D01*
X119500000Y-119900000D02*
X119500000Y-118300000D01*
X118700000Y-118300000D02*
X118700000Y-119900000D01*
X119500000Y-118300000D02*
X118700000Y-118300000D01*
X137825000Y-119025000D02*
X123825000Y-119025000D01*
X123825000Y-119025000D02*
X123825000Y-133025000D01*
X137825000Y-132025000D02*
X137825000Y-119025000D01*
X136825000Y-133025000D02*
X137825000Y-132025000D01*
X123825000Y-133025000D02*
X136825000Y-133025000D01*
X169464279Y-75274352D02*
X170689951Y-76302812D01*
X169142886Y-75657374D02*
X169464279Y-75274352D01*
X169179863Y-76080024D02*
X169142886Y-75657374D01*
X170689951Y-76302812D02*
X170175721Y-76915648D01*
X170175721Y-76915648D02*
X169179863Y-76080024D01*
M02*
