G04 #@! TF.GenerationSoftware,KiCad,Pcbnew,7.0.7*
G04 #@! TF.CreationDate,2023-12-06T21:13:40-05:00*
G04 #@! TF.ProjectId,SARD_Motherboard,53415244-5f4d-46f7-9468-6572626f6172,rev?*
G04 #@! TF.SameCoordinates,Original*
G04 #@! TF.FileFunction,Paste,Top*
G04 #@! TF.FilePolarity,Positive*
%FSLAX46Y46*%
G04 Gerber Fmt 4.6, Leading zero omitted, Abs format (unit mm)*
G04 Created by KiCad (PCBNEW 7.0.7) date 2023-12-06 21:13:40*
%MOMM*%
%LPD*%
G01*
G04 APERTURE LIST*
G04 Aperture macros list*
%AMRoundRect*
0 Rectangle with rounded corners*
0 $1 Rounding radius*
0 $2 $3 $4 $5 $6 $7 $8 $9 X,Y pos of 4 corners*
0 Add a 4 corners polygon primitive as box body*
4,1,4,$2,$3,$4,$5,$6,$7,$8,$9,$2,$3,0*
0 Add four circle primitives for the rounded corners*
1,1,$1+$1,$2,$3*
1,1,$1+$1,$4,$5*
1,1,$1+$1,$6,$7*
1,1,$1+$1,$8,$9*
0 Add four rect primitives between the rounded corners*
20,1,$1+$1,$2,$3,$4,$5,0*
20,1,$1+$1,$4,$5,$6,$7,0*
20,1,$1+$1,$6,$7,$8,$9,0*
20,1,$1+$1,$8,$9,$2,$3,0*%
G04 Aperture macros list end*
%ADD10RoundRect,0.218750X-0.218750X-0.256250X0.218750X-0.256250X0.218750X0.256250X-0.218750X0.256250X0*%
%ADD11RoundRect,0.218750X0.256250X-0.218750X0.256250X0.218750X-0.256250X0.218750X-0.256250X-0.218750X0*%
%ADD12RoundRect,0.212500X-0.400000X-0.212500X0.400000X-0.212500X0.400000X0.212500X-0.400000X0.212500X0*%
%ADD13R,1.360000X1.460000*%
%ADD14R,0.750000X0.280000*%
%ADD15R,1.200000X0.900000*%
%ADD16R,0.280000X0.890000*%
%ADD17C,0.600000*%
%ADD18O,1.000000X2.000000*%
%ADD19O,1.500000X2.500000*%
%ADD20C,1.100000*%
%ADD21RoundRect,0.218750X-0.256250X0.218750X-0.256250X-0.218750X0.256250X-0.218750X0.256250X0.218750X0*%
%ADD22RoundRect,0.218750X0.218750X0.256250X-0.218750X0.256250X-0.218750X-0.256250X0.218750X-0.256250X0*%
%ADD23R,0.700000X5.000000*%
%ADD24R,1.000000X5.000000*%
%ADD25RoundRect,0.243750X-0.456250X0.243750X-0.456250X-0.243750X0.456250X-0.243750X0.456250X0.243750X0*%
%ADD26RoundRect,0.243750X-0.243750X-0.456250X0.243750X-0.456250X0.243750X0.456250X-0.243750X0.456250X0*%
%ADD27R,0.950000X0.400000*%
%ADD28R,0.800000X0.300000*%
%ADD29R,0.650000X0.300000*%
%ADD30RoundRect,0.147500X-0.172500X0.147500X-0.172500X-0.147500X0.172500X-0.147500X0.172500X0.147500X0*%
%ADD31RoundRect,0.225000X-0.250000X0.225000X-0.250000X-0.225000X0.250000X-0.225000X0.250000X0.225000X0*%
%ADD32RoundRect,0.225000X-0.225000X-0.250000X0.225000X-0.250000X0.225000X0.250000X-0.225000X0.250000X0*%
%ADD33R,5.000000X0.700000*%
%ADD34R,5.000000X1.000000*%
%ADD35RoundRect,0.245000X0.245000X0.245000X-0.245000X0.245000X-0.245000X-0.245000X0.245000X-0.245000X0*%
%ADD36RoundRect,0.062500X0.312500X0.062500X-0.312500X0.062500X-0.312500X-0.062500X0.312500X-0.062500X0*%
%ADD37RoundRect,0.062500X0.062500X0.312500X-0.062500X0.312500X-0.062500X-0.312500X0.062500X-0.312500X0*%
%ADD38RoundRect,0.250000X-0.250000X-0.475000X0.250000X-0.475000X0.250000X0.475000X-0.250000X0.475000X0*%
%ADD39RoundRect,0.250000X0.250000X0.475000X-0.250000X0.475000X-0.250000X-0.475000X0.250000X-0.475000X0*%
%ADD40RoundRect,0.150000X0.512500X0.150000X-0.512500X0.150000X-0.512500X-0.150000X0.512500X-0.150000X0*%
%ADD41RoundRect,0.100000X0.637500X0.100000X-0.637500X0.100000X-0.637500X-0.100000X0.637500X-0.100000X0*%
%ADD42RoundRect,0.200000X-0.275000X0.200000X-0.275000X-0.200000X0.275000X-0.200000X0.275000X0.200000X0*%
%ADD43RoundRect,0.200000X-0.200000X-0.275000X0.200000X-0.275000X0.200000X0.275000X-0.200000X0.275000X0*%
%ADD44RoundRect,0.150000X0.150000X-0.587500X0.150000X0.587500X-0.150000X0.587500X-0.150000X-0.587500X0*%
%ADD45RoundRect,0.225000X0.225000X0.250000X-0.225000X0.250000X-0.225000X-0.250000X0.225000X-0.250000X0*%
%ADD46RoundRect,0.200000X0.200000X0.275000X-0.200000X0.275000X-0.200000X-0.275000X0.200000X-0.275000X0*%
G04 APERTURE END LIST*
D10*
X133812500Y-113400000D03*
X135387500Y-113400000D03*
D11*
X134750000Y-131237500D03*
X134750000Y-129662500D03*
D12*
X133587500Y-142900000D03*
X135212500Y-142900000D03*
D13*
X142260000Y-120800000D03*
D14*
X140760000Y-120050000D03*
X140760000Y-120550000D03*
X140760000Y-121050000D03*
X140760000Y-121550000D03*
X143760000Y-121550000D03*
X143760000Y-121050000D03*
X143760000Y-120550000D03*
X143760000Y-120050000D03*
D15*
X145450000Y-123650000D03*
X145450000Y-120350000D03*
D16*
X161050000Y-136825000D03*
X161550000Y-136825000D03*
X162050000Y-136825000D03*
X162550000Y-136825000D03*
X163050000Y-136825000D03*
X163550000Y-136825000D03*
X164050000Y-136825000D03*
X164550000Y-136825000D03*
X165050000Y-136825000D03*
X165550000Y-136825000D03*
X166050000Y-136825000D03*
X166550000Y-136825000D03*
D17*
X166850000Y-138030000D03*
X166200000Y-138730000D03*
X165400000Y-138730000D03*
X165000000Y-138030000D03*
X164600000Y-138730000D03*
X164200000Y-138030000D03*
X163400000Y-138030000D03*
X163000000Y-138730000D03*
X162600000Y-138030000D03*
X162200000Y-138730000D03*
X161400000Y-138730000D03*
X160750000Y-138030000D03*
D18*
X159300000Y-137080000D03*
D19*
X159300000Y-142830000D03*
D20*
X159750000Y-137630000D03*
X167850000Y-137630000D03*
D18*
X168300000Y-137080000D03*
D19*
X168300000Y-142830000D03*
D10*
X134152500Y-116540000D03*
X135727500Y-116540000D03*
D21*
X129200000Y-141062500D03*
X129200000Y-142637500D03*
X137000000Y-141212500D03*
X137000000Y-142787500D03*
D22*
X132487500Y-102950000D03*
X130912500Y-102950000D03*
D12*
X125883854Y-142700000D03*
X127508854Y-142700000D03*
D23*
X130200000Y-106700000D03*
D24*
X131700000Y-106700000D03*
D23*
X133200000Y-106700000D03*
D25*
X129900000Y-127062500D03*
X129900000Y-128937500D03*
X129400000Y-131000000D03*
X129400000Y-132875000D03*
D26*
X128162500Y-134850000D03*
X130037500Y-134850000D03*
D27*
X124762500Y-131450000D03*
X124762500Y-121050000D03*
D28*
X124487500Y-130750000D03*
D29*
X127362500Y-130450000D03*
D28*
X124487500Y-130150000D03*
D29*
X127362500Y-129850000D03*
D28*
X124487500Y-129550000D03*
D29*
X127362500Y-129250000D03*
D28*
X124487500Y-128950000D03*
D29*
X127362500Y-128650000D03*
D28*
X124487500Y-128350000D03*
D29*
X127362500Y-128050000D03*
D28*
X124487500Y-127750000D03*
D29*
X127362500Y-127450000D03*
D28*
X124487500Y-127150000D03*
D29*
X127362500Y-126850000D03*
D28*
X124487500Y-126550000D03*
D29*
X127362500Y-126250000D03*
D28*
X124487500Y-125950000D03*
D29*
X127362500Y-125650000D03*
D28*
X124487500Y-125350000D03*
D29*
X127362500Y-125050000D03*
D28*
X124487500Y-124750000D03*
D29*
X127362500Y-124450000D03*
D28*
X124487500Y-124150000D03*
D29*
X127362500Y-123850000D03*
D28*
X124487500Y-123550000D03*
D29*
X127362500Y-123250000D03*
D28*
X124487500Y-122950000D03*
D29*
X127362500Y-122650000D03*
D28*
X124487500Y-122350000D03*
D29*
X127362500Y-122050000D03*
D28*
X124487500Y-121750000D03*
D10*
X124762500Y-134550000D03*
X126337500Y-134550000D03*
D22*
X123187500Y-134900000D03*
X121612500Y-134900000D03*
D30*
X141000000Y-140915000D03*
X141000000Y-141885000D03*
D31*
X143350000Y-140525000D03*
X143350000Y-142075000D03*
D32*
X145825000Y-133800000D03*
X147375000Y-133800000D03*
X145825000Y-135500000D03*
X147375000Y-135500000D03*
D10*
X144312500Y-131700000D03*
X145887500Y-131700000D03*
D33*
X149000000Y-141150000D03*
D34*
X149000000Y-139650000D03*
D33*
X149000000Y-138150000D03*
D35*
X140060000Y-137640000D03*
X141280000Y-137640000D03*
X142500000Y-137640000D03*
X140060000Y-136420000D03*
X141280000Y-136420000D03*
X142500000Y-136420000D03*
X140060000Y-135200000D03*
X141280000Y-135200000D03*
X142500000Y-135200000D03*
D36*
X143755000Y-138170000D03*
X143755000Y-137670000D03*
X143755000Y-137170000D03*
X143755000Y-136670000D03*
X143755000Y-136170000D03*
X143755000Y-135670000D03*
X143755000Y-135170000D03*
X143755000Y-134670000D03*
D37*
X143030000Y-133945000D03*
X142530000Y-133945000D03*
X142030000Y-133945000D03*
X141530000Y-133945000D03*
X141030000Y-133945000D03*
X140530000Y-133945000D03*
X140030000Y-133945000D03*
X139530000Y-133945000D03*
D36*
X138805000Y-134670000D03*
X138805000Y-135170000D03*
X138805000Y-135670000D03*
X138805000Y-136170000D03*
X138805000Y-136670000D03*
X138805000Y-137170000D03*
X138805000Y-137670000D03*
X138805000Y-138170000D03*
D37*
X139530000Y-138895000D03*
X140030000Y-138895000D03*
X140530000Y-138895000D03*
X141030000Y-138895000D03*
X141530000Y-138895000D03*
X142030000Y-138895000D03*
X142530000Y-138895000D03*
X143030000Y-138895000D03*
D10*
X132062500Y-119450000D03*
X133637500Y-119450000D03*
D21*
X127850000Y-109162500D03*
X127850000Y-110737500D03*
D38*
X127900000Y-116600000D03*
X129800000Y-116600000D03*
D39*
X124500000Y-116500000D03*
X122600000Y-116500000D03*
D21*
X126100000Y-109162500D03*
X126100000Y-110737500D03*
D40*
X128337500Y-114250000D03*
X128337500Y-113300000D03*
X128337500Y-112350000D03*
X126062500Y-112350000D03*
X126062500Y-114250000D03*
D21*
X117750000Y-126012500D03*
X117750000Y-127587500D03*
D41*
X138172500Y-127285000D03*
X138172500Y-126635000D03*
X138172500Y-125985000D03*
X138172500Y-125335000D03*
X138172500Y-124685000D03*
X138172500Y-124035000D03*
X138172500Y-123385000D03*
X138172500Y-122735000D03*
X138172500Y-122085000D03*
X138172500Y-121435000D03*
X132447500Y-121435000D03*
X132447500Y-122085000D03*
X132447500Y-122735000D03*
X132447500Y-123385000D03*
X132447500Y-124035000D03*
X132447500Y-124685000D03*
X132447500Y-125335000D03*
X132447500Y-125985000D03*
X132447500Y-126635000D03*
X132447500Y-127285000D03*
D42*
X169485000Y-78680000D03*
X169485000Y-80330000D03*
D43*
X165380000Y-68825000D03*
X167030000Y-68825000D03*
D44*
X174525000Y-83982500D03*
X176425000Y-83982500D03*
X175475000Y-82107500D03*
D32*
X141645000Y-125100000D03*
X143195000Y-125100000D03*
D45*
X129975000Y-121900000D03*
X128425000Y-121900000D03*
D46*
X174220000Y-85995000D03*
X172570000Y-85995000D03*
M02*
