G04 #@! TF.GenerationSoftware,KiCad,Pcbnew,8.0.4+dfsg-1*
G04 #@! TF.CreationDate,2024-08-05T10:13:43-04:00*
G04 #@! TF.ProjectId,SARD_Motherboard,53415244-5f4d-46f7-9468-6572626f6172,rev?*
G04 #@! TF.SameCoordinates,Original*
G04 #@! TF.FileFunction,Paste,Bot*
G04 #@! TF.FilePolarity,Positive*
%FSLAX46Y46*%
G04 Gerber Fmt 4.6, Leading zero omitted, Abs format (unit mm)*
G04 Created by KiCad (PCBNEW 8.0.4+dfsg-1) date 2024-08-05 10:13:43*
%MOMM*%
%LPD*%
G01*
G04 APERTURE LIST*
G04 Aperture macros list*
%AMRoundRect*
0 Rectangle with rounded corners*
0 $1 Rounding radius*
0 $2 $3 $4 $5 $6 $7 $8 $9 X,Y pos of 4 corners*
0 Add a 4 corners polygon primitive as box body*
4,1,4,$2,$3,$4,$5,$6,$7,$8,$9,$2,$3,0*
0 Add four circle primitives for the rounded corners*
1,1,$1+$1,$2,$3*
1,1,$1+$1,$4,$5*
1,1,$1+$1,$6,$7*
1,1,$1+$1,$8,$9*
0 Add four rect primitives between the rounded corners*
20,1,$1+$1,$2,$3,$4,$5,0*
20,1,$1+$1,$4,$5,$6,$7,0*
20,1,$1+$1,$6,$7,$8,$9,0*
20,1,$1+$1,$8,$9,$2,$3,0*%
G04 Aperture macros list end*
%ADD10C,0.100000*%
%ADD11C,6.200000*%
%ADD12RoundRect,0.218750X0.256250X-0.218750X0.256250X0.218750X-0.256250X0.218750X-0.256250X-0.218750X0*%
%ADD13RoundRect,0.218750X0.218750X0.256250X-0.218750X0.256250X-0.218750X-0.256250X0.218750X-0.256250X0*%
%ADD14RoundRect,0.225000X-0.250000X0.225000X-0.250000X-0.225000X0.250000X-0.225000X0.250000X0.225000X0*%
%ADD15RoundRect,0.218750X-0.256250X0.218750X-0.256250X-0.218750X0.256250X-0.218750X0.256250X0.218750X0*%
%ADD16RoundRect,0.250000X0.375000X0.625000X-0.375000X0.625000X-0.375000X-0.625000X0.375000X-0.625000X0*%
%ADD17RoundRect,0.147500X0.147500X0.172500X-0.147500X0.172500X-0.147500X-0.172500X0.147500X-0.172500X0*%
%ADD18RoundRect,0.147500X-0.147500X-0.172500X0.147500X-0.172500X0.147500X0.172500X-0.147500X0.172500X0*%
%ADD19R,3.400000X1.200000*%
%ADD20R,0.900000X1.200000*%
%ADD21RoundRect,0.249999X0.325001X0.450001X-0.325001X0.450001X-0.325001X-0.450001X0.325001X-0.450001X0*%
%ADD22RoundRect,0.147500X0.172500X-0.147500X0.172500X0.147500X-0.172500X0.147500X-0.172500X-0.147500X0*%
%ADD23RoundRect,0.250000X-0.375000X-0.625000X0.375000X-0.625000X0.375000X0.625000X-0.375000X0.625000X0*%
%ADD24RoundRect,0.070000X0.070000X-0.667500X0.070000X0.667500X-0.070000X0.667500X-0.070000X-0.667500X0*%
%ADD25RoundRect,0.070000X0.667500X-0.070000X0.667500X0.070000X-0.667500X0.070000X-0.667500X-0.070000X0*%
%ADD26RoundRect,0.237500X-0.372900X0.002866X0.067576X-0.366737X0.372900X-0.002866X-0.067576X0.366737X0*%
%ADD27RoundRect,0.500000X1.470460X-0.581159X-0.827673X1.347204X-1.470460X0.581159X0.827673X-1.347204X0*%
G04 APERTURE END LIST*
D10*
X155550000Y-125125000D02*
X155750000Y-125375000D01*
X156025000Y-125600000D01*
X156275000Y-125725000D01*
X156500000Y-125775000D01*
X156500000Y-126650000D01*
X156175000Y-126600000D01*
X155875000Y-126500000D01*
X155450000Y-126275000D01*
X155150000Y-126025000D01*
X154900000Y-125725000D01*
X154650000Y-125275000D01*
X154525000Y-124825000D01*
X155450000Y-124825000D01*
X155550000Y-125125000D01*
G36*
X155550000Y-125125000D02*
G01*
X155750000Y-125375000D01*
X156025000Y-125600000D01*
X156275000Y-125725000D01*
X156500000Y-125775000D01*
X156500000Y-126650000D01*
X156175000Y-126600000D01*
X155875000Y-126500000D01*
X155450000Y-126275000D01*
X155150000Y-126025000D01*
X154900000Y-125725000D01*
X154650000Y-125275000D01*
X154525000Y-124825000D01*
X155450000Y-124825000D01*
X155550000Y-125125000D01*
G37*
X156350000Y-123200000D02*
X156050000Y-123300000D01*
X155800000Y-123500000D01*
X155575000Y-123775000D01*
X155450000Y-124025000D01*
X155400000Y-124250000D01*
X154525000Y-124250000D01*
X154575000Y-123925000D01*
X154675000Y-123625000D01*
X154900000Y-123200000D01*
X155150000Y-122900000D01*
X155450000Y-122650000D01*
X155900000Y-122400000D01*
X156350000Y-122275000D01*
X156350000Y-123200000D01*
G36*
X156350000Y-123200000D02*
G01*
X156050000Y-123300000D01*
X155800000Y-123500000D01*
X155575000Y-123775000D01*
X155450000Y-124025000D01*
X155400000Y-124250000D01*
X154525000Y-124250000D01*
X154575000Y-123925000D01*
X154675000Y-123625000D01*
X154900000Y-123200000D01*
X155150000Y-122900000D01*
X155450000Y-122650000D01*
X155900000Y-122400000D01*
X156350000Y-122275000D01*
X156350000Y-123200000D01*
G37*
X156350000Y-123200000D02*
X156050000Y-123300000D01*
X155800000Y-123500000D01*
X155575000Y-123775000D01*
X155450000Y-124025000D01*
X155400000Y-124250000D01*
X154525000Y-124250000D01*
X154575000Y-123925000D01*
X154675000Y-123625000D01*
X154900000Y-123200000D01*
X155150000Y-122900000D01*
X155450000Y-122650000D01*
X155900000Y-122400000D01*
X156350000Y-122275000D01*
X156350000Y-123200000D01*
G36*
X156350000Y-123200000D02*
G01*
X156050000Y-123300000D01*
X155800000Y-123500000D01*
X155575000Y-123775000D01*
X155450000Y-124025000D01*
X155400000Y-124250000D01*
X154525000Y-124250000D01*
X154575000Y-123925000D01*
X154675000Y-123625000D01*
X154900000Y-123200000D01*
X155150000Y-122900000D01*
X155450000Y-122650000D01*
X155900000Y-122400000D01*
X156350000Y-122275000D01*
X156350000Y-123200000D01*
G37*
X158825000Y-124975000D02*
X158725000Y-125275000D01*
X158500000Y-125700000D01*
X158250000Y-126000000D01*
X157950000Y-126250000D01*
X157500000Y-126500000D01*
X157050000Y-126625000D01*
X157050000Y-125700000D01*
X157350000Y-125600000D01*
X157600000Y-125400000D01*
X157825000Y-125125000D01*
X157950000Y-124875000D01*
X158000000Y-124650000D01*
X158875000Y-124650000D01*
X158825000Y-124975000D01*
G36*
X158825000Y-124975000D02*
G01*
X158725000Y-125275000D01*
X158500000Y-125700000D01*
X158250000Y-126000000D01*
X157950000Y-126250000D01*
X157500000Y-126500000D01*
X157050000Y-126625000D01*
X157050000Y-125700000D01*
X157350000Y-125600000D01*
X157600000Y-125400000D01*
X157825000Y-125125000D01*
X157950000Y-124875000D01*
X158000000Y-124650000D01*
X158875000Y-124650000D01*
X158825000Y-124975000D01*
G37*
X157225000Y-122325000D02*
X157525000Y-122425000D01*
X157950000Y-122650000D01*
X158250000Y-122900000D01*
X158500000Y-123200000D01*
X158750000Y-123650000D01*
X158875000Y-124100000D01*
X157950000Y-124100000D01*
X157850000Y-123800000D01*
X157650000Y-123550000D01*
X157375000Y-123325000D01*
X157125000Y-123200000D01*
X156900000Y-123150000D01*
X156900000Y-122275000D01*
X157225000Y-122325000D01*
G36*
X157225000Y-122325000D02*
G01*
X157525000Y-122425000D01*
X157950000Y-122650000D01*
X158250000Y-122900000D01*
X158500000Y-123200000D01*
X158750000Y-123650000D01*
X158875000Y-124100000D01*
X157950000Y-124100000D01*
X157850000Y-123800000D01*
X157650000Y-123550000D01*
X157375000Y-123325000D01*
X157125000Y-123200000D01*
X156900000Y-123150000D01*
X156900000Y-122275000D01*
X157225000Y-122325000D01*
G37*
X144250000Y-116125000D02*
X144450000Y-116375000D01*
X144725000Y-116600000D01*
X144975000Y-116725000D01*
X145200000Y-116775000D01*
X145200000Y-117650000D01*
X144875000Y-117600000D01*
X144575000Y-117500000D01*
X144150000Y-117275000D01*
X143850000Y-117025000D01*
X143600000Y-116725000D01*
X143350000Y-116275000D01*
X143225000Y-115825000D01*
X144150000Y-115825000D01*
X144250000Y-116125000D01*
G36*
X144250000Y-116125000D02*
G01*
X144450000Y-116375000D01*
X144725000Y-116600000D01*
X144975000Y-116725000D01*
X145200000Y-116775000D01*
X145200000Y-117650000D01*
X144875000Y-117600000D01*
X144575000Y-117500000D01*
X144150000Y-117275000D01*
X143850000Y-117025000D01*
X143600000Y-116725000D01*
X143350000Y-116275000D01*
X143225000Y-115825000D01*
X144150000Y-115825000D01*
X144250000Y-116125000D01*
G37*
X145050000Y-114200000D02*
X144750000Y-114300000D01*
X144500000Y-114500000D01*
X144275000Y-114775000D01*
X144150000Y-115025000D01*
X144100000Y-115250000D01*
X143225000Y-115250000D01*
X143275000Y-114925000D01*
X143375000Y-114625000D01*
X143600000Y-114200000D01*
X143850000Y-113900000D01*
X144150000Y-113650000D01*
X144600000Y-113400000D01*
X145050000Y-113275000D01*
X145050000Y-114200000D01*
G36*
X145050000Y-114200000D02*
G01*
X144750000Y-114300000D01*
X144500000Y-114500000D01*
X144275000Y-114775000D01*
X144150000Y-115025000D01*
X144100000Y-115250000D01*
X143225000Y-115250000D01*
X143275000Y-114925000D01*
X143375000Y-114625000D01*
X143600000Y-114200000D01*
X143850000Y-113900000D01*
X144150000Y-113650000D01*
X144600000Y-113400000D01*
X145050000Y-113275000D01*
X145050000Y-114200000D01*
G37*
X145050000Y-114200000D02*
X144750000Y-114300000D01*
X144500000Y-114500000D01*
X144275000Y-114775000D01*
X144150000Y-115025000D01*
X144100000Y-115250000D01*
X143225000Y-115250000D01*
X143275000Y-114925000D01*
X143375000Y-114625000D01*
X143600000Y-114200000D01*
X143850000Y-113900000D01*
X144150000Y-113650000D01*
X144600000Y-113400000D01*
X145050000Y-113275000D01*
X145050000Y-114200000D01*
G36*
X145050000Y-114200000D02*
G01*
X144750000Y-114300000D01*
X144500000Y-114500000D01*
X144275000Y-114775000D01*
X144150000Y-115025000D01*
X144100000Y-115250000D01*
X143225000Y-115250000D01*
X143275000Y-114925000D01*
X143375000Y-114625000D01*
X143600000Y-114200000D01*
X143850000Y-113900000D01*
X144150000Y-113650000D01*
X144600000Y-113400000D01*
X145050000Y-113275000D01*
X145050000Y-114200000D01*
G37*
X147525000Y-115975000D02*
X147425000Y-116275000D01*
X147200000Y-116700000D01*
X146950000Y-117000000D01*
X146650000Y-117250000D01*
X146200000Y-117500000D01*
X145750000Y-117625000D01*
X145750000Y-116700000D01*
X146050000Y-116600000D01*
X146300000Y-116400000D01*
X146525000Y-116125000D01*
X146650000Y-115875000D01*
X146700000Y-115650000D01*
X147575000Y-115650000D01*
X147525000Y-115975000D01*
G36*
X147525000Y-115975000D02*
G01*
X147425000Y-116275000D01*
X147200000Y-116700000D01*
X146950000Y-117000000D01*
X146650000Y-117250000D01*
X146200000Y-117500000D01*
X145750000Y-117625000D01*
X145750000Y-116700000D01*
X146050000Y-116600000D01*
X146300000Y-116400000D01*
X146525000Y-116125000D01*
X146650000Y-115875000D01*
X146700000Y-115650000D01*
X147575000Y-115650000D01*
X147525000Y-115975000D01*
G37*
X145925000Y-113325000D02*
X146225000Y-113425000D01*
X146650000Y-113650000D01*
X146950000Y-113900000D01*
X147200000Y-114200000D01*
X147450000Y-114650000D01*
X147575000Y-115100000D01*
X146650000Y-115100000D01*
X146550000Y-114800000D01*
X146350000Y-114550000D01*
X146075000Y-114325000D01*
X145825000Y-114200000D01*
X145600000Y-114150000D01*
X145600000Y-113275000D01*
X145925000Y-113325000D01*
G36*
X145925000Y-113325000D02*
G01*
X146225000Y-113425000D01*
X146650000Y-113650000D01*
X146950000Y-113900000D01*
X147200000Y-114200000D01*
X147450000Y-114650000D01*
X147575000Y-115100000D01*
X146650000Y-115100000D01*
X146550000Y-114800000D01*
X146350000Y-114550000D01*
X146075000Y-114325000D01*
X145825000Y-114200000D01*
X145600000Y-114150000D01*
X145600000Y-113275000D01*
X145925000Y-113325000D01*
G37*
D11*
X154000000Y-134000000D03*
D12*
X122575000Y-116637500D03*
X122575000Y-115062500D03*
D13*
X144200000Y-123200000D03*
X142625000Y-123200000D03*
D12*
X119200000Y-130287500D03*
X119200000Y-128712500D03*
D14*
X173900000Y-137525000D03*
X173900000Y-139075000D03*
D15*
X141400000Y-130012500D03*
X141400000Y-131587500D03*
D16*
X136400000Y-110400000D03*
X133600000Y-110400000D03*
D12*
X120650000Y-119887500D03*
X120650000Y-118312500D03*
D13*
X135762500Y-116525000D03*
X134187500Y-116525000D03*
X135287500Y-136300000D03*
X133712500Y-136300000D03*
D12*
X136800000Y-137937500D03*
X136800000Y-136362500D03*
X162600000Y-142137500D03*
X162600000Y-140562500D03*
X164200000Y-142122500D03*
X164200000Y-140547500D03*
D17*
X162635000Y-136700000D03*
X161665000Y-136700000D03*
D18*
X167715000Y-139900000D03*
X168685000Y-139900000D03*
D12*
X120700000Y-130887500D03*
X120700000Y-129312500D03*
D15*
X165800000Y-140572500D03*
X165800000Y-142147500D03*
D19*
X126700000Y-111150000D03*
X126700000Y-109150000D03*
D20*
X165720000Y-133400000D03*
X162420000Y-133400000D03*
D21*
X172125000Y-137850000D03*
X170075000Y-137850000D03*
D22*
X119250000Y-132835000D03*
X119250000Y-131865000D03*
X119450000Y-127085000D03*
X119450000Y-126115000D03*
D23*
X141160000Y-119400000D03*
X143960000Y-119400000D03*
D15*
X161000000Y-140562500D03*
X161000000Y-142137500D03*
D12*
X119100000Y-119887500D03*
X119100000Y-118312500D03*
D24*
X136825000Y-133687500D03*
X136325000Y-133687500D03*
X135825000Y-133687500D03*
X135325000Y-133687500D03*
X134825000Y-133687500D03*
X134325000Y-133687500D03*
X133825000Y-133687500D03*
X133325000Y-133687500D03*
X132825000Y-133687500D03*
X132325000Y-133687500D03*
X131825000Y-133687500D03*
X131325000Y-133687500D03*
X130825000Y-133687500D03*
X130325000Y-133687500D03*
X129825000Y-133687500D03*
X129325000Y-133687500D03*
X128825000Y-133687500D03*
X128325000Y-133687500D03*
X127825000Y-133687500D03*
X127325000Y-133687500D03*
X126825000Y-133687500D03*
X126325000Y-133687500D03*
X125825000Y-133687500D03*
X125325000Y-133687500D03*
X124825000Y-133687500D03*
D25*
X123162500Y-132025000D03*
X123162500Y-131525000D03*
X123162500Y-131025000D03*
X123162500Y-130525000D03*
X123162500Y-130025000D03*
X123162500Y-129525000D03*
X123162500Y-129025000D03*
X123162500Y-128525000D03*
X123162500Y-128025000D03*
X123162500Y-127525000D03*
X123162500Y-127025000D03*
X123162500Y-126525000D03*
X123162500Y-126025000D03*
X123162500Y-125525000D03*
X123162500Y-125025000D03*
X123162500Y-124525000D03*
X123162500Y-124025000D03*
X123162500Y-123525000D03*
X123162500Y-123025000D03*
X123162500Y-122525000D03*
X123162500Y-122025000D03*
X123162500Y-121525000D03*
X123162500Y-121025000D03*
X123162500Y-120525000D03*
X123162500Y-120025000D03*
D24*
X124825000Y-118362500D03*
X125325000Y-118362500D03*
X125825000Y-118362500D03*
X126325000Y-118362500D03*
X126825000Y-118362500D03*
X127325000Y-118362500D03*
X127825000Y-118362500D03*
X128325000Y-118362500D03*
X128825000Y-118362500D03*
X129325000Y-118362500D03*
X129825000Y-118362500D03*
X130325000Y-118362500D03*
X130825000Y-118362500D03*
X131325000Y-118362500D03*
X131825000Y-118362500D03*
X132325000Y-118362500D03*
X132825000Y-118362500D03*
X133325000Y-118362500D03*
X133825000Y-118362500D03*
X134325000Y-118362500D03*
X134825000Y-118362500D03*
X135325000Y-118362500D03*
X135825000Y-118362500D03*
X136325000Y-118362500D03*
X136825000Y-118362500D03*
D25*
X138487500Y-120025000D03*
X138487500Y-120525000D03*
X138487500Y-121025000D03*
X138487500Y-121525000D03*
X138487500Y-122025000D03*
X138487500Y-122525000D03*
X138487500Y-123025000D03*
X138487500Y-123525000D03*
X138487500Y-124025000D03*
X138487500Y-124525000D03*
X138487500Y-125025000D03*
X138487500Y-125525000D03*
X138487500Y-126025000D03*
X138487500Y-126525000D03*
X138487500Y-127025000D03*
X138487500Y-127525000D03*
X138487500Y-128025000D03*
X138487500Y-128525000D03*
X138487500Y-129025000D03*
X138487500Y-129525000D03*
X138487500Y-130025000D03*
X138487500Y-130525000D03*
X138487500Y-131025000D03*
X138487500Y-131525000D03*
X138487500Y-132025000D03*
D26*
X169149711Y-75532561D03*
X170490289Y-76657439D03*
D27*
X176782498Y-79316677D03*
X165521644Y-69867699D03*
M02*
