G04 #@! TF.GenerationSoftware,KiCad,Pcbnew,7.0.7*
G04 #@! TF.CreationDate,2023-12-06T21:13:40-05:00*
G04 #@! TF.ProjectId,SARD_Motherboard,53415244-5f4d-46f7-9468-6572626f6172,rev?*
G04 #@! TF.SameCoordinates,Original*
G04 #@! TF.FileFunction,Legend,Top*
G04 #@! TF.FilePolarity,Positive*
%FSLAX46Y46*%
G04 Gerber Fmt 4.6, Leading zero omitted, Abs format (unit mm)*
G04 Created by KiCad (PCBNEW 7.0.7) date 2023-12-06 21:13:40*
%MOMM*%
%LPD*%
G01*
G04 APERTURE LIST*
%ADD10C,0.120000*%
%ADD11C,0.150000*%
%ADD12C,0.100000*%
%ADD13C,0.127000*%
%ADD14C,0.200000*%
%ADD15C,0.010000*%
G04 APERTURE END LIST*
D10*
X160706379Y-88011904D02*
X159706379Y-88011904D01*
X159706379Y-88011904D02*
X160420664Y-87678571D01*
X160420664Y-87678571D02*
X159706379Y-87345238D01*
X159706379Y-87345238D02*
X160706379Y-87345238D01*
X159801617Y-86916666D02*
X159753998Y-86869047D01*
X159753998Y-86869047D02*
X159706379Y-86773809D01*
X159706379Y-86773809D02*
X159706379Y-86535714D01*
X159706379Y-86535714D02*
X159753998Y-86440476D01*
X159753998Y-86440476D02*
X159801617Y-86392857D01*
X159801617Y-86392857D02*
X159896855Y-86345238D01*
X159896855Y-86345238D02*
X159992093Y-86345238D01*
X159992093Y-86345238D02*
X160134950Y-86392857D01*
X160134950Y-86392857D02*
X160706379Y-86964285D01*
X160706379Y-86964285D02*
X160706379Y-86345238D01*
X159706379Y-86011904D02*
X160706379Y-85345238D01*
X159706379Y-85345238D02*
X160706379Y-86011904D01*
X160039712Y-84535714D02*
X160706379Y-84535714D01*
X159658760Y-84773809D02*
X160373045Y-85011904D01*
X160373045Y-85011904D02*
X160373045Y-84392857D01*
X153973810Y-128256379D02*
X153973810Y-127256379D01*
X153973810Y-127256379D02*
X154307143Y-127970664D01*
X154307143Y-127970664D02*
X154640476Y-127256379D01*
X154640476Y-127256379D02*
X154640476Y-128256379D01*
X155640476Y-128256379D02*
X155069048Y-128256379D01*
X155354762Y-128256379D02*
X155354762Y-127256379D01*
X155354762Y-127256379D02*
X155259524Y-127399236D01*
X155259524Y-127399236D02*
X155164286Y-127494474D01*
X155164286Y-127494474D02*
X155069048Y-127542093D01*
X156069048Y-128161140D02*
X156116667Y-128208760D01*
X156116667Y-128208760D02*
X156069048Y-128256379D01*
X156069048Y-128256379D02*
X156021429Y-128208760D01*
X156021429Y-128208760D02*
X156069048Y-128161140D01*
X156069048Y-128161140D02*
X156069048Y-128256379D01*
X156973809Y-127256379D02*
X156783333Y-127256379D01*
X156783333Y-127256379D02*
X156688095Y-127303998D01*
X156688095Y-127303998D02*
X156640476Y-127351617D01*
X156640476Y-127351617D02*
X156545238Y-127494474D01*
X156545238Y-127494474D02*
X156497619Y-127684950D01*
X156497619Y-127684950D02*
X156497619Y-128065902D01*
X156497619Y-128065902D02*
X156545238Y-128161140D01*
X156545238Y-128161140D02*
X156592857Y-128208760D01*
X156592857Y-128208760D02*
X156688095Y-128256379D01*
X156688095Y-128256379D02*
X156878571Y-128256379D01*
X156878571Y-128256379D02*
X156973809Y-128208760D01*
X156973809Y-128208760D02*
X157021428Y-128161140D01*
X157021428Y-128161140D02*
X157069047Y-128065902D01*
X157069047Y-128065902D02*
X157069047Y-127827807D01*
X157069047Y-127827807D02*
X157021428Y-127732569D01*
X157021428Y-127732569D02*
X156973809Y-127684950D01*
X156973809Y-127684950D02*
X156878571Y-127637331D01*
X156878571Y-127637331D02*
X156688095Y-127637331D01*
X156688095Y-127637331D02*
X156592857Y-127684950D01*
X156592857Y-127684950D02*
X156545238Y-127732569D01*
X156545238Y-127732569D02*
X156497619Y-127827807D01*
X157402381Y-127256379D02*
X158069047Y-128256379D01*
X158069047Y-127256379D02*
X157402381Y-128256379D01*
X158926190Y-127256379D02*
X158450000Y-127256379D01*
X158450000Y-127256379D02*
X158402381Y-127732569D01*
X158402381Y-127732569D02*
X158450000Y-127684950D01*
X158450000Y-127684950D02*
X158545238Y-127637331D01*
X158545238Y-127637331D02*
X158783333Y-127637331D01*
X158783333Y-127637331D02*
X158878571Y-127684950D01*
X158878571Y-127684950D02*
X158926190Y-127732569D01*
X158926190Y-127732569D02*
X158973809Y-127827807D01*
X158973809Y-127827807D02*
X158973809Y-128065902D01*
X158973809Y-128065902D02*
X158926190Y-128161140D01*
X158926190Y-128161140D02*
X158878571Y-128208760D01*
X158878571Y-128208760D02*
X158783333Y-128256379D01*
X158783333Y-128256379D02*
X158545238Y-128256379D01*
X158545238Y-128256379D02*
X158450000Y-128208760D01*
X158450000Y-128208760D02*
X158402381Y-128161140D01*
D11*
X140503147Y-109405789D02*
X141003147Y-108539764D01*
X141003147Y-108539764D02*
X140934679Y-109325020D01*
X140934679Y-109325020D02*
X141580497Y-108873097D01*
X141580497Y-108873097D02*
X141080497Y-109739123D01*
X141946522Y-110239123D02*
X141451651Y-109953408D01*
X141699086Y-110096266D02*
X142199086Y-109230240D01*
X142199086Y-109230240D02*
X142045179Y-109306339D01*
X142045179Y-109306339D02*
X141915082Y-109341199D01*
X141915082Y-109341199D02*
X141808793Y-109334819D01*
X142365295Y-110370930D02*
X142382725Y-110435979D01*
X142382725Y-110435979D02*
X142317676Y-110453408D01*
X142317676Y-110453408D02*
X142300246Y-110388360D01*
X142300246Y-110388360D02*
X142365295Y-110370930D01*
X142365295Y-110370930D02*
X142317676Y-110453408D01*
X143601222Y-110039764D02*
X143436265Y-109944526D01*
X143436265Y-109944526D02*
X143329977Y-109938146D01*
X143329977Y-109938146D02*
X143264928Y-109955576D01*
X143264928Y-109955576D02*
X143111021Y-110031675D01*
X143111021Y-110031675D02*
X142974544Y-110172822D01*
X142974544Y-110172822D02*
X142784068Y-110502737D01*
X142784068Y-110502737D02*
X142777688Y-110609025D01*
X142777688Y-110609025D02*
X142795118Y-110674074D01*
X142795118Y-110674074D02*
X142853787Y-110762932D01*
X142853787Y-110762932D02*
X143018744Y-110858170D01*
X143018744Y-110858170D02*
X143125032Y-110864550D01*
X143125032Y-110864550D02*
X143190081Y-110847120D01*
X143190081Y-110847120D02*
X143278939Y-110788451D01*
X143278939Y-110788451D02*
X143397987Y-110582254D01*
X143397987Y-110582254D02*
X143404367Y-110475966D01*
X143404367Y-110475966D02*
X143386937Y-110410918D01*
X143386937Y-110410918D02*
X143328268Y-110322059D01*
X143328268Y-110322059D02*
X143163310Y-110226821D01*
X143163310Y-110226821D02*
X143057022Y-110220441D01*
X143057022Y-110220441D02*
X142991973Y-110237871D01*
X142991973Y-110237871D02*
X142903115Y-110296540D01*
X143972376Y-110254050D02*
X144049727Y-111453408D01*
X144549727Y-110587383D02*
X143472376Y-111120075D01*
X145292034Y-111015954D02*
X144879641Y-110777859D01*
X144879641Y-110777859D02*
X144600306Y-111166443D01*
X144600306Y-111166443D02*
X144665355Y-111149013D01*
X144665355Y-111149013D02*
X144771643Y-111155393D01*
X144771643Y-111155393D02*
X144977840Y-111274440D01*
X144977840Y-111274440D02*
X145036509Y-111363299D01*
X145036509Y-111363299D02*
X145053939Y-111428347D01*
X145053939Y-111428347D02*
X145047559Y-111534635D01*
X145047559Y-111534635D02*
X144928511Y-111740832D01*
X144928511Y-111740832D02*
X144839653Y-111799501D01*
X144839653Y-111799501D02*
X144774604Y-111816931D01*
X144774604Y-111816931D02*
X144668316Y-111810551D01*
X144668316Y-111810551D02*
X144462120Y-111691504D01*
X144462120Y-111691504D02*
X144403451Y-111602645D01*
X144403451Y-111602645D02*
X144386021Y-111537596D01*
D10*
X136168095Y-89956379D02*
X136168095Y-88956379D01*
X136168095Y-88956379D02*
X136501428Y-89670664D01*
X136501428Y-89670664D02*
X136834761Y-88956379D01*
X136834761Y-88956379D02*
X136834761Y-89956379D01*
X137263333Y-89051617D02*
X137310952Y-89003998D01*
X137310952Y-89003998D02*
X137406190Y-88956379D01*
X137406190Y-88956379D02*
X137644285Y-88956379D01*
X137644285Y-88956379D02*
X137739523Y-89003998D01*
X137739523Y-89003998D02*
X137787142Y-89051617D01*
X137787142Y-89051617D02*
X137834761Y-89146855D01*
X137834761Y-89146855D02*
X137834761Y-89242093D01*
X137834761Y-89242093D02*
X137787142Y-89384950D01*
X137787142Y-89384950D02*
X137215714Y-89956379D01*
X137215714Y-89956379D02*
X137834761Y-89956379D01*
X138168095Y-88956379D02*
X138834761Y-89956379D01*
X138834761Y-88956379D02*
X138168095Y-89956379D01*
X139644285Y-89289712D02*
X139644285Y-89956379D01*
X139406190Y-88908760D02*
X139168095Y-89623045D01*
X139168095Y-89623045D02*
X139787142Y-89623045D01*
D11*
X181318628Y-125119173D02*
X179818628Y-125119173D01*
X179818628Y-125119173D02*
X179818628Y-124762030D01*
X179818628Y-124762030D02*
X179890057Y-124547744D01*
X179890057Y-124547744D02*
X180032914Y-124404887D01*
X180032914Y-124404887D02*
X180175771Y-124333458D01*
X180175771Y-124333458D02*
X180461485Y-124262030D01*
X180461485Y-124262030D02*
X180675771Y-124262030D01*
X180675771Y-124262030D02*
X180961485Y-124333458D01*
X180961485Y-124333458D02*
X181104342Y-124404887D01*
X181104342Y-124404887D02*
X181247200Y-124547744D01*
X181247200Y-124547744D02*
X181318628Y-124762030D01*
X181318628Y-124762030D02*
X181318628Y-125119173D01*
X180532914Y-123619173D02*
X180532914Y-123119173D01*
X181318628Y-122904887D02*
X181318628Y-123619173D01*
X181318628Y-123619173D02*
X179818628Y-123619173D01*
X179818628Y-123619173D02*
X179818628Y-122904887D01*
X181247200Y-122333458D02*
X181318628Y-122119173D01*
X181318628Y-122119173D02*
X181318628Y-121762030D01*
X181318628Y-121762030D02*
X181247200Y-121619173D01*
X181247200Y-121619173D02*
X181175771Y-121547744D01*
X181175771Y-121547744D02*
X181032914Y-121476315D01*
X181032914Y-121476315D02*
X180890057Y-121476315D01*
X180890057Y-121476315D02*
X180747200Y-121547744D01*
X180747200Y-121547744D02*
X180675771Y-121619173D01*
X180675771Y-121619173D02*
X180604342Y-121762030D01*
X180604342Y-121762030D02*
X180532914Y-122047744D01*
X180532914Y-122047744D02*
X180461485Y-122190601D01*
X180461485Y-122190601D02*
X180390057Y-122262030D01*
X180390057Y-122262030D02*
X180247200Y-122333458D01*
X180247200Y-122333458D02*
X180104342Y-122333458D01*
X180104342Y-122333458D02*
X179961485Y-122262030D01*
X179961485Y-122262030D02*
X179890057Y-122190601D01*
X179890057Y-122190601D02*
X179818628Y-122047744D01*
X179818628Y-122047744D02*
X179818628Y-121690601D01*
X179818628Y-121690601D02*
X179890057Y-121476315D01*
X181318628Y-120833459D02*
X179818628Y-120833459D01*
X179890057Y-119333458D02*
X179818628Y-119476316D01*
X179818628Y-119476316D02*
X179818628Y-119690601D01*
X179818628Y-119690601D02*
X179890057Y-119904887D01*
X179890057Y-119904887D02*
X180032914Y-120047744D01*
X180032914Y-120047744D02*
X180175771Y-120119173D01*
X180175771Y-120119173D02*
X180461485Y-120190601D01*
X180461485Y-120190601D02*
X180675771Y-120190601D01*
X180675771Y-120190601D02*
X180961485Y-120119173D01*
X180961485Y-120119173D02*
X181104342Y-120047744D01*
X181104342Y-120047744D02*
X181247200Y-119904887D01*
X181247200Y-119904887D02*
X181318628Y-119690601D01*
X181318628Y-119690601D02*
X181318628Y-119547744D01*
X181318628Y-119547744D02*
X181247200Y-119333458D01*
X181247200Y-119333458D02*
X181175771Y-119262030D01*
X181175771Y-119262030D02*
X180675771Y-119262030D01*
X180675771Y-119262030D02*
X180675771Y-119547744D01*
X181318628Y-118619173D02*
X179818628Y-118619173D01*
X179818628Y-118619173D02*
X181318628Y-117762030D01*
X181318628Y-117762030D02*
X179818628Y-117762030D01*
X180532914Y-115404887D02*
X180532914Y-115904887D01*
X181318628Y-115904887D02*
X179818628Y-115904887D01*
X179818628Y-115904887D02*
X179818628Y-115190601D01*
X181318628Y-114619173D02*
X179818628Y-114619173D01*
X181318628Y-113190601D02*
X181318628Y-113904887D01*
X181318628Y-113904887D02*
X179818628Y-113904887D01*
X180532914Y-112690601D02*
X180532914Y-112190601D01*
X181318628Y-111976315D02*
X181318628Y-112690601D01*
X181318628Y-112690601D02*
X179818628Y-112690601D01*
X179818628Y-112690601D02*
X179818628Y-111976315D01*
X181247200Y-111404886D02*
X181318628Y-111190601D01*
X181318628Y-111190601D02*
X181318628Y-110833458D01*
X181318628Y-110833458D02*
X181247200Y-110690601D01*
X181247200Y-110690601D02*
X181175771Y-110619172D01*
X181175771Y-110619172D02*
X181032914Y-110547743D01*
X181032914Y-110547743D02*
X180890057Y-110547743D01*
X180890057Y-110547743D02*
X180747200Y-110619172D01*
X180747200Y-110619172D02*
X180675771Y-110690601D01*
X180675771Y-110690601D02*
X180604342Y-110833458D01*
X180604342Y-110833458D02*
X180532914Y-111119172D01*
X180532914Y-111119172D02*
X180461485Y-111262029D01*
X180461485Y-111262029D02*
X180390057Y-111333458D01*
X180390057Y-111333458D02*
X180247200Y-111404886D01*
X180247200Y-111404886D02*
X180104342Y-111404886D01*
X180104342Y-111404886D02*
X179961485Y-111333458D01*
X179961485Y-111333458D02*
X179890057Y-111262029D01*
X179890057Y-111262029D02*
X179818628Y-111119172D01*
X179818628Y-111119172D02*
X179818628Y-110762029D01*
X179818628Y-110762029D02*
X179890057Y-110547743D01*
X180890057Y-108833458D02*
X180890057Y-108119173D01*
X181318628Y-108976315D02*
X179818628Y-108476315D01*
X179818628Y-108476315D02*
X181318628Y-107976315D01*
X179818628Y-107690601D02*
X181318628Y-107190601D01*
X181318628Y-107190601D02*
X179818628Y-106690601D01*
X180890057Y-106262030D02*
X180890057Y-105547745D01*
X181318628Y-106404887D02*
X179818628Y-105904887D01*
X179818628Y-105904887D02*
X181318628Y-105404887D01*
X181318628Y-104904888D02*
X179818628Y-104904888D01*
X181318628Y-103476316D02*
X181318628Y-104190602D01*
X181318628Y-104190602D02*
X179818628Y-104190602D01*
X180890057Y-103047744D02*
X180890057Y-102333459D01*
X181318628Y-103190601D02*
X179818628Y-102690601D01*
X179818628Y-102690601D02*
X181318628Y-102190601D01*
X180532914Y-101190602D02*
X180604342Y-100976316D01*
X180604342Y-100976316D02*
X180675771Y-100904887D01*
X180675771Y-100904887D02*
X180818628Y-100833459D01*
X180818628Y-100833459D02*
X181032914Y-100833459D01*
X181032914Y-100833459D02*
X181175771Y-100904887D01*
X181175771Y-100904887D02*
X181247200Y-100976316D01*
X181247200Y-100976316D02*
X181318628Y-101119173D01*
X181318628Y-101119173D02*
X181318628Y-101690602D01*
X181318628Y-101690602D02*
X179818628Y-101690602D01*
X179818628Y-101690602D02*
X179818628Y-101190602D01*
X179818628Y-101190602D02*
X179890057Y-101047745D01*
X179890057Y-101047745D02*
X179961485Y-100976316D01*
X179961485Y-100976316D02*
X180104342Y-100904887D01*
X180104342Y-100904887D02*
X180247200Y-100904887D01*
X180247200Y-100904887D02*
X180390057Y-100976316D01*
X180390057Y-100976316D02*
X180461485Y-101047745D01*
X180461485Y-101047745D02*
X180532914Y-101190602D01*
X180532914Y-101190602D02*
X180532914Y-101690602D01*
X181318628Y-99476316D02*
X181318628Y-100190602D01*
X181318628Y-100190602D02*
X179818628Y-100190602D01*
X180532914Y-98976316D02*
X180532914Y-98476316D01*
X181318628Y-98262030D02*
X181318628Y-98976316D01*
X181318628Y-98976316D02*
X179818628Y-98976316D01*
X179818628Y-98976316D02*
X179818628Y-98262030D01*
X180890057Y-96547744D02*
X180890057Y-95833459D01*
X181318628Y-96690601D02*
X179818628Y-96190601D01*
X179818628Y-96190601D02*
X181318628Y-95690601D01*
X179818628Y-95404887D02*
X179818628Y-94547745D01*
X181318628Y-94976316D02*
X179818628Y-94976316D01*
X183662200Y-125190601D02*
X183733628Y-125047744D01*
X183733628Y-125047744D02*
X183733628Y-124762030D01*
X183733628Y-124762030D02*
X183662200Y-124619173D01*
X183662200Y-124619173D02*
X183519342Y-124547744D01*
X183519342Y-124547744D02*
X183447914Y-124547744D01*
X183447914Y-124547744D02*
X183305057Y-124619173D01*
X183305057Y-124619173D02*
X183233628Y-124762030D01*
X183233628Y-124762030D02*
X183233628Y-124976316D01*
X183233628Y-124976316D02*
X183162200Y-125119173D01*
X183162200Y-125119173D02*
X183019342Y-125190601D01*
X183019342Y-125190601D02*
X182947914Y-125190601D01*
X182947914Y-125190601D02*
X182805057Y-125119173D01*
X182805057Y-125119173D02*
X182733628Y-124976316D01*
X182733628Y-124976316D02*
X182733628Y-124762030D01*
X182733628Y-124762030D02*
X182805057Y-124619173D01*
X183733628Y-123904887D02*
X182233628Y-123904887D01*
X183162200Y-123762030D02*
X183733628Y-123333458D01*
X182733628Y-123333458D02*
X183305057Y-123904887D01*
X182733628Y-122833458D02*
X183733628Y-122476315D01*
X182733628Y-122119172D02*
X183733628Y-122476315D01*
X183733628Y-122476315D02*
X184090771Y-122619172D01*
X184090771Y-122619172D02*
X184162200Y-122690601D01*
X184162200Y-122690601D02*
X184233628Y-122833458D01*
X183662200Y-121619172D02*
X183733628Y-121476315D01*
X183733628Y-121476315D02*
X183733628Y-121190601D01*
X183733628Y-121190601D02*
X183662200Y-121047744D01*
X183662200Y-121047744D02*
X183519342Y-120976315D01*
X183519342Y-120976315D02*
X183447914Y-120976315D01*
X183447914Y-120976315D02*
X183305057Y-121047744D01*
X183305057Y-121047744D02*
X183233628Y-121190601D01*
X183233628Y-121190601D02*
X183233628Y-121404887D01*
X183233628Y-121404887D02*
X183162200Y-121547744D01*
X183162200Y-121547744D02*
X183019342Y-121619172D01*
X183019342Y-121619172D02*
X182947914Y-121619172D01*
X182947914Y-121619172D02*
X182805057Y-121547744D01*
X182805057Y-121547744D02*
X182733628Y-121404887D01*
X182733628Y-121404887D02*
X182733628Y-121190601D01*
X182733628Y-121190601D02*
X182805057Y-121047744D01*
X183662200Y-119762029D02*
X183733628Y-119904886D01*
X183733628Y-119904886D02*
X183733628Y-120190601D01*
X183733628Y-120190601D02*
X183662200Y-120333458D01*
X183662200Y-120333458D02*
X183519342Y-120404886D01*
X183519342Y-120404886D02*
X182947914Y-120404886D01*
X182947914Y-120404886D02*
X182805057Y-120333458D01*
X182805057Y-120333458D02*
X182733628Y-120190601D01*
X182733628Y-120190601D02*
X182733628Y-119904886D01*
X182733628Y-119904886D02*
X182805057Y-119762029D01*
X182805057Y-119762029D02*
X182947914Y-119690601D01*
X182947914Y-119690601D02*
X183090771Y-119690601D01*
X183090771Y-119690601D02*
X183233628Y-120404886D01*
X183733628Y-118404887D02*
X182233628Y-118404887D01*
X183662200Y-118404887D02*
X183733628Y-118547744D01*
X183733628Y-118547744D02*
X183733628Y-118833458D01*
X183733628Y-118833458D02*
X183662200Y-118976315D01*
X183662200Y-118976315D02*
X183590771Y-119047744D01*
X183590771Y-119047744D02*
X183447914Y-119119172D01*
X183447914Y-119119172D02*
X183019342Y-119119172D01*
X183019342Y-119119172D02*
X182876485Y-119047744D01*
X182876485Y-119047744D02*
X182805057Y-118976315D01*
X182805057Y-118976315D02*
X182733628Y-118833458D01*
X182733628Y-118833458D02*
X182733628Y-118547744D01*
X182733628Y-118547744D02*
X182805057Y-118404887D01*
X182733628Y-117047744D02*
X183947914Y-117047744D01*
X183947914Y-117047744D02*
X184090771Y-117119172D01*
X184090771Y-117119172D02*
X184162200Y-117190601D01*
X184162200Y-117190601D02*
X184233628Y-117333458D01*
X184233628Y-117333458D02*
X184233628Y-117547744D01*
X184233628Y-117547744D02*
X184162200Y-117690601D01*
X183662200Y-117047744D02*
X183733628Y-117190601D01*
X183733628Y-117190601D02*
X183733628Y-117476315D01*
X183733628Y-117476315D02*
X183662200Y-117619172D01*
X183662200Y-117619172D02*
X183590771Y-117690601D01*
X183590771Y-117690601D02*
X183447914Y-117762029D01*
X183447914Y-117762029D02*
X183019342Y-117762029D01*
X183019342Y-117762029D02*
X182876485Y-117690601D01*
X182876485Y-117690601D02*
X182805057Y-117619172D01*
X182805057Y-117619172D02*
X182733628Y-117476315D01*
X182733628Y-117476315D02*
X182733628Y-117190601D01*
X182733628Y-117190601D02*
X182805057Y-117047744D01*
X183662200Y-115762029D02*
X183733628Y-115904886D01*
X183733628Y-115904886D02*
X183733628Y-116190601D01*
X183733628Y-116190601D02*
X183662200Y-116333458D01*
X183662200Y-116333458D02*
X183519342Y-116404886D01*
X183519342Y-116404886D02*
X182947914Y-116404886D01*
X182947914Y-116404886D02*
X182805057Y-116333458D01*
X182805057Y-116333458D02*
X182733628Y-116190601D01*
X182733628Y-116190601D02*
X182733628Y-115904886D01*
X182733628Y-115904886D02*
X182805057Y-115762029D01*
X182805057Y-115762029D02*
X182947914Y-115690601D01*
X182947914Y-115690601D02*
X183090771Y-115690601D01*
X183090771Y-115690601D02*
X183233628Y-116404886D01*
X183590771Y-115047744D02*
X183662200Y-114976315D01*
X183662200Y-114976315D02*
X183733628Y-115047744D01*
X183733628Y-115047744D02*
X183662200Y-115119172D01*
X183662200Y-115119172D02*
X183590771Y-115047744D01*
X183590771Y-115047744D02*
X183733628Y-115047744D01*
X183662200Y-113690601D02*
X183733628Y-113833458D01*
X183733628Y-113833458D02*
X183733628Y-114119172D01*
X183733628Y-114119172D02*
X183662200Y-114262029D01*
X183662200Y-114262029D02*
X183590771Y-114333458D01*
X183590771Y-114333458D02*
X183447914Y-114404886D01*
X183447914Y-114404886D02*
X183019342Y-114404886D01*
X183019342Y-114404886D02*
X182876485Y-114333458D01*
X182876485Y-114333458D02*
X182805057Y-114262029D01*
X182805057Y-114262029D02*
X182733628Y-114119172D01*
X182733628Y-114119172D02*
X182733628Y-113833458D01*
X182733628Y-113833458D02*
X182805057Y-113690601D01*
X183733628Y-112833458D02*
X183662200Y-112976315D01*
X183662200Y-112976315D02*
X183590771Y-113047744D01*
X183590771Y-113047744D02*
X183447914Y-113119172D01*
X183447914Y-113119172D02*
X183019342Y-113119172D01*
X183019342Y-113119172D02*
X182876485Y-113047744D01*
X182876485Y-113047744D02*
X182805057Y-112976315D01*
X182805057Y-112976315D02*
X182733628Y-112833458D01*
X182733628Y-112833458D02*
X182733628Y-112619172D01*
X182733628Y-112619172D02*
X182805057Y-112476315D01*
X182805057Y-112476315D02*
X182876485Y-112404887D01*
X182876485Y-112404887D02*
X183019342Y-112333458D01*
X183019342Y-112333458D02*
X183447914Y-112333458D01*
X183447914Y-112333458D02*
X183590771Y-112404887D01*
X183590771Y-112404887D02*
X183662200Y-112476315D01*
X183662200Y-112476315D02*
X183733628Y-112619172D01*
X183733628Y-112619172D02*
X183733628Y-112833458D01*
X183733628Y-111690601D02*
X182733628Y-111690601D01*
X182876485Y-111690601D02*
X182805057Y-111619172D01*
X182805057Y-111619172D02*
X182733628Y-111476315D01*
X182733628Y-111476315D02*
X182733628Y-111262029D01*
X182733628Y-111262029D02*
X182805057Y-111119172D01*
X182805057Y-111119172D02*
X182947914Y-111047744D01*
X182947914Y-111047744D02*
X183733628Y-111047744D01*
X182947914Y-111047744D02*
X182805057Y-110976315D01*
X182805057Y-110976315D02*
X182733628Y-110833458D01*
X182733628Y-110833458D02*
X182733628Y-110619172D01*
X182733628Y-110619172D02*
X182805057Y-110476315D01*
X182805057Y-110476315D02*
X182947914Y-110404886D01*
X182947914Y-110404886D02*
X183733628Y-110404886D01*
X182162200Y-108619172D02*
X184090771Y-109904886D01*
X182733628Y-108333457D02*
X182733628Y-107762029D01*
X182233628Y-108119172D02*
X183519342Y-108119172D01*
X183519342Y-108119172D02*
X183662200Y-108047743D01*
X183662200Y-108047743D02*
X183733628Y-107904886D01*
X183733628Y-107904886D02*
X183733628Y-107762029D01*
X183662200Y-106690600D02*
X183733628Y-106833457D01*
X183733628Y-106833457D02*
X183733628Y-107119172D01*
X183733628Y-107119172D02*
X183662200Y-107262029D01*
X183662200Y-107262029D02*
X183519342Y-107333457D01*
X183519342Y-107333457D02*
X182947914Y-107333457D01*
X182947914Y-107333457D02*
X182805057Y-107262029D01*
X182805057Y-107262029D02*
X182733628Y-107119172D01*
X182733628Y-107119172D02*
X182733628Y-106833457D01*
X182733628Y-106833457D02*
X182805057Y-106690600D01*
X182805057Y-106690600D02*
X182947914Y-106619172D01*
X182947914Y-106619172D02*
X183090771Y-106619172D01*
X183090771Y-106619172D02*
X183233628Y-107333457D01*
X183733628Y-105762029D02*
X183662200Y-105904886D01*
X183662200Y-105904886D02*
X183519342Y-105976315D01*
X183519342Y-105976315D02*
X182233628Y-105976315D01*
X183662200Y-104619172D02*
X183733628Y-104762029D01*
X183733628Y-104762029D02*
X183733628Y-105047744D01*
X183733628Y-105047744D02*
X183662200Y-105190601D01*
X183662200Y-105190601D02*
X183519342Y-105262029D01*
X183519342Y-105262029D02*
X182947914Y-105262029D01*
X182947914Y-105262029D02*
X182805057Y-105190601D01*
X182805057Y-105190601D02*
X182733628Y-105047744D01*
X182733628Y-105047744D02*
X182733628Y-104762029D01*
X182733628Y-104762029D02*
X182805057Y-104619172D01*
X182805057Y-104619172D02*
X182947914Y-104547744D01*
X182947914Y-104547744D02*
X183090771Y-104547744D01*
X183090771Y-104547744D02*
X183233628Y-105262029D01*
X183662200Y-103262030D02*
X183733628Y-103404887D01*
X183733628Y-103404887D02*
X183733628Y-103690601D01*
X183733628Y-103690601D02*
X183662200Y-103833458D01*
X183662200Y-103833458D02*
X183590771Y-103904887D01*
X183590771Y-103904887D02*
X183447914Y-103976315D01*
X183447914Y-103976315D02*
X183019342Y-103976315D01*
X183019342Y-103976315D02*
X182876485Y-103904887D01*
X182876485Y-103904887D02*
X182805057Y-103833458D01*
X182805057Y-103833458D02*
X182733628Y-103690601D01*
X182733628Y-103690601D02*
X182733628Y-103404887D01*
X182733628Y-103404887D02*
X182805057Y-103262030D01*
X183733628Y-102404887D02*
X183662200Y-102547744D01*
X183662200Y-102547744D02*
X183590771Y-102619173D01*
X183590771Y-102619173D02*
X183447914Y-102690601D01*
X183447914Y-102690601D02*
X183019342Y-102690601D01*
X183019342Y-102690601D02*
X182876485Y-102619173D01*
X182876485Y-102619173D02*
X182805057Y-102547744D01*
X182805057Y-102547744D02*
X182733628Y-102404887D01*
X182733628Y-102404887D02*
X182733628Y-102190601D01*
X182733628Y-102190601D02*
X182805057Y-102047744D01*
X182805057Y-102047744D02*
X182876485Y-101976316D01*
X182876485Y-101976316D02*
X183019342Y-101904887D01*
X183019342Y-101904887D02*
X183447914Y-101904887D01*
X183447914Y-101904887D02*
X183590771Y-101976316D01*
X183590771Y-101976316D02*
X183662200Y-102047744D01*
X183662200Y-102047744D02*
X183733628Y-102190601D01*
X183733628Y-102190601D02*
X183733628Y-102404887D01*
X183733628Y-101262030D02*
X182733628Y-101262030D01*
X182876485Y-101262030D02*
X182805057Y-101190601D01*
X182805057Y-101190601D02*
X182733628Y-101047744D01*
X182733628Y-101047744D02*
X182733628Y-100833458D01*
X182733628Y-100833458D02*
X182805057Y-100690601D01*
X182805057Y-100690601D02*
X182947914Y-100619173D01*
X182947914Y-100619173D02*
X183733628Y-100619173D01*
X182947914Y-100619173D02*
X182805057Y-100547744D01*
X182805057Y-100547744D02*
X182733628Y-100404887D01*
X182733628Y-100404887D02*
X182733628Y-100190601D01*
X182733628Y-100190601D02*
X182805057Y-100047744D01*
X182805057Y-100047744D02*
X182947914Y-99976315D01*
X182947914Y-99976315D02*
X183733628Y-99976315D01*
X182162200Y-98190601D02*
X184090771Y-99476315D01*
X183662200Y-97762029D02*
X183733628Y-97547744D01*
X183733628Y-97547744D02*
X183733628Y-97190601D01*
X183733628Y-97190601D02*
X183662200Y-97047744D01*
X183662200Y-97047744D02*
X183590771Y-96976315D01*
X183590771Y-96976315D02*
X183447914Y-96904886D01*
X183447914Y-96904886D02*
X183305057Y-96904886D01*
X183305057Y-96904886D02*
X183162200Y-96976315D01*
X183162200Y-96976315D02*
X183090771Y-97047744D01*
X183090771Y-97047744D02*
X183019342Y-97190601D01*
X183019342Y-97190601D02*
X182947914Y-97476315D01*
X182947914Y-97476315D02*
X182876485Y-97619172D01*
X182876485Y-97619172D02*
X182805057Y-97690601D01*
X182805057Y-97690601D02*
X182662200Y-97762029D01*
X182662200Y-97762029D02*
X182519342Y-97762029D01*
X182519342Y-97762029D02*
X182376485Y-97690601D01*
X182376485Y-97690601D02*
X182305057Y-97619172D01*
X182305057Y-97619172D02*
X182233628Y-97476315D01*
X182233628Y-97476315D02*
X182233628Y-97119172D01*
X182233628Y-97119172D02*
X182305057Y-96904886D01*
X183305057Y-96333458D02*
X183305057Y-95619173D01*
X183733628Y-96476315D02*
X182233628Y-95976315D01*
X182233628Y-95976315D02*
X183733628Y-95476315D01*
X183733628Y-94119173D02*
X183019342Y-94619173D01*
X183733628Y-94976316D02*
X182233628Y-94976316D01*
X182233628Y-94976316D02*
X182233628Y-94404887D01*
X182233628Y-94404887D02*
X182305057Y-94262030D01*
X182305057Y-94262030D02*
X182376485Y-94190601D01*
X182376485Y-94190601D02*
X182519342Y-94119173D01*
X182519342Y-94119173D02*
X182733628Y-94119173D01*
X182733628Y-94119173D02*
X182876485Y-94190601D01*
X182876485Y-94190601D02*
X182947914Y-94262030D01*
X182947914Y-94262030D02*
X183019342Y-94404887D01*
X183019342Y-94404887D02*
X183019342Y-94976316D01*
X183733628Y-93476316D02*
X182233628Y-93476316D01*
X182233628Y-93476316D02*
X182233628Y-93119173D01*
X182233628Y-93119173D02*
X182305057Y-92904887D01*
X182305057Y-92904887D02*
X182447914Y-92762030D01*
X182447914Y-92762030D02*
X182590771Y-92690601D01*
X182590771Y-92690601D02*
X182876485Y-92619173D01*
X182876485Y-92619173D02*
X183090771Y-92619173D01*
X183090771Y-92619173D02*
X183376485Y-92690601D01*
X183376485Y-92690601D02*
X183519342Y-92762030D01*
X183519342Y-92762030D02*
X183662200Y-92904887D01*
X183662200Y-92904887D02*
X183733628Y-93119173D01*
X183733628Y-93119173D02*
X183733628Y-93476316D01*
X182162200Y-90904887D02*
X184090771Y-92190601D01*
X183733628Y-89762030D02*
X182233628Y-89762030D01*
X183662200Y-89762030D02*
X183733628Y-89904887D01*
X183733628Y-89904887D02*
X183733628Y-90190601D01*
X183733628Y-90190601D02*
X183662200Y-90333458D01*
X183662200Y-90333458D02*
X183590771Y-90404887D01*
X183590771Y-90404887D02*
X183447914Y-90476315D01*
X183447914Y-90476315D02*
X183019342Y-90476315D01*
X183019342Y-90476315D02*
X182876485Y-90404887D01*
X182876485Y-90404887D02*
X182805057Y-90333458D01*
X182805057Y-90333458D02*
X182733628Y-90190601D01*
X182733628Y-90190601D02*
X182733628Y-89904887D01*
X182733628Y-89904887D02*
X182805057Y-89762030D01*
X183662200Y-88476315D02*
X183733628Y-88619172D01*
X183733628Y-88619172D02*
X183733628Y-88904887D01*
X183733628Y-88904887D02*
X183662200Y-89047744D01*
X183662200Y-89047744D02*
X183519342Y-89119172D01*
X183519342Y-89119172D02*
X182947914Y-89119172D01*
X182947914Y-89119172D02*
X182805057Y-89047744D01*
X182805057Y-89047744D02*
X182733628Y-88904887D01*
X182733628Y-88904887D02*
X182733628Y-88619172D01*
X182733628Y-88619172D02*
X182805057Y-88476315D01*
X182805057Y-88476315D02*
X182947914Y-88404887D01*
X182947914Y-88404887D02*
X183090771Y-88404887D01*
X183090771Y-88404887D02*
X183233628Y-89119172D01*
X183662200Y-87833458D02*
X183733628Y-87690601D01*
X183733628Y-87690601D02*
X183733628Y-87404887D01*
X183733628Y-87404887D02*
X183662200Y-87262030D01*
X183662200Y-87262030D02*
X183519342Y-87190601D01*
X183519342Y-87190601D02*
X183447914Y-87190601D01*
X183447914Y-87190601D02*
X183305057Y-87262030D01*
X183305057Y-87262030D02*
X183233628Y-87404887D01*
X183233628Y-87404887D02*
X183233628Y-87619173D01*
X183233628Y-87619173D02*
X183162200Y-87762030D01*
X183162200Y-87762030D02*
X183019342Y-87833458D01*
X183019342Y-87833458D02*
X182947914Y-87833458D01*
X182947914Y-87833458D02*
X182805057Y-87762030D01*
X182805057Y-87762030D02*
X182733628Y-87619173D01*
X182733628Y-87619173D02*
X182733628Y-87404887D01*
X182733628Y-87404887D02*
X182805057Y-87262030D01*
X183733628Y-86547744D02*
X182733628Y-86547744D01*
X182233628Y-86547744D02*
X182305057Y-86619172D01*
X182305057Y-86619172D02*
X182376485Y-86547744D01*
X182376485Y-86547744D02*
X182305057Y-86476315D01*
X182305057Y-86476315D02*
X182233628Y-86547744D01*
X182233628Y-86547744D02*
X182376485Y-86547744D01*
X182733628Y-85190601D02*
X183947914Y-85190601D01*
X183947914Y-85190601D02*
X184090771Y-85262029D01*
X184090771Y-85262029D02*
X184162200Y-85333458D01*
X184162200Y-85333458D02*
X184233628Y-85476315D01*
X184233628Y-85476315D02*
X184233628Y-85690601D01*
X184233628Y-85690601D02*
X184162200Y-85833458D01*
X183662200Y-85190601D02*
X183733628Y-85333458D01*
X183733628Y-85333458D02*
X183733628Y-85619172D01*
X183733628Y-85619172D02*
X183662200Y-85762029D01*
X183662200Y-85762029D02*
X183590771Y-85833458D01*
X183590771Y-85833458D02*
X183447914Y-85904886D01*
X183447914Y-85904886D02*
X183019342Y-85904886D01*
X183019342Y-85904886D02*
X182876485Y-85833458D01*
X182876485Y-85833458D02*
X182805057Y-85762029D01*
X182805057Y-85762029D02*
X182733628Y-85619172D01*
X182733628Y-85619172D02*
X182733628Y-85333458D01*
X182733628Y-85333458D02*
X182805057Y-85190601D01*
X182733628Y-84476315D02*
X183733628Y-84476315D01*
X182876485Y-84476315D02*
X182805057Y-84404886D01*
X182805057Y-84404886D02*
X182733628Y-84262029D01*
X182733628Y-84262029D02*
X182733628Y-84047743D01*
X182733628Y-84047743D02*
X182805057Y-83904886D01*
X182805057Y-83904886D02*
X182947914Y-83833458D01*
X182947914Y-83833458D02*
X183733628Y-83833458D01*
X182733628Y-83333457D02*
X182733628Y-82762029D01*
X183733628Y-83119172D02*
X182447914Y-83119172D01*
X182447914Y-83119172D02*
X182305057Y-83047743D01*
X182305057Y-83047743D02*
X182233628Y-82904886D01*
X182233628Y-82904886D02*
X182233628Y-82762029D01*
X183733628Y-82262029D02*
X182733628Y-82262029D01*
X182233628Y-82262029D02*
X182305057Y-82333457D01*
X182305057Y-82333457D02*
X182376485Y-82262029D01*
X182376485Y-82262029D02*
X182305057Y-82190600D01*
X182305057Y-82190600D02*
X182233628Y-82262029D01*
X182233628Y-82262029D02*
X182376485Y-82262029D01*
X183733628Y-81333457D02*
X183662200Y-81476314D01*
X183662200Y-81476314D02*
X183519342Y-81547743D01*
X183519342Y-81547743D02*
X182233628Y-81547743D01*
X183662200Y-80190600D02*
X183733628Y-80333457D01*
X183733628Y-80333457D02*
X183733628Y-80619172D01*
X183733628Y-80619172D02*
X183662200Y-80762029D01*
X183662200Y-80762029D02*
X183519342Y-80833457D01*
X183519342Y-80833457D02*
X182947914Y-80833457D01*
X182947914Y-80833457D02*
X182805057Y-80762029D01*
X182805057Y-80762029D02*
X182733628Y-80619172D01*
X182733628Y-80619172D02*
X182733628Y-80333457D01*
X182733628Y-80333457D02*
X182805057Y-80190600D01*
X182805057Y-80190600D02*
X182947914Y-80119172D01*
X182947914Y-80119172D02*
X183090771Y-80119172D01*
X183090771Y-80119172D02*
X183233628Y-80833457D01*
X183662200Y-79547743D02*
X183733628Y-79404886D01*
X183733628Y-79404886D02*
X183733628Y-79119172D01*
X183733628Y-79119172D02*
X183662200Y-78976315D01*
X183662200Y-78976315D02*
X183519342Y-78904886D01*
X183519342Y-78904886D02*
X183447914Y-78904886D01*
X183447914Y-78904886D02*
X183305057Y-78976315D01*
X183305057Y-78976315D02*
X183233628Y-79119172D01*
X183233628Y-79119172D02*
X183233628Y-79333458D01*
X183233628Y-79333458D02*
X183162200Y-79476315D01*
X183162200Y-79476315D02*
X183019342Y-79547743D01*
X183019342Y-79547743D02*
X182947914Y-79547743D01*
X182947914Y-79547743D02*
X182805057Y-79476315D01*
X182805057Y-79476315D02*
X182733628Y-79333458D01*
X182733628Y-79333458D02*
X182733628Y-79119172D01*
X182733628Y-79119172D02*
X182805057Y-78976315D01*
X145282142Y-85575414D02*
X144782142Y-85575414D01*
X144782142Y-86361128D02*
X144782142Y-84861128D01*
X144782142Y-84861128D02*
X145496428Y-84861128D01*
X145996428Y-85932557D02*
X146710714Y-85932557D01*
X145853571Y-86361128D02*
X146353571Y-84861128D01*
X146353571Y-84861128D02*
X146853571Y-86361128D01*
X147853570Y-85575414D02*
X148067856Y-85646842D01*
X148067856Y-85646842D02*
X148139285Y-85718271D01*
X148139285Y-85718271D02*
X148210713Y-85861128D01*
X148210713Y-85861128D02*
X148210713Y-86075414D01*
X148210713Y-86075414D02*
X148139285Y-86218271D01*
X148139285Y-86218271D02*
X148067856Y-86289700D01*
X148067856Y-86289700D02*
X147924999Y-86361128D01*
X147924999Y-86361128D02*
X147353570Y-86361128D01*
X147353570Y-86361128D02*
X147353570Y-84861128D01*
X147353570Y-84861128D02*
X147853570Y-84861128D01*
X147853570Y-84861128D02*
X147996428Y-84932557D01*
X147996428Y-84932557D02*
X148067856Y-85003985D01*
X148067856Y-85003985D02*
X148139285Y-85146842D01*
X148139285Y-85146842D02*
X148139285Y-85289700D01*
X148139285Y-85289700D02*
X148067856Y-85432557D01*
X148067856Y-85432557D02*
X147996428Y-85503985D01*
X147996428Y-85503985D02*
X147853570Y-85575414D01*
X147853570Y-85575414D02*
X147353570Y-85575414D01*
X148853570Y-85789700D02*
X149996428Y-85789700D01*
X151210713Y-85575414D02*
X150710713Y-85575414D01*
X150710713Y-86361128D02*
X150710713Y-84861128D01*
X150710713Y-84861128D02*
X151424999Y-84861128D01*
X152853570Y-86361128D02*
X152353570Y-85646842D01*
X151996427Y-86361128D02*
X151996427Y-84861128D01*
X151996427Y-84861128D02*
X152567856Y-84861128D01*
X152567856Y-84861128D02*
X152710713Y-84932557D01*
X152710713Y-84932557D02*
X152782142Y-85003985D01*
X152782142Y-85003985D02*
X152853570Y-85146842D01*
X152853570Y-85146842D02*
X152853570Y-85361128D01*
X152853570Y-85361128D02*
X152782142Y-85503985D01*
X152782142Y-85503985D02*
X152710713Y-85575414D01*
X152710713Y-85575414D02*
X152567856Y-85646842D01*
X152567856Y-85646842D02*
X151996427Y-85646842D01*
X153782142Y-84861128D02*
X154067856Y-84861128D01*
X154067856Y-84861128D02*
X154210713Y-84932557D01*
X154210713Y-84932557D02*
X154353570Y-85075414D01*
X154353570Y-85075414D02*
X154424999Y-85361128D01*
X154424999Y-85361128D02*
X154424999Y-85861128D01*
X154424999Y-85861128D02*
X154353570Y-86146842D01*
X154353570Y-86146842D02*
X154210713Y-86289700D01*
X154210713Y-86289700D02*
X154067856Y-86361128D01*
X154067856Y-86361128D02*
X153782142Y-86361128D01*
X153782142Y-86361128D02*
X153639285Y-86289700D01*
X153639285Y-86289700D02*
X153496427Y-86146842D01*
X153496427Y-86146842D02*
X153424999Y-85861128D01*
X153424999Y-85861128D02*
X153424999Y-85361128D01*
X153424999Y-85361128D02*
X153496427Y-85075414D01*
X153496427Y-85075414D02*
X153639285Y-84932557D01*
X153639285Y-84932557D02*
X153782142Y-84861128D01*
X155067856Y-86361128D02*
X155067856Y-84861128D01*
X155067856Y-84861128D02*
X155924999Y-86361128D01*
X155924999Y-86361128D02*
X155924999Y-84861128D01*
X156425000Y-84861128D02*
X157282143Y-84861128D01*
X156853571Y-86361128D02*
X156853571Y-84861128D01*
D10*
X118296240Y-76142856D02*
X118248620Y-76285713D01*
X118248620Y-76285713D02*
X118248620Y-76523808D01*
X118248620Y-76523808D02*
X118296240Y-76619046D01*
X118296240Y-76619046D02*
X118343859Y-76666665D01*
X118343859Y-76666665D02*
X118439097Y-76714284D01*
X118439097Y-76714284D02*
X118534335Y-76714284D01*
X118534335Y-76714284D02*
X118629573Y-76666665D01*
X118629573Y-76666665D02*
X118677192Y-76619046D01*
X118677192Y-76619046D02*
X118724811Y-76523808D01*
X118724811Y-76523808D02*
X118772430Y-76333332D01*
X118772430Y-76333332D02*
X118820049Y-76238094D01*
X118820049Y-76238094D02*
X118867668Y-76190475D01*
X118867668Y-76190475D02*
X118962906Y-76142856D01*
X118962906Y-76142856D02*
X119058144Y-76142856D01*
X119058144Y-76142856D02*
X119153382Y-76190475D01*
X119153382Y-76190475D02*
X119201001Y-76238094D01*
X119201001Y-76238094D02*
X119248620Y-76333332D01*
X119248620Y-76333332D02*
X119248620Y-76571427D01*
X119248620Y-76571427D02*
X119201001Y-76714284D01*
X119248620Y-76999999D02*
X119248620Y-77571427D01*
X118248620Y-77285713D02*
X119248620Y-77285713D01*
X118534335Y-77857142D02*
X118534335Y-78333332D01*
X118248620Y-77761904D02*
X119248620Y-78095237D01*
X119248620Y-78095237D02*
X118248620Y-78428570D01*
X118248620Y-78761904D02*
X119248620Y-78761904D01*
X119248620Y-78761904D02*
X118248620Y-79333332D01*
X118248620Y-79333332D02*
X119248620Y-79333332D01*
X118248620Y-79809523D02*
X119248620Y-79809523D01*
X119248620Y-79809523D02*
X119248620Y-80047618D01*
X119248620Y-80047618D02*
X119201001Y-80190475D01*
X119201001Y-80190475D02*
X119105763Y-80285713D01*
X119105763Y-80285713D02*
X119010525Y-80333332D01*
X119010525Y-80333332D02*
X118820049Y-80380951D01*
X118820049Y-80380951D02*
X118677192Y-80380951D01*
X118677192Y-80380951D02*
X118486716Y-80333332D01*
X118486716Y-80333332D02*
X118391478Y-80285713D01*
X118391478Y-80285713D02*
X118296240Y-80190475D01*
X118296240Y-80190475D02*
X118248620Y-80047618D01*
X118248620Y-80047618D02*
X118248620Y-79809523D01*
X118534335Y-82285714D02*
X118534335Y-82761904D01*
X118248620Y-82190476D02*
X119248620Y-82523809D01*
X119248620Y-82523809D02*
X118248620Y-82857142D01*
X118248620Y-83666666D02*
X118248620Y-83190476D01*
X118248620Y-83190476D02*
X119248620Y-83190476D01*
X119248620Y-84190476D02*
X119248620Y-84380952D01*
X119248620Y-84380952D02*
X119201001Y-84476190D01*
X119201001Y-84476190D02*
X119105763Y-84571428D01*
X119105763Y-84571428D02*
X118915287Y-84619047D01*
X118915287Y-84619047D02*
X118581954Y-84619047D01*
X118581954Y-84619047D02*
X118391478Y-84571428D01*
X118391478Y-84571428D02*
X118296240Y-84476190D01*
X118296240Y-84476190D02*
X118248620Y-84380952D01*
X118248620Y-84380952D02*
X118248620Y-84190476D01*
X118248620Y-84190476D02*
X118296240Y-84095238D01*
X118296240Y-84095238D02*
X118391478Y-84000000D01*
X118391478Y-84000000D02*
X118581954Y-83952381D01*
X118581954Y-83952381D02*
X118915287Y-83952381D01*
X118915287Y-83952381D02*
X119105763Y-84000000D01*
X119105763Y-84000000D02*
X119201001Y-84095238D01*
X119201001Y-84095238D02*
X119248620Y-84190476D01*
X118248620Y-85047619D02*
X119248620Y-85047619D01*
X119248620Y-85047619D02*
X118248620Y-85619047D01*
X118248620Y-85619047D02*
X119248620Y-85619047D01*
X118772430Y-86095238D02*
X118772430Y-86428571D01*
X118248620Y-86571428D02*
X118248620Y-86095238D01*
X118248620Y-86095238D02*
X119248620Y-86095238D01*
X119248620Y-86095238D02*
X119248620Y-86571428D01*
X118248620Y-88333333D02*
X118724811Y-88000000D01*
X118248620Y-87761905D02*
X119248620Y-87761905D01*
X119248620Y-87761905D02*
X119248620Y-88142857D01*
X119248620Y-88142857D02*
X119201001Y-88238095D01*
X119201001Y-88238095D02*
X119153382Y-88285714D01*
X119153382Y-88285714D02*
X119058144Y-88333333D01*
X119058144Y-88333333D02*
X118915287Y-88333333D01*
X118915287Y-88333333D02*
X118820049Y-88285714D01*
X118820049Y-88285714D02*
X118772430Y-88238095D01*
X118772430Y-88238095D02*
X118724811Y-88142857D01*
X118724811Y-88142857D02*
X118724811Y-87761905D01*
X119248620Y-88952381D02*
X119248620Y-89142857D01*
X119248620Y-89142857D02*
X119201001Y-89238095D01*
X119201001Y-89238095D02*
X119105763Y-89333333D01*
X119105763Y-89333333D02*
X118915287Y-89380952D01*
X118915287Y-89380952D02*
X118581954Y-89380952D01*
X118581954Y-89380952D02*
X118391478Y-89333333D01*
X118391478Y-89333333D02*
X118296240Y-89238095D01*
X118296240Y-89238095D02*
X118248620Y-89142857D01*
X118248620Y-89142857D02*
X118248620Y-88952381D01*
X118248620Y-88952381D02*
X118296240Y-88857143D01*
X118296240Y-88857143D02*
X118391478Y-88761905D01*
X118391478Y-88761905D02*
X118581954Y-88714286D01*
X118581954Y-88714286D02*
X118915287Y-88714286D01*
X118915287Y-88714286D02*
X119105763Y-88761905D01*
X119105763Y-88761905D02*
X119201001Y-88857143D01*
X119201001Y-88857143D02*
X119248620Y-88952381D01*
X119248620Y-89666667D02*
X119248620Y-90238095D01*
X118248620Y-89952381D02*
X119248620Y-89952381D01*
X118534335Y-90523810D02*
X118534335Y-91000000D01*
X118248620Y-90428572D02*
X119248620Y-90761905D01*
X119248620Y-90761905D02*
X118248620Y-91095238D01*
X118248620Y-92000000D02*
X118724811Y-91666667D01*
X118248620Y-91428572D02*
X119248620Y-91428572D01*
X119248620Y-91428572D02*
X119248620Y-91809524D01*
X119248620Y-91809524D02*
X119201001Y-91904762D01*
X119201001Y-91904762D02*
X119153382Y-91952381D01*
X119153382Y-91952381D02*
X119058144Y-92000000D01*
X119058144Y-92000000D02*
X118915287Y-92000000D01*
X118915287Y-92000000D02*
X118820049Y-91952381D01*
X118820049Y-91952381D02*
X118772430Y-91904762D01*
X118772430Y-91904762D02*
X118724811Y-91809524D01*
X118724811Y-91809524D02*
X118724811Y-91428572D01*
X118724811Y-92619048D02*
X118248620Y-92619048D01*
X119248620Y-92285715D02*
X118724811Y-92619048D01*
X118724811Y-92619048D02*
X119248620Y-92952381D01*
X116638620Y-78500000D02*
X117638620Y-78500000D01*
X117638620Y-78500000D02*
X117638620Y-78738095D01*
X117638620Y-78738095D02*
X117591001Y-78880952D01*
X117591001Y-78880952D02*
X117495763Y-78976190D01*
X117495763Y-78976190D02*
X117400525Y-79023809D01*
X117400525Y-79023809D02*
X117210049Y-79071428D01*
X117210049Y-79071428D02*
X117067192Y-79071428D01*
X117067192Y-79071428D02*
X116876716Y-79023809D01*
X116876716Y-79023809D02*
X116781478Y-78976190D01*
X116781478Y-78976190D02*
X116686240Y-78880952D01*
X116686240Y-78880952D02*
X116638620Y-78738095D01*
X116638620Y-78738095D02*
X116638620Y-78500000D01*
X116638620Y-79500000D02*
X117638620Y-79500000D01*
X116924335Y-79928571D02*
X116924335Y-80404761D01*
X116638620Y-79833333D02*
X117638620Y-80166666D01*
X117638620Y-80166666D02*
X116638620Y-80499999D01*
X116638620Y-81309523D02*
X116638620Y-80833333D01*
X116638620Y-80833333D02*
X117638620Y-80833333D01*
X116638620Y-82404762D02*
X117638620Y-82404762D01*
X117638620Y-82404762D02*
X116924335Y-82738095D01*
X116924335Y-82738095D02*
X117638620Y-83071428D01*
X117638620Y-83071428D02*
X116638620Y-83071428D01*
X117162430Y-83547619D02*
X117162430Y-83880952D01*
X116638620Y-84023809D02*
X116638620Y-83547619D01*
X116638620Y-83547619D02*
X117638620Y-83547619D01*
X117638620Y-83547619D02*
X117638620Y-84023809D01*
X116733859Y-85023809D02*
X116686240Y-84976190D01*
X116686240Y-84976190D02*
X116638620Y-84833333D01*
X116638620Y-84833333D02*
X116638620Y-84738095D01*
X116638620Y-84738095D02*
X116686240Y-84595238D01*
X116686240Y-84595238D02*
X116781478Y-84500000D01*
X116781478Y-84500000D02*
X116876716Y-84452381D01*
X116876716Y-84452381D02*
X117067192Y-84404762D01*
X117067192Y-84404762D02*
X117210049Y-84404762D01*
X117210049Y-84404762D02*
X117400525Y-84452381D01*
X117400525Y-84452381D02*
X117495763Y-84500000D01*
X117495763Y-84500000D02*
X117591001Y-84595238D01*
X117591001Y-84595238D02*
X117638620Y-84738095D01*
X117638620Y-84738095D02*
X117638620Y-84833333D01*
X117638620Y-84833333D02*
X117591001Y-84976190D01*
X117591001Y-84976190D02*
X117543382Y-85023809D01*
X116638620Y-85452381D02*
X117638620Y-85452381D01*
X117162430Y-85452381D02*
X117162430Y-86023809D01*
X116638620Y-86023809D02*
X117638620Y-86023809D01*
X116924335Y-86452381D02*
X116924335Y-86928571D01*
X116638620Y-86357143D02*
X117638620Y-86690476D01*
X117638620Y-86690476D02*
X116638620Y-87023809D01*
X116638620Y-87357143D02*
X117638620Y-87357143D01*
X117638620Y-87357143D02*
X116638620Y-87928571D01*
X116638620Y-87928571D02*
X117638620Y-87928571D01*
X116638620Y-88404762D02*
X117638620Y-88404762D01*
X116686240Y-88833333D02*
X116638620Y-88976190D01*
X116638620Y-88976190D02*
X116638620Y-89214285D01*
X116638620Y-89214285D02*
X116686240Y-89309523D01*
X116686240Y-89309523D02*
X116733859Y-89357142D01*
X116733859Y-89357142D02*
X116829097Y-89404761D01*
X116829097Y-89404761D02*
X116924335Y-89404761D01*
X116924335Y-89404761D02*
X117019573Y-89357142D01*
X117019573Y-89357142D02*
X117067192Y-89309523D01*
X117067192Y-89309523D02*
X117114811Y-89214285D01*
X117114811Y-89214285D02*
X117162430Y-89023809D01*
X117162430Y-89023809D02*
X117210049Y-88928571D01*
X117210049Y-88928571D02*
X117257668Y-88880952D01*
X117257668Y-88880952D02*
X117352906Y-88833333D01*
X117352906Y-88833333D02*
X117448144Y-88833333D01*
X117448144Y-88833333D02*
X117543382Y-88880952D01*
X117543382Y-88880952D02*
X117591001Y-88928571D01*
X117591001Y-88928571D02*
X117638620Y-89023809D01*
X117638620Y-89023809D02*
X117638620Y-89261904D01*
X117638620Y-89261904D02*
X117591001Y-89404761D01*
X116638620Y-89833333D02*
X117638620Y-89833333D01*
X117638620Y-89833333D02*
X116924335Y-90166666D01*
X116924335Y-90166666D02*
X117638620Y-90499999D01*
X117638620Y-90499999D02*
X116638620Y-90499999D01*
X170999999Y-123442760D02*
X171085714Y-123471331D01*
X171085714Y-123471331D02*
X171228571Y-123471331D01*
X171228571Y-123471331D02*
X171285714Y-123442760D01*
X171285714Y-123442760D02*
X171314285Y-123414188D01*
X171314285Y-123414188D02*
X171342856Y-123357045D01*
X171342856Y-123357045D02*
X171342856Y-123299902D01*
X171342856Y-123299902D02*
X171314285Y-123242760D01*
X171314285Y-123242760D02*
X171285714Y-123214188D01*
X171285714Y-123214188D02*
X171228571Y-123185617D01*
X171228571Y-123185617D02*
X171114285Y-123157045D01*
X171114285Y-123157045D02*
X171057142Y-123128474D01*
X171057142Y-123128474D02*
X171028571Y-123099902D01*
X171028571Y-123099902D02*
X170999999Y-123042760D01*
X170999999Y-123042760D02*
X170999999Y-122985617D01*
X170999999Y-122985617D02*
X171028571Y-122928474D01*
X171028571Y-122928474D02*
X171057142Y-122899902D01*
X171057142Y-122899902D02*
X171114285Y-122871331D01*
X171114285Y-122871331D02*
X171257142Y-122871331D01*
X171257142Y-122871331D02*
X171342856Y-122899902D01*
X171542857Y-122871331D02*
X171685714Y-123471331D01*
X171685714Y-123471331D02*
X171800000Y-123042760D01*
X171800000Y-123042760D02*
X171914285Y-123471331D01*
X171914285Y-123471331D02*
X172057143Y-122871331D01*
X172257142Y-122928474D02*
X172285714Y-122899902D01*
X172285714Y-122899902D02*
X172342857Y-122871331D01*
X172342857Y-122871331D02*
X172485714Y-122871331D01*
X172485714Y-122871331D02*
X172542857Y-122899902D01*
X172542857Y-122899902D02*
X172571428Y-122928474D01*
X172571428Y-122928474D02*
X172599999Y-122985617D01*
X172599999Y-122985617D02*
X172599999Y-123042760D01*
X172599999Y-123042760D02*
X172571428Y-123128474D01*
X172571428Y-123128474D02*
X172228571Y-123471331D01*
X172228571Y-123471331D02*
X172599999Y-123471331D01*
X134400000Y-112689188D02*
X134371428Y-112717760D01*
X134371428Y-112717760D02*
X134285714Y-112746331D01*
X134285714Y-112746331D02*
X134228571Y-112746331D01*
X134228571Y-112746331D02*
X134142857Y-112717760D01*
X134142857Y-112717760D02*
X134085714Y-112660617D01*
X134085714Y-112660617D02*
X134057143Y-112603474D01*
X134057143Y-112603474D02*
X134028571Y-112489188D01*
X134028571Y-112489188D02*
X134028571Y-112403474D01*
X134028571Y-112403474D02*
X134057143Y-112289188D01*
X134057143Y-112289188D02*
X134085714Y-112232045D01*
X134085714Y-112232045D02*
X134142857Y-112174902D01*
X134142857Y-112174902D02*
X134228571Y-112146331D01*
X134228571Y-112146331D02*
X134285714Y-112146331D01*
X134285714Y-112146331D02*
X134371428Y-112174902D01*
X134371428Y-112174902D02*
X134400000Y-112203474D01*
X134914286Y-112346331D02*
X134914286Y-112746331D01*
X134771428Y-112117760D02*
X134628571Y-112546331D01*
X134628571Y-112546331D02*
X135000000Y-112546331D01*
X121407143Y-76257045D02*
X121207143Y-76257045D01*
X121207143Y-76571331D02*
X121207143Y-75971331D01*
X121207143Y-75971331D02*
X121492857Y-75971331D01*
X121721429Y-76571331D02*
X121721429Y-75971331D01*
X122007143Y-76571331D02*
X122007143Y-75971331D01*
X122007143Y-75971331D02*
X122150000Y-75971331D01*
X122150000Y-75971331D02*
X122235714Y-75999902D01*
X122235714Y-75999902D02*
X122292857Y-76057045D01*
X122292857Y-76057045D02*
X122321428Y-76114188D01*
X122321428Y-76114188D02*
X122350000Y-76228474D01*
X122350000Y-76228474D02*
X122350000Y-76314188D01*
X122350000Y-76314188D02*
X122321428Y-76428474D01*
X122321428Y-76428474D02*
X122292857Y-76485617D01*
X122292857Y-76485617D02*
X122235714Y-76542760D01*
X122235714Y-76542760D02*
X122150000Y-76571331D01*
X122150000Y-76571331D02*
X122007143Y-76571331D01*
X122921428Y-76571331D02*
X122578571Y-76571331D01*
X122750000Y-76571331D02*
X122750000Y-75971331D01*
X122750000Y-75971331D02*
X122692857Y-76057045D01*
X122692857Y-76057045D02*
X122635714Y-76114188D01*
X122635714Y-76114188D02*
X122578571Y-76142760D01*
X133235811Y-130350000D02*
X133207240Y-130321428D01*
X133207240Y-130321428D02*
X133178668Y-130235714D01*
X133178668Y-130235714D02*
X133178668Y-130178571D01*
X133178668Y-130178571D02*
X133207240Y-130092857D01*
X133207240Y-130092857D02*
X133264382Y-130035714D01*
X133264382Y-130035714D02*
X133321525Y-130007143D01*
X133321525Y-130007143D02*
X133435811Y-129978571D01*
X133435811Y-129978571D02*
X133521525Y-129978571D01*
X133521525Y-129978571D02*
X133635811Y-130007143D01*
X133635811Y-130007143D02*
X133692954Y-130035714D01*
X133692954Y-130035714D02*
X133750097Y-130092857D01*
X133750097Y-130092857D02*
X133778668Y-130178571D01*
X133778668Y-130178571D02*
X133778668Y-130235714D01*
X133778668Y-130235714D02*
X133750097Y-130321428D01*
X133750097Y-130321428D02*
X133721525Y-130350000D01*
X133778668Y-130550000D02*
X133778668Y-130921428D01*
X133778668Y-130921428D02*
X133550097Y-130721428D01*
X133550097Y-130721428D02*
X133550097Y-130807143D01*
X133550097Y-130807143D02*
X133521525Y-130864286D01*
X133521525Y-130864286D02*
X133492954Y-130892857D01*
X133492954Y-130892857D02*
X133435811Y-130921428D01*
X133435811Y-130921428D02*
X133292954Y-130921428D01*
X133292954Y-130921428D02*
X133235811Y-130892857D01*
X133235811Y-130892857D02*
X133207240Y-130864286D01*
X133207240Y-130864286D02*
X133178668Y-130807143D01*
X133178668Y-130807143D02*
X133178668Y-130635714D01*
X133178668Y-130635714D02*
X133207240Y-130578571D01*
X133207240Y-130578571D02*
X133235811Y-130550000D01*
X133900534Y-141907687D02*
X133900534Y-141307687D01*
X133900534Y-141307687D02*
X134043391Y-141307687D01*
X134043391Y-141307687D02*
X134129105Y-141336258D01*
X134129105Y-141336258D02*
X134186248Y-141393401D01*
X134186248Y-141393401D02*
X134214819Y-141450544D01*
X134214819Y-141450544D02*
X134243391Y-141564830D01*
X134243391Y-141564830D02*
X134243391Y-141650544D01*
X134243391Y-141650544D02*
X134214819Y-141764830D01*
X134214819Y-141764830D02*
X134186248Y-141821973D01*
X134186248Y-141821973D02*
X134129105Y-141879116D01*
X134129105Y-141879116D02*
X134043391Y-141907687D01*
X134043391Y-141907687D02*
X133900534Y-141907687D01*
X134757677Y-141507687D02*
X134757677Y-141907687D01*
X134614819Y-141279116D02*
X134471962Y-141707687D01*
X134471962Y-141707687D02*
X134843391Y-141707687D01*
D11*
X131447410Y-143166279D02*
X131114077Y-142690088D01*
X130875982Y-143166279D02*
X130875982Y-142166279D01*
X130875982Y-142166279D02*
X131256934Y-142166279D01*
X131256934Y-142166279D02*
X131352172Y-142213898D01*
X131352172Y-142213898D02*
X131399791Y-142261517D01*
X131399791Y-142261517D02*
X131447410Y-142356755D01*
X131447410Y-142356755D02*
X131447410Y-142499612D01*
X131447410Y-142499612D02*
X131399791Y-142594850D01*
X131399791Y-142594850D02*
X131352172Y-142642469D01*
X131352172Y-142642469D02*
X131256934Y-142690088D01*
X131256934Y-142690088D02*
X130875982Y-142690088D01*
X131780744Y-143166279D02*
X132304553Y-142499612D01*
X131780744Y-142499612D02*
X132304553Y-143166279D01*
D10*
X141752857Y-122171331D02*
X141752857Y-122657045D01*
X141752857Y-122657045D02*
X141781428Y-122714188D01*
X141781428Y-122714188D02*
X141810000Y-122742760D01*
X141810000Y-122742760D02*
X141867142Y-122771331D01*
X141867142Y-122771331D02*
X141981428Y-122771331D01*
X141981428Y-122771331D02*
X142038571Y-122742760D01*
X142038571Y-122742760D02*
X142067142Y-122714188D01*
X142067142Y-122714188D02*
X142095714Y-122657045D01*
X142095714Y-122657045D02*
X142095714Y-122171331D01*
X142324285Y-122171331D02*
X142724285Y-122171331D01*
X142724285Y-122171331D02*
X142467142Y-122771331D01*
X144171331Y-122678571D02*
X143571331Y-122678571D01*
X143571331Y-122678571D02*
X143571331Y-122535714D01*
X143571331Y-122535714D02*
X143599902Y-122450000D01*
X143599902Y-122450000D02*
X143657045Y-122392857D01*
X143657045Y-122392857D02*
X143714188Y-122364286D01*
X143714188Y-122364286D02*
X143828474Y-122335714D01*
X143828474Y-122335714D02*
X143914188Y-122335714D01*
X143914188Y-122335714D02*
X144028474Y-122364286D01*
X144028474Y-122364286D02*
X144085617Y-122392857D01*
X144085617Y-122392857D02*
X144142760Y-122450000D01*
X144142760Y-122450000D02*
X144171331Y-122535714D01*
X144171331Y-122535714D02*
X144171331Y-122678571D01*
X143628474Y-122107143D02*
X143599902Y-122078571D01*
X143599902Y-122078571D02*
X143571331Y-122021429D01*
X143571331Y-122021429D02*
X143571331Y-121878571D01*
X143571331Y-121878571D02*
X143599902Y-121821429D01*
X143599902Y-121821429D02*
X143628474Y-121792857D01*
X143628474Y-121792857D02*
X143685617Y-121764286D01*
X143685617Y-121764286D02*
X143742760Y-121764286D01*
X143742760Y-121764286D02*
X143828474Y-121792857D01*
X143828474Y-121792857D02*
X144171331Y-122135714D01*
X144171331Y-122135714D02*
X144171331Y-121764286D01*
X143571331Y-121564285D02*
X143571331Y-121192857D01*
X143571331Y-121192857D02*
X143799902Y-121392857D01*
X143799902Y-121392857D02*
X143799902Y-121307142D01*
X143799902Y-121307142D02*
X143828474Y-121250000D01*
X143828474Y-121250000D02*
X143857045Y-121221428D01*
X143857045Y-121221428D02*
X143914188Y-121192857D01*
X143914188Y-121192857D02*
X144057045Y-121192857D01*
X144057045Y-121192857D02*
X144114188Y-121221428D01*
X144114188Y-121221428D02*
X144142760Y-121250000D01*
X144142760Y-121250000D02*
X144171331Y-121307142D01*
X144171331Y-121307142D02*
X144171331Y-121478571D01*
X144171331Y-121478571D02*
X144142760Y-121535714D01*
X144142760Y-121535714D02*
X144114188Y-121564285D01*
X169021331Y-140800000D02*
X169449902Y-140800000D01*
X169449902Y-140800000D02*
X169535617Y-140828571D01*
X169535617Y-140828571D02*
X169592760Y-140885714D01*
X169592760Y-140885714D02*
X169621331Y-140971428D01*
X169621331Y-140971428D02*
X169621331Y-141028571D01*
X169621331Y-140200000D02*
X169621331Y-140542857D01*
X169621331Y-140371428D02*
X169021331Y-140371428D01*
X169021331Y-140371428D02*
X169107045Y-140428571D01*
X169107045Y-140428571D02*
X169164188Y-140485714D01*
X169164188Y-140485714D02*
X169192760Y-140542857D01*
X134589285Y-115591331D02*
X134389285Y-115305617D01*
X134246428Y-115591331D02*
X134246428Y-114991331D01*
X134246428Y-114991331D02*
X134474999Y-114991331D01*
X134474999Y-114991331D02*
X134532142Y-115019902D01*
X134532142Y-115019902D02*
X134560713Y-115048474D01*
X134560713Y-115048474D02*
X134589285Y-115105617D01*
X134589285Y-115105617D02*
X134589285Y-115191331D01*
X134589285Y-115191331D02*
X134560713Y-115248474D01*
X134560713Y-115248474D02*
X134532142Y-115277045D01*
X134532142Y-115277045D02*
X134474999Y-115305617D01*
X134474999Y-115305617D02*
X134246428Y-115305617D01*
X134817856Y-115048474D02*
X134846428Y-115019902D01*
X134846428Y-115019902D02*
X134903571Y-114991331D01*
X134903571Y-114991331D02*
X135046428Y-114991331D01*
X135046428Y-114991331D02*
X135103571Y-115019902D01*
X135103571Y-115019902D02*
X135132142Y-115048474D01*
X135132142Y-115048474D02*
X135160713Y-115105617D01*
X135160713Y-115105617D02*
X135160713Y-115162760D01*
X135160713Y-115162760D02*
X135132142Y-115248474D01*
X135132142Y-115248474D02*
X134789285Y-115591331D01*
X134789285Y-115591331D02*
X135160713Y-115591331D01*
X135732142Y-115591331D02*
X135389285Y-115591331D01*
X135560714Y-115591331D02*
X135560714Y-114991331D01*
X135560714Y-114991331D02*
X135503571Y-115077045D01*
X135503571Y-115077045D02*
X135446428Y-115134188D01*
X135446428Y-115134188D02*
X135389285Y-115162760D01*
X128814285Y-140321331D02*
X128614285Y-140035617D01*
X128471428Y-140321331D02*
X128471428Y-139721331D01*
X128471428Y-139721331D02*
X128699999Y-139721331D01*
X128699999Y-139721331D02*
X128757142Y-139749902D01*
X128757142Y-139749902D02*
X128785713Y-139778474D01*
X128785713Y-139778474D02*
X128814285Y-139835617D01*
X128814285Y-139835617D02*
X128814285Y-139921331D01*
X128814285Y-139921331D02*
X128785713Y-139978474D01*
X128785713Y-139978474D02*
X128757142Y-140007045D01*
X128757142Y-140007045D02*
X128699999Y-140035617D01*
X128699999Y-140035617D02*
X128471428Y-140035617D01*
X129385713Y-140321331D02*
X129042856Y-140321331D01*
X129214285Y-140321331D02*
X129214285Y-139721331D01*
X129214285Y-139721331D02*
X129157142Y-139807045D01*
X129157142Y-139807045D02*
X129099999Y-139864188D01*
X129099999Y-139864188D02*
X129042856Y-139892760D01*
X129957142Y-140321331D02*
X129614285Y-140321331D01*
X129785714Y-140321331D02*
X129785714Y-139721331D01*
X129785714Y-139721331D02*
X129728571Y-139807045D01*
X129728571Y-139807045D02*
X129671428Y-139864188D01*
X129671428Y-139864188D02*
X129614285Y-139892760D01*
X136614285Y-140521331D02*
X136414285Y-140235617D01*
X136271428Y-140521331D02*
X136271428Y-139921331D01*
X136271428Y-139921331D02*
X136499999Y-139921331D01*
X136499999Y-139921331D02*
X136557142Y-139949902D01*
X136557142Y-139949902D02*
X136585713Y-139978474D01*
X136585713Y-139978474D02*
X136614285Y-140035617D01*
X136614285Y-140035617D02*
X136614285Y-140121331D01*
X136614285Y-140121331D02*
X136585713Y-140178474D01*
X136585713Y-140178474D02*
X136557142Y-140207045D01*
X136557142Y-140207045D02*
X136499999Y-140235617D01*
X136499999Y-140235617D02*
X136271428Y-140235617D01*
X137185713Y-140521331D02*
X136842856Y-140521331D01*
X137014285Y-140521331D02*
X137014285Y-139921331D01*
X137014285Y-139921331D02*
X136957142Y-140007045D01*
X136957142Y-140007045D02*
X136899999Y-140064188D01*
X136899999Y-140064188D02*
X136842856Y-140092760D01*
X137557142Y-139921331D02*
X137614285Y-139921331D01*
X137614285Y-139921331D02*
X137671428Y-139949902D01*
X137671428Y-139949902D02*
X137700000Y-139978474D01*
X137700000Y-139978474D02*
X137728571Y-140035617D01*
X137728571Y-140035617D02*
X137757142Y-140149902D01*
X137757142Y-140149902D02*
X137757142Y-140292760D01*
X137757142Y-140292760D02*
X137728571Y-140407045D01*
X137728571Y-140407045D02*
X137700000Y-140464188D01*
X137700000Y-140464188D02*
X137671428Y-140492760D01*
X137671428Y-140492760D02*
X137614285Y-140521331D01*
X137614285Y-140521331D02*
X137557142Y-140521331D01*
X137557142Y-140521331D02*
X137500000Y-140492760D01*
X137500000Y-140492760D02*
X137471428Y-140464188D01*
X137471428Y-140464188D02*
X137442857Y-140407045D01*
X137442857Y-140407045D02*
X137414285Y-140292760D01*
X137414285Y-140292760D02*
X137414285Y-140149902D01*
X137414285Y-140149902D02*
X137442857Y-140035617D01*
X137442857Y-140035617D02*
X137471428Y-139978474D01*
X137471428Y-139978474D02*
X137500000Y-139949902D01*
X137500000Y-139949902D02*
X137557142Y-139921331D01*
X131600000Y-102196331D02*
X131400000Y-101910617D01*
X131257143Y-102196331D02*
X131257143Y-101596331D01*
X131257143Y-101596331D02*
X131485714Y-101596331D01*
X131485714Y-101596331D02*
X131542857Y-101624902D01*
X131542857Y-101624902D02*
X131571428Y-101653474D01*
X131571428Y-101653474D02*
X131600000Y-101710617D01*
X131600000Y-101710617D02*
X131600000Y-101796331D01*
X131600000Y-101796331D02*
X131571428Y-101853474D01*
X131571428Y-101853474D02*
X131542857Y-101882045D01*
X131542857Y-101882045D02*
X131485714Y-101910617D01*
X131485714Y-101910617D02*
X131257143Y-101910617D01*
X131828571Y-101653474D02*
X131857143Y-101624902D01*
X131857143Y-101624902D02*
X131914286Y-101596331D01*
X131914286Y-101596331D02*
X132057143Y-101596331D01*
X132057143Y-101596331D02*
X132114286Y-101624902D01*
X132114286Y-101624902D02*
X132142857Y-101653474D01*
X132142857Y-101653474D02*
X132171428Y-101710617D01*
X132171428Y-101710617D02*
X132171428Y-101767760D01*
X132171428Y-101767760D02*
X132142857Y-101853474D01*
X132142857Y-101853474D02*
X131800000Y-102196331D01*
X131800000Y-102196331D02*
X132171428Y-102196331D01*
X126270066Y-141716694D02*
X126270066Y-141116694D01*
X126270066Y-141116694D02*
X126412923Y-141116694D01*
X126412923Y-141116694D02*
X126498637Y-141145265D01*
X126498637Y-141145265D02*
X126555780Y-141202408D01*
X126555780Y-141202408D02*
X126584351Y-141259551D01*
X126584351Y-141259551D02*
X126612923Y-141373837D01*
X126612923Y-141373837D02*
X126612923Y-141459551D01*
X126612923Y-141459551D02*
X126584351Y-141573837D01*
X126584351Y-141573837D02*
X126555780Y-141630980D01*
X126555780Y-141630980D02*
X126498637Y-141688123D01*
X126498637Y-141688123D02*
X126412923Y-141716694D01*
X126412923Y-141716694D02*
X126270066Y-141716694D01*
X127155780Y-141116694D02*
X126870066Y-141116694D01*
X126870066Y-141116694D02*
X126841494Y-141402408D01*
X126841494Y-141402408D02*
X126870066Y-141373837D01*
X126870066Y-141373837D02*
X126927209Y-141345265D01*
X126927209Y-141345265D02*
X127070066Y-141345265D01*
X127070066Y-141345265D02*
X127127209Y-141373837D01*
X127127209Y-141373837D02*
X127155780Y-141402408D01*
X127155780Y-141402408D02*
X127184351Y-141459551D01*
X127184351Y-141459551D02*
X127184351Y-141602408D01*
X127184351Y-141602408D02*
X127155780Y-141659551D01*
X127155780Y-141659551D02*
X127127209Y-141688123D01*
X127127209Y-141688123D02*
X127070066Y-141716694D01*
X127070066Y-141716694D02*
X126927209Y-141716694D01*
X126927209Y-141716694D02*
X126870066Y-141688123D01*
X126870066Y-141688123D02*
X126841494Y-141659551D01*
D11*
X123321058Y-141996765D02*
X123892486Y-141996765D01*
X123606772Y-142996765D02*
X123606772Y-141996765D01*
X124130582Y-142996765D02*
X124654391Y-142330098D01*
X124130582Y-142330098D02*
X124654391Y-142996765D01*
D10*
X129364382Y-105114285D02*
X129078668Y-105114285D01*
X129678668Y-104914285D02*
X129364382Y-105114285D01*
X129364382Y-105114285D02*
X129678668Y-105314285D01*
X129078668Y-105828571D02*
X129078668Y-105485714D01*
X129078668Y-105657143D02*
X129678668Y-105657143D01*
X129678668Y-105657143D02*
X129592954Y-105600000D01*
X129592954Y-105600000D02*
X129535811Y-105542857D01*
X129535811Y-105542857D02*
X129507240Y-105485714D01*
X180407143Y-76257045D02*
X180207143Y-76257045D01*
X180207143Y-76571331D02*
X180207143Y-75971331D01*
X180207143Y-75971331D02*
X180492857Y-75971331D01*
X180721429Y-76571331D02*
X180721429Y-75971331D01*
X181007143Y-76571331D02*
X181007143Y-75971331D01*
X181007143Y-75971331D02*
X181150000Y-75971331D01*
X181150000Y-75971331D02*
X181235714Y-75999902D01*
X181235714Y-75999902D02*
X181292857Y-76057045D01*
X181292857Y-76057045D02*
X181321428Y-76114188D01*
X181321428Y-76114188D02*
X181350000Y-76228474D01*
X181350000Y-76228474D02*
X181350000Y-76314188D01*
X181350000Y-76314188D02*
X181321428Y-76428474D01*
X181321428Y-76428474D02*
X181292857Y-76485617D01*
X181292857Y-76485617D02*
X181235714Y-76542760D01*
X181235714Y-76542760D02*
X181150000Y-76571331D01*
X181150000Y-76571331D02*
X181007143Y-76571331D01*
X181578571Y-76028474D02*
X181607143Y-75999902D01*
X181607143Y-75999902D02*
X181664286Y-75971331D01*
X181664286Y-75971331D02*
X181807143Y-75971331D01*
X181807143Y-75971331D02*
X181864286Y-75999902D01*
X181864286Y-75999902D02*
X181892857Y-76028474D01*
X181892857Y-76028474D02*
X181921428Y-76085617D01*
X181921428Y-76085617D02*
X181921428Y-76142760D01*
X181921428Y-76142760D02*
X181892857Y-76228474D01*
X181892857Y-76228474D02*
X181550000Y-76571331D01*
X181550000Y-76571331D02*
X181921428Y-76571331D01*
D11*
X120123810Y-96754819D02*
X120123810Y-95754819D01*
X121171428Y-96659580D02*
X121123809Y-96707200D01*
X121123809Y-96707200D02*
X120980952Y-96754819D01*
X120980952Y-96754819D02*
X120885714Y-96754819D01*
X120885714Y-96754819D02*
X120742857Y-96707200D01*
X120742857Y-96707200D02*
X120647619Y-96611961D01*
X120647619Y-96611961D02*
X120600000Y-96516723D01*
X120600000Y-96516723D02*
X120552381Y-96326247D01*
X120552381Y-96326247D02*
X120552381Y-96183390D01*
X120552381Y-96183390D02*
X120600000Y-95992914D01*
X120600000Y-95992914D02*
X120647619Y-95897676D01*
X120647619Y-95897676D02*
X120742857Y-95802438D01*
X120742857Y-95802438D02*
X120885714Y-95754819D01*
X120885714Y-95754819D02*
X120980952Y-95754819D01*
X120980952Y-95754819D02*
X121123809Y-95802438D01*
X121123809Y-95802438D02*
X121171428Y-95850057D01*
X121552381Y-96707200D02*
X121695238Y-96754819D01*
X121695238Y-96754819D02*
X121933333Y-96754819D01*
X121933333Y-96754819D02*
X122028571Y-96707200D01*
X122028571Y-96707200D02*
X122076190Y-96659580D01*
X122076190Y-96659580D02*
X122123809Y-96564342D01*
X122123809Y-96564342D02*
X122123809Y-96469104D01*
X122123809Y-96469104D02*
X122076190Y-96373866D01*
X122076190Y-96373866D02*
X122028571Y-96326247D01*
X122028571Y-96326247D02*
X121933333Y-96278628D01*
X121933333Y-96278628D02*
X121742857Y-96231009D01*
X121742857Y-96231009D02*
X121647619Y-96183390D01*
X121647619Y-96183390D02*
X121600000Y-96135771D01*
X121600000Y-96135771D02*
X121552381Y-96040533D01*
X121552381Y-96040533D02*
X121552381Y-95945295D01*
X121552381Y-95945295D02*
X121600000Y-95850057D01*
X121600000Y-95850057D02*
X121647619Y-95802438D01*
X121647619Y-95802438D02*
X121742857Y-95754819D01*
X121742857Y-95754819D02*
X121980952Y-95754819D01*
X121980952Y-95754819D02*
X122123809Y-95802438D01*
X122552381Y-96754819D02*
X122552381Y-95754819D01*
X122552381Y-95754819D02*
X122933333Y-95754819D01*
X122933333Y-95754819D02*
X123028571Y-95802438D01*
X123028571Y-95802438D02*
X123076190Y-95850057D01*
X123076190Y-95850057D02*
X123123809Y-95945295D01*
X123123809Y-95945295D02*
X123123809Y-96088152D01*
X123123809Y-96088152D02*
X123076190Y-96183390D01*
X123076190Y-96183390D02*
X123028571Y-96231009D01*
X123028571Y-96231009D02*
X122933333Y-96278628D01*
X122933333Y-96278628D02*
X122552381Y-96278628D01*
D12*
X117957142Y-105372371D02*
X117957142Y-105858085D01*
X117957142Y-105858085D02*
X117985713Y-105915228D01*
X117985713Y-105915228D02*
X118014285Y-105943800D01*
X118014285Y-105943800D02*
X118071427Y-105972371D01*
X118071427Y-105972371D02*
X118185713Y-105972371D01*
X118185713Y-105972371D02*
X118242856Y-105943800D01*
X118242856Y-105943800D02*
X118271427Y-105915228D01*
X118271427Y-105915228D02*
X118299999Y-105858085D01*
X118299999Y-105858085D02*
X118299999Y-105372371D01*
X118557141Y-105943800D02*
X118642856Y-105972371D01*
X118642856Y-105972371D02*
X118785713Y-105972371D01*
X118785713Y-105972371D02*
X118842856Y-105943800D01*
X118842856Y-105943800D02*
X118871427Y-105915228D01*
X118871427Y-105915228D02*
X118899998Y-105858085D01*
X118899998Y-105858085D02*
X118899998Y-105800942D01*
X118899998Y-105800942D02*
X118871427Y-105743800D01*
X118871427Y-105743800D02*
X118842856Y-105715228D01*
X118842856Y-105715228D02*
X118785713Y-105686657D01*
X118785713Y-105686657D02*
X118671427Y-105658085D01*
X118671427Y-105658085D02*
X118614284Y-105629514D01*
X118614284Y-105629514D02*
X118585713Y-105600942D01*
X118585713Y-105600942D02*
X118557141Y-105543800D01*
X118557141Y-105543800D02*
X118557141Y-105486657D01*
X118557141Y-105486657D02*
X118585713Y-105429514D01*
X118585713Y-105429514D02*
X118614284Y-105400942D01*
X118614284Y-105400942D02*
X118671427Y-105372371D01*
X118671427Y-105372371D02*
X118814284Y-105372371D01*
X118814284Y-105372371D02*
X118899998Y-105400942D01*
X119157142Y-105658085D02*
X119357142Y-105658085D01*
X119442856Y-105972371D02*
X119157142Y-105972371D01*
X119157142Y-105972371D02*
X119157142Y-105372371D01*
X119157142Y-105372371D02*
X119442856Y-105372371D01*
X120071427Y-105372371D02*
X120414285Y-105372371D01*
X120242856Y-105972371D02*
X120242856Y-105372371D01*
X120957142Y-105915228D02*
X120928570Y-105943800D01*
X120928570Y-105943800D02*
X120842856Y-105972371D01*
X120842856Y-105972371D02*
X120785713Y-105972371D01*
X120785713Y-105972371D02*
X120699999Y-105943800D01*
X120699999Y-105943800D02*
X120642856Y-105886657D01*
X120642856Y-105886657D02*
X120614285Y-105829514D01*
X120614285Y-105829514D02*
X120585713Y-105715228D01*
X120585713Y-105715228D02*
X120585713Y-105629514D01*
X120585713Y-105629514D02*
X120614285Y-105515228D01*
X120614285Y-105515228D02*
X120642856Y-105458085D01*
X120642856Y-105458085D02*
X120699999Y-105400942D01*
X120699999Y-105400942D02*
X120785713Y-105372371D01*
X120785713Y-105372371D02*
X120842856Y-105372371D01*
X120842856Y-105372371D02*
X120928570Y-105400942D01*
X120928570Y-105400942D02*
X120957142Y-105429514D01*
X121185713Y-105429514D02*
X121214285Y-105400942D01*
X121214285Y-105400942D02*
X121271428Y-105372371D01*
X121271428Y-105372371D02*
X121414285Y-105372371D01*
X121414285Y-105372371D02*
X121471428Y-105400942D01*
X121471428Y-105400942D02*
X121499999Y-105429514D01*
X121499999Y-105429514D02*
X121528570Y-105486657D01*
X121528570Y-105486657D02*
X121528570Y-105543800D01*
X121528570Y-105543800D02*
X121499999Y-105629514D01*
X121499999Y-105629514D02*
X121157142Y-105972371D01*
X121157142Y-105972371D02*
X121528570Y-105972371D01*
X121899999Y-105372371D02*
X121957142Y-105372371D01*
X121957142Y-105372371D02*
X122014285Y-105400942D01*
X122014285Y-105400942D02*
X122042857Y-105429514D01*
X122042857Y-105429514D02*
X122071428Y-105486657D01*
X122071428Y-105486657D02*
X122099999Y-105600942D01*
X122099999Y-105600942D02*
X122099999Y-105743800D01*
X122099999Y-105743800D02*
X122071428Y-105858085D01*
X122071428Y-105858085D02*
X122042857Y-105915228D01*
X122042857Y-105915228D02*
X122014285Y-105943800D01*
X122014285Y-105943800D02*
X121957142Y-105972371D01*
X121957142Y-105972371D02*
X121899999Y-105972371D01*
X121899999Y-105972371D02*
X121842857Y-105943800D01*
X121842857Y-105943800D02*
X121814285Y-105915228D01*
X121814285Y-105915228D02*
X121785714Y-105858085D01*
X121785714Y-105858085D02*
X121757142Y-105743800D01*
X121757142Y-105743800D02*
X121757142Y-105600942D01*
X121757142Y-105600942D02*
X121785714Y-105486657D01*
X121785714Y-105486657D02*
X121814285Y-105429514D01*
X121814285Y-105429514D02*
X121842857Y-105400942D01*
X121842857Y-105400942D02*
X121899999Y-105372371D01*
X122300000Y-105372371D02*
X122671428Y-105372371D01*
X122671428Y-105372371D02*
X122471428Y-105600942D01*
X122471428Y-105600942D02*
X122557143Y-105600942D01*
X122557143Y-105600942D02*
X122614286Y-105629514D01*
X122614286Y-105629514D02*
X122642857Y-105658085D01*
X122642857Y-105658085D02*
X122671428Y-105715228D01*
X122671428Y-105715228D02*
X122671428Y-105858085D01*
X122671428Y-105858085D02*
X122642857Y-105915228D01*
X122642857Y-105915228D02*
X122614286Y-105943800D01*
X122614286Y-105943800D02*
X122557143Y-105972371D01*
X122557143Y-105972371D02*
X122385714Y-105972371D01*
X122385714Y-105972371D02*
X122328571Y-105943800D01*
X122328571Y-105943800D02*
X122300000Y-105915228D01*
X123042857Y-105372371D02*
X123100000Y-105372371D01*
X123100000Y-105372371D02*
X123157143Y-105400942D01*
X123157143Y-105400942D02*
X123185715Y-105429514D01*
X123185715Y-105429514D02*
X123214286Y-105486657D01*
X123214286Y-105486657D02*
X123242857Y-105600942D01*
X123242857Y-105600942D02*
X123242857Y-105743800D01*
X123242857Y-105743800D02*
X123214286Y-105858085D01*
X123214286Y-105858085D02*
X123185715Y-105915228D01*
X123185715Y-105915228D02*
X123157143Y-105943800D01*
X123157143Y-105943800D02*
X123100000Y-105972371D01*
X123100000Y-105972371D02*
X123042857Y-105972371D01*
X123042857Y-105972371D02*
X122985715Y-105943800D01*
X122985715Y-105943800D02*
X122957143Y-105915228D01*
X122957143Y-105915228D02*
X122928572Y-105858085D01*
X122928572Y-105858085D02*
X122900000Y-105743800D01*
X122900000Y-105743800D02*
X122900000Y-105600942D01*
X122900000Y-105600942D02*
X122928572Y-105486657D01*
X122928572Y-105486657D02*
X122957143Y-105429514D01*
X122957143Y-105429514D02*
X122985715Y-105400942D01*
X122985715Y-105400942D02*
X123042857Y-105372371D01*
X123500001Y-105743800D02*
X123957144Y-105743800D01*
X124242858Y-105972371D02*
X124242858Y-105372371D01*
X124528572Y-105972371D02*
X124528572Y-105372371D01*
X124528572Y-105372371D02*
X124671429Y-105372371D01*
X124671429Y-105372371D02*
X124757143Y-105400942D01*
X124757143Y-105400942D02*
X124814286Y-105458085D01*
X124814286Y-105458085D02*
X124842857Y-105515228D01*
X124842857Y-105515228D02*
X124871429Y-105629514D01*
X124871429Y-105629514D02*
X124871429Y-105715228D01*
X124871429Y-105715228D02*
X124842857Y-105829514D01*
X124842857Y-105829514D02*
X124814286Y-105886657D01*
X124814286Y-105886657D02*
X124757143Y-105943800D01*
X124757143Y-105943800D02*
X124671429Y-105972371D01*
X124671429Y-105972371D02*
X124528572Y-105972371D01*
X125471429Y-105915228D02*
X125442857Y-105943800D01*
X125442857Y-105943800D02*
X125357143Y-105972371D01*
X125357143Y-105972371D02*
X125300000Y-105972371D01*
X125300000Y-105972371D02*
X125214286Y-105943800D01*
X125214286Y-105943800D02*
X125157143Y-105886657D01*
X125157143Y-105886657D02*
X125128572Y-105829514D01*
X125128572Y-105829514D02*
X125100000Y-105715228D01*
X125100000Y-105715228D02*
X125100000Y-105629514D01*
X125100000Y-105629514D02*
X125128572Y-105515228D01*
X125128572Y-105515228D02*
X125157143Y-105458085D01*
X125157143Y-105458085D02*
X125214286Y-105400942D01*
X125214286Y-105400942D02*
X125300000Y-105372371D01*
X125300000Y-105372371D02*
X125357143Y-105372371D01*
X125357143Y-105372371D02*
X125442857Y-105400942D01*
X125442857Y-105400942D02*
X125471429Y-105429514D01*
D10*
X118657143Y-130507045D02*
X118457143Y-130507045D01*
X118457143Y-130821331D02*
X118457143Y-130221331D01*
X118457143Y-130221331D02*
X118742857Y-130221331D01*
X118971429Y-130821331D02*
X118971429Y-130221331D01*
X119257143Y-130821331D02*
X119257143Y-130221331D01*
X119257143Y-130221331D02*
X119400000Y-130221331D01*
X119400000Y-130221331D02*
X119485714Y-130249902D01*
X119485714Y-130249902D02*
X119542857Y-130307045D01*
X119542857Y-130307045D02*
X119571428Y-130364188D01*
X119571428Y-130364188D02*
X119600000Y-130478474D01*
X119600000Y-130478474D02*
X119600000Y-130564188D01*
X119600000Y-130564188D02*
X119571428Y-130678474D01*
X119571428Y-130678474D02*
X119542857Y-130735617D01*
X119542857Y-130735617D02*
X119485714Y-130792760D01*
X119485714Y-130792760D02*
X119400000Y-130821331D01*
X119400000Y-130821331D02*
X119257143Y-130821331D01*
X119800000Y-130221331D02*
X120171428Y-130221331D01*
X120171428Y-130221331D02*
X119971428Y-130449902D01*
X119971428Y-130449902D02*
X120057143Y-130449902D01*
X120057143Y-130449902D02*
X120114286Y-130478474D01*
X120114286Y-130478474D02*
X120142857Y-130507045D01*
X120142857Y-130507045D02*
X120171428Y-130564188D01*
X120171428Y-130564188D02*
X120171428Y-130707045D01*
X120171428Y-130707045D02*
X120142857Y-130764188D01*
X120142857Y-130764188D02*
X120114286Y-130792760D01*
X120114286Y-130792760D02*
X120057143Y-130821331D01*
X120057143Y-130821331D02*
X119885714Y-130821331D01*
X119885714Y-130821331D02*
X119828571Y-130792760D01*
X119828571Y-130792760D02*
X119800000Y-130764188D01*
X129464285Y-126189188D02*
X129435713Y-126217760D01*
X129435713Y-126217760D02*
X129349999Y-126246331D01*
X129349999Y-126246331D02*
X129292856Y-126246331D01*
X129292856Y-126246331D02*
X129207142Y-126217760D01*
X129207142Y-126217760D02*
X129149999Y-126160617D01*
X129149999Y-126160617D02*
X129121428Y-126103474D01*
X129121428Y-126103474D02*
X129092856Y-125989188D01*
X129092856Y-125989188D02*
X129092856Y-125903474D01*
X129092856Y-125903474D02*
X129121428Y-125789188D01*
X129121428Y-125789188D02*
X129149999Y-125732045D01*
X129149999Y-125732045D02*
X129207142Y-125674902D01*
X129207142Y-125674902D02*
X129292856Y-125646331D01*
X129292856Y-125646331D02*
X129349999Y-125646331D01*
X129349999Y-125646331D02*
X129435713Y-125674902D01*
X129435713Y-125674902D02*
X129464285Y-125703474D01*
X129978571Y-125846331D02*
X129978571Y-126246331D01*
X129835713Y-125617760D02*
X129692856Y-126046331D01*
X129692856Y-126046331D02*
X130064285Y-126046331D01*
X130407142Y-125646331D02*
X130464285Y-125646331D01*
X130464285Y-125646331D02*
X130521428Y-125674902D01*
X130521428Y-125674902D02*
X130550000Y-125703474D01*
X130550000Y-125703474D02*
X130578571Y-125760617D01*
X130578571Y-125760617D02*
X130607142Y-125874902D01*
X130607142Y-125874902D02*
X130607142Y-126017760D01*
X130607142Y-126017760D02*
X130578571Y-126132045D01*
X130578571Y-126132045D02*
X130550000Y-126189188D01*
X130550000Y-126189188D02*
X130521428Y-126217760D01*
X130521428Y-126217760D02*
X130464285Y-126246331D01*
X130464285Y-126246331D02*
X130407142Y-126246331D01*
X130407142Y-126246331D02*
X130350000Y-126217760D01*
X130350000Y-126217760D02*
X130321428Y-126189188D01*
X130321428Y-126189188D02*
X130292857Y-126132045D01*
X130292857Y-126132045D02*
X130264285Y-126017760D01*
X130264285Y-126017760D02*
X130264285Y-125874902D01*
X130264285Y-125874902D02*
X130292857Y-125760617D01*
X130292857Y-125760617D02*
X130321428Y-125703474D01*
X130321428Y-125703474D02*
X130350000Y-125674902D01*
X130350000Y-125674902D02*
X130407142Y-125646331D01*
X131014188Y-132185714D02*
X131042760Y-132214286D01*
X131042760Y-132214286D02*
X131071331Y-132300000D01*
X131071331Y-132300000D02*
X131071331Y-132357143D01*
X131071331Y-132357143D02*
X131042760Y-132442857D01*
X131042760Y-132442857D02*
X130985617Y-132500000D01*
X130985617Y-132500000D02*
X130928474Y-132528571D01*
X130928474Y-132528571D02*
X130814188Y-132557143D01*
X130814188Y-132557143D02*
X130728474Y-132557143D01*
X130728474Y-132557143D02*
X130614188Y-132528571D01*
X130614188Y-132528571D02*
X130557045Y-132500000D01*
X130557045Y-132500000D02*
X130499902Y-132442857D01*
X130499902Y-132442857D02*
X130471331Y-132357143D01*
X130471331Y-132357143D02*
X130471331Y-132300000D01*
X130471331Y-132300000D02*
X130499902Y-132214286D01*
X130499902Y-132214286D02*
X130528474Y-132185714D01*
X130671331Y-131671429D02*
X131071331Y-131671429D01*
X130442760Y-131814286D02*
X130871331Y-131957143D01*
X130871331Y-131957143D02*
X130871331Y-131585714D01*
X131071331Y-131042857D02*
X131071331Y-131385714D01*
X131071331Y-131214285D02*
X130471331Y-131214285D01*
X130471331Y-131214285D02*
X130557045Y-131271428D01*
X130557045Y-131271428D02*
X130614188Y-131328571D01*
X130614188Y-131328571D02*
X130642760Y-131385714D01*
X128664285Y-136464188D02*
X128635713Y-136492760D01*
X128635713Y-136492760D02*
X128549999Y-136521331D01*
X128549999Y-136521331D02*
X128492856Y-136521331D01*
X128492856Y-136521331D02*
X128407142Y-136492760D01*
X128407142Y-136492760D02*
X128349999Y-136435617D01*
X128349999Y-136435617D02*
X128321428Y-136378474D01*
X128321428Y-136378474D02*
X128292856Y-136264188D01*
X128292856Y-136264188D02*
X128292856Y-136178474D01*
X128292856Y-136178474D02*
X128321428Y-136064188D01*
X128321428Y-136064188D02*
X128349999Y-136007045D01*
X128349999Y-136007045D02*
X128407142Y-135949902D01*
X128407142Y-135949902D02*
X128492856Y-135921331D01*
X128492856Y-135921331D02*
X128549999Y-135921331D01*
X128549999Y-135921331D02*
X128635713Y-135949902D01*
X128635713Y-135949902D02*
X128664285Y-135978474D01*
X129178571Y-136121331D02*
X129178571Y-136521331D01*
X129035713Y-135892760D02*
X128892856Y-136321331D01*
X128892856Y-136321331D02*
X129264285Y-136321331D01*
X129750000Y-136121331D02*
X129750000Y-136521331D01*
X129607142Y-135892760D02*
X129464285Y-136321331D01*
X129464285Y-136321331D02*
X129835714Y-136321331D01*
X125358831Y-120200000D02*
X125787402Y-120200000D01*
X125787402Y-120200000D02*
X125873117Y-120228571D01*
X125873117Y-120228571D02*
X125930260Y-120285714D01*
X125930260Y-120285714D02*
X125958831Y-120371428D01*
X125958831Y-120371428D02*
X125958831Y-120428571D01*
X125958831Y-119885714D02*
X125958831Y-119771428D01*
X125958831Y-119771428D02*
X125930260Y-119714285D01*
X125930260Y-119714285D02*
X125901688Y-119685714D01*
X125901688Y-119685714D02*
X125815974Y-119628571D01*
X125815974Y-119628571D02*
X125701688Y-119600000D01*
X125701688Y-119600000D02*
X125473117Y-119600000D01*
X125473117Y-119600000D02*
X125415974Y-119628571D01*
X125415974Y-119628571D02*
X125387402Y-119657143D01*
X125387402Y-119657143D02*
X125358831Y-119714285D01*
X125358831Y-119714285D02*
X125358831Y-119828571D01*
X125358831Y-119828571D02*
X125387402Y-119885714D01*
X125387402Y-119885714D02*
X125415974Y-119914285D01*
X125415974Y-119914285D02*
X125473117Y-119942857D01*
X125473117Y-119942857D02*
X125615974Y-119942857D01*
X125615974Y-119942857D02*
X125673117Y-119914285D01*
X125673117Y-119914285D02*
X125701688Y-119885714D01*
X125701688Y-119885714D02*
X125730260Y-119828571D01*
X125730260Y-119828571D02*
X125730260Y-119714285D01*
X125730260Y-119714285D02*
X125701688Y-119657143D01*
X125701688Y-119657143D02*
X125673117Y-119628571D01*
X125673117Y-119628571D02*
X125615974Y-119600000D01*
X124939285Y-135971331D02*
X124739285Y-135685617D01*
X124596428Y-135971331D02*
X124596428Y-135371331D01*
X124596428Y-135371331D02*
X124824999Y-135371331D01*
X124824999Y-135371331D02*
X124882142Y-135399902D01*
X124882142Y-135399902D02*
X124910713Y-135428474D01*
X124910713Y-135428474D02*
X124939285Y-135485617D01*
X124939285Y-135485617D02*
X124939285Y-135571331D01*
X124939285Y-135571331D02*
X124910713Y-135628474D01*
X124910713Y-135628474D02*
X124882142Y-135657045D01*
X124882142Y-135657045D02*
X124824999Y-135685617D01*
X124824999Y-135685617D02*
X124596428Y-135685617D01*
X125510713Y-135971331D02*
X125167856Y-135971331D01*
X125339285Y-135971331D02*
X125339285Y-135371331D01*
X125339285Y-135371331D02*
X125282142Y-135457045D01*
X125282142Y-135457045D02*
X125224999Y-135514188D01*
X125224999Y-135514188D02*
X125167856Y-135542760D01*
X126025000Y-135371331D02*
X125910714Y-135371331D01*
X125910714Y-135371331D02*
X125853571Y-135399902D01*
X125853571Y-135399902D02*
X125825000Y-135428474D01*
X125825000Y-135428474D02*
X125767857Y-135514188D01*
X125767857Y-135514188D02*
X125739285Y-135628474D01*
X125739285Y-135628474D02*
X125739285Y-135857045D01*
X125739285Y-135857045D02*
X125767857Y-135914188D01*
X125767857Y-135914188D02*
X125796428Y-135942760D01*
X125796428Y-135942760D02*
X125853571Y-135971331D01*
X125853571Y-135971331D02*
X125967857Y-135971331D01*
X125967857Y-135971331D02*
X126025000Y-135942760D01*
X126025000Y-135942760D02*
X126053571Y-135914188D01*
X126053571Y-135914188D02*
X126082142Y-135857045D01*
X126082142Y-135857045D02*
X126082142Y-135714188D01*
X126082142Y-135714188D02*
X126053571Y-135657045D01*
X126053571Y-135657045D02*
X126025000Y-135628474D01*
X126025000Y-135628474D02*
X125967857Y-135599902D01*
X125967857Y-135599902D02*
X125853571Y-135599902D01*
X125853571Y-135599902D02*
X125796428Y-135628474D01*
X125796428Y-135628474D02*
X125767857Y-135657045D01*
X125767857Y-135657045D02*
X125739285Y-135714188D01*
X122485714Y-135735811D02*
X122514286Y-135707240D01*
X122514286Y-135707240D02*
X122600000Y-135678668D01*
X122600000Y-135678668D02*
X122657143Y-135678668D01*
X122657143Y-135678668D02*
X122742857Y-135707240D01*
X122742857Y-135707240D02*
X122800000Y-135764382D01*
X122800000Y-135764382D02*
X122828571Y-135821525D01*
X122828571Y-135821525D02*
X122857143Y-135935811D01*
X122857143Y-135935811D02*
X122857143Y-136021525D01*
X122857143Y-136021525D02*
X122828571Y-136135811D01*
X122828571Y-136135811D02*
X122800000Y-136192954D01*
X122800000Y-136192954D02*
X122742857Y-136250097D01*
X122742857Y-136250097D02*
X122657143Y-136278668D01*
X122657143Y-136278668D02*
X122600000Y-136278668D01*
X122600000Y-136278668D02*
X122514286Y-136250097D01*
X122514286Y-136250097D02*
X122485714Y-136221525D01*
X121914286Y-135678668D02*
X122257143Y-135678668D01*
X122085714Y-135678668D02*
X122085714Y-136278668D01*
X122085714Y-136278668D02*
X122142857Y-136192954D01*
X122142857Y-136192954D02*
X122200000Y-136135811D01*
X122200000Y-136135811D02*
X122257143Y-136107240D01*
X121542857Y-136278668D02*
X121485714Y-136278668D01*
X121485714Y-136278668D02*
X121428571Y-136250097D01*
X121428571Y-136250097D02*
X121400000Y-136221525D01*
X121400000Y-136221525D02*
X121371428Y-136164382D01*
X121371428Y-136164382D02*
X121342857Y-136050097D01*
X121342857Y-136050097D02*
X121342857Y-135907240D01*
X121342857Y-135907240D02*
X121371428Y-135792954D01*
X121371428Y-135792954D02*
X121400000Y-135735811D01*
X121400000Y-135735811D02*
X121428571Y-135707240D01*
X121428571Y-135707240D02*
X121485714Y-135678668D01*
X121485714Y-135678668D02*
X121542857Y-135678668D01*
X121542857Y-135678668D02*
X121600000Y-135707240D01*
X121600000Y-135707240D02*
X121628571Y-135735811D01*
X121628571Y-135735811D02*
X121657142Y-135792954D01*
X121657142Y-135792954D02*
X121685714Y-135907240D01*
X121685714Y-135907240D02*
X121685714Y-136050097D01*
X121685714Y-136050097D02*
X121657142Y-136164382D01*
X121657142Y-136164382D02*
X121628571Y-136221525D01*
X121628571Y-136221525D02*
X121600000Y-136250097D01*
X121600000Y-136250097D02*
X121542857Y-136278668D01*
X140314188Y-141685714D02*
X140342760Y-141714286D01*
X140342760Y-141714286D02*
X140371331Y-141800000D01*
X140371331Y-141800000D02*
X140371331Y-141857143D01*
X140371331Y-141857143D02*
X140342760Y-141942857D01*
X140342760Y-141942857D02*
X140285617Y-142000000D01*
X140285617Y-142000000D02*
X140228474Y-142028571D01*
X140228474Y-142028571D02*
X140114188Y-142057143D01*
X140114188Y-142057143D02*
X140028474Y-142057143D01*
X140028474Y-142057143D02*
X139914188Y-142028571D01*
X139914188Y-142028571D02*
X139857045Y-142000000D01*
X139857045Y-142000000D02*
X139799902Y-141942857D01*
X139799902Y-141942857D02*
X139771331Y-141857143D01*
X139771331Y-141857143D02*
X139771331Y-141800000D01*
X139771331Y-141800000D02*
X139799902Y-141714286D01*
X139799902Y-141714286D02*
X139828474Y-141685714D01*
X139771331Y-141171429D02*
X139771331Y-141285714D01*
X139771331Y-141285714D02*
X139799902Y-141342857D01*
X139799902Y-141342857D02*
X139828474Y-141371429D01*
X139828474Y-141371429D02*
X139914188Y-141428571D01*
X139914188Y-141428571D02*
X140028474Y-141457143D01*
X140028474Y-141457143D02*
X140257045Y-141457143D01*
X140257045Y-141457143D02*
X140314188Y-141428571D01*
X140314188Y-141428571D02*
X140342760Y-141400000D01*
X140342760Y-141400000D02*
X140371331Y-141342857D01*
X140371331Y-141342857D02*
X140371331Y-141228571D01*
X140371331Y-141228571D02*
X140342760Y-141171429D01*
X140342760Y-141171429D02*
X140314188Y-141142857D01*
X140314188Y-141142857D02*
X140257045Y-141114286D01*
X140257045Y-141114286D02*
X140114188Y-141114286D01*
X140114188Y-141114286D02*
X140057045Y-141142857D01*
X140057045Y-141142857D02*
X140028474Y-141171429D01*
X140028474Y-141171429D02*
X139999902Y-141228571D01*
X139999902Y-141228571D02*
X139999902Y-141342857D01*
X139999902Y-141342857D02*
X140028474Y-141400000D01*
X140028474Y-141400000D02*
X140057045Y-141428571D01*
X140057045Y-141428571D02*
X140114188Y-141457143D01*
X139771331Y-140600000D02*
X139771331Y-140714285D01*
X139771331Y-140714285D02*
X139799902Y-140771428D01*
X139799902Y-140771428D02*
X139828474Y-140800000D01*
X139828474Y-140800000D02*
X139914188Y-140857142D01*
X139914188Y-140857142D02*
X140028474Y-140885714D01*
X140028474Y-140885714D02*
X140257045Y-140885714D01*
X140257045Y-140885714D02*
X140314188Y-140857142D01*
X140314188Y-140857142D02*
X140342760Y-140828571D01*
X140342760Y-140828571D02*
X140371331Y-140771428D01*
X140371331Y-140771428D02*
X140371331Y-140657142D01*
X140371331Y-140657142D02*
X140342760Y-140600000D01*
X140342760Y-140600000D02*
X140314188Y-140571428D01*
X140314188Y-140571428D02*
X140257045Y-140542857D01*
X140257045Y-140542857D02*
X140114188Y-140542857D01*
X140114188Y-140542857D02*
X140057045Y-140571428D01*
X140057045Y-140571428D02*
X140028474Y-140600000D01*
X140028474Y-140600000D02*
X139999902Y-140657142D01*
X139999902Y-140657142D02*
X139999902Y-140771428D01*
X139999902Y-140771428D02*
X140028474Y-140828571D01*
X140028474Y-140828571D02*
X140057045Y-140857142D01*
X140057045Y-140857142D02*
X140114188Y-140885714D01*
X142494188Y-141985714D02*
X142522760Y-142014286D01*
X142522760Y-142014286D02*
X142551331Y-142100000D01*
X142551331Y-142100000D02*
X142551331Y-142157143D01*
X142551331Y-142157143D02*
X142522760Y-142242857D01*
X142522760Y-142242857D02*
X142465617Y-142300000D01*
X142465617Y-142300000D02*
X142408474Y-142328571D01*
X142408474Y-142328571D02*
X142294188Y-142357143D01*
X142294188Y-142357143D02*
X142208474Y-142357143D01*
X142208474Y-142357143D02*
X142094188Y-142328571D01*
X142094188Y-142328571D02*
X142037045Y-142300000D01*
X142037045Y-142300000D02*
X141979902Y-142242857D01*
X141979902Y-142242857D02*
X141951331Y-142157143D01*
X141951331Y-142157143D02*
X141951331Y-142100000D01*
X141951331Y-142100000D02*
X141979902Y-142014286D01*
X141979902Y-142014286D02*
X142008474Y-141985714D01*
X141951331Y-141471429D02*
X141951331Y-141585714D01*
X141951331Y-141585714D02*
X141979902Y-141642857D01*
X141979902Y-141642857D02*
X142008474Y-141671429D01*
X142008474Y-141671429D02*
X142094188Y-141728571D01*
X142094188Y-141728571D02*
X142208474Y-141757143D01*
X142208474Y-141757143D02*
X142437045Y-141757143D01*
X142437045Y-141757143D02*
X142494188Y-141728571D01*
X142494188Y-141728571D02*
X142522760Y-141700000D01*
X142522760Y-141700000D02*
X142551331Y-141642857D01*
X142551331Y-141642857D02*
X142551331Y-141528571D01*
X142551331Y-141528571D02*
X142522760Y-141471429D01*
X142522760Y-141471429D02*
X142494188Y-141442857D01*
X142494188Y-141442857D02*
X142437045Y-141414286D01*
X142437045Y-141414286D02*
X142294188Y-141414286D01*
X142294188Y-141414286D02*
X142237045Y-141442857D01*
X142237045Y-141442857D02*
X142208474Y-141471429D01*
X142208474Y-141471429D02*
X142179902Y-141528571D01*
X142179902Y-141528571D02*
X142179902Y-141642857D01*
X142179902Y-141642857D02*
X142208474Y-141700000D01*
X142208474Y-141700000D02*
X142237045Y-141728571D01*
X142237045Y-141728571D02*
X142294188Y-141757143D01*
X141951331Y-141214285D02*
X141951331Y-140814285D01*
X141951331Y-140814285D02*
X142551331Y-141071428D01*
X146014285Y-132984188D02*
X145985713Y-133012760D01*
X145985713Y-133012760D02*
X145899999Y-133041331D01*
X145899999Y-133041331D02*
X145842856Y-133041331D01*
X145842856Y-133041331D02*
X145757142Y-133012760D01*
X145757142Y-133012760D02*
X145699999Y-132955617D01*
X145699999Y-132955617D02*
X145671428Y-132898474D01*
X145671428Y-132898474D02*
X145642856Y-132784188D01*
X145642856Y-132784188D02*
X145642856Y-132698474D01*
X145642856Y-132698474D02*
X145671428Y-132584188D01*
X145671428Y-132584188D02*
X145699999Y-132527045D01*
X145699999Y-132527045D02*
X145757142Y-132469902D01*
X145757142Y-132469902D02*
X145842856Y-132441331D01*
X145842856Y-132441331D02*
X145899999Y-132441331D01*
X145899999Y-132441331D02*
X145985713Y-132469902D01*
X145985713Y-132469902D02*
X146014285Y-132498474D01*
X146528571Y-132441331D02*
X146414285Y-132441331D01*
X146414285Y-132441331D02*
X146357142Y-132469902D01*
X146357142Y-132469902D02*
X146328571Y-132498474D01*
X146328571Y-132498474D02*
X146271428Y-132584188D01*
X146271428Y-132584188D02*
X146242856Y-132698474D01*
X146242856Y-132698474D02*
X146242856Y-132927045D01*
X146242856Y-132927045D02*
X146271428Y-132984188D01*
X146271428Y-132984188D02*
X146299999Y-133012760D01*
X146299999Y-133012760D02*
X146357142Y-133041331D01*
X146357142Y-133041331D02*
X146471428Y-133041331D01*
X146471428Y-133041331D02*
X146528571Y-133012760D01*
X146528571Y-133012760D02*
X146557142Y-132984188D01*
X146557142Y-132984188D02*
X146585713Y-132927045D01*
X146585713Y-132927045D02*
X146585713Y-132784188D01*
X146585713Y-132784188D02*
X146557142Y-132727045D01*
X146557142Y-132727045D02*
X146528571Y-132698474D01*
X146528571Y-132698474D02*
X146471428Y-132669902D01*
X146471428Y-132669902D02*
X146357142Y-132669902D01*
X146357142Y-132669902D02*
X146299999Y-132698474D01*
X146299999Y-132698474D02*
X146271428Y-132727045D01*
X146271428Y-132727045D02*
X146242856Y-132784188D01*
X146928571Y-132698474D02*
X146871428Y-132669902D01*
X146871428Y-132669902D02*
X146842857Y-132641331D01*
X146842857Y-132641331D02*
X146814285Y-132584188D01*
X146814285Y-132584188D02*
X146814285Y-132555617D01*
X146814285Y-132555617D02*
X146842857Y-132498474D01*
X146842857Y-132498474D02*
X146871428Y-132469902D01*
X146871428Y-132469902D02*
X146928571Y-132441331D01*
X146928571Y-132441331D02*
X147042857Y-132441331D01*
X147042857Y-132441331D02*
X147100000Y-132469902D01*
X147100000Y-132469902D02*
X147128571Y-132498474D01*
X147128571Y-132498474D02*
X147157142Y-132555617D01*
X147157142Y-132555617D02*
X147157142Y-132584188D01*
X147157142Y-132584188D02*
X147128571Y-132641331D01*
X147128571Y-132641331D02*
X147100000Y-132669902D01*
X147100000Y-132669902D02*
X147042857Y-132698474D01*
X147042857Y-132698474D02*
X146928571Y-132698474D01*
X146928571Y-132698474D02*
X146871428Y-132727045D01*
X146871428Y-132727045D02*
X146842857Y-132755617D01*
X146842857Y-132755617D02*
X146814285Y-132812760D01*
X146814285Y-132812760D02*
X146814285Y-132927045D01*
X146814285Y-132927045D02*
X146842857Y-132984188D01*
X146842857Y-132984188D02*
X146871428Y-133012760D01*
X146871428Y-133012760D02*
X146928571Y-133041331D01*
X146928571Y-133041331D02*
X147042857Y-133041331D01*
X147042857Y-133041331D02*
X147100000Y-133012760D01*
X147100000Y-133012760D02*
X147128571Y-132984188D01*
X147128571Y-132984188D02*
X147157142Y-132927045D01*
X147157142Y-132927045D02*
X147157142Y-132812760D01*
X147157142Y-132812760D02*
X147128571Y-132755617D01*
X147128571Y-132755617D02*
X147100000Y-132727045D01*
X147100000Y-132727045D02*
X147042857Y-132698474D01*
X146164285Y-136714188D02*
X146135713Y-136742760D01*
X146135713Y-136742760D02*
X146049999Y-136771331D01*
X146049999Y-136771331D02*
X145992856Y-136771331D01*
X145992856Y-136771331D02*
X145907142Y-136742760D01*
X145907142Y-136742760D02*
X145849999Y-136685617D01*
X145849999Y-136685617D02*
X145821428Y-136628474D01*
X145821428Y-136628474D02*
X145792856Y-136514188D01*
X145792856Y-136514188D02*
X145792856Y-136428474D01*
X145792856Y-136428474D02*
X145821428Y-136314188D01*
X145821428Y-136314188D02*
X145849999Y-136257045D01*
X145849999Y-136257045D02*
X145907142Y-136199902D01*
X145907142Y-136199902D02*
X145992856Y-136171331D01*
X145992856Y-136171331D02*
X146049999Y-136171331D01*
X146049999Y-136171331D02*
X146135713Y-136199902D01*
X146135713Y-136199902D02*
X146164285Y-136228474D01*
X146678571Y-136171331D02*
X146564285Y-136171331D01*
X146564285Y-136171331D02*
X146507142Y-136199902D01*
X146507142Y-136199902D02*
X146478571Y-136228474D01*
X146478571Y-136228474D02*
X146421428Y-136314188D01*
X146421428Y-136314188D02*
X146392856Y-136428474D01*
X146392856Y-136428474D02*
X146392856Y-136657045D01*
X146392856Y-136657045D02*
X146421428Y-136714188D01*
X146421428Y-136714188D02*
X146449999Y-136742760D01*
X146449999Y-136742760D02*
X146507142Y-136771331D01*
X146507142Y-136771331D02*
X146621428Y-136771331D01*
X146621428Y-136771331D02*
X146678571Y-136742760D01*
X146678571Y-136742760D02*
X146707142Y-136714188D01*
X146707142Y-136714188D02*
X146735713Y-136657045D01*
X146735713Y-136657045D02*
X146735713Y-136514188D01*
X146735713Y-136514188D02*
X146707142Y-136457045D01*
X146707142Y-136457045D02*
X146678571Y-136428474D01*
X146678571Y-136428474D02*
X146621428Y-136399902D01*
X146621428Y-136399902D02*
X146507142Y-136399902D01*
X146507142Y-136399902D02*
X146449999Y-136428474D01*
X146449999Y-136428474D02*
X146421428Y-136457045D01*
X146421428Y-136457045D02*
X146392856Y-136514188D01*
X147021428Y-136771331D02*
X147135714Y-136771331D01*
X147135714Y-136771331D02*
X147192857Y-136742760D01*
X147192857Y-136742760D02*
X147221428Y-136714188D01*
X147221428Y-136714188D02*
X147278571Y-136628474D01*
X147278571Y-136628474D02*
X147307142Y-136514188D01*
X147307142Y-136514188D02*
X147307142Y-136285617D01*
X147307142Y-136285617D02*
X147278571Y-136228474D01*
X147278571Y-136228474D02*
X147250000Y-136199902D01*
X147250000Y-136199902D02*
X147192857Y-136171331D01*
X147192857Y-136171331D02*
X147078571Y-136171331D01*
X147078571Y-136171331D02*
X147021428Y-136199902D01*
X147021428Y-136199902D02*
X146992857Y-136228474D01*
X146992857Y-136228474D02*
X146964285Y-136285617D01*
X146964285Y-136285617D02*
X146964285Y-136428474D01*
X146964285Y-136428474D02*
X146992857Y-136485617D01*
X146992857Y-136485617D02*
X147021428Y-136514188D01*
X147021428Y-136514188D02*
X147078571Y-136542760D01*
X147078571Y-136542760D02*
X147192857Y-136542760D01*
X147192857Y-136542760D02*
X147250000Y-136514188D01*
X147250000Y-136514188D02*
X147278571Y-136485617D01*
X147278571Y-136485617D02*
X147307142Y-136428474D01*
X148151331Y-127155714D02*
X148579902Y-127155714D01*
X148579902Y-127155714D02*
X148665617Y-127184285D01*
X148665617Y-127184285D02*
X148722760Y-127241428D01*
X148722760Y-127241428D02*
X148751331Y-127327142D01*
X148751331Y-127327142D02*
X148751331Y-127384285D01*
X148751331Y-126555714D02*
X148751331Y-126898571D01*
X148751331Y-126727142D02*
X148151331Y-126727142D01*
X148151331Y-126727142D02*
X148237045Y-126784285D01*
X148237045Y-126784285D02*
X148294188Y-126841428D01*
X148294188Y-126841428D02*
X148322760Y-126898571D01*
X148151331Y-126355713D02*
X148151331Y-125955713D01*
X148151331Y-125955713D02*
X148751331Y-126212856D01*
X142917714Y-125479331D02*
X142917714Y-125965045D01*
X142917714Y-125965045D02*
X142946285Y-126022188D01*
X142946285Y-126022188D02*
X142974857Y-126050760D01*
X142974857Y-126050760D02*
X143031999Y-126079331D01*
X143031999Y-126079331D02*
X143146285Y-126079331D01*
X143146285Y-126079331D02*
X143203428Y-126050760D01*
X143203428Y-126050760D02*
X143231999Y-126022188D01*
X143231999Y-126022188D02*
X143260571Y-125965045D01*
X143260571Y-125965045D02*
X143260571Y-125479331D01*
X143517713Y-126050760D02*
X143603428Y-126079331D01*
X143603428Y-126079331D02*
X143746285Y-126079331D01*
X143746285Y-126079331D02*
X143803428Y-126050760D01*
X143803428Y-126050760D02*
X143831999Y-126022188D01*
X143831999Y-126022188D02*
X143860570Y-125965045D01*
X143860570Y-125965045D02*
X143860570Y-125907902D01*
X143860570Y-125907902D02*
X143831999Y-125850760D01*
X143831999Y-125850760D02*
X143803428Y-125822188D01*
X143803428Y-125822188D02*
X143746285Y-125793617D01*
X143746285Y-125793617D02*
X143631999Y-125765045D01*
X143631999Y-125765045D02*
X143574856Y-125736474D01*
X143574856Y-125736474D02*
X143546285Y-125707902D01*
X143546285Y-125707902D02*
X143517713Y-125650760D01*
X143517713Y-125650760D02*
X143517713Y-125593617D01*
X143517713Y-125593617D02*
X143546285Y-125536474D01*
X143546285Y-125536474D02*
X143574856Y-125507902D01*
X143574856Y-125507902D02*
X143631999Y-125479331D01*
X143631999Y-125479331D02*
X143774856Y-125479331D01*
X143774856Y-125479331D02*
X143860570Y-125507902D01*
X144317714Y-125765045D02*
X144403428Y-125793617D01*
X144403428Y-125793617D02*
X144431999Y-125822188D01*
X144431999Y-125822188D02*
X144460571Y-125879331D01*
X144460571Y-125879331D02*
X144460571Y-125965045D01*
X144460571Y-125965045D02*
X144431999Y-126022188D01*
X144431999Y-126022188D02*
X144403428Y-126050760D01*
X144403428Y-126050760D02*
X144346285Y-126079331D01*
X144346285Y-126079331D02*
X144117714Y-126079331D01*
X144117714Y-126079331D02*
X144117714Y-125479331D01*
X144117714Y-125479331D02*
X144317714Y-125479331D01*
X144317714Y-125479331D02*
X144374857Y-125507902D01*
X144374857Y-125507902D02*
X144403428Y-125536474D01*
X144403428Y-125536474D02*
X144431999Y-125593617D01*
X144431999Y-125593617D02*
X144431999Y-125650760D01*
X144431999Y-125650760D02*
X144403428Y-125707902D01*
X144403428Y-125707902D02*
X144374857Y-125736474D01*
X144374857Y-125736474D02*
X144317714Y-125765045D01*
X144317714Y-125765045D02*
X144117714Y-125765045D01*
X145174857Y-126079331D02*
X145174857Y-125479331D01*
X145803428Y-126022188D02*
X145774856Y-126050760D01*
X145774856Y-126050760D02*
X145689142Y-126079331D01*
X145689142Y-126079331D02*
X145631999Y-126079331D01*
X145631999Y-126079331D02*
X145546285Y-126050760D01*
X145546285Y-126050760D02*
X145489142Y-125993617D01*
X145489142Y-125993617D02*
X145460571Y-125936474D01*
X145460571Y-125936474D02*
X145431999Y-125822188D01*
X145431999Y-125822188D02*
X145431999Y-125736474D01*
X145431999Y-125736474D02*
X145460571Y-125622188D01*
X145460571Y-125622188D02*
X145489142Y-125565045D01*
X145489142Y-125565045D02*
X145546285Y-125507902D01*
X145546285Y-125507902D02*
X145631999Y-125479331D01*
X145631999Y-125479331D02*
X145689142Y-125479331D01*
X145689142Y-125479331D02*
X145774856Y-125507902D01*
X145774856Y-125507902D02*
X145803428Y-125536474D01*
X146031999Y-126050760D02*
X146117714Y-126079331D01*
X146117714Y-126079331D02*
X146260571Y-126079331D01*
X146260571Y-126079331D02*
X146317714Y-126050760D01*
X146317714Y-126050760D02*
X146346285Y-126022188D01*
X146346285Y-126022188D02*
X146374856Y-125965045D01*
X146374856Y-125965045D02*
X146374856Y-125907902D01*
X146374856Y-125907902D02*
X146346285Y-125850760D01*
X146346285Y-125850760D02*
X146317714Y-125822188D01*
X146317714Y-125822188D02*
X146260571Y-125793617D01*
X146260571Y-125793617D02*
X146146285Y-125765045D01*
X146146285Y-125765045D02*
X146089142Y-125736474D01*
X146089142Y-125736474D02*
X146060571Y-125707902D01*
X146060571Y-125707902D02*
X146031999Y-125650760D01*
X146031999Y-125650760D02*
X146031999Y-125593617D01*
X146031999Y-125593617D02*
X146060571Y-125536474D01*
X146060571Y-125536474D02*
X146089142Y-125507902D01*
X146089142Y-125507902D02*
X146146285Y-125479331D01*
X146146285Y-125479331D02*
X146289142Y-125479331D01*
X146289142Y-125479331D02*
X146374856Y-125507902D01*
X146632000Y-126079331D02*
X146632000Y-125479331D01*
X146632000Y-125479331D02*
X146860571Y-125479331D01*
X146860571Y-125479331D02*
X146917714Y-125507902D01*
X146917714Y-125507902D02*
X146946285Y-125536474D01*
X146946285Y-125536474D02*
X146974857Y-125593617D01*
X146974857Y-125593617D02*
X146974857Y-125679331D01*
X146974857Y-125679331D02*
X146946285Y-125736474D01*
X146946285Y-125736474D02*
X146917714Y-125765045D01*
X146917714Y-125765045D02*
X146860571Y-125793617D01*
X146860571Y-125793617D02*
X146632000Y-125793617D01*
X140518571Y-129221331D02*
X140518571Y-129707045D01*
X140518571Y-129707045D02*
X140547142Y-129764188D01*
X140547142Y-129764188D02*
X140575714Y-129792760D01*
X140575714Y-129792760D02*
X140632856Y-129821331D01*
X140632856Y-129821331D02*
X140747142Y-129821331D01*
X140747142Y-129821331D02*
X140804285Y-129792760D01*
X140804285Y-129792760D02*
X140832856Y-129764188D01*
X140832856Y-129764188D02*
X140861428Y-129707045D01*
X140861428Y-129707045D02*
X140861428Y-129221331D01*
X141118570Y-129792760D02*
X141204285Y-129821331D01*
X141204285Y-129821331D02*
X141347142Y-129821331D01*
X141347142Y-129821331D02*
X141404285Y-129792760D01*
X141404285Y-129792760D02*
X141432856Y-129764188D01*
X141432856Y-129764188D02*
X141461427Y-129707045D01*
X141461427Y-129707045D02*
X141461427Y-129649902D01*
X141461427Y-129649902D02*
X141432856Y-129592760D01*
X141432856Y-129592760D02*
X141404285Y-129564188D01*
X141404285Y-129564188D02*
X141347142Y-129535617D01*
X141347142Y-129535617D02*
X141232856Y-129507045D01*
X141232856Y-129507045D02*
X141175713Y-129478474D01*
X141175713Y-129478474D02*
X141147142Y-129449902D01*
X141147142Y-129449902D02*
X141118570Y-129392760D01*
X141118570Y-129392760D02*
X141118570Y-129335617D01*
X141118570Y-129335617D02*
X141147142Y-129278474D01*
X141147142Y-129278474D02*
X141175713Y-129249902D01*
X141175713Y-129249902D02*
X141232856Y-129221331D01*
X141232856Y-129221331D02*
X141375713Y-129221331D01*
X141375713Y-129221331D02*
X141461427Y-129249902D01*
X141718571Y-129507045D02*
X141918571Y-129507045D01*
X142004285Y-129821331D02*
X141718571Y-129821331D01*
X141718571Y-129821331D02*
X141718571Y-129221331D01*
X141718571Y-129221331D02*
X142004285Y-129221331D01*
X142632856Y-129221331D02*
X142975714Y-129221331D01*
X142804285Y-129821331D02*
X142804285Y-129221331D01*
X143518571Y-129764188D02*
X143489999Y-129792760D01*
X143489999Y-129792760D02*
X143404285Y-129821331D01*
X143404285Y-129821331D02*
X143347142Y-129821331D01*
X143347142Y-129821331D02*
X143261428Y-129792760D01*
X143261428Y-129792760D02*
X143204285Y-129735617D01*
X143204285Y-129735617D02*
X143175714Y-129678474D01*
X143175714Y-129678474D02*
X143147142Y-129564188D01*
X143147142Y-129564188D02*
X143147142Y-129478474D01*
X143147142Y-129478474D02*
X143175714Y-129364188D01*
X143175714Y-129364188D02*
X143204285Y-129307045D01*
X143204285Y-129307045D02*
X143261428Y-129249902D01*
X143261428Y-129249902D02*
X143347142Y-129221331D01*
X143347142Y-129221331D02*
X143404285Y-129221331D01*
X143404285Y-129221331D02*
X143489999Y-129249902D01*
X143489999Y-129249902D02*
X143518571Y-129278474D01*
X143747142Y-129278474D02*
X143775714Y-129249902D01*
X143775714Y-129249902D02*
X143832857Y-129221331D01*
X143832857Y-129221331D02*
X143975714Y-129221331D01*
X143975714Y-129221331D02*
X144032857Y-129249902D01*
X144032857Y-129249902D02*
X144061428Y-129278474D01*
X144061428Y-129278474D02*
X144089999Y-129335617D01*
X144089999Y-129335617D02*
X144089999Y-129392760D01*
X144089999Y-129392760D02*
X144061428Y-129478474D01*
X144061428Y-129478474D02*
X143718571Y-129821331D01*
X143718571Y-129821331D02*
X144089999Y-129821331D01*
X144461428Y-129221331D02*
X144518571Y-129221331D01*
X144518571Y-129221331D02*
X144575714Y-129249902D01*
X144575714Y-129249902D02*
X144604286Y-129278474D01*
X144604286Y-129278474D02*
X144632857Y-129335617D01*
X144632857Y-129335617D02*
X144661428Y-129449902D01*
X144661428Y-129449902D02*
X144661428Y-129592760D01*
X144661428Y-129592760D02*
X144632857Y-129707045D01*
X144632857Y-129707045D02*
X144604286Y-129764188D01*
X144604286Y-129764188D02*
X144575714Y-129792760D01*
X144575714Y-129792760D02*
X144518571Y-129821331D01*
X144518571Y-129821331D02*
X144461428Y-129821331D01*
X144461428Y-129821331D02*
X144404286Y-129792760D01*
X144404286Y-129792760D02*
X144375714Y-129764188D01*
X144375714Y-129764188D02*
X144347143Y-129707045D01*
X144347143Y-129707045D02*
X144318571Y-129592760D01*
X144318571Y-129592760D02*
X144318571Y-129449902D01*
X144318571Y-129449902D02*
X144347143Y-129335617D01*
X144347143Y-129335617D02*
X144375714Y-129278474D01*
X144375714Y-129278474D02*
X144404286Y-129249902D01*
X144404286Y-129249902D02*
X144461428Y-129221331D01*
X144861429Y-129221331D02*
X145232857Y-129221331D01*
X145232857Y-129221331D02*
X145032857Y-129449902D01*
X145032857Y-129449902D02*
X145118572Y-129449902D01*
X145118572Y-129449902D02*
X145175715Y-129478474D01*
X145175715Y-129478474D02*
X145204286Y-129507045D01*
X145204286Y-129507045D02*
X145232857Y-129564188D01*
X145232857Y-129564188D02*
X145232857Y-129707045D01*
X145232857Y-129707045D02*
X145204286Y-129764188D01*
X145204286Y-129764188D02*
X145175715Y-129792760D01*
X145175715Y-129792760D02*
X145118572Y-129821331D01*
X145118572Y-129821331D02*
X144947143Y-129821331D01*
X144947143Y-129821331D02*
X144890000Y-129792760D01*
X144890000Y-129792760D02*
X144861429Y-129764188D01*
X145604286Y-129221331D02*
X145661429Y-129221331D01*
X145661429Y-129221331D02*
X145718572Y-129249902D01*
X145718572Y-129249902D02*
X145747144Y-129278474D01*
X145747144Y-129278474D02*
X145775715Y-129335617D01*
X145775715Y-129335617D02*
X145804286Y-129449902D01*
X145804286Y-129449902D02*
X145804286Y-129592760D01*
X145804286Y-129592760D02*
X145775715Y-129707045D01*
X145775715Y-129707045D02*
X145747144Y-129764188D01*
X145747144Y-129764188D02*
X145718572Y-129792760D01*
X145718572Y-129792760D02*
X145661429Y-129821331D01*
X145661429Y-129821331D02*
X145604286Y-129821331D01*
X145604286Y-129821331D02*
X145547144Y-129792760D01*
X145547144Y-129792760D02*
X145518572Y-129764188D01*
X145518572Y-129764188D02*
X145490001Y-129707045D01*
X145490001Y-129707045D02*
X145461429Y-129592760D01*
X145461429Y-129592760D02*
X145461429Y-129449902D01*
X145461429Y-129449902D02*
X145490001Y-129335617D01*
X145490001Y-129335617D02*
X145518572Y-129278474D01*
X145518572Y-129278474D02*
X145547144Y-129249902D01*
X145547144Y-129249902D02*
X145604286Y-129221331D01*
X146061430Y-129592760D02*
X146518573Y-129592760D01*
X146804287Y-129821331D02*
X146804287Y-129221331D01*
X147090001Y-129821331D02*
X147090001Y-129221331D01*
X147090001Y-129221331D02*
X147232858Y-129221331D01*
X147232858Y-129221331D02*
X147318572Y-129249902D01*
X147318572Y-129249902D02*
X147375715Y-129307045D01*
X147375715Y-129307045D02*
X147404286Y-129364188D01*
X147404286Y-129364188D02*
X147432858Y-129478474D01*
X147432858Y-129478474D02*
X147432858Y-129564188D01*
X147432858Y-129564188D02*
X147404286Y-129678474D01*
X147404286Y-129678474D02*
X147375715Y-129735617D01*
X147375715Y-129735617D02*
X147318572Y-129792760D01*
X147318572Y-129792760D02*
X147232858Y-129821331D01*
X147232858Y-129821331D02*
X147090001Y-129821331D01*
X148032858Y-129764188D02*
X148004286Y-129792760D01*
X148004286Y-129792760D02*
X147918572Y-129821331D01*
X147918572Y-129821331D02*
X147861429Y-129821331D01*
X147861429Y-129821331D02*
X147775715Y-129792760D01*
X147775715Y-129792760D02*
X147718572Y-129735617D01*
X147718572Y-129735617D02*
X147690001Y-129678474D01*
X147690001Y-129678474D02*
X147661429Y-129564188D01*
X147661429Y-129564188D02*
X147661429Y-129478474D01*
X147661429Y-129478474D02*
X147690001Y-129364188D01*
X147690001Y-129364188D02*
X147718572Y-129307045D01*
X147718572Y-129307045D02*
X147775715Y-129249902D01*
X147775715Y-129249902D02*
X147861429Y-129221331D01*
X147861429Y-129221331D02*
X147918572Y-129221331D01*
X147918572Y-129221331D02*
X148004286Y-129249902D01*
X148004286Y-129249902D02*
X148032858Y-129278474D01*
X148290001Y-129592760D02*
X148747144Y-129592760D01*
X149032858Y-129821331D02*
X149032858Y-129221331D01*
X149032858Y-129221331D02*
X149375715Y-129821331D01*
X149375715Y-129821331D02*
X149375715Y-129221331D01*
X149947143Y-129821331D02*
X149661429Y-129821331D01*
X149661429Y-129821331D02*
X149661429Y-129221331D01*
X144714285Y-130871331D02*
X144514285Y-130585617D01*
X144371428Y-130871331D02*
X144371428Y-130271331D01*
X144371428Y-130271331D02*
X144599999Y-130271331D01*
X144599999Y-130271331D02*
X144657142Y-130299902D01*
X144657142Y-130299902D02*
X144685713Y-130328474D01*
X144685713Y-130328474D02*
X144714285Y-130385617D01*
X144714285Y-130385617D02*
X144714285Y-130471331D01*
X144714285Y-130471331D02*
X144685713Y-130528474D01*
X144685713Y-130528474D02*
X144657142Y-130557045D01*
X144657142Y-130557045D02*
X144599999Y-130585617D01*
X144599999Y-130585617D02*
X144371428Y-130585617D01*
X145285713Y-130871331D02*
X144942856Y-130871331D01*
X145114285Y-130871331D02*
X145114285Y-130271331D01*
X145114285Y-130271331D02*
X145057142Y-130357045D01*
X145057142Y-130357045D02*
X144999999Y-130414188D01*
X144999999Y-130414188D02*
X144942856Y-130442760D01*
X145628571Y-130528474D02*
X145571428Y-130499902D01*
X145571428Y-130499902D02*
X145542857Y-130471331D01*
X145542857Y-130471331D02*
X145514285Y-130414188D01*
X145514285Y-130414188D02*
X145514285Y-130385617D01*
X145514285Y-130385617D02*
X145542857Y-130328474D01*
X145542857Y-130328474D02*
X145571428Y-130299902D01*
X145571428Y-130299902D02*
X145628571Y-130271331D01*
X145628571Y-130271331D02*
X145742857Y-130271331D01*
X145742857Y-130271331D02*
X145800000Y-130299902D01*
X145800000Y-130299902D02*
X145828571Y-130328474D01*
X145828571Y-130328474D02*
X145857142Y-130385617D01*
X145857142Y-130385617D02*
X145857142Y-130414188D01*
X145857142Y-130414188D02*
X145828571Y-130471331D01*
X145828571Y-130471331D02*
X145800000Y-130499902D01*
X145800000Y-130499902D02*
X145742857Y-130528474D01*
X145742857Y-130528474D02*
X145628571Y-130528474D01*
X145628571Y-130528474D02*
X145571428Y-130557045D01*
X145571428Y-130557045D02*
X145542857Y-130585617D01*
X145542857Y-130585617D02*
X145514285Y-130642760D01*
X145514285Y-130642760D02*
X145514285Y-130757045D01*
X145514285Y-130757045D02*
X145542857Y-130814188D01*
X145542857Y-130814188D02*
X145571428Y-130842760D01*
X145571428Y-130842760D02*
X145628571Y-130871331D01*
X145628571Y-130871331D02*
X145742857Y-130871331D01*
X145742857Y-130871331D02*
X145800000Y-130842760D01*
X145800000Y-130842760D02*
X145828571Y-130814188D01*
X145828571Y-130814188D02*
X145857142Y-130757045D01*
X145857142Y-130757045D02*
X145857142Y-130642760D01*
X145857142Y-130642760D02*
X145828571Y-130585617D01*
X145828571Y-130585617D02*
X145800000Y-130557045D01*
X145800000Y-130557045D02*
X145742857Y-130528474D01*
X148614285Y-137085617D02*
X148614285Y-137371331D01*
X148414285Y-136771331D02*
X148614285Y-137085617D01*
X148614285Y-137085617D02*
X148814285Y-136771331D01*
X148985714Y-136828474D02*
X149014286Y-136799902D01*
X149014286Y-136799902D02*
X149071429Y-136771331D01*
X149071429Y-136771331D02*
X149214286Y-136771331D01*
X149214286Y-136771331D02*
X149271429Y-136799902D01*
X149271429Y-136799902D02*
X149300000Y-136828474D01*
X149300000Y-136828474D02*
X149328571Y-136885617D01*
X149328571Y-136885617D02*
X149328571Y-136942760D01*
X149328571Y-136942760D02*
X149300000Y-137028474D01*
X149300000Y-137028474D02*
X148957143Y-137371331D01*
X148957143Y-137371331D02*
X149328571Y-137371331D01*
X140867857Y-132796331D02*
X140867857Y-133282045D01*
X140867857Y-133282045D02*
X140896428Y-133339188D01*
X140896428Y-133339188D02*
X140925000Y-133367760D01*
X140925000Y-133367760D02*
X140982142Y-133396331D01*
X140982142Y-133396331D02*
X141096428Y-133396331D01*
X141096428Y-133396331D02*
X141153571Y-133367760D01*
X141153571Y-133367760D02*
X141182142Y-133339188D01*
X141182142Y-133339188D02*
X141210714Y-133282045D01*
X141210714Y-133282045D02*
X141210714Y-132796331D01*
X141810713Y-133396331D02*
X141467856Y-133396331D01*
X141639285Y-133396331D02*
X141639285Y-132796331D01*
X141639285Y-132796331D02*
X141582142Y-132882045D01*
X141582142Y-132882045D02*
X141524999Y-132939188D01*
X141524999Y-132939188D02*
X141467856Y-132967760D01*
X132464285Y-118671331D02*
X132264285Y-118385617D01*
X132121428Y-118671331D02*
X132121428Y-118071331D01*
X132121428Y-118071331D02*
X132349999Y-118071331D01*
X132349999Y-118071331D02*
X132407142Y-118099902D01*
X132407142Y-118099902D02*
X132435713Y-118128474D01*
X132435713Y-118128474D02*
X132464285Y-118185617D01*
X132464285Y-118185617D02*
X132464285Y-118271331D01*
X132464285Y-118271331D02*
X132435713Y-118328474D01*
X132435713Y-118328474D02*
X132407142Y-118357045D01*
X132407142Y-118357045D02*
X132349999Y-118385617D01*
X132349999Y-118385617D02*
X132121428Y-118385617D01*
X132692856Y-118128474D02*
X132721428Y-118099902D01*
X132721428Y-118099902D02*
X132778571Y-118071331D01*
X132778571Y-118071331D02*
X132921428Y-118071331D01*
X132921428Y-118071331D02*
X132978571Y-118099902D01*
X132978571Y-118099902D02*
X133007142Y-118128474D01*
X133007142Y-118128474D02*
X133035713Y-118185617D01*
X133035713Y-118185617D02*
X133035713Y-118242760D01*
X133035713Y-118242760D02*
X133007142Y-118328474D01*
X133007142Y-118328474D02*
X132664285Y-118671331D01*
X132664285Y-118671331D02*
X133035713Y-118671331D01*
X133578571Y-118071331D02*
X133292857Y-118071331D01*
X133292857Y-118071331D02*
X133264285Y-118357045D01*
X133264285Y-118357045D02*
X133292857Y-118328474D01*
X133292857Y-118328474D02*
X133350000Y-118299902D01*
X133350000Y-118299902D02*
X133492857Y-118299902D01*
X133492857Y-118299902D02*
X133550000Y-118328474D01*
X133550000Y-118328474D02*
X133578571Y-118357045D01*
X133578571Y-118357045D02*
X133607142Y-118414188D01*
X133607142Y-118414188D02*
X133607142Y-118557045D01*
X133607142Y-118557045D02*
X133578571Y-118614188D01*
X133578571Y-118614188D02*
X133550000Y-118642760D01*
X133550000Y-118642760D02*
X133492857Y-118671331D01*
X133492857Y-118671331D02*
X133350000Y-118671331D01*
X133350000Y-118671331D02*
X133292857Y-118642760D01*
X133292857Y-118642760D02*
X133264285Y-118614188D01*
X128778668Y-109364285D02*
X129064382Y-109164285D01*
X128778668Y-109021428D02*
X129378668Y-109021428D01*
X129378668Y-109021428D02*
X129378668Y-109249999D01*
X129378668Y-109249999D02*
X129350097Y-109307142D01*
X129350097Y-109307142D02*
X129321525Y-109335713D01*
X129321525Y-109335713D02*
X129264382Y-109364285D01*
X129264382Y-109364285D02*
X129178668Y-109364285D01*
X129178668Y-109364285D02*
X129121525Y-109335713D01*
X129121525Y-109335713D02*
X129092954Y-109307142D01*
X129092954Y-109307142D02*
X129064382Y-109249999D01*
X129064382Y-109249999D02*
X129064382Y-109021428D01*
X129378668Y-109564285D02*
X129378668Y-109964285D01*
X129378668Y-109964285D02*
X128778668Y-109707142D01*
X129378668Y-110135714D02*
X129378668Y-110507142D01*
X129378668Y-110507142D02*
X129150097Y-110307142D01*
X129150097Y-110307142D02*
X129150097Y-110392857D01*
X129150097Y-110392857D02*
X129121525Y-110450000D01*
X129121525Y-110450000D02*
X129092954Y-110478571D01*
X129092954Y-110478571D02*
X129035811Y-110507142D01*
X129035811Y-110507142D02*
X128892954Y-110507142D01*
X128892954Y-110507142D02*
X128835811Y-110478571D01*
X128835811Y-110478571D02*
X128807240Y-110450000D01*
X128807240Y-110450000D02*
X128778668Y-110392857D01*
X128778668Y-110392857D02*
X128778668Y-110221428D01*
X128778668Y-110221428D02*
X128807240Y-110164285D01*
X128807240Y-110164285D02*
X128835811Y-110135714D01*
X128464285Y-118164188D02*
X128435713Y-118192760D01*
X128435713Y-118192760D02*
X128349999Y-118221331D01*
X128349999Y-118221331D02*
X128292856Y-118221331D01*
X128292856Y-118221331D02*
X128207142Y-118192760D01*
X128207142Y-118192760D02*
X128149999Y-118135617D01*
X128149999Y-118135617D02*
X128121428Y-118078474D01*
X128121428Y-118078474D02*
X128092856Y-117964188D01*
X128092856Y-117964188D02*
X128092856Y-117878474D01*
X128092856Y-117878474D02*
X128121428Y-117764188D01*
X128121428Y-117764188D02*
X128149999Y-117707045D01*
X128149999Y-117707045D02*
X128207142Y-117649902D01*
X128207142Y-117649902D02*
X128292856Y-117621331D01*
X128292856Y-117621331D02*
X128349999Y-117621331D01*
X128349999Y-117621331D02*
X128435713Y-117649902D01*
X128435713Y-117649902D02*
X128464285Y-117678474D01*
X129035713Y-118221331D02*
X128692856Y-118221331D01*
X128864285Y-118221331D02*
X128864285Y-117621331D01*
X128864285Y-117621331D02*
X128807142Y-117707045D01*
X128807142Y-117707045D02*
X128749999Y-117764188D01*
X128749999Y-117764188D02*
X128692856Y-117792760D01*
X129578571Y-117621331D02*
X129292857Y-117621331D01*
X129292857Y-117621331D02*
X129264285Y-117907045D01*
X129264285Y-117907045D02*
X129292857Y-117878474D01*
X129292857Y-117878474D02*
X129350000Y-117849902D01*
X129350000Y-117849902D02*
X129492857Y-117849902D01*
X129492857Y-117849902D02*
X129550000Y-117878474D01*
X129550000Y-117878474D02*
X129578571Y-117907045D01*
X129578571Y-117907045D02*
X129607142Y-117964188D01*
X129607142Y-117964188D02*
X129607142Y-118107045D01*
X129607142Y-118107045D02*
X129578571Y-118164188D01*
X129578571Y-118164188D02*
X129550000Y-118192760D01*
X129550000Y-118192760D02*
X129492857Y-118221331D01*
X129492857Y-118221331D02*
X129350000Y-118221331D01*
X129350000Y-118221331D02*
X129292857Y-118192760D01*
X129292857Y-118192760D02*
X129264285Y-118164188D01*
X123164285Y-118164188D02*
X123135713Y-118192760D01*
X123135713Y-118192760D02*
X123049999Y-118221331D01*
X123049999Y-118221331D02*
X122992856Y-118221331D01*
X122992856Y-118221331D02*
X122907142Y-118192760D01*
X122907142Y-118192760D02*
X122849999Y-118135617D01*
X122849999Y-118135617D02*
X122821428Y-118078474D01*
X122821428Y-118078474D02*
X122792856Y-117964188D01*
X122792856Y-117964188D02*
X122792856Y-117878474D01*
X122792856Y-117878474D02*
X122821428Y-117764188D01*
X122821428Y-117764188D02*
X122849999Y-117707045D01*
X122849999Y-117707045D02*
X122907142Y-117649902D01*
X122907142Y-117649902D02*
X122992856Y-117621331D01*
X122992856Y-117621331D02*
X123049999Y-117621331D01*
X123049999Y-117621331D02*
X123135713Y-117649902D01*
X123135713Y-117649902D02*
X123164285Y-117678474D01*
X123364285Y-117621331D02*
X123764285Y-117621331D01*
X123764285Y-117621331D02*
X123507142Y-118221331D01*
X123964285Y-117678474D02*
X123992857Y-117649902D01*
X123992857Y-117649902D02*
X124050000Y-117621331D01*
X124050000Y-117621331D02*
X124192857Y-117621331D01*
X124192857Y-117621331D02*
X124250000Y-117649902D01*
X124250000Y-117649902D02*
X124278571Y-117678474D01*
X124278571Y-117678474D02*
X124307142Y-117735617D01*
X124307142Y-117735617D02*
X124307142Y-117792760D01*
X124307142Y-117792760D02*
X124278571Y-117878474D01*
X124278571Y-117878474D02*
X123935714Y-118221331D01*
X123935714Y-118221331D02*
X124307142Y-118221331D01*
X124578668Y-109514285D02*
X124864382Y-109314285D01*
X124578668Y-109171428D02*
X125178668Y-109171428D01*
X125178668Y-109171428D02*
X125178668Y-109399999D01*
X125178668Y-109399999D02*
X125150097Y-109457142D01*
X125150097Y-109457142D02*
X125121525Y-109485713D01*
X125121525Y-109485713D02*
X125064382Y-109514285D01*
X125064382Y-109514285D02*
X124978668Y-109514285D01*
X124978668Y-109514285D02*
X124921525Y-109485713D01*
X124921525Y-109485713D02*
X124892954Y-109457142D01*
X124892954Y-109457142D02*
X124864382Y-109399999D01*
X124864382Y-109399999D02*
X124864382Y-109171428D01*
X124578668Y-110085713D02*
X124578668Y-109742856D01*
X124578668Y-109914285D02*
X125178668Y-109914285D01*
X125178668Y-109914285D02*
X125092954Y-109857142D01*
X125092954Y-109857142D02*
X125035811Y-109799999D01*
X125035811Y-109799999D02*
X125007240Y-109742856D01*
X124578668Y-110371428D02*
X124578668Y-110485714D01*
X124578668Y-110485714D02*
X124607240Y-110542857D01*
X124607240Y-110542857D02*
X124635811Y-110571428D01*
X124635811Y-110571428D02*
X124721525Y-110628571D01*
X124721525Y-110628571D02*
X124835811Y-110657142D01*
X124835811Y-110657142D02*
X125064382Y-110657142D01*
X125064382Y-110657142D02*
X125121525Y-110628571D01*
X125121525Y-110628571D02*
X125150097Y-110600000D01*
X125150097Y-110600000D02*
X125178668Y-110542857D01*
X125178668Y-110542857D02*
X125178668Y-110428571D01*
X125178668Y-110428571D02*
X125150097Y-110371428D01*
X125150097Y-110371428D02*
X125121525Y-110342857D01*
X125121525Y-110342857D02*
X125064382Y-110314285D01*
X125064382Y-110314285D02*
X124921525Y-110314285D01*
X124921525Y-110314285D02*
X124864382Y-110342857D01*
X124864382Y-110342857D02*
X124835811Y-110371428D01*
X124835811Y-110371428D02*
X124807240Y-110428571D01*
X124807240Y-110428571D02*
X124807240Y-110542857D01*
X124807240Y-110542857D02*
X124835811Y-110600000D01*
X124835811Y-110600000D02*
X124864382Y-110628571D01*
X124864382Y-110628571D02*
X124921525Y-110657142D01*
X129171331Y-113607142D02*
X129657045Y-113607142D01*
X129657045Y-113607142D02*
X129714188Y-113578571D01*
X129714188Y-113578571D02*
X129742760Y-113550000D01*
X129742760Y-113550000D02*
X129771331Y-113492857D01*
X129771331Y-113492857D02*
X129771331Y-113378571D01*
X129771331Y-113378571D02*
X129742760Y-113321428D01*
X129742760Y-113321428D02*
X129714188Y-113292857D01*
X129714188Y-113292857D02*
X129657045Y-113264285D01*
X129657045Y-113264285D02*
X129171331Y-113264285D01*
X129171331Y-112721429D02*
X129171331Y-112835714D01*
X129171331Y-112835714D02*
X129199902Y-112892857D01*
X129199902Y-112892857D02*
X129228474Y-112921429D01*
X129228474Y-112921429D02*
X129314188Y-112978571D01*
X129314188Y-112978571D02*
X129428474Y-113007143D01*
X129428474Y-113007143D02*
X129657045Y-113007143D01*
X129657045Y-113007143D02*
X129714188Y-112978571D01*
X129714188Y-112978571D02*
X129742760Y-112950000D01*
X129742760Y-112950000D02*
X129771331Y-112892857D01*
X129771331Y-112892857D02*
X129771331Y-112778571D01*
X129771331Y-112778571D02*
X129742760Y-112721429D01*
X129742760Y-112721429D02*
X129714188Y-112692857D01*
X129714188Y-112692857D02*
X129657045Y-112664286D01*
X129657045Y-112664286D02*
X129514188Y-112664286D01*
X129514188Y-112664286D02*
X129457045Y-112692857D01*
X129457045Y-112692857D02*
X129428474Y-112721429D01*
X129428474Y-112721429D02*
X129399902Y-112778571D01*
X129399902Y-112778571D02*
X129399902Y-112892857D01*
X129399902Y-112892857D02*
X129428474Y-112950000D01*
X129428474Y-112950000D02*
X129457045Y-112978571D01*
X129457045Y-112978571D02*
X129514188Y-113007143D01*
X118578668Y-126650000D02*
X118864382Y-126450000D01*
X118578668Y-126307143D02*
X119178668Y-126307143D01*
X119178668Y-126307143D02*
X119178668Y-126535714D01*
X119178668Y-126535714D02*
X119150097Y-126592857D01*
X119150097Y-126592857D02*
X119121525Y-126621428D01*
X119121525Y-126621428D02*
X119064382Y-126650000D01*
X119064382Y-126650000D02*
X118978668Y-126650000D01*
X118978668Y-126650000D02*
X118921525Y-126621428D01*
X118921525Y-126621428D02*
X118892954Y-126592857D01*
X118892954Y-126592857D02*
X118864382Y-126535714D01*
X118864382Y-126535714D02*
X118864382Y-126307143D01*
X119178668Y-126850000D02*
X119178668Y-127221428D01*
X119178668Y-127221428D02*
X118950097Y-127021428D01*
X118950097Y-127021428D02*
X118950097Y-127107143D01*
X118950097Y-127107143D02*
X118921525Y-127164286D01*
X118921525Y-127164286D02*
X118892954Y-127192857D01*
X118892954Y-127192857D02*
X118835811Y-127221428D01*
X118835811Y-127221428D02*
X118692954Y-127221428D01*
X118692954Y-127221428D02*
X118635811Y-127192857D01*
X118635811Y-127192857D02*
X118607240Y-127164286D01*
X118607240Y-127164286D02*
X118578668Y-127107143D01*
X118578668Y-127107143D02*
X118578668Y-126935714D01*
X118578668Y-126935714D02*
X118607240Y-126878571D01*
X118607240Y-126878571D02*
X118635811Y-126850000D01*
X135422857Y-120121331D02*
X135422857Y-120607045D01*
X135422857Y-120607045D02*
X135451428Y-120664188D01*
X135451428Y-120664188D02*
X135480000Y-120692760D01*
X135480000Y-120692760D02*
X135537142Y-120721331D01*
X135537142Y-120721331D02*
X135651428Y-120721331D01*
X135651428Y-120721331D02*
X135708571Y-120692760D01*
X135708571Y-120692760D02*
X135737142Y-120664188D01*
X135737142Y-120664188D02*
X135765714Y-120607045D01*
X135765714Y-120607045D02*
X135765714Y-120121331D01*
X136022856Y-120178474D02*
X136051428Y-120149902D01*
X136051428Y-120149902D02*
X136108571Y-120121331D01*
X136108571Y-120121331D02*
X136251428Y-120121331D01*
X136251428Y-120121331D02*
X136308571Y-120149902D01*
X136308571Y-120149902D02*
X136337142Y-120178474D01*
X136337142Y-120178474D02*
X136365713Y-120235617D01*
X136365713Y-120235617D02*
X136365713Y-120292760D01*
X136365713Y-120292760D02*
X136337142Y-120378474D01*
X136337142Y-120378474D02*
X135994285Y-120721331D01*
X135994285Y-120721331D02*
X136365713Y-120721331D01*
D11*
X171369819Y-80147857D02*
X170893628Y-80481190D01*
X171369819Y-80719285D02*
X170369819Y-80719285D01*
X170369819Y-80719285D02*
X170369819Y-80338333D01*
X170369819Y-80338333D02*
X170417438Y-80243095D01*
X170417438Y-80243095D02*
X170465057Y-80195476D01*
X170465057Y-80195476D02*
X170560295Y-80147857D01*
X170560295Y-80147857D02*
X170703152Y-80147857D01*
X170703152Y-80147857D02*
X170798390Y-80195476D01*
X170798390Y-80195476D02*
X170846009Y-80243095D01*
X170846009Y-80243095D02*
X170893628Y-80338333D01*
X170893628Y-80338333D02*
X170893628Y-80719285D01*
X171369819Y-79195476D02*
X171369819Y-79766904D01*
X171369819Y-79481190D02*
X170369819Y-79481190D01*
X170369819Y-79481190D02*
X170512676Y-79576428D01*
X170512676Y-79576428D02*
X170607914Y-79671666D01*
X170607914Y-79671666D02*
X170655533Y-79766904D01*
X170369819Y-78862142D02*
X170369819Y-78243095D01*
X170369819Y-78243095D02*
X170750771Y-78576428D01*
X170750771Y-78576428D02*
X170750771Y-78433571D01*
X170750771Y-78433571D02*
X170798390Y-78338333D01*
X170798390Y-78338333D02*
X170846009Y-78290714D01*
X170846009Y-78290714D02*
X170941247Y-78243095D01*
X170941247Y-78243095D02*
X171179342Y-78243095D01*
X171179342Y-78243095D02*
X171274580Y-78290714D01*
X171274580Y-78290714D02*
X171322200Y-78338333D01*
X171322200Y-78338333D02*
X171369819Y-78433571D01*
X171369819Y-78433571D02*
X171369819Y-78719285D01*
X171369819Y-78719285D02*
X171322200Y-78814523D01*
X171322200Y-78814523D02*
X171274580Y-78862142D01*
X165562142Y-67849819D02*
X165228809Y-67373628D01*
X164990714Y-67849819D02*
X164990714Y-66849819D01*
X164990714Y-66849819D02*
X165371666Y-66849819D01*
X165371666Y-66849819D02*
X165466904Y-66897438D01*
X165466904Y-66897438D02*
X165514523Y-66945057D01*
X165514523Y-66945057D02*
X165562142Y-67040295D01*
X165562142Y-67040295D02*
X165562142Y-67183152D01*
X165562142Y-67183152D02*
X165514523Y-67278390D01*
X165514523Y-67278390D02*
X165466904Y-67326009D01*
X165466904Y-67326009D02*
X165371666Y-67373628D01*
X165371666Y-67373628D02*
X164990714Y-67373628D01*
X166514523Y-67849819D02*
X165943095Y-67849819D01*
X166228809Y-67849819D02*
X166228809Y-66849819D01*
X166228809Y-66849819D02*
X166133571Y-66992676D01*
X166133571Y-66992676D02*
X166038333Y-67087914D01*
X166038333Y-67087914D02*
X165943095Y-67135533D01*
X167371666Y-67183152D02*
X167371666Y-67849819D01*
X167133571Y-66802200D02*
X166895476Y-67516485D01*
X166895476Y-67516485D02*
X167514523Y-67516485D01*
X173625057Y-83140238D02*
X173577438Y-83235476D01*
X173577438Y-83235476D02*
X173482200Y-83330714D01*
X173482200Y-83330714D02*
X173339342Y-83473571D01*
X173339342Y-83473571D02*
X173291723Y-83568809D01*
X173291723Y-83568809D02*
X173291723Y-83664047D01*
X173529819Y-83616428D02*
X173482200Y-83711666D01*
X173482200Y-83711666D02*
X173386961Y-83806904D01*
X173386961Y-83806904D02*
X173196485Y-83854523D01*
X173196485Y-83854523D02*
X172863152Y-83854523D01*
X172863152Y-83854523D02*
X172672676Y-83806904D01*
X172672676Y-83806904D02*
X172577438Y-83711666D01*
X172577438Y-83711666D02*
X172529819Y-83616428D01*
X172529819Y-83616428D02*
X172529819Y-83425952D01*
X172529819Y-83425952D02*
X172577438Y-83330714D01*
X172577438Y-83330714D02*
X172672676Y-83235476D01*
X172672676Y-83235476D02*
X172863152Y-83187857D01*
X172863152Y-83187857D02*
X173196485Y-83187857D01*
X173196485Y-83187857D02*
X173386961Y-83235476D01*
X173386961Y-83235476D02*
X173482200Y-83330714D01*
X173482200Y-83330714D02*
X173529819Y-83425952D01*
X173529819Y-83425952D02*
X173529819Y-83616428D01*
X173529819Y-82235476D02*
X173529819Y-82806904D01*
X173529819Y-82521190D02*
X172529819Y-82521190D01*
X172529819Y-82521190D02*
X172672676Y-82616428D01*
X172672676Y-82616428D02*
X172767914Y-82711666D01*
X172767914Y-82711666D02*
X172815533Y-82806904D01*
D10*
X142209285Y-126429188D02*
X142180713Y-126457760D01*
X142180713Y-126457760D02*
X142094999Y-126486331D01*
X142094999Y-126486331D02*
X142037856Y-126486331D01*
X142037856Y-126486331D02*
X141952142Y-126457760D01*
X141952142Y-126457760D02*
X141894999Y-126400617D01*
X141894999Y-126400617D02*
X141866428Y-126343474D01*
X141866428Y-126343474D02*
X141837856Y-126229188D01*
X141837856Y-126229188D02*
X141837856Y-126143474D01*
X141837856Y-126143474D02*
X141866428Y-126029188D01*
X141866428Y-126029188D02*
X141894999Y-125972045D01*
X141894999Y-125972045D02*
X141952142Y-125914902D01*
X141952142Y-125914902D02*
X142037856Y-125886331D01*
X142037856Y-125886331D02*
X142094999Y-125886331D01*
X142094999Y-125886331D02*
X142180713Y-125914902D01*
X142180713Y-125914902D02*
X142209285Y-125943474D01*
X142723571Y-125886331D02*
X142609285Y-125886331D01*
X142609285Y-125886331D02*
X142552142Y-125914902D01*
X142552142Y-125914902D02*
X142523571Y-125943474D01*
X142523571Y-125943474D02*
X142466428Y-126029188D01*
X142466428Y-126029188D02*
X142437856Y-126143474D01*
X142437856Y-126143474D02*
X142437856Y-126372045D01*
X142437856Y-126372045D02*
X142466428Y-126429188D01*
X142466428Y-126429188D02*
X142494999Y-126457760D01*
X142494999Y-126457760D02*
X142552142Y-126486331D01*
X142552142Y-126486331D02*
X142666428Y-126486331D01*
X142666428Y-126486331D02*
X142723571Y-126457760D01*
X142723571Y-126457760D02*
X142752142Y-126429188D01*
X142752142Y-126429188D02*
X142780713Y-126372045D01*
X142780713Y-126372045D02*
X142780713Y-126229188D01*
X142780713Y-126229188D02*
X142752142Y-126172045D01*
X142752142Y-126172045D02*
X142723571Y-126143474D01*
X142723571Y-126143474D02*
X142666428Y-126114902D01*
X142666428Y-126114902D02*
X142552142Y-126114902D01*
X142552142Y-126114902D02*
X142494999Y-126143474D01*
X142494999Y-126143474D02*
X142466428Y-126172045D01*
X142466428Y-126172045D02*
X142437856Y-126229188D01*
X143323571Y-125886331D02*
X143037857Y-125886331D01*
X143037857Y-125886331D02*
X143009285Y-126172045D01*
X143009285Y-126172045D02*
X143037857Y-126143474D01*
X143037857Y-126143474D02*
X143095000Y-126114902D01*
X143095000Y-126114902D02*
X143237857Y-126114902D01*
X143237857Y-126114902D02*
X143295000Y-126143474D01*
X143295000Y-126143474D02*
X143323571Y-126172045D01*
X143323571Y-126172045D02*
X143352142Y-126229188D01*
X143352142Y-126229188D02*
X143352142Y-126372045D01*
X143352142Y-126372045D02*
X143323571Y-126429188D01*
X143323571Y-126429188D02*
X143295000Y-126457760D01*
X143295000Y-126457760D02*
X143237857Y-126486331D01*
X143237857Y-126486331D02*
X143095000Y-126486331D01*
X143095000Y-126486331D02*
X143037857Y-126457760D01*
X143037857Y-126457760D02*
X143009285Y-126429188D01*
X128714285Y-120944188D02*
X128685713Y-120972760D01*
X128685713Y-120972760D02*
X128599999Y-121001331D01*
X128599999Y-121001331D02*
X128542856Y-121001331D01*
X128542856Y-121001331D02*
X128457142Y-120972760D01*
X128457142Y-120972760D02*
X128399999Y-120915617D01*
X128399999Y-120915617D02*
X128371428Y-120858474D01*
X128371428Y-120858474D02*
X128342856Y-120744188D01*
X128342856Y-120744188D02*
X128342856Y-120658474D01*
X128342856Y-120658474D02*
X128371428Y-120544188D01*
X128371428Y-120544188D02*
X128399999Y-120487045D01*
X128399999Y-120487045D02*
X128457142Y-120429902D01*
X128457142Y-120429902D02*
X128542856Y-120401331D01*
X128542856Y-120401331D02*
X128599999Y-120401331D01*
X128599999Y-120401331D02*
X128685713Y-120429902D01*
X128685713Y-120429902D02*
X128714285Y-120458474D01*
X129228571Y-120401331D02*
X129114285Y-120401331D01*
X129114285Y-120401331D02*
X129057142Y-120429902D01*
X129057142Y-120429902D02*
X129028571Y-120458474D01*
X129028571Y-120458474D02*
X128971428Y-120544188D01*
X128971428Y-120544188D02*
X128942856Y-120658474D01*
X128942856Y-120658474D02*
X128942856Y-120887045D01*
X128942856Y-120887045D02*
X128971428Y-120944188D01*
X128971428Y-120944188D02*
X128999999Y-120972760D01*
X128999999Y-120972760D02*
X129057142Y-121001331D01*
X129057142Y-121001331D02*
X129171428Y-121001331D01*
X129171428Y-121001331D02*
X129228571Y-120972760D01*
X129228571Y-120972760D02*
X129257142Y-120944188D01*
X129257142Y-120944188D02*
X129285713Y-120887045D01*
X129285713Y-120887045D02*
X129285713Y-120744188D01*
X129285713Y-120744188D02*
X129257142Y-120687045D01*
X129257142Y-120687045D02*
X129228571Y-120658474D01*
X129228571Y-120658474D02*
X129171428Y-120629902D01*
X129171428Y-120629902D02*
X129057142Y-120629902D01*
X129057142Y-120629902D02*
X128999999Y-120658474D01*
X128999999Y-120658474D02*
X128971428Y-120687045D01*
X128971428Y-120687045D02*
X128942856Y-120744188D01*
X129800000Y-120601331D02*
X129800000Y-121001331D01*
X129657142Y-120372760D02*
X129514285Y-120801331D01*
X129514285Y-120801331D02*
X129885714Y-120801331D01*
D11*
X161361666Y-65499819D02*
X161361666Y-66214104D01*
X161361666Y-66214104D02*
X161314047Y-66356961D01*
X161314047Y-66356961D02*
X161218809Y-66452200D01*
X161218809Y-66452200D02*
X161075952Y-66499819D01*
X161075952Y-66499819D02*
X160980714Y-66499819D01*
X161790238Y-65595057D02*
X161837857Y-65547438D01*
X161837857Y-65547438D02*
X161933095Y-65499819D01*
X161933095Y-65499819D02*
X162171190Y-65499819D01*
X162171190Y-65499819D02*
X162266428Y-65547438D01*
X162266428Y-65547438D02*
X162314047Y-65595057D01*
X162314047Y-65595057D02*
X162361666Y-65690295D01*
X162361666Y-65690295D02*
X162361666Y-65785533D01*
X162361666Y-65785533D02*
X162314047Y-65928390D01*
X162314047Y-65928390D02*
X161742619Y-66499819D01*
X161742619Y-66499819D02*
X162361666Y-66499819D01*
X172752142Y-87879819D02*
X172418809Y-87403628D01*
X172180714Y-87879819D02*
X172180714Y-86879819D01*
X172180714Y-86879819D02*
X172561666Y-86879819D01*
X172561666Y-86879819D02*
X172656904Y-86927438D01*
X172656904Y-86927438D02*
X172704523Y-86975057D01*
X172704523Y-86975057D02*
X172752142Y-87070295D01*
X172752142Y-87070295D02*
X172752142Y-87213152D01*
X172752142Y-87213152D02*
X172704523Y-87308390D01*
X172704523Y-87308390D02*
X172656904Y-87356009D01*
X172656904Y-87356009D02*
X172561666Y-87403628D01*
X172561666Y-87403628D02*
X172180714Y-87403628D01*
X173704523Y-87879819D02*
X173133095Y-87879819D01*
X173418809Y-87879819D02*
X173418809Y-86879819D01*
X173418809Y-86879819D02*
X173323571Y-87022676D01*
X173323571Y-87022676D02*
X173228333Y-87117914D01*
X173228333Y-87117914D02*
X173133095Y-87165533D01*
X174085476Y-86975057D02*
X174133095Y-86927438D01*
X174133095Y-86927438D02*
X174228333Y-86879819D01*
X174228333Y-86879819D02*
X174466428Y-86879819D01*
X174466428Y-86879819D02*
X174561666Y-86927438D01*
X174561666Y-86927438D02*
X174609285Y-86975057D01*
X174609285Y-86975057D02*
X174656904Y-87070295D01*
X174656904Y-87070295D02*
X174656904Y-87165533D01*
X174656904Y-87165533D02*
X174609285Y-87308390D01*
X174609285Y-87308390D02*
X174037857Y-87879819D01*
X174037857Y-87879819D02*
X174656904Y-87879819D01*
X167450000Y-123800000D02*
X167450000Y-130300000D01*
X167450000Y-130300000D02*
X180250000Y-130300000D01*
X180250000Y-123800000D02*
X167450000Y-123800000D01*
X180250000Y-130300000D02*
X180250000Y-123800000D01*
D10*
X134437221Y-112890000D02*
X134762779Y-112890000D01*
X134437221Y-113910000D02*
X134762779Y-113910000D01*
X134240000Y-130612779D02*
X134240000Y-130287221D01*
X135260000Y-130612779D02*
X135260000Y-130287221D01*
X132715000Y-142215000D02*
X132715000Y-143585000D01*
X132715000Y-143585000D02*
X135200000Y-143585000D01*
X135200000Y-142215000D02*
X132715000Y-142215000D01*
D11*
X140560000Y-119400000D02*
G75*
G03*
X140560000Y-119400000I-100000J0D01*
G01*
D10*
X144450000Y-124250000D02*
X146450000Y-124250000D01*
X144450000Y-124250000D02*
X144450000Y-120350000D01*
X146450000Y-124250000D02*
X146450000Y-120350000D01*
D13*
X158975000Y-141480000D02*
X158975000Y-138480000D01*
X158975000Y-146480000D02*
X158975000Y-144230000D01*
X160050000Y-136480000D02*
X160550000Y-136480000D01*
X167050000Y-136480000D02*
X167550000Y-136480000D01*
X168625000Y-138480000D02*
X168625000Y-141480000D01*
X168625000Y-144230000D02*
X168625000Y-146480000D01*
X168625000Y-146480000D02*
X158975000Y-146480000D01*
D14*
X161150000Y-135980000D02*
G75*
G03*
X161150000Y-135980000I-100000J0D01*
G01*
D10*
X134777221Y-116030000D02*
X135102779Y-116030000D01*
X134777221Y-117050000D02*
X135102779Y-117050000D01*
X129710000Y-141687221D02*
X129710000Y-142012779D01*
X128690000Y-141687221D02*
X128690000Y-142012779D01*
X137510000Y-141837221D02*
X137510000Y-142162779D01*
X136490000Y-141837221D02*
X136490000Y-142162779D01*
X131862779Y-103460000D02*
X131537221Y-103460000D01*
X131862779Y-102440000D02*
X131537221Y-102440000D01*
X125011354Y-142015000D02*
X125011354Y-143385000D01*
X125011354Y-143385000D02*
X127496354Y-143385000D01*
X127496354Y-142015000D02*
X125011354Y-142015000D01*
D15*
X123292242Y-83306543D02*
X123296510Y-83342012D01*
X123304755Y-83406350D01*
X123335783Y-83447519D01*
X123400600Y-83473463D01*
X123503152Y-83491199D01*
X123668804Y-83513220D01*
X123505005Y-83535052D01*
X123396516Y-83555165D01*
X123332662Y-83584885D01*
X123302890Y-83631990D01*
X123296510Y-83688750D01*
X123287062Y-83741108D01*
X123266659Y-83747211D01*
X123245635Y-83711753D01*
X123235716Y-83661141D01*
X123227982Y-83610534D01*
X123207960Y-83581873D01*
X123161758Y-83566343D01*
X123075484Y-83555128D01*
X123067248Y-83554241D01*
X122971877Y-83540941D01*
X122909764Y-83526475D01*
X122886576Y-83513503D01*
X122907980Y-83504682D01*
X122956730Y-83502391D01*
X123088085Y-83494487D01*
X123173532Y-83468748D01*
X123220359Y-83422138D01*
X123232069Y-83387643D01*
X123252339Y-83322360D01*
X123275112Y-83293404D01*
X123292242Y-83306543D01*
G36*
X123292242Y-83306543D02*
G01*
X123296510Y-83342012D01*
X123304755Y-83406350D01*
X123335783Y-83447519D01*
X123400600Y-83473463D01*
X123503152Y-83491199D01*
X123668804Y-83513220D01*
X123505005Y-83535052D01*
X123396516Y-83555165D01*
X123332662Y-83584885D01*
X123302890Y-83631990D01*
X123296510Y-83688750D01*
X123287062Y-83741108D01*
X123266659Y-83747211D01*
X123245635Y-83711753D01*
X123235716Y-83661141D01*
X123227982Y-83610534D01*
X123207960Y-83581873D01*
X123161758Y-83566343D01*
X123075484Y-83555128D01*
X123067248Y-83554241D01*
X122971877Y-83540941D01*
X122909764Y-83526475D01*
X122886576Y-83513503D01*
X122907980Y-83504682D01*
X122956730Y-83502391D01*
X123088085Y-83494487D01*
X123173532Y-83468748D01*
X123220359Y-83422138D01*
X123232069Y-83387643D01*
X123252339Y-83322360D01*
X123275112Y-83293404D01*
X123292242Y-83306543D01*
G37*
X120607888Y-82688773D02*
X120642579Y-82726481D01*
X120666114Y-82764847D01*
X120721387Y-82863011D01*
X120743331Y-82924254D01*
X120728262Y-82958239D01*
X120672495Y-82974628D01*
X120583181Y-82982403D01*
X120420892Y-83010506D01*
X120295565Y-83073626D01*
X120205064Y-83174641D01*
X120147252Y-83316433D01*
X120119992Y-83501884D01*
X120117145Y-83610666D01*
X120130064Y-83817023D01*
X120165507Y-83988893D01*
X120221664Y-84120200D01*
X120293486Y-84202528D01*
X120388803Y-84243648D01*
X120510543Y-84256120D01*
X120637822Y-84239773D01*
X120729117Y-84206082D01*
X120776361Y-84172677D01*
X120855346Y-84106748D01*
X120958778Y-84014824D01*
X121079360Y-83903435D01*
X121209800Y-83779112D01*
X121252672Y-83737428D01*
X121455342Y-83544056D01*
X121627979Y-83390788D01*
X121775479Y-83274965D01*
X121902741Y-83193927D01*
X122014661Y-83145013D01*
X122116137Y-83125565D01*
X122212067Y-83132922D01*
X122307346Y-83164424D01*
X122307529Y-83164505D01*
X122450190Y-83251697D01*
X122576926Y-83373106D01*
X122654060Y-83484614D01*
X122693367Y-83607635D01*
X122701824Y-83763866D01*
X122680019Y-83941121D01*
X122628535Y-84127215D01*
X122622351Y-84144293D01*
X122543256Y-84358260D01*
X122424344Y-84358260D01*
X122347823Y-84352786D01*
X122297423Y-84339044D01*
X122289543Y-84332550D01*
X122294105Y-84296195D01*
X122324141Y-84234445D01*
X122343086Y-84204524D01*
X122414467Y-84065603D01*
X122459408Y-83907283D01*
X122475819Y-83746306D01*
X122461611Y-83599415D01*
X122429890Y-83509114D01*
X122352052Y-83413760D01*
X122244722Y-83355616D01*
X122122289Y-83338382D01*
X121999147Y-83365757D01*
X121956909Y-83387551D01*
X121912198Y-83417231D01*
X121863440Y-83455551D01*
X121805182Y-83507855D01*
X121731969Y-83579488D01*
X121638350Y-83675794D01*
X121518869Y-83802117D01*
X121368074Y-83963801D01*
X121359977Y-83972518D01*
X121201570Y-84137837D01*
X121067516Y-84263988D01*
X120949478Y-84356304D01*
X120839120Y-84420121D01*
X120728107Y-84460771D01*
X120608103Y-84483589D01*
X120552549Y-84489176D01*
X120362623Y-84480794D01*
X120197498Y-84425831D01*
X120062215Y-84327874D01*
X119961813Y-84190512D01*
X119903367Y-84026956D01*
X119883667Y-83903271D01*
X119869302Y-83747525D01*
X119861031Y-83579005D01*
X119859619Y-83416997D01*
X119865825Y-83280789D01*
X119871865Y-83229394D01*
X119924779Y-83060916D01*
X120023510Y-82916244D01*
X120161742Y-82800992D01*
X120333158Y-82720773D01*
X120482697Y-82686560D01*
X120561766Y-82678527D01*
X120607888Y-82688773D01*
G36*
X120607888Y-82688773D02*
G01*
X120642579Y-82726481D01*
X120666114Y-82764847D01*
X120721387Y-82863011D01*
X120743331Y-82924254D01*
X120728262Y-82958239D01*
X120672495Y-82974628D01*
X120583181Y-82982403D01*
X120420892Y-83010506D01*
X120295565Y-83073626D01*
X120205064Y-83174641D01*
X120147252Y-83316433D01*
X120119992Y-83501884D01*
X120117145Y-83610666D01*
X120130064Y-83817023D01*
X120165507Y-83988893D01*
X120221664Y-84120200D01*
X120293486Y-84202528D01*
X120388803Y-84243648D01*
X120510543Y-84256120D01*
X120637822Y-84239773D01*
X120729117Y-84206082D01*
X120776361Y-84172677D01*
X120855346Y-84106748D01*
X120958778Y-84014824D01*
X121079360Y-83903435D01*
X121209800Y-83779112D01*
X121252672Y-83737428D01*
X121455342Y-83544056D01*
X121627979Y-83390788D01*
X121775479Y-83274965D01*
X121902741Y-83193927D01*
X122014661Y-83145013D01*
X122116137Y-83125565D01*
X122212067Y-83132922D01*
X122307346Y-83164424D01*
X122307529Y-83164505D01*
X122450190Y-83251697D01*
X122576926Y-83373106D01*
X122654060Y-83484614D01*
X122693367Y-83607635D01*
X122701824Y-83763866D01*
X122680019Y-83941121D01*
X122628535Y-84127215D01*
X122622351Y-84144293D01*
X122543256Y-84358260D01*
X122424344Y-84358260D01*
X122347823Y-84352786D01*
X122297423Y-84339044D01*
X122289543Y-84332550D01*
X122294105Y-84296195D01*
X122324141Y-84234445D01*
X122343086Y-84204524D01*
X122414467Y-84065603D01*
X122459408Y-83907283D01*
X122475819Y-83746306D01*
X122461611Y-83599415D01*
X122429890Y-83509114D01*
X122352052Y-83413760D01*
X122244722Y-83355616D01*
X122122289Y-83338382D01*
X121999147Y-83365757D01*
X121956909Y-83387551D01*
X121912198Y-83417231D01*
X121863440Y-83455551D01*
X121805182Y-83507855D01*
X121731969Y-83579488D01*
X121638350Y-83675794D01*
X121518869Y-83802117D01*
X121368074Y-83963801D01*
X121359977Y-83972518D01*
X121201570Y-84137837D01*
X121067516Y-84263988D01*
X120949478Y-84356304D01*
X120839120Y-84420121D01*
X120728107Y-84460771D01*
X120608103Y-84483589D01*
X120552549Y-84489176D01*
X120362623Y-84480794D01*
X120197498Y-84425831D01*
X120062215Y-84327874D01*
X119961813Y-84190512D01*
X119903367Y-84026956D01*
X119883667Y-83903271D01*
X119869302Y-83747525D01*
X119861031Y-83579005D01*
X119859619Y-83416997D01*
X119865825Y-83280789D01*
X119871865Y-83229394D01*
X119924779Y-83060916D01*
X120023510Y-82916244D01*
X120161742Y-82800992D01*
X120333158Y-82720773D01*
X120482697Y-82686560D01*
X120561766Y-82678527D01*
X120607888Y-82688773D01*
G37*
X122631110Y-85301497D02*
X122739374Y-85303763D01*
X122800151Y-85307346D01*
X122803308Y-85307775D01*
X122931726Y-85327131D01*
X122960750Y-85484598D01*
X122976675Y-85566132D01*
X123001651Y-85688206D01*
X123032885Y-85837426D01*
X123067587Y-86000400D01*
X123088001Y-86095020D01*
X123120060Y-86245125D01*
X123146875Y-86375062D01*
X123166666Y-86475842D01*
X123177654Y-86538477D01*
X123179038Y-86555025D01*
X123149635Y-86560139D01*
X123084377Y-86565015D01*
X123002621Y-86568731D01*
X122923724Y-86570363D01*
X122875054Y-86569516D01*
X122845944Y-86557763D01*
X122830842Y-86518071D01*
X122825491Y-86437828D01*
X122825271Y-86422010D01*
X122819780Y-86337079D01*
X122805951Y-86214674D01*
X122785906Y-86071540D01*
X122763152Y-85932240D01*
X122736395Y-85783576D01*
X122710554Y-85676028D01*
X122676769Y-85602705D01*
X122626178Y-85556712D01*
X122549920Y-85531155D01*
X122439135Y-85519141D01*
X122284961Y-85513775D01*
X122223361Y-85512296D01*
X122072171Y-85509709D01*
X121959819Y-85514843D01*
X121881827Y-85534447D01*
X121833719Y-85575271D01*
X121811018Y-85644065D01*
X121809248Y-85747579D01*
X121823931Y-85892564D01*
X121849254Y-86076357D01*
X121853512Y-86169827D01*
X121828879Y-86221078D01*
X121768781Y-86235373D01*
X121671026Y-86219069D01*
X121570543Y-86194239D01*
X121570543Y-85882650D01*
X121568976Y-85739245D01*
X121563535Y-85641899D01*
X121553116Y-85581521D01*
X121536610Y-85549022D01*
X121529130Y-85542511D01*
X121486925Y-85533263D01*
X121399944Y-85527925D01*
X121278469Y-85526208D01*
X121132783Y-85527823D01*
X120973168Y-85532480D01*
X120809904Y-85539889D01*
X120653275Y-85549762D01*
X120513562Y-85561808D01*
X120413132Y-85573925D01*
X120308091Y-85590075D01*
X120234273Y-85608844D01*
X120186671Y-85639182D01*
X120160274Y-85690039D01*
X120150073Y-85770365D01*
X120151060Y-85889111D01*
X120157149Y-86031294D01*
X120165934Y-86180473D01*
X120177890Y-86321868D01*
X120191473Y-86439885D01*
X120205137Y-86518928D01*
X120205668Y-86521077D01*
X120226754Y-86626833D01*
X120219896Y-86690606D01*
X120177977Y-86721552D01*
X120093875Y-86728829D01*
X120045497Y-86727094D01*
X119886413Y-86718804D01*
X119879038Y-86039723D01*
X119871662Y-85360643D01*
X120182893Y-85342867D01*
X120313513Y-85336653D01*
X120480875Y-85330629D01*
X120677960Y-85324889D01*
X120897749Y-85319526D01*
X121133223Y-85314634D01*
X121377362Y-85310309D01*
X121623149Y-85306643D01*
X121863562Y-85303730D01*
X122091584Y-85301666D01*
X122300196Y-85300542D01*
X122482377Y-85300455D01*
X122631110Y-85301497D01*
G36*
X122631110Y-85301497D02*
G01*
X122739374Y-85303763D01*
X122800151Y-85307346D01*
X122803308Y-85307775D01*
X122931726Y-85327131D01*
X122960750Y-85484598D01*
X122976675Y-85566132D01*
X123001651Y-85688206D01*
X123032885Y-85837426D01*
X123067587Y-86000400D01*
X123088001Y-86095020D01*
X123120060Y-86245125D01*
X123146875Y-86375062D01*
X123166666Y-86475842D01*
X123177654Y-86538477D01*
X123179038Y-86555025D01*
X123149635Y-86560139D01*
X123084377Y-86565015D01*
X123002621Y-86568731D01*
X122923724Y-86570363D01*
X122875054Y-86569516D01*
X122845944Y-86557763D01*
X122830842Y-86518071D01*
X122825491Y-86437828D01*
X122825271Y-86422010D01*
X122819780Y-86337079D01*
X122805951Y-86214674D01*
X122785906Y-86071540D01*
X122763152Y-85932240D01*
X122736395Y-85783576D01*
X122710554Y-85676028D01*
X122676769Y-85602705D01*
X122626178Y-85556712D01*
X122549920Y-85531155D01*
X122439135Y-85519141D01*
X122284961Y-85513775D01*
X122223361Y-85512296D01*
X122072171Y-85509709D01*
X121959819Y-85514843D01*
X121881827Y-85534447D01*
X121833719Y-85575271D01*
X121811018Y-85644065D01*
X121809248Y-85747579D01*
X121823931Y-85892564D01*
X121849254Y-86076357D01*
X121853512Y-86169827D01*
X121828879Y-86221078D01*
X121768781Y-86235373D01*
X121671026Y-86219069D01*
X121570543Y-86194239D01*
X121570543Y-85882650D01*
X121568976Y-85739245D01*
X121563535Y-85641899D01*
X121553116Y-85581521D01*
X121536610Y-85549022D01*
X121529130Y-85542511D01*
X121486925Y-85533263D01*
X121399944Y-85527925D01*
X121278469Y-85526208D01*
X121132783Y-85527823D01*
X120973168Y-85532480D01*
X120809904Y-85539889D01*
X120653275Y-85549762D01*
X120513562Y-85561808D01*
X120413132Y-85573925D01*
X120308091Y-85590075D01*
X120234273Y-85608844D01*
X120186671Y-85639182D01*
X120160274Y-85690039D01*
X120150073Y-85770365D01*
X120151060Y-85889111D01*
X120157149Y-86031294D01*
X120165934Y-86180473D01*
X120177890Y-86321868D01*
X120191473Y-86439885D01*
X120205137Y-86518928D01*
X120205668Y-86521077D01*
X120226754Y-86626833D01*
X120219896Y-86690606D01*
X120177977Y-86721552D01*
X120093875Y-86728829D01*
X120045497Y-86727094D01*
X119886413Y-86718804D01*
X119879038Y-86039723D01*
X119871662Y-85360643D01*
X120182893Y-85342867D01*
X120313513Y-85336653D01*
X120480875Y-85330629D01*
X120677960Y-85324889D01*
X120897749Y-85319526D01*
X121133223Y-85314634D01*
X121377362Y-85310309D01*
X121623149Y-85306643D01*
X121863562Y-85303730D01*
X122091584Y-85301666D01*
X122300196Y-85300542D01*
X122482377Y-85300455D01*
X122631110Y-85301497D01*
G37*
X122538744Y-90364815D02*
X122675560Y-90367331D01*
X122691687Y-90367804D01*
X123260656Y-90385493D01*
X123276271Y-90681478D01*
X123281504Y-90842826D01*
X123282567Y-91029645D01*
X123279462Y-91212350D01*
X123276203Y-91295885D01*
X123260521Y-91614306D01*
X123159902Y-91623902D01*
X123052586Y-91628422D01*
X122989783Y-91612070D01*
X122966647Y-91567516D01*
X122978333Y-91487425D01*
X123008694Y-91395047D01*
X123030120Y-91309263D01*
X123045797Y-91194347D01*
X123055378Y-91064335D01*
X123058515Y-90933263D01*
X123054864Y-90815168D01*
X123044077Y-90724086D01*
X123026474Y-90674830D01*
X122977936Y-90648297D01*
X122883339Y-90623836D01*
X122751835Y-90602624D01*
X122592574Y-90585837D01*
X122414708Y-90574651D01*
X122227388Y-90570242D01*
X122212548Y-90570217D01*
X122077111Y-90570299D01*
X121976695Y-90575227D01*
X121907083Y-90592028D01*
X121864057Y-90627726D01*
X121843401Y-90689346D01*
X121840897Y-90783914D01*
X121852328Y-90918455D01*
X121873477Y-91099994D01*
X121876942Y-91129293D01*
X121895646Y-91288043D01*
X121770986Y-91288043D01*
X121686652Y-91280231D01*
X121626931Y-91260330D01*
X121615862Y-91251336D01*
X121601934Y-91206489D01*
X121592047Y-91116094D01*
X121587039Y-90989728D01*
X121586622Y-90917179D01*
X121585526Y-90794200D01*
X121581609Y-90692472D01*
X121575527Y-90624175D01*
X121569635Y-90601875D01*
X121534084Y-90594065D01*
X121453598Y-90589488D01*
X121338352Y-90587917D01*
X121198519Y-90589124D01*
X121044274Y-90592883D01*
X120885790Y-90598965D01*
X120733243Y-90607144D01*
X120596805Y-90617193D01*
X120514274Y-90625455D01*
X120366520Y-90646324D01*
X120269011Y-90669162D01*
X120216781Y-90695216D01*
X120210815Y-90701579D01*
X120192193Y-90756091D01*
X120181190Y-90853499D01*
X120177849Y-90982004D01*
X120182210Y-91129807D01*
X120194316Y-91285109D01*
X120208365Y-91398478D01*
X120223845Y-91512050D01*
X120235853Y-91614931D01*
X120241911Y-91685789D01*
X120242023Y-91688369D01*
X120245326Y-91771195D01*
X119914022Y-91771195D01*
X119906633Y-91103614D01*
X119905536Y-90915722D01*
X119906437Y-90747414D01*
X119909143Y-90606305D01*
X119913465Y-90500011D01*
X119919209Y-90436146D01*
X119923815Y-90420848D01*
X119959728Y-90414918D01*
X120044456Y-90408794D01*
X120171598Y-90402599D01*
X120334753Y-90396454D01*
X120527520Y-90390484D01*
X120743497Y-90384810D01*
X120976283Y-90379555D01*
X121219477Y-90374843D01*
X121466678Y-90370794D01*
X121711485Y-90367533D01*
X121947496Y-90365182D01*
X122168310Y-90363864D01*
X122367527Y-90363701D01*
X122538744Y-90364815D01*
G36*
X122538744Y-90364815D02*
G01*
X122675560Y-90367331D01*
X122691687Y-90367804D01*
X123260656Y-90385493D01*
X123276271Y-90681478D01*
X123281504Y-90842826D01*
X123282567Y-91029645D01*
X123279462Y-91212350D01*
X123276203Y-91295885D01*
X123260521Y-91614306D01*
X123159902Y-91623902D01*
X123052586Y-91628422D01*
X122989783Y-91612070D01*
X122966647Y-91567516D01*
X122978333Y-91487425D01*
X123008694Y-91395047D01*
X123030120Y-91309263D01*
X123045797Y-91194347D01*
X123055378Y-91064335D01*
X123058515Y-90933263D01*
X123054864Y-90815168D01*
X123044077Y-90724086D01*
X123026474Y-90674830D01*
X122977936Y-90648297D01*
X122883339Y-90623836D01*
X122751835Y-90602624D01*
X122592574Y-90585837D01*
X122414708Y-90574651D01*
X122227388Y-90570242D01*
X122212548Y-90570217D01*
X122077111Y-90570299D01*
X121976695Y-90575227D01*
X121907083Y-90592028D01*
X121864057Y-90627726D01*
X121843401Y-90689346D01*
X121840897Y-90783914D01*
X121852328Y-90918455D01*
X121873477Y-91099994D01*
X121876942Y-91129293D01*
X121895646Y-91288043D01*
X121770986Y-91288043D01*
X121686652Y-91280231D01*
X121626931Y-91260330D01*
X121615862Y-91251336D01*
X121601934Y-91206489D01*
X121592047Y-91116094D01*
X121587039Y-90989728D01*
X121586622Y-90917179D01*
X121585526Y-90794200D01*
X121581609Y-90692472D01*
X121575527Y-90624175D01*
X121569635Y-90601875D01*
X121534084Y-90594065D01*
X121453598Y-90589488D01*
X121338352Y-90587917D01*
X121198519Y-90589124D01*
X121044274Y-90592883D01*
X120885790Y-90598965D01*
X120733243Y-90607144D01*
X120596805Y-90617193D01*
X120514274Y-90625455D01*
X120366520Y-90646324D01*
X120269011Y-90669162D01*
X120216781Y-90695216D01*
X120210815Y-90701579D01*
X120192193Y-90756091D01*
X120181190Y-90853499D01*
X120177849Y-90982004D01*
X120182210Y-91129807D01*
X120194316Y-91285109D01*
X120208365Y-91398478D01*
X120223845Y-91512050D01*
X120235853Y-91614931D01*
X120241911Y-91685789D01*
X120242023Y-91688369D01*
X120245326Y-91771195D01*
X119914022Y-91771195D01*
X119906633Y-91103614D01*
X119905536Y-90915722D01*
X119906437Y-90747414D01*
X119909143Y-90606305D01*
X119913465Y-90500011D01*
X119919209Y-90436146D01*
X119923815Y-90420848D01*
X119959728Y-90414918D01*
X120044456Y-90408794D01*
X120171598Y-90402599D01*
X120334753Y-90396454D01*
X120527520Y-90390484D01*
X120743497Y-90384810D01*
X120976283Y-90379555D01*
X121219477Y-90374843D01*
X121466678Y-90370794D01*
X121711485Y-90367533D01*
X121947496Y-90365182D01*
X122168310Y-90363864D01*
X122367527Y-90363701D01*
X122538744Y-90364815D01*
G37*
X123219369Y-86843043D02*
X123208524Y-87139837D01*
X123200979Y-87286590D01*
X123188865Y-87394728D01*
X123169150Y-87480832D01*
X123138805Y-87561481D01*
X123126526Y-87588478D01*
X123007146Y-87778764D01*
X122841220Y-87940546D01*
X122629737Y-88073418D01*
X122373687Y-88176973D01*
X122074057Y-88250804D01*
X121731837Y-88294506D01*
X121377282Y-88307752D01*
X121032665Y-88295573D01*
X120736485Y-88258682D01*
X120487549Y-88196570D01*
X120284662Y-88108729D01*
X120126631Y-87994650D01*
X120012263Y-87853824D01*
X119943478Y-87696524D01*
X119924585Y-87607639D01*
X119910750Y-87493005D01*
X119905097Y-87409021D01*
X120097918Y-87409021D01*
X120106876Y-87446467D01*
X120134587Y-87517498D01*
X120172970Y-87602282D01*
X120270994Y-87767127D01*
X120393595Y-87894302D01*
X120554013Y-87996667D01*
X120604239Y-88021124D01*
X120672226Y-88050939D01*
X120734447Y-88072260D01*
X120802710Y-88086839D01*
X120888824Y-88096429D01*
X121004597Y-88102782D01*
X121161836Y-88107651D01*
X121192451Y-88108430D01*
X121529999Y-88104230D01*
X121841278Y-88075126D01*
X122122758Y-88022625D01*
X122370906Y-87948233D01*
X122582193Y-87853455D01*
X122753086Y-87739798D01*
X122880056Y-87608767D01*
X122959571Y-87461869D01*
X122985813Y-87343526D01*
X122987121Y-87250493D01*
X122975285Y-87172558D01*
X122966937Y-87150764D01*
X122957697Y-87135392D01*
X122944489Y-87122943D01*
X122921884Y-87113116D01*
X122884456Y-87105607D01*
X122826778Y-87100112D01*
X122743424Y-87096328D01*
X122628965Y-87093952D01*
X122477976Y-87092680D01*
X122285029Y-87092208D01*
X122044698Y-87092235D01*
X121921583Y-87092327D01*
X121542412Y-87094034D01*
X121204687Y-87098460D01*
X120910390Y-87105510D01*
X120661499Y-87115091D01*
X120459995Y-87127109D01*
X120307858Y-87141471D01*
X120207067Y-87158083D01*
X120161023Y-87175573D01*
X120131709Y-87223204D01*
X120113297Y-87293740D01*
X120104267Y-87363637D01*
X120097934Y-87408925D01*
X120097918Y-87409021D01*
X119905097Y-87409021D01*
X119902114Y-87364714D01*
X119898817Y-87234853D01*
X119900998Y-87115515D01*
X119908797Y-87018789D01*
X119922355Y-86956764D01*
X119934728Y-86940642D01*
X119966592Y-86938215D01*
X120047637Y-86934444D01*
X120171852Y-86929517D01*
X120333222Y-86923618D01*
X120525732Y-86916932D01*
X120743370Y-86909646D01*
X120980122Y-86901944D01*
X121229974Y-86894012D01*
X121486911Y-86886036D01*
X121744921Y-86878200D01*
X121997989Y-86870691D01*
X122240102Y-86863693D01*
X122285029Y-86862436D01*
X122465246Y-86857393D01*
X122667408Y-86851975D01*
X122840572Y-86847625D01*
X122978726Y-86844529D01*
X123075856Y-86842872D01*
X123112782Y-86842648D01*
X123219369Y-86843043D01*
G36*
X123219369Y-86843043D02*
G01*
X123208524Y-87139837D01*
X123200979Y-87286590D01*
X123188865Y-87394728D01*
X123169150Y-87480832D01*
X123138805Y-87561481D01*
X123126526Y-87588478D01*
X123007146Y-87778764D01*
X122841220Y-87940546D01*
X122629737Y-88073418D01*
X122373687Y-88176973D01*
X122074057Y-88250804D01*
X121731837Y-88294506D01*
X121377282Y-88307752D01*
X121032665Y-88295573D01*
X120736485Y-88258682D01*
X120487549Y-88196570D01*
X120284662Y-88108729D01*
X120126631Y-87994650D01*
X120012263Y-87853824D01*
X119943478Y-87696524D01*
X119924585Y-87607639D01*
X119910750Y-87493005D01*
X119905097Y-87409021D01*
X120097918Y-87409021D01*
X120106876Y-87446467D01*
X120134587Y-87517498D01*
X120172970Y-87602282D01*
X120270994Y-87767127D01*
X120393595Y-87894302D01*
X120554013Y-87996667D01*
X120604239Y-88021124D01*
X120672226Y-88050939D01*
X120734447Y-88072260D01*
X120802710Y-88086839D01*
X120888824Y-88096429D01*
X121004597Y-88102782D01*
X121161836Y-88107651D01*
X121192451Y-88108430D01*
X121529999Y-88104230D01*
X121841278Y-88075126D01*
X122122758Y-88022625D01*
X122370906Y-87948233D01*
X122582193Y-87853455D01*
X122753086Y-87739798D01*
X122880056Y-87608767D01*
X122959571Y-87461869D01*
X122985813Y-87343526D01*
X122987121Y-87250493D01*
X122975285Y-87172558D01*
X122966937Y-87150764D01*
X122957697Y-87135392D01*
X122944489Y-87122943D01*
X122921884Y-87113116D01*
X122884456Y-87105607D01*
X122826778Y-87100112D01*
X122743424Y-87096328D01*
X122628965Y-87093952D01*
X122477976Y-87092680D01*
X122285029Y-87092208D01*
X122044698Y-87092235D01*
X121921583Y-87092327D01*
X121542412Y-87094034D01*
X121204687Y-87098460D01*
X120910390Y-87105510D01*
X120661499Y-87115091D01*
X120459995Y-87127109D01*
X120307858Y-87141471D01*
X120207067Y-87158083D01*
X120161023Y-87175573D01*
X120131709Y-87223204D01*
X120113297Y-87293740D01*
X120104267Y-87363637D01*
X120097934Y-87408925D01*
X120097918Y-87409021D01*
X119905097Y-87409021D01*
X119902114Y-87364714D01*
X119898817Y-87234853D01*
X119900998Y-87115515D01*
X119908797Y-87018789D01*
X119922355Y-86956764D01*
X119934728Y-86940642D01*
X119966592Y-86938215D01*
X120047637Y-86934444D01*
X120171852Y-86929517D01*
X120333222Y-86923618D01*
X120525732Y-86916932D01*
X120743370Y-86909646D01*
X120980122Y-86901944D01*
X121229974Y-86894012D01*
X121486911Y-86886036D01*
X121744921Y-86878200D01*
X121997989Y-86870691D01*
X122240102Y-86863693D01*
X122285029Y-86862436D01*
X122465246Y-86857393D01*
X122667408Y-86851975D01*
X122840572Y-86847625D01*
X122978726Y-86844529D01*
X123075856Y-86842872D01*
X123112782Y-86842648D01*
X123219369Y-86843043D01*
G37*
X118527578Y-80637863D02*
X118580283Y-80654825D01*
X118584558Y-80658157D01*
X118600218Y-80694580D01*
X118620277Y-80770402D01*
X118640815Y-80870433D01*
X118644106Y-80888944D01*
X118690628Y-81077709D01*
X118764306Y-81243141D01*
X118873125Y-81399047D01*
X119025071Y-81559234D01*
X119039672Y-81572968D01*
X119216465Y-81719920D01*
X119411224Y-81844922D01*
X119630429Y-81950393D01*
X119880562Y-82038750D01*
X120168102Y-82112413D01*
X120499530Y-82173799D01*
X120742282Y-82208356D01*
X120914118Y-82229592D01*
X121054473Y-82242713D01*
X121173767Y-82245569D01*
X121282417Y-82236013D01*
X121390840Y-82211898D01*
X121509455Y-82171075D01*
X121648678Y-82111399D01*
X121818927Y-82030720D01*
X121975137Y-81954204D01*
X122476185Y-81707625D01*
X122558819Y-81756040D01*
X122630825Y-81808756D01*
X122677202Y-81862991D01*
X122688412Y-81906381D01*
X122682539Y-81916446D01*
X122648156Y-81930254D01*
X122574929Y-81949427D01*
X122478422Y-81969912D01*
X122474275Y-81970706D01*
X122370759Y-81997308D01*
X122236322Y-82041566D01*
X122089672Y-82096923D01*
X121971168Y-82147009D01*
X121797977Y-82225930D01*
X121671684Y-82287629D01*
X121587971Y-82335529D01*
X121542522Y-82373052D01*
X121531023Y-82403621D01*
X121549155Y-82430658D01*
X121584694Y-82453446D01*
X121634596Y-82473550D01*
X121728013Y-82505298D01*
X121855186Y-82545806D01*
X122006358Y-82592193D01*
X122171769Y-82641576D01*
X122341662Y-82691074D01*
X122506279Y-82737802D01*
X122655861Y-82778880D01*
X122780651Y-82811425D01*
X122861250Y-82830510D01*
X123075217Y-82876795D01*
X123075217Y-82997198D01*
X123067119Y-83082027D01*
X123045121Y-83127971D01*
X123039271Y-83131396D01*
X122995319Y-83129853D01*
X122907939Y-83112009D01*
X122785612Y-83080389D01*
X122636819Y-83037516D01*
X122470042Y-82985915D01*
X122293761Y-82928111D01*
X122116458Y-82866626D01*
X121973569Y-82814220D01*
X121777433Y-82741465D01*
X121602999Y-82680168D01*
X121438505Y-82626994D01*
X121272187Y-82578607D01*
X121092283Y-82531670D01*
X120887031Y-82482847D01*
X120644666Y-82428804D01*
X120517432Y-82401262D01*
X120209746Y-82332751D01*
X119949981Y-82269406D01*
X119731326Y-82209087D01*
X119546971Y-82149657D01*
X119390105Y-82088976D01*
X119253916Y-82024905D01*
X119168587Y-81977688D01*
X119002413Y-81862788D01*
X118829544Y-81714019D01*
X118666822Y-81547462D01*
X118531086Y-81379196D01*
X118510108Y-81348913D01*
X118442315Y-81232472D01*
X118385053Y-81104642D01*
X118340499Y-80975054D01*
X118310831Y-80853340D01*
X118298223Y-80749131D01*
X118304853Y-80672058D01*
X118332897Y-80631752D01*
X118347228Y-80628161D01*
X118443206Y-80628130D01*
X118527578Y-80637863D01*
G36*
X118527578Y-80637863D02*
G01*
X118580283Y-80654825D01*
X118584558Y-80658157D01*
X118600218Y-80694580D01*
X118620277Y-80770402D01*
X118640815Y-80870433D01*
X118644106Y-80888944D01*
X118690628Y-81077709D01*
X118764306Y-81243141D01*
X118873125Y-81399047D01*
X119025071Y-81559234D01*
X119039672Y-81572968D01*
X119216465Y-81719920D01*
X119411224Y-81844922D01*
X119630429Y-81950393D01*
X119880562Y-82038750D01*
X120168102Y-82112413D01*
X120499530Y-82173799D01*
X120742282Y-82208356D01*
X120914118Y-82229592D01*
X121054473Y-82242713D01*
X121173767Y-82245569D01*
X121282417Y-82236013D01*
X121390840Y-82211898D01*
X121509455Y-82171075D01*
X121648678Y-82111399D01*
X121818927Y-82030720D01*
X121975137Y-81954204D01*
X122476185Y-81707625D01*
X122558819Y-81756040D01*
X122630825Y-81808756D01*
X122677202Y-81862991D01*
X122688412Y-81906381D01*
X122682539Y-81916446D01*
X122648156Y-81930254D01*
X122574929Y-81949427D01*
X122478422Y-81969912D01*
X122474275Y-81970706D01*
X122370759Y-81997308D01*
X122236322Y-82041566D01*
X122089672Y-82096923D01*
X121971168Y-82147009D01*
X121797977Y-82225930D01*
X121671684Y-82287629D01*
X121587971Y-82335529D01*
X121542522Y-82373052D01*
X121531023Y-82403621D01*
X121549155Y-82430658D01*
X121584694Y-82453446D01*
X121634596Y-82473550D01*
X121728013Y-82505298D01*
X121855186Y-82545806D01*
X122006358Y-82592193D01*
X122171769Y-82641576D01*
X122341662Y-82691074D01*
X122506279Y-82737802D01*
X122655861Y-82778880D01*
X122780651Y-82811425D01*
X122861250Y-82830510D01*
X123075217Y-82876795D01*
X123075217Y-82997198D01*
X123067119Y-83082027D01*
X123045121Y-83127971D01*
X123039271Y-83131396D01*
X122995319Y-83129853D01*
X122907939Y-83112009D01*
X122785612Y-83080389D01*
X122636819Y-83037516D01*
X122470042Y-82985915D01*
X122293761Y-82928111D01*
X122116458Y-82866626D01*
X121973569Y-82814220D01*
X121777433Y-82741465D01*
X121602999Y-82680168D01*
X121438505Y-82626994D01*
X121272187Y-82578607D01*
X121092283Y-82531670D01*
X120887031Y-82482847D01*
X120644666Y-82428804D01*
X120517432Y-82401262D01*
X120209746Y-82332751D01*
X119949981Y-82269406D01*
X119731326Y-82209087D01*
X119546971Y-82149657D01*
X119390105Y-82088976D01*
X119253916Y-82024905D01*
X119168587Y-81977688D01*
X119002413Y-81862788D01*
X118829544Y-81714019D01*
X118666822Y-81547462D01*
X118531086Y-81379196D01*
X118510108Y-81348913D01*
X118442315Y-81232472D01*
X118385053Y-81104642D01*
X118340499Y-80975054D01*
X118310831Y-80853340D01*
X118298223Y-80749131D01*
X118304853Y-80672058D01*
X118332897Y-80631752D01*
X118347228Y-80628161D01*
X118443206Y-80628130D01*
X118527578Y-80637863D01*
G37*
X120919712Y-77770043D02*
X120964564Y-77853176D01*
X120995319Y-77919244D01*
X121004565Y-77949502D01*
X120978673Y-77968941D01*
X120907002Y-77979544D01*
X120859619Y-77980921D01*
X120674582Y-78005855D01*
X120515230Y-78076936D01*
X120387287Y-78189677D01*
X120296478Y-78339592D01*
X120261161Y-78450000D01*
X120236561Y-78628503D01*
X120236297Y-78823721D01*
X120258397Y-79018315D01*
X120300888Y-79194941D01*
X120361795Y-79336258D01*
X120362053Y-79336696D01*
X120445848Y-79427679D01*
X120561615Y-79479732D01*
X120700844Y-79491478D01*
X120855024Y-79461537D01*
X120936652Y-79429779D01*
X120994133Y-79392032D01*
X121085160Y-79317037D01*
X121205941Y-79208226D01*
X121352684Y-79069032D01*
X121521599Y-78902886D01*
X121549005Y-78875459D01*
X121756693Y-78669851D01*
X121932953Y-78502152D01*
X122082841Y-78368823D01*
X122211412Y-78266326D01*
X122323723Y-78191122D01*
X122424830Y-78139673D01*
X122519787Y-78108440D01*
X122613652Y-78093885D01*
X122668876Y-78091693D01*
X122819194Y-78107999D01*
X122951950Y-78162824D01*
X123081781Y-78262773D01*
X123111146Y-78291215D01*
X123229211Y-78446542D01*
X123301655Y-78626108D01*
X123323695Y-78799696D01*
X123315325Y-78873295D01*
X123293034Y-78979766D01*
X123261051Y-79104563D01*
X123223608Y-79233138D01*
X123184933Y-79350948D01*
X123149256Y-79443445D01*
X123121401Y-79495365D01*
X123079100Y-79518438D01*
X122999720Y-79521210D01*
X122955054Y-79516929D01*
X122874084Y-79505236D01*
X122818970Y-79493348D01*
X122806402Y-79487996D01*
X122813212Y-79460261D01*
X122845699Y-79406181D01*
X122861878Y-79383606D01*
X122939553Y-79250832D01*
X122998361Y-79093504D01*
X123035791Y-78926355D01*
X123049331Y-78764116D01*
X123036470Y-78621519D01*
X123006747Y-78533892D01*
X122921187Y-78423175D01*
X122805874Y-78350777D01*
X122673904Y-78321580D01*
X122538370Y-78340467D01*
X122513328Y-78349882D01*
X122410696Y-78410453D01*
X122281564Y-78516906D01*
X122127654Y-78667662D01*
X121950692Y-78861146D01*
X121936016Y-78877934D01*
X121730395Y-79108657D01*
X121550795Y-79297533D01*
X121391978Y-79448235D01*
X121248702Y-79564432D01*
X121115730Y-79649795D01*
X120987823Y-79707995D01*
X120859740Y-79742703D01*
X120726243Y-79757589D01*
X120678753Y-79758787D01*
X120486192Y-79744177D01*
X120326264Y-79695754D01*
X120196951Y-79610736D01*
X120096239Y-79486337D01*
X120022110Y-79319774D01*
X119972549Y-79108263D01*
X119945540Y-78849021D01*
X119940842Y-78739891D01*
X119938452Y-78595171D01*
X119939621Y-78461944D01*
X119944007Y-78354462D01*
X119951265Y-78286975D01*
X119951820Y-78284347D01*
X120021055Y-78095297D01*
X120136002Y-77932315D01*
X120291677Y-77799590D01*
X120483093Y-77701308D01*
X120705267Y-77641658D01*
X120719548Y-77639386D01*
X120834858Y-77621735D01*
X120919712Y-77770043D01*
G36*
X120919712Y-77770043D02*
G01*
X120964564Y-77853176D01*
X120995319Y-77919244D01*
X121004565Y-77949502D01*
X120978673Y-77968941D01*
X120907002Y-77979544D01*
X120859619Y-77980921D01*
X120674582Y-78005855D01*
X120515230Y-78076936D01*
X120387287Y-78189677D01*
X120296478Y-78339592D01*
X120261161Y-78450000D01*
X120236561Y-78628503D01*
X120236297Y-78823721D01*
X120258397Y-79018315D01*
X120300888Y-79194941D01*
X120361795Y-79336258D01*
X120362053Y-79336696D01*
X120445848Y-79427679D01*
X120561615Y-79479732D01*
X120700844Y-79491478D01*
X120855024Y-79461537D01*
X120936652Y-79429779D01*
X120994133Y-79392032D01*
X121085160Y-79317037D01*
X121205941Y-79208226D01*
X121352684Y-79069032D01*
X121521599Y-78902886D01*
X121549005Y-78875459D01*
X121756693Y-78669851D01*
X121932953Y-78502152D01*
X122082841Y-78368823D01*
X122211412Y-78266326D01*
X122323723Y-78191122D01*
X122424830Y-78139673D01*
X122519787Y-78108440D01*
X122613652Y-78093885D01*
X122668876Y-78091693D01*
X122819194Y-78107999D01*
X122951950Y-78162824D01*
X123081781Y-78262773D01*
X123111146Y-78291215D01*
X123229211Y-78446542D01*
X123301655Y-78626108D01*
X123323695Y-78799696D01*
X123315325Y-78873295D01*
X123293034Y-78979766D01*
X123261051Y-79104563D01*
X123223608Y-79233138D01*
X123184933Y-79350948D01*
X123149256Y-79443445D01*
X123121401Y-79495365D01*
X123079100Y-79518438D01*
X122999720Y-79521210D01*
X122955054Y-79516929D01*
X122874084Y-79505236D01*
X122818970Y-79493348D01*
X122806402Y-79487996D01*
X122813212Y-79460261D01*
X122845699Y-79406181D01*
X122861878Y-79383606D01*
X122939553Y-79250832D01*
X122998361Y-79093504D01*
X123035791Y-78926355D01*
X123049331Y-78764116D01*
X123036470Y-78621519D01*
X123006747Y-78533892D01*
X122921187Y-78423175D01*
X122805874Y-78350777D01*
X122673904Y-78321580D01*
X122538370Y-78340467D01*
X122513328Y-78349882D01*
X122410696Y-78410453D01*
X122281564Y-78516906D01*
X122127654Y-78667662D01*
X121950692Y-78861146D01*
X121936016Y-78877934D01*
X121730395Y-79108657D01*
X121550795Y-79297533D01*
X121391978Y-79448235D01*
X121248702Y-79564432D01*
X121115730Y-79649795D01*
X120987823Y-79707995D01*
X120859740Y-79742703D01*
X120726243Y-79757589D01*
X120678753Y-79758787D01*
X120486192Y-79744177D01*
X120326264Y-79695754D01*
X120196951Y-79610736D01*
X120096239Y-79486337D01*
X120022110Y-79319774D01*
X119972549Y-79108263D01*
X119945540Y-78849021D01*
X119940842Y-78739891D01*
X119938452Y-78595171D01*
X119939621Y-78461944D01*
X119944007Y-78354462D01*
X119951265Y-78286975D01*
X119951820Y-78284347D01*
X120021055Y-78095297D01*
X120136002Y-77932315D01*
X120291677Y-77799590D01*
X120483093Y-77701308D01*
X120705267Y-77641658D01*
X120719548Y-77639386D01*
X120834858Y-77621735D01*
X120919712Y-77770043D01*
G37*
X121835028Y-88461574D02*
X122124396Y-88492159D01*
X122387294Y-88538815D01*
X122521640Y-88572954D01*
X122761527Y-88656092D01*
X122951250Y-88753211D01*
X123094771Y-88867371D01*
X123196052Y-89001633D01*
X123253116Y-89137931D01*
X123279938Y-89232099D01*
X123292239Y-89298883D01*
X123290804Y-89361661D01*
X123276419Y-89443812D01*
X123265181Y-89496827D01*
X123202904Y-89659886D01*
X123092272Y-89798873D01*
X122935184Y-89912596D01*
X122733538Y-89999863D01*
X122489234Y-90059480D01*
X122336158Y-90080176D01*
X122217327Y-90091075D01*
X122120555Y-90097704D01*
X122057918Y-90099371D01*
X122040747Y-90097123D01*
X122032188Y-90065678D01*
X122021065Y-89994473D01*
X122009746Y-89898744D01*
X122009468Y-89896038D01*
X121990085Y-89706848D01*
X122070205Y-89721660D01*
X122141784Y-89734924D01*
X122241765Y-89753491D01*
X122315978Y-89767290D01*
X122508642Y-89783948D01*
X122676187Y-89760887D01*
X122813977Y-89702228D01*
X122917373Y-89612095D01*
X122981737Y-89494610D01*
X123002431Y-89353897D01*
X122974817Y-89194077D01*
X122971674Y-89184425D01*
X122915166Y-89067646D01*
X122827051Y-88968840D01*
X122702700Y-88885579D01*
X122537489Y-88815431D01*
X122326790Y-88755968D01*
X122065976Y-88704758D01*
X122054850Y-88702915D01*
X121860330Y-88681186D01*
X121630105Y-88671904D01*
X121382164Y-88674623D01*
X121134493Y-88688900D01*
X120905079Y-88714291D01*
X120785775Y-88734265D01*
X120549117Y-88796317D01*
X120362638Y-88880724D01*
X120225781Y-88988051D01*
X120137989Y-89118863D01*
X120098705Y-89273726D01*
X120103301Y-89426639D01*
X120147376Y-89602405D01*
X120227715Y-89741552D01*
X120346495Y-89845560D01*
X120505890Y-89915904D01*
X120708076Y-89954064D01*
X120892239Y-89962449D01*
X121055975Y-89958946D01*
X121168162Y-89947225D01*
X121232194Y-89924559D01*
X121251467Y-89888219D01*
X121229375Y-89835478D01*
X121169313Y-89763607D01*
X121156413Y-89750157D01*
X121085191Y-89661945D01*
X121064559Y-89595571D01*
X121094756Y-89550531D01*
X121176021Y-89526324D01*
X121265467Y-89521509D01*
X121360977Y-89524668D01*
X121424497Y-89539780D01*
X121463085Y-89576338D01*
X121483798Y-89643834D01*
X121493695Y-89751759D01*
X121497132Y-89833067D01*
X121501125Y-89955041D01*
X121498383Y-90045744D01*
X121481992Y-90109520D01*
X121445039Y-90150710D01*
X121380614Y-90173657D01*
X121281802Y-90182702D01*
X121141692Y-90182187D01*
X120953372Y-90176456D01*
X120950622Y-90176368D01*
X120755420Y-90168494D01*
X120604025Y-90158171D01*
X120485038Y-90144114D01*
X120387064Y-90125034D01*
X120313448Y-90104435D01*
X120136963Y-90025889D01*
X120001547Y-89916912D01*
X119911649Y-89781148D01*
X119907888Y-89772438D01*
X119881414Y-89675295D01*
X119863808Y-89542550D01*
X119855782Y-89393217D01*
X119858048Y-89246306D01*
X119871318Y-89120828D01*
X119881722Y-89074090D01*
X119952015Y-88902569D01*
X120058492Y-88764448D01*
X120205971Y-88655339D01*
X120399266Y-88570850D01*
X120452391Y-88553934D01*
X120676430Y-88502353D01*
X120939892Y-88467448D01*
X121229598Y-88449097D01*
X121532369Y-88447179D01*
X121835028Y-88461574D01*
G36*
X121835028Y-88461574D02*
G01*
X122124396Y-88492159D01*
X122387294Y-88538815D01*
X122521640Y-88572954D01*
X122761527Y-88656092D01*
X122951250Y-88753211D01*
X123094771Y-88867371D01*
X123196052Y-89001633D01*
X123253116Y-89137931D01*
X123279938Y-89232099D01*
X123292239Y-89298883D01*
X123290804Y-89361661D01*
X123276419Y-89443812D01*
X123265181Y-89496827D01*
X123202904Y-89659886D01*
X123092272Y-89798873D01*
X122935184Y-89912596D01*
X122733538Y-89999863D01*
X122489234Y-90059480D01*
X122336158Y-90080176D01*
X122217327Y-90091075D01*
X122120555Y-90097704D01*
X122057918Y-90099371D01*
X122040747Y-90097123D01*
X122032188Y-90065678D01*
X122021065Y-89994473D01*
X122009746Y-89898744D01*
X122009468Y-89896038D01*
X121990085Y-89706848D01*
X122070205Y-89721660D01*
X122141784Y-89734924D01*
X122241765Y-89753491D01*
X122315978Y-89767290D01*
X122508642Y-89783948D01*
X122676187Y-89760887D01*
X122813977Y-89702228D01*
X122917373Y-89612095D01*
X122981737Y-89494610D01*
X123002431Y-89353897D01*
X122974817Y-89194077D01*
X122971674Y-89184425D01*
X122915166Y-89067646D01*
X122827051Y-88968840D01*
X122702700Y-88885579D01*
X122537489Y-88815431D01*
X122326790Y-88755968D01*
X122065976Y-88704758D01*
X122054850Y-88702915D01*
X121860330Y-88681186D01*
X121630105Y-88671904D01*
X121382164Y-88674623D01*
X121134493Y-88688900D01*
X120905079Y-88714291D01*
X120785775Y-88734265D01*
X120549117Y-88796317D01*
X120362638Y-88880724D01*
X120225781Y-88988051D01*
X120137989Y-89118863D01*
X120098705Y-89273726D01*
X120103301Y-89426639D01*
X120147376Y-89602405D01*
X120227715Y-89741552D01*
X120346495Y-89845560D01*
X120505890Y-89915904D01*
X120708076Y-89954064D01*
X120892239Y-89962449D01*
X121055975Y-89958946D01*
X121168162Y-89947225D01*
X121232194Y-89924559D01*
X121251467Y-89888219D01*
X121229375Y-89835478D01*
X121169313Y-89763607D01*
X121156413Y-89750157D01*
X121085191Y-89661945D01*
X121064559Y-89595571D01*
X121094756Y-89550531D01*
X121176021Y-89526324D01*
X121265467Y-89521509D01*
X121360977Y-89524668D01*
X121424497Y-89539780D01*
X121463085Y-89576338D01*
X121483798Y-89643834D01*
X121493695Y-89751759D01*
X121497132Y-89833067D01*
X121501125Y-89955041D01*
X121498383Y-90045744D01*
X121481992Y-90109520D01*
X121445039Y-90150710D01*
X121380614Y-90173657D01*
X121281802Y-90182702D01*
X121141692Y-90182187D01*
X120953372Y-90176456D01*
X120950622Y-90176368D01*
X120755420Y-90168494D01*
X120604025Y-90158171D01*
X120485038Y-90144114D01*
X120387064Y-90125034D01*
X120313448Y-90104435D01*
X120136963Y-90025889D01*
X120001547Y-89916912D01*
X119911649Y-89781148D01*
X119907888Y-89772438D01*
X119881414Y-89675295D01*
X119863808Y-89542550D01*
X119855782Y-89393217D01*
X119858048Y-89246306D01*
X119871318Y-89120828D01*
X119881722Y-89074090D01*
X119952015Y-88902569D01*
X120058492Y-88764448D01*
X120205971Y-88655339D01*
X120399266Y-88570850D01*
X120452391Y-88553934D01*
X120676430Y-88502353D01*
X120939892Y-88467448D01*
X121229598Y-88449097D01*
X121532369Y-88447179D01*
X121835028Y-88461574D01*
G37*
X123262894Y-80115907D02*
X123271114Y-80304748D01*
X123193872Y-80288086D01*
X122988144Y-80247649D01*
X122782664Y-80214412D01*
X122586176Y-80189158D01*
X122407427Y-80172669D01*
X122255161Y-80165730D01*
X122138124Y-80169123D01*
X122065062Y-80183632D01*
X122059062Y-80186475D01*
X122016449Y-80219197D01*
X121998339Y-80262601D01*
X122007053Y-80321396D01*
X122044910Y-80400290D01*
X122114228Y-80503990D01*
X122217328Y-80637204D01*
X122356527Y-80804641D01*
X122373289Y-80824347D01*
X122479268Y-80945197D01*
X122596847Y-81073698D01*
X122707470Y-81189772D01*
X122755197Y-81237680D01*
X122834909Y-81318280D01*
X122896877Y-81385394D01*
X122932239Y-81429199D01*
X122937174Y-81439363D01*
X122913925Y-81461659D01*
X122853371Y-81496769D01*
X122780042Y-81531877D01*
X122622911Y-81601368D01*
X122573564Y-81537260D01*
X122543518Y-81493413D01*
X122490573Y-81411271D01*
X122420381Y-81299802D01*
X122338595Y-81167974D01*
X122262215Y-81043379D01*
X122174718Y-80902071D01*
X122093197Y-80774503D01*
X122023398Y-80669355D01*
X121971069Y-80595307D01*
X121944016Y-80562748D01*
X121907325Y-80536973D01*
X121867396Y-80530385D01*
X121816187Y-80546592D01*
X121745655Y-80589202D01*
X121647759Y-80661824D01*
X121549659Y-80739670D01*
X121260643Y-81004159D01*
X121017736Y-81296852D01*
X120816798Y-81623067D01*
X120740728Y-81778340D01*
X120685064Y-81891437D01*
X120633361Y-81963201D01*
X120573551Y-81998313D01*
X120493568Y-82001451D01*
X120381343Y-81977294D01*
X120293641Y-81951683D01*
X120231726Y-81925202D01*
X120207409Y-81883182D01*
X120203913Y-81829532D01*
X120209694Y-81776420D01*
X120232559Y-81726752D01*
X120280790Y-81668379D01*
X120362669Y-81589155D01*
X120376467Y-81576462D01*
X120462931Y-81496313D01*
X120575394Y-81390800D01*
X120700107Y-81272882D01*
X120823318Y-81155521D01*
X120838913Y-81140593D01*
X120968901Y-81017671D01*
X121110361Y-80886506D01*
X121246479Y-80762545D01*
X121360441Y-80661238D01*
X121363478Y-80658592D01*
X121490272Y-80546828D01*
X121580373Y-80463151D01*
X121639795Y-80400647D01*
X121674553Y-80352403D01*
X121690659Y-80311504D01*
X121694169Y-80278392D01*
X121687133Y-80237608D01*
X121661085Y-80207021D01*
X121609965Y-80185635D01*
X121527713Y-80172452D01*
X121408269Y-80166476D01*
X121245576Y-80166710D01*
X121045978Y-80171760D01*
X120750735Y-80186125D01*
X120492438Y-80208930D01*
X120279545Y-80239407D01*
X120259130Y-80243220D01*
X120136612Y-80266190D01*
X120032750Y-80284639D01*
X119960461Y-80296333D01*
X119934728Y-80299328D01*
X119912283Y-80275402D01*
X119901458Y-80201147D01*
X119900217Y-80147068D01*
X119906521Y-80045611D01*
X119924693Y-79991103D01*
X119934728Y-79983714D01*
X119969760Y-79980741D01*
X120053762Y-79977124D01*
X120180494Y-79972988D01*
X120343714Y-79968455D01*
X120537181Y-79963648D01*
X120754654Y-79958692D01*
X120989892Y-79953708D01*
X121236653Y-79948821D01*
X121488696Y-79944154D01*
X121739781Y-79939830D01*
X121983664Y-79935973D01*
X122214107Y-79932705D01*
X122424866Y-79930151D01*
X122609701Y-79928433D01*
X122762371Y-79927674D01*
X122771522Y-79927661D01*
X123254674Y-79927065D01*
X123262894Y-80115907D01*
G36*
X123262894Y-80115907D02*
G01*
X123271114Y-80304748D01*
X123193872Y-80288086D01*
X122988144Y-80247649D01*
X122782664Y-80214412D01*
X122586176Y-80189158D01*
X122407427Y-80172669D01*
X122255161Y-80165730D01*
X122138124Y-80169123D01*
X122065062Y-80183632D01*
X122059062Y-80186475D01*
X122016449Y-80219197D01*
X121998339Y-80262601D01*
X122007053Y-80321396D01*
X122044910Y-80400290D01*
X122114228Y-80503990D01*
X122217328Y-80637204D01*
X122356527Y-80804641D01*
X122373289Y-80824347D01*
X122479268Y-80945197D01*
X122596847Y-81073698D01*
X122707470Y-81189772D01*
X122755197Y-81237680D01*
X122834909Y-81318280D01*
X122896877Y-81385394D01*
X122932239Y-81429199D01*
X122937174Y-81439363D01*
X122913925Y-81461659D01*
X122853371Y-81496769D01*
X122780042Y-81531877D01*
X122622911Y-81601368D01*
X122573564Y-81537260D01*
X122543518Y-81493413D01*
X122490573Y-81411271D01*
X122420381Y-81299802D01*
X122338595Y-81167974D01*
X122262215Y-81043379D01*
X122174718Y-80902071D01*
X122093197Y-80774503D01*
X122023398Y-80669355D01*
X121971069Y-80595307D01*
X121944016Y-80562748D01*
X121907325Y-80536973D01*
X121867396Y-80530385D01*
X121816187Y-80546592D01*
X121745655Y-80589202D01*
X121647759Y-80661824D01*
X121549659Y-80739670D01*
X121260643Y-81004159D01*
X121017736Y-81296852D01*
X120816798Y-81623067D01*
X120740728Y-81778340D01*
X120685064Y-81891437D01*
X120633361Y-81963201D01*
X120573551Y-81998313D01*
X120493568Y-82001451D01*
X120381343Y-81977294D01*
X120293641Y-81951683D01*
X120231726Y-81925202D01*
X120207409Y-81883182D01*
X120203913Y-81829532D01*
X120209694Y-81776420D01*
X120232559Y-81726752D01*
X120280790Y-81668379D01*
X120362669Y-81589155D01*
X120376467Y-81576462D01*
X120462931Y-81496313D01*
X120575394Y-81390800D01*
X120700107Y-81272882D01*
X120823318Y-81155521D01*
X120838913Y-81140593D01*
X120968901Y-81017671D01*
X121110361Y-80886506D01*
X121246479Y-80762545D01*
X121360441Y-80661238D01*
X121363478Y-80658592D01*
X121490272Y-80546828D01*
X121580373Y-80463151D01*
X121639795Y-80400647D01*
X121674553Y-80352403D01*
X121690659Y-80311504D01*
X121694169Y-80278392D01*
X121687133Y-80237608D01*
X121661085Y-80207021D01*
X121609965Y-80185635D01*
X121527713Y-80172452D01*
X121408269Y-80166476D01*
X121245576Y-80166710D01*
X121045978Y-80171760D01*
X120750735Y-80186125D01*
X120492438Y-80208930D01*
X120279545Y-80239407D01*
X120259130Y-80243220D01*
X120136612Y-80266190D01*
X120032750Y-80284639D01*
X119960461Y-80296333D01*
X119934728Y-80299328D01*
X119912283Y-80275402D01*
X119901458Y-80201147D01*
X119900217Y-80147068D01*
X119906521Y-80045611D01*
X119924693Y-79991103D01*
X119934728Y-79983714D01*
X119969760Y-79980741D01*
X120053762Y-79977124D01*
X120180494Y-79972988D01*
X120343714Y-79968455D01*
X120537181Y-79963648D01*
X120754654Y-79958692D01*
X120989892Y-79953708D01*
X121236653Y-79948821D01*
X121488696Y-79944154D01*
X121739781Y-79939830D01*
X121983664Y-79935973D01*
X122214107Y-79932705D01*
X122424866Y-79930151D01*
X122609701Y-79928433D01*
X122762371Y-79927674D01*
X122771522Y-79927661D01*
X123254674Y-79927065D01*
X123262894Y-80115907D01*
G37*
D10*
X130610000Y-127741422D02*
X130610000Y-128258578D01*
X129190000Y-127741422D02*
X129190000Y-128258578D01*
X130110000Y-131678922D02*
X130110000Y-132196078D01*
X128690000Y-131678922D02*
X128690000Y-132196078D01*
X128841422Y-134140000D02*
X129358578Y-134140000D01*
X128841422Y-135560000D02*
X129358578Y-135560000D01*
X125387221Y-134040000D02*
X125712779Y-134040000D01*
X125387221Y-135060000D02*
X125712779Y-135060000D01*
X122562779Y-135410000D02*
X122237221Y-135410000D01*
X122562779Y-134390000D02*
X122237221Y-134390000D01*
X143860000Y-141159420D02*
X143860000Y-141440580D01*
X142840000Y-141159420D02*
X142840000Y-141440580D01*
X146459420Y-133290000D02*
X146740580Y-133290000D01*
X146459420Y-134310000D02*
X146740580Y-134310000D01*
X146459420Y-134990000D02*
X146740580Y-134990000D01*
X146459420Y-136010000D02*
X146740580Y-136010000D01*
X144937221Y-131190000D02*
X145262779Y-131190000D01*
X144937221Y-132210000D02*
X145262779Y-132210000D01*
X138670000Y-139030000D02*
X138670000Y-138555000D01*
X139145000Y-139030000D02*
X138670000Y-139030000D01*
X143415000Y-139030000D02*
X143890000Y-139030000D01*
X138670000Y-133810000D02*
X138670000Y-134285000D01*
X139145000Y-133810000D02*
X138670000Y-133810000D01*
X143415000Y-133810000D02*
X143890000Y-133810000D01*
X143890000Y-133810000D02*
X143890000Y-134285000D01*
X132687221Y-118940000D02*
X133012779Y-118940000D01*
X132687221Y-119960000D02*
X133012779Y-119960000D01*
X128360000Y-109787221D02*
X128360000Y-110112779D01*
X127340000Y-109787221D02*
X127340000Y-110112779D01*
X128588748Y-115865000D02*
X129111252Y-115865000D01*
X128588748Y-117335000D02*
X129111252Y-117335000D01*
X123811252Y-117235000D02*
X123288748Y-117235000D01*
X123811252Y-115765000D02*
X123288748Y-115765000D01*
X126610000Y-109787221D02*
X126610000Y-110112779D01*
X125590000Y-109787221D02*
X125590000Y-110112779D01*
X127200000Y-114860000D02*
X129000000Y-114860000D01*
X127200000Y-114860000D02*
X126400000Y-114860000D01*
X127200000Y-111740000D02*
X128000000Y-111740000D01*
X127200000Y-111740000D02*
X126400000Y-111740000D01*
X118260000Y-126637221D02*
X118260000Y-126962779D01*
X117240000Y-126637221D02*
X117240000Y-126962779D01*
X135310000Y-127745000D02*
X138910000Y-127745000D01*
X135310000Y-127745000D02*
X133110000Y-127745000D01*
X135310000Y-120975000D02*
X137510000Y-120975000D01*
X135310000Y-120975000D02*
X133110000Y-120975000D01*
X170007500Y-79267742D02*
X170007500Y-79742258D01*
X168962500Y-79267742D02*
X168962500Y-79742258D01*
X165967742Y-68302500D02*
X166442258Y-68302500D01*
X165967742Y-69347500D02*
X166442258Y-69347500D01*
X173915000Y-83045000D02*
X173915000Y-84720000D01*
X173915000Y-83045000D02*
X173915000Y-82395000D01*
X177035000Y-83045000D02*
X177035000Y-83695000D01*
X177035000Y-83045000D02*
X177035000Y-82395000D01*
X142279420Y-124590000D02*
X142560580Y-124590000D01*
X142279420Y-125610000D02*
X142560580Y-125610000D01*
X129340580Y-122410000D02*
X129059420Y-122410000D01*
X129340580Y-121390000D02*
X129059420Y-121390000D01*
X162105000Y-67045000D02*
X162105000Y-68375000D01*
X160775000Y-67045000D02*
X162105000Y-67045000D01*
X159505000Y-67045000D02*
X123885000Y-67045000D01*
X159505000Y-67045000D02*
X159505000Y-69645000D01*
X123885000Y-67045000D02*
X123885000Y-72245000D01*
X162105000Y-69645000D02*
X162105000Y-72245000D01*
X159505000Y-69645000D02*
X162105000Y-69645000D01*
X162105000Y-72245000D02*
X123885000Y-72245000D01*
X173632258Y-86517500D02*
X173157742Y-86517500D01*
X173632258Y-85472500D02*
X173157742Y-85472500D01*
M02*
