G04 #@! TF.GenerationSoftware,KiCad,Pcbnew,8.0.4+dfsg-1*
G04 #@! TF.CreationDate,2024-08-05T10:13:43-04:00*
G04 #@! TF.ProjectId,SARD_Motherboard,53415244-5f4d-46f7-9468-6572626f6172,rev?*
G04 #@! TF.SameCoordinates,Original*
G04 #@! TF.FileFunction,Soldermask,Bot*
G04 #@! TF.FilePolarity,Negative*
%FSLAX46Y46*%
G04 Gerber Fmt 4.6, Leading zero omitted, Abs format (unit mm)*
G04 Created by KiCad (PCBNEW 8.0.4+dfsg-1) date 2024-08-05 10:13:43*
%MOMM*%
%LPD*%
G01*
G04 APERTURE LIST*
G04 Aperture macros list*
%AMRoundRect*
0 Rectangle with rounded corners*
0 $1 Rounding radius*
0 $2 $3 $4 $5 $6 $7 $8 $9 X,Y pos of 4 corners*
0 Add a 4 corners polygon primitive as box body*
4,1,4,$2,$3,$4,$5,$6,$7,$8,$9,$2,$3,0*
0 Add four circle primitives for the rounded corners*
1,1,$1+$1,$2,$3*
1,1,$1+$1,$4,$5*
1,1,$1+$1,$6,$7*
1,1,$1+$1,$8,$9*
0 Add four rect primitives between the rounded corners*
20,1,$1+$1,$2,$3,$4,$5,0*
20,1,$1+$1,$4,$5,$6,$7,0*
20,1,$1+$1,$6,$7,$8,$9,0*
20,1,$1+$1,$8,$9,$2,$3,0*%
G04 Aperture macros list end*
%ADD10C,2.300000*%
%ADD11C,0.700000*%
%ADD12C,0.600000*%
%ADD13O,1.000000X2.000000*%
%ADD14O,1.500000X2.500000*%
%ADD15C,1.100000*%
%ADD16C,2.375000*%
%ADD17C,0.991000*%
%ADD18C,6.400000*%
%ADD19C,6.200000*%
%ADD20R,1.700000X1.700000*%
%ADD21O,1.700000X1.700000*%
%ADD22RoundRect,0.218750X0.256250X-0.218750X0.256250X0.218750X-0.256250X0.218750X-0.256250X-0.218750X0*%
%ADD23C,5.900000*%
%ADD24RoundRect,0.218750X0.218750X0.256250X-0.218750X0.256250X-0.218750X-0.256250X0.218750X-0.256250X0*%
%ADD25RoundRect,0.225000X-0.250000X0.225000X-0.250000X-0.225000X0.250000X-0.225000X0.250000X0.225000X0*%
%ADD26RoundRect,0.218750X-0.256250X0.218750X-0.256250X-0.218750X0.256250X-0.218750X0.256250X0.218750X0*%
%ADD27RoundRect,0.250000X0.375000X0.625000X-0.375000X0.625000X-0.375000X-0.625000X0.375000X-0.625000X0*%
%ADD28RoundRect,0.147500X0.147500X0.172500X-0.147500X0.172500X-0.147500X-0.172500X0.147500X-0.172500X0*%
%ADD29RoundRect,0.147500X-0.147500X-0.172500X0.147500X-0.172500X0.147500X0.172500X-0.147500X0.172500X0*%
%ADD30R,3.400000X1.200000*%
%ADD31C,1.500000*%
%ADD32R,0.900000X1.200000*%
%ADD33RoundRect,0.249999X0.325001X0.450001X-0.325001X0.450001X-0.325001X-0.450001X0.325001X-0.450001X0*%
%ADD34RoundRect,0.147500X0.172500X-0.147500X0.172500X0.147500X-0.172500X0.147500X-0.172500X-0.147500X0*%
%ADD35RoundRect,0.250000X-0.375000X-0.625000X0.375000X-0.625000X0.375000X0.625000X-0.375000X0.625000X0*%
%ADD36RoundRect,0.070000X0.070000X-0.667500X0.070000X0.667500X-0.070000X0.667500X-0.070000X-0.667500X0*%
%ADD37RoundRect,0.070000X0.667500X-0.070000X0.667500X0.070000X-0.667500X0.070000X-0.667500X-0.070000X0*%
%ADD38RoundRect,0.237500X-0.372900X0.002866X0.067576X-0.366737X0.372900X-0.002866X-0.067576X0.366737X0*%
%ADD39RoundRect,0.500000X1.470460X-0.581159X-0.827673X1.347204X-1.470460X0.581159X0.827673X-1.347204X0*%
%ADD40C,4.500000*%
G04 APERTURE END LIST*
D10*
X178930000Y-133100000D03*
X173850000Y-133100000D03*
X168770000Y-133100000D03*
D11*
X160075000Y-138730000D03*
X167525000Y-138730000D03*
D12*
X166850000Y-138030000D03*
X166200000Y-138730000D03*
X165400000Y-138730000D03*
X165000000Y-138030000D03*
X164600000Y-138730000D03*
X164200000Y-138030000D03*
X163400000Y-138030000D03*
X163000000Y-138730000D03*
X162600000Y-138030000D03*
X162200000Y-138730000D03*
X161400000Y-138730000D03*
X160750000Y-138030000D03*
D13*
X159300000Y-137080000D03*
D14*
X159300000Y-142830000D03*
D15*
X159750000Y-137630000D03*
X167850000Y-137630000D03*
D13*
X168300000Y-137080000D03*
D14*
X168300000Y-142830000D03*
D16*
X119600000Y-98560000D03*
D17*
X119600000Y-101100000D03*
D16*
X119600000Y-103640000D03*
X122775000Y-98560000D03*
X122775000Y-103640000D03*
D17*
X124680000Y-100084000D03*
X124680000Y-102116000D03*
X142332000Y-127508000D03*
X147412000Y-126492000D03*
X147412000Y-128524000D03*
D18*
X119975000Y-69975000D03*
D19*
X154000000Y-134000000D03*
D18*
X119975000Y-140075000D03*
X179975000Y-140125000D03*
D20*
X160775000Y-68375000D03*
D21*
X160775000Y-70915000D03*
X158235000Y-68375000D03*
X158235000Y-70915000D03*
X155695000Y-68375000D03*
X155695000Y-70915000D03*
X153155000Y-68375000D03*
X153155000Y-70915000D03*
X150615000Y-68375000D03*
X150615000Y-70915000D03*
X148075000Y-68375000D03*
X148075000Y-70915000D03*
X145535000Y-68375000D03*
X145535000Y-70915000D03*
X142995000Y-68375000D03*
X142995000Y-70915000D03*
X140455000Y-68375000D03*
X140455000Y-70915000D03*
X137915000Y-68375000D03*
X137915000Y-70915000D03*
X135375000Y-68375000D03*
X135375000Y-70915000D03*
X132835000Y-68375000D03*
X132835000Y-70915000D03*
X130295000Y-68375000D03*
X130295000Y-70915000D03*
X127755000Y-68375000D03*
X127755000Y-70915000D03*
X125215000Y-68375000D03*
X125215000Y-70915000D03*
D18*
X179975000Y-70175000D03*
D22*
X122575000Y-116637500D03*
X122575000Y-115062500D03*
D23*
X176500000Y-95500000D03*
X164000000Y-86000000D03*
X141000000Y-113500000D03*
X138000000Y-86000000D03*
D24*
X144200000Y-123200000D03*
X142625000Y-123200000D03*
D22*
X119200000Y-130287500D03*
X119200000Y-128712500D03*
D25*
X173900000Y-137525000D03*
X173900000Y-139075000D03*
D26*
X141400000Y-130012500D03*
X141400000Y-131587500D03*
D27*
X136400000Y-110400000D03*
X133600000Y-110400000D03*
D22*
X120650000Y-119887500D03*
X120650000Y-118312500D03*
D24*
X135762500Y-116525000D03*
X134187500Y-116525000D03*
X135287500Y-136300000D03*
X133712500Y-136300000D03*
D22*
X136800000Y-137937500D03*
X136800000Y-136362500D03*
X162600000Y-142137500D03*
X162600000Y-140562500D03*
X164200000Y-142122500D03*
X164200000Y-140547500D03*
D28*
X162635000Y-136700000D03*
X161665000Y-136700000D03*
D29*
X167715000Y-139900000D03*
X168685000Y-139900000D03*
D22*
X120700000Y-130887500D03*
X120700000Y-129312500D03*
D26*
X165800000Y-140572500D03*
X165800000Y-142147500D03*
D30*
X126700000Y-111150000D03*
X126700000Y-109150000D03*
D31*
X125000000Y-140000000D03*
X122000000Y-75000000D03*
X181000000Y-75000000D03*
D32*
X165720000Y-133400000D03*
X162420000Y-133400000D03*
D33*
X172125000Y-137850000D03*
X170075000Y-137850000D03*
D34*
X119250000Y-132835000D03*
X119250000Y-131865000D03*
X119450000Y-127085000D03*
X119450000Y-126115000D03*
D35*
X141160000Y-119400000D03*
X143960000Y-119400000D03*
D26*
X161000000Y-140562500D03*
X161000000Y-142137500D03*
D22*
X119100000Y-119887500D03*
X119100000Y-118312500D03*
D36*
X136825000Y-133687500D03*
X136325000Y-133687500D03*
X135825000Y-133687500D03*
X135325000Y-133687500D03*
X134825000Y-133687500D03*
X134325000Y-133687500D03*
X133825000Y-133687500D03*
X133325000Y-133687500D03*
X132825000Y-133687500D03*
X132325000Y-133687500D03*
X131825000Y-133687500D03*
X131325000Y-133687500D03*
X130825000Y-133687500D03*
X130325000Y-133687500D03*
X129825000Y-133687500D03*
X129325000Y-133687500D03*
X128825000Y-133687500D03*
X128325000Y-133687500D03*
X127825000Y-133687500D03*
X127325000Y-133687500D03*
X126825000Y-133687500D03*
X126325000Y-133687500D03*
X125825000Y-133687500D03*
X125325000Y-133687500D03*
X124825000Y-133687500D03*
D37*
X123162500Y-132025000D03*
X123162500Y-131525000D03*
X123162500Y-131025000D03*
X123162500Y-130525000D03*
X123162500Y-130025000D03*
X123162500Y-129525000D03*
X123162500Y-129025000D03*
X123162500Y-128525000D03*
X123162500Y-128025000D03*
X123162500Y-127525000D03*
X123162500Y-127025000D03*
X123162500Y-126525000D03*
X123162500Y-126025000D03*
X123162500Y-125525000D03*
X123162500Y-125025000D03*
X123162500Y-124525000D03*
X123162500Y-124025000D03*
X123162500Y-123525000D03*
X123162500Y-123025000D03*
X123162500Y-122525000D03*
X123162500Y-122025000D03*
X123162500Y-121525000D03*
X123162500Y-121025000D03*
X123162500Y-120525000D03*
X123162500Y-120025000D03*
D36*
X124825000Y-118362500D03*
X125325000Y-118362500D03*
X125825000Y-118362500D03*
X126325000Y-118362500D03*
X126825000Y-118362500D03*
X127325000Y-118362500D03*
X127825000Y-118362500D03*
X128325000Y-118362500D03*
X128825000Y-118362500D03*
X129325000Y-118362500D03*
X129825000Y-118362500D03*
X130325000Y-118362500D03*
X130825000Y-118362500D03*
X131325000Y-118362500D03*
X131825000Y-118362500D03*
X132325000Y-118362500D03*
X132825000Y-118362500D03*
X133325000Y-118362500D03*
X133825000Y-118362500D03*
X134325000Y-118362500D03*
X134825000Y-118362500D03*
X135325000Y-118362500D03*
X135825000Y-118362500D03*
X136325000Y-118362500D03*
X136825000Y-118362500D03*
D37*
X138487500Y-120025000D03*
X138487500Y-120525000D03*
X138487500Y-121025000D03*
X138487500Y-121525000D03*
X138487500Y-122025000D03*
X138487500Y-122525000D03*
X138487500Y-123025000D03*
X138487500Y-123525000D03*
X138487500Y-124025000D03*
X138487500Y-124525000D03*
X138487500Y-125025000D03*
X138487500Y-125525000D03*
X138487500Y-126025000D03*
X138487500Y-126525000D03*
X138487500Y-127025000D03*
X138487500Y-127525000D03*
X138487500Y-128025000D03*
X138487500Y-128525000D03*
X138487500Y-129025000D03*
X138487500Y-129525000D03*
X138487500Y-130025000D03*
X138487500Y-130525000D03*
X138487500Y-131025000D03*
X138487500Y-131525000D03*
X138487500Y-132025000D03*
D38*
X169149711Y-75532561D03*
X170490289Y-76657439D03*
D39*
X176782498Y-79316677D03*
X165521644Y-69867699D03*
D31*
X145000000Y-131000000D03*
X145000000Y-127500000D03*
D40*
X156700000Y-124450000D03*
X156700000Y-124450000D03*
D31*
X150000000Y-124000000D03*
X150000000Y-127500000D03*
D40*
X145400000Y-115450000D03*
X145400000Y-115450000D03*
M02*
