M48
; DRILL file {KiCad 8.0.4+dfsg-1} date 2024-08-05T10:13:47-0400
; FORMAT={-:-/ absolute / inch / decimal}
; #@! TF.CreationDate,2024-08-05T10:13:47-04:00
; #@! TF.GenerationSoftware,Kicad,Pcbnew,8.0.4+dfsg-1
; #@! TF.FileFunction,Plated,1,4,PTH
FMAT,2
INCH
; #@! TA.AperFunction,Plated,PTH,ViaDrill
T1C0.0118
; #@! TA.AperFunction,Plated,PTH,ComponentDrill
T2C0.0157
; #@! TA.AperFunction,Plated,PTH,ComponentDrill
T3C0.0197
; #@! TA.AperFunction,Plated,PTH,ComponentDrill
T4C0.0236
; #@! TA.AperFunction,Plated,PTH,ComponentDrill
T5C0.0394
; #@! TA.AperFunction,Plated,PTH,ComponentDrill
T6C0.0472
; #@! TA.AperFunction,Plated,PTH,ComponentDrill
T7C0.0984
; #@! TA.AperFunction,Plated,PTH,ComponentDrill
T8C0.1063
; #@! TA.AperFunction,Plated,PTH,ComponentDrill
T9C0.1260
; #@! TA.AperFunction,Plated,PTH,ComponentDrill
T10C0.1469
%
G90
G05
T1
X4.6457Y-3.9488
X4.6457Y-5.1378
X4.6614Y-5.0276
X4.6738Y-4.9516
X4.7617Y-4.9547
X4.7697Y-4.8843
X4.7722Y-5.0372
X4.7731Y-4.8518
X4.7736Y-3.9173
X4.7845Y-4.8229
X4.785Y-3.9851
X4.7855Y-4.0291
X4.7883Y-5.1852
X4.7913Y-5.101
X4.7923Y-4.9033
X4.7951Y-5.0559
X4.7953Y-4.9833
X4.8041Y-4.6467
X4.8067Y-4.803
X4.8307Y-4.5
X4.8346Y-3.9847
X4.865Y-5.3555
X4.8709Y-4.5451
X4.9217Y-4.5228
X4.9315Y-4.9374
X4.9344Y-5.1386
X4.937Y-4.8189
X4.9398Y-4.9893
X4.9409Y-3.8976
X4.9414Y-5.0215
X4.9449Y-5.0748
X4.9528Y-5.6575
X4.9606Y-5.3445
X4.9744Y-4.8642
X4.9818Y-5.1827
X4.99Y-5.36
X5.02Y-5.39
X5.0354Y-4.7087
X5.0376Y-4.7736
X5.0433Y-5.2126
X5.0448Y-5.1417
X5.0453Y-4.8839
X5.0472Y-4.5433
X5.0472Y-5.0571
X5.0512Y-4.9961
X5.0551Y-4.252
X5.0575Y-4.9643
X5.0628Y-4.9218
X5.0689Y-5.0784
X5.0827Y-5.1944
X5.0925Y-4.8312
X5.0925Y-4.8819
X5.0984Y-4.4173
X5.1147Y-5.1945
X5.1181Y-5.3543
X5.123Y-4.7656
X5.1403Y-4.739
X5.1535Y-4.7126
X5.1598Y-4.5755
X5.1612Y-4.9833
X5.164Y-4.5322
X5.1665Y-5.0728
X5.1704Y-5.1311
X5.1732Y-4.3465
X5.1732Y-4.3465
X5.178Y-4.5988
X5.189Y-4.5551
X5.189Y-5.3307
X5.1929Y-2.9803
X5.2087Y-2.8976
X5.2283Y-3.0534
X5.2283Y-5.2165
X5.2326Y-3.0185
X5.24Y-5.31
X5.2402Y-2.9803
X5.2441Y-5.5866
X5.2808Y-4.9141
X5.2851Y-5.0901
X5.2916Y-5.2193
X5.3031Y-4.4094
X5.3204Y-5.3204
X5.3307Y-4.5482
X5.3319Y-5.4336
X5.3346Y-4.9094
X5.3425Y-4.9764
X5.3484Y-4.4824
X5.3528Y-4.7275
X5.3534Y-5.0197
X5.3561Y-4.7734
X5.3689Y-4.8821
X5.3701Y-3.5748
X5.3708Y-5.0434
X5.3729Y-4.9896
X5.3823Y-4.8558
X5.3882Y-4.8026
X5.3941Y-4.9241
X5.4291Y-5.2953
X5.4407Y-5.4523
X5.484Y-4.6434
X5.488Y-5.2034
X5.499Y-5.176
X5.499Y-4.8819
X5.5039Y-5.0237
X5.5039Y-4.8386
X5.5079Y-4.7244
X5.5138Y-4.9803
X5.5152Y-4.685
X5.5327Y-4.8727
X5.5342Y-4.9553
X5.5433Y-5.0748
X5.5512Y-5.4094
X5.5551Y-5.6181
X5.5584Y-5.2185
X5.5798Y-2.9301
X5.5827Y-5.5315
X5.5896Y-4.6289
X5.5967Y-5.2067
X5.6082Y-5.0606
X5.6142Y-4.6929
X5.6265Y-4.8047
X5.6299Y-5.6299
X5.6339Y-5.2323
X5.6457Y-4.8976
X5.6457Y-5.4843
X5.6473Y-5.0827
X5.6693Y-5.2441
X5.694Y-5.2806
X5.6957Y-5.3807
X5.7047Y-4.6693
X5.7047Y-5.3307
X5.7087Y-4.7756
X5.7087Y-5.1575
X5.7087Y-5.6398
X5.7104Y-5.0969
X5.711Y-4.9088
X5.7483Y-4.9304
X5.8031Y-4.9173
X5.8661Y-5.2874
X6.0Y-5.5
X6.3622Y-5.3386
X6.378Y-5.5827
X6.433Y-5.3426
X6.4331Y-5.563
X6.4882Y-2.8031
X6.624Y-2.9528
X6.6339Y-3.0807
X6.672Y-5.3875
X6.6804Y-3.1549
X6.7978Y-3.4269
X6.9193Y-3.1791
X6.9783Y-3.3366
T2
X6.3287Y-5.4343
X6.3543Y-5.4618
X6.3858Y-5.4618
X6.4016Y-5.4343
X6.4173Y-5.4618
X6.4331Y-5.4343
X6.4646Y-5.4343
X6.4803Y-5.4618
X6.4961Y-5.4343
X6.5118Y-5.4618
X6.5433Y-5.4618
X6.5689Y-5.4343
T3
X6.2894Y-5.4185
X6.6083Y-5.4185
T4
X6.2717Y-5.3969
X6.626Y-5.3969
T5
X4.9297Y-2.6919
X4.9297Y-2.7919
X5.0297Y-2.6919
X5.0297Y-2.7919
X5.1297Y-2.6919
X5.1297Y-2.7919
X5.2297Y-2.6919
X5.2297Y-2.7919
X5.3297Y-2.6919
X5.3297Y-2.7919
X5.4297Y-2.6919
X5.4297Y-2.7919
X5.5297Y-2.6919
X5.5297Y-2.7919
X5.6297Y-2.6919
X5.6297Y-2.7919
X5.7297Y-2.6919
X5.7297Y-2.7919
X5.8297Y-2.6919
X5.8297Y-2.7919
X5.9297Y-2.6919
X5.9297Y-2.7919
X6.0297Y-2.6919
X6.0297Y-2.7919
X6.1297Y-2.6919
X6.1297Y-2.7919
X6.2297Y-2.6919
X6.2297Y-2.7919
X6.3297Y-2.6919
X6.3297Y-2.7919
T6
X6.6445Y-5.2402
X6.8445Y-5.2402
X7.0445Y-5.2402
T7
X5.7244Y-4.5453
X5.7244Y-4.5453
X6.1693Y-4.8996
X6.1693Y-4.8996
T8
X5.4331Y-3.3858
X5.5512Y-4.4685
X6.4567Y-3.3858
X6.9488Y-3.7598
T9
X4.7234Y-2.7549
X4.7234Y-5.5148
X7.0856Y-2.7628
X7.0856Y-5.5167
T10
X6.063Y-5.2756
T4
G00X6.2717Y-5.6055
M15
G01X6.2717Y-5.6409
M16
G05
G00X6.626Y-5.6055
M15
G01X6.626Y-5.6409
M16
G05
M30
